<?xml version="1.0" encoding="UTF-8" standalone="no"?>
<!DOCTYPE svg PUBLIC "-//W3C//DTD SVG 1.0//EN"
 "http://www.w3.org/TR/2001/REC-SVG-20010904/DTD/svg10.dtd">
<!-- Generated by circo version 2.2 (Tue Sep 13 00:37:56 UTC 2005)
     For user: (archie) Archie Cobbs   Title: modules    Pages: 1 -->
<svg width="804pt" height="739pt"
 viewBox = "-1 -1 803 738"
 xmlns="http://www.w3.org/2000/svg">
<g id="graph0" class="graph" transform = "scale(0.213305)"
 style="font-family:Times-Roman;font-size:14.00;">
<title>modules</title>
<g id="node3" class="node"><title>org.testng/testng</title>
<ellipse cx="1772" cy="1694" rx="30" ry="18" style="fill:#bd3eff;stroke:black;"/>
<text text-anchor="middle" x="1772" y="1699">testng</text>
</g>
<g id="node6" class="node"><title>org.codehaus.jaxen/jaxen</title>
<ellipse cx="35" cy="1288" rx="29" ry="18" style="fill:#97f6ff;stroke:black;"/>
<text text-anchor="middle" x="35" y="1293">jaxen</text>
</g>
<g id="node9" class="node"><title>com.puppycrawl/checkstyle</title>
<ellipse cx="2258" cy="180" rx="42" ry="18" style="fill:gold;stroke:black;"/>
<text text-anchor="middle" x="2258" y="185">checkstyle</text>
</g>
<g id="node11" class="node"><title>org.antlr/antlr</title>
<ellipse cx="2800" cy="284" rx="27" ry="18" style="fill:gold;stroke:black;"/>
<text text-anchor="middle" x="2800" y="289">antlr</text>
</g>
<g id="edge8" class="edge"><title>com.puppycrawl/checkstyle&#45;&gt;org.antlr/antlr</title>
<path style="fill:none;stroke:black;" d="M2297,187C2397,206 2666,258 2764,277"/>
<polygon style="fill:black;stroke:black;" points="2765,274 2774,279 2764,280 2765,274"/>
<text text-anchor="middle" x="2535" y="248">2.7+</text>
</g>
<g id="node13" class="node"><title>org.apache.commons/commons&#45;cli</title>
<ellipse cx="2250" cy="59" rx="49" ry="18" style="fill:gold;stroke:black;"/>
<text text-anchor="middle" x="2250" y="64">commons&#45;cli</text>
</g>
<g id="edge10" class="edge"><title>com.puppycrawl/checkstyle&#45;&gt;org.apache.commons/commons&#45;cli</title>
<path style="fill:none;stroke:black;" d="M2257,162C2256,142 2254,110 2252,87"/>
<polygon style="fill:black;stroke:black;" points="2249,87 2251,77 2255,87 2249,87"/>
<text text-anchor="middle" x="2229" y="125">[1.1,2.0[</text>
</g>
<g id="node15" class="node"><title>org.apache.commons/commons&#45;collections</title>
<ellipse cx="2535" cy="198" rx="73" ry="18" style="fill:gold;stroke:black;"/>
<text text-anchor="middle" x="2535" y="203">commons&#45;collections</text>
</g>
<g id="edge12" class="edge"><title>com.puppycrawl/checkstyle&#45;&gt;org.apache.commons/commons&#45;collections</title>
<path style="fill:none;stroke:black;" d="M2300,183C2340,186 2403,189 2454,193"/>
<polygon style="fill:black;stroke:black;" points="2454,190 2464,194 2454,196 2454,190"/>
<text text-anchor="middle" x="2381" y="203">2.1+</text>
</g>
<g id="node17" class="node"><title>org.apache.commons/commons&#45;logging</title>
<ellipse cx="1518" cy="527" rx="64" ry="18" style="fill:gold;stroke:black;"/>
<text text-anchor="middle" x="1518" y="532">commons&#45;logging</text>
</g>
<g id="edge14" class="edge"><title>com.puppycrawl/checkstyle&#45;&gt;org.apache.commons/commons&#45;logging</title>
<path style="fill:none;stroke:black;" d="M2229,193C2116,247 1695,443 1560,508"/>
<polygon style="fill:black;stroke:black;" points="1562,511 1551,512 1559,505 1562,511"/>
<text text-anchor="middle" x="1889" y="370">1+</text>
</g>
<g id="node19" class="node"><title>org.apache.commons/commons&#45;beanutils</title>
<ellipse cx="1984" cy="232" rx="68" ry="18" style="fill:gold;stroke:black;"/>
<text text-anchor="middle" x="1984" y="237">commons&#45;beanutils</text>
</g>
<g id="edge16" class="edge"><title>com.puppycrawl/checkstyle&#45;&gt;org.apache.commons/commons&#45;beanutils</title>
<path style="fill:none;stroke:black;" d="M2219,187C2175,195 2102,209 2050,220"/>
<polygon style="fill:black;stroke:black;" points="2050,223 2040,222 2049,217 2050,223"/>
<text text-anchor="middle" x="2128" y="220">1.7+</text>
</g>
<g id="edge172" class="edge"><title>org.apache.commons/commons&#45;beanutils&#45;&gt;org.apache.commons/commons&#45;collections</title>
<path style="fill:none;stroke:black;" d="M2050,228C2152,222 2344,210 2454,203"/>
<polygon style="fill:black;stroke:black;" points="2454,200 2464,202 2454,206 2454,200"/>
<text text-anchor="middle" x="2256" y="230">3.+</text>
</g>
<g id="edge170" class="edge"><title>org.apache.commons/commons&#45;beanutils&#45;&gt;org.apache.commons/commons&#45;logging</title>
<path style="fill:none;stroke:black;" d="M1958,249C1879,299 1642,449 1553,505"/>
<polygon style="fill:black;stroke:black;" points="1554,508 1544,510 1551,502 1554,508"/>
<text text-anchor="middle" x="1750" y="400">[1.0,2.0[</text>
</g>
<g id="node22" class="node"><title>org.apache.oro/oro</title>
<ellipse cx="3450" cy="844" rx="27" ry="18" style="fill:#cda87d;stroke:black;"/>
<text text-anchor="middle" x="3450" y="849">oro</text>
</g>
<g id="node25" class="node"><title>org.apache.xml/xalan&#45;j</title>
<ellipse cx="1720" cy="2733" rx="33" ry="18" style="fill:aquamarine;stroke:black;"/>
<text text-anchor="middle" x="1720" y="2738">xalan&#45;j</text>
</g>
<g id="node27" class="node"><title>org.apache.xerces/xerces</title>
<ellipse cx="1982" cy="2343" rx="31" ry="18" style="fill:aquamarine;stroke:black;"/>
<text text-anchor="middle" x="1982" y="2348">xerces</text>
</g>
<g id="edge22" class="edge"><title>org.apache.xml/xalan&#45;j&#45;&gt;org.apache.xerces/xerces</title>
<path style="fill:none;stroke:black;" d="M1731,2716C1773,2655 1915,2442 1965,2369"/>
<polygon style="fill:black;stroke:black;" points="1963,2366 1971,2360 1968,2370 1963,2366"/>
<text text-anchor="middle" x="1871" y="2543">2.7+</text>
</g>
<g id="node32" class="node"><title>org.dom4j/dom4j</title>
<ellipse cx="2255" cy="2396" rx="31" ry="18" style="fill:darkorange;stroke:black;"/>
<text text-anchor="middle" x="2255" y="2401">dom4j</text>
</g>
<g id="edge28" class="edge"><title>org.dom4j/dom4j&#45;&gt;org.apache.xerces/xerces</title>
<path style="fill:none;stroke:black;" d="M2226,2390C2176,2381 2077,2362 2022,2351"/>
<polygon style="fill:black;stroke:black;" points="2021,2354 2012,2349 2022,2348 2021,2354"/>
<text text-anchor="middle" x="2118" y="2385">[2.5,3.0[</text>
</g>
<g id="node36" class="node"><title>org.jboss/javassist</title>
<ellipse cx="2532" cy="3430" rx="37" ry="18" style="fill:#bd3eff;stroke:black;"/>
<text text-anchor="middle" x="2532" y="3435">javassist</text>
</g>
<g id="node39" class="node"><title>net.sourceforge.jsr107cache/jsr107cache</title>
<ellipse cx="1666" cy="2325" rx="47" ry="18" style="fill:#97f6ff;stroke:black;"/>
<text text-anchor="middle" x="1666" y="2330">jsr107cache</text>
</g>
<g id="node42" class="node"><title>org.mortbay/jetty</title>
<ellipse cx="373" cy="1596" rx="27" ry="18" style="fill:gold;stroke:black;"/>
<text text-anchor="middle" x="373" y="1601">jetty</text>
</g>
<g id="node45" class="node"><title>org.mozilla/rhino</title>
<ellipse cx="1889" cy="2859" rx="28" ry="18" style="fill:#cda87d;stroke:black;"/>
<text text-anchor="middle" x="1889" y="2864">rhino</text>
</g>
<g id="node48" class="node"><title>org.apache.xmlgraphics/batik</title>
<ellipse cx="1923" cy="2736" rx="27" ry="18" style="fill:aquamarine;stroke:black;"/>
<text text-anchor="middle" x="1923" y="2741">batik</text>
</g>
<g id="edge42" class="edge"><title>org.apache.xmlgraphics/batik&#45;&gt;org.apache.xerces/xerces</title>
<path style="fill:none;stroke:black;" d="M1926,2718C1935,2655 1966,2448 1977,2371"/>
<polygon style="fill:black;stroke:black;" points="1974,2370 1979,2361 1980,2371 1974,2370"/>
<text text-anchor="middle" x="1936" y="2546">2.5+</text>
</g>
<g id="edge40" class="edge"><title>org.apache.xmlgraphics/batik&#45;&gt;org.mozilla/rhino</title>
<path style="fill:none;stroke:black;" d="M1918,2754C1913,2774 1904,2808 1897,2831"/>
<polygon style="fill:black;stroke:black;" points="1900,2832 1894,2841 1894,2830 1900,2832"/>
<text text-anchor="middle" x="1919" y="2803">1.+</text>
</g>
<g id="node53" class="node"><title>com.opensymphony/oscache</title>
<ellipse cx="1354" cy="752" rx="35" ry="18" style="fill:cyan;stroke:black;"/>
<text text-anchor="middle" x="1354" y="757">oscache</text>
</g>
<g id="edge46" class="edge"><title>com.opensymphony/oscache&#45;&gt;org.apache.commons/commons&#45;logging</title>
<path style="fill:none;stroke:black;" d="M1366,735C1394,696 1465,600 1499,553"/>
<polygon style="fill:black;stroke:black;" points="1496,551 1505,545 1502,555 1496,551"/>
<text text-anchor="middle" x="1465" y="646">[1.1,2.0[</text>
</g>
<g id="node56" class="node"><title>org.jgroups/jgroups</title>
<ellipse cx="1251" cy="1011" rx="35" ry="18" style="fill:cyan;stroke:black;"/>
<text text-anchor="middle" x="1251" y="1016">jgroups</text>
</g>
<g id="edge48" class="edge"><title>com.opensymphony/oscache&#45;&gt;org.jgroups/jgroups</title>
<path style="fill:none;stroke:black;" d="M1347,770C1329,814 1283,931 1262,984"/>
<polygon style="fill:black;stroke:black;" points="1265,985 1258,993 1259,982 1265,985"/>
<text text-anchor="middle" x="1331" y="888">[2.2,3.0[</text>
</g>
<g id="edge156" class="edge"><title>org.jgroups/jgroups&#45;&gt;org.apache.commons/commons&#45;logging</title>
<path style="fill:none;stroke:black;" d="M1261,993C1302,921 1455,642 1503,554"/>
<polygon style="fill:black;stroke:black;" points="1500,552 1508,545 1506,555 1500,552"/>
<text text-anchor="middle" x="1402" y="776">1.1+</text>
</g>
<g id="node59" class="node"><title>net.sourceforge.gwt&#45;widget/gwt&#45;sl</title>
<ellipse cx="1896" cy="1446" rx="30" ry="18" style="fill:darkorange;stroke:black;"/>
<text text-anchor="middle" x="1896" y="1451">gwt&#45;sl</text>
</g>
<g id="node62" class="node"><title>com.mysql/mysql&#45;connector&#45;java</title>
<ellipse cx="2311" cy="1818" rx="73" ry="18" style="fill:#bd3eff;stroke:black;"/>
<text text-anchor="middle" x="2311" y="1823">mysql&#45;connector&#45;java</text>
</g>
<g id="node65" class="node"><title>org.aopalliance/aopalliance</title>
<ellipse cx="1353" cy="1822" rx="45" ry="18" style="fill:#97f6ff;stroke:black;"/>
<text text-anchor="middle" x="1353" y="1827">aopalliance</text>
</g>
<g id="node68" class="node"><title>javax.management/jmx</title>
<ellipse cx="3690" cy="468" rx="27" ry="18" style="fill:gold;stroke:black;"/>
<text text-anchor="middle" x="3690" y="473">jmx</text>
</g>
<g id="node70" class="node"><title>javax.management/jmxremote</title>
<ellipse cx="1910" cy="2066" rx="44" ry="18" style="fill:gold;stroke:black;"/>
<text text-anchor="middle" x="1910" y="2071">jmxremote</text>
</g>
<g id="node73" class="node"><title>javax.mail/javamail</title>
<ellipse cx="3527" cy="343" rx="38" ry="18" style="fill:#cda87d;stroke:black;"/>
<text text-anchor="middle" x="3527" y="348">javamail</text>
</g>
<g id="node75" class="node"><title>javax.activation/jaf</title>
<ellipse cx="3635" cy="258" rx="27" ry="18" style="fill:#cda87d;stroke:black;"/>
<text text-anchor="middle" x="3635" y="263">jaf</text>
</g>
<g id="edge61" class="edge"><title>javax.mail/javamail&#45;&gt;javax.activation/jaf</title>
<path style="fill:none;stroke:black;" d="M3547,327C3564,313 3590,293 3609,278"/>
<polygon style="fill:black;stroke:black;" points="3607,275 3617,272 3611,281 3607,275"/>
<text text-anchor="middle" x="3581" y="289">[1.1.1,2.0[</text>
</g>
<g id="node78" class="node"><title>org.hibernate/hibernate&#45;entitymanager</title>
<ellipse cx="3357" cy="1698" rx="82" ry="18" style="fill:aquamarine;stroke:black;"/>
<text text-anchor="middle" x="3357" y="1703">hibernate&#45;entitymanager</text>
</g>
<g id="node80" class="node"><title>org.hibernate/hibernate</title>
<ellipse cx="2533" cy="2378" rx="40" ry="18" style="fill:aquamarine;stroke:black;"/>
<text text-anchor="middle" x="2533" y="2383">hibernate</text>
</g>
<g id="edge65" class="edge"><title>org.hibernate/hibernate&#45;entitymanager&#45;&gt;org.hibernate/hibernate</title>
<path style="fill:none;stroke:black;" d="M3336,1715C3222,1809 2687,2251 2560,2356"/>
<polygon style="fill:black;stroke:black;" points="2562,2359 2552,2362 2558,2353 2562,2359"/>
<text text-anchor="middle" x="2944" y="2060">[3.2.0,4.0[</text>
</g>
<g id="node82" class="node"><title>org.hibernate/hibernate&#45;commons&#45;annotations</title>
<ellipse cx="3223" cy="1941" rx="103" ry="18" style="fill:aquamarine;stroke:black;"/>
<text text-anchor="middle" x="3223" y="1946">hibernate&#45;commons&#45;annotations</text>
</g>
<g id="edge67" class="edge"><title>org.hibernate/hibernate&#45;entitymanager&#45;&gt;org.hibernate/hibernate&#45;commons&#45;annotations</title>
<path style="fill:none;stroke:black;" d="M3347,1716C3324,1759 3266,1864 3238,1914"/>
<polygon style="fill:black;stroke:black;" points="3241,1916 3233,1923 3235,1913 3241,1916"/>
<text text-anchor="middle" x="3254" y="1826">[3.0.0,4.0[</text>
</g>
<g id="node84" class="node"><title>org.hibernate/hibernate&#45;annotations</title>
<ellipse cx="3032" cy="2144" rx="74" ry="18" style="fill:aquamarine;stroke:black;"/>
<text text-anchor="middle" x="3032" y="2149">hibernate&#45;annotations</text>
</g>
<g id="edge69" class="edge"><title>org.hibernate/hibernate&#45;entitymanager&#45;&gt;org.hibernate/hibernate&#45;annotations</title>
<path style="fill:none;stroke:black;" d="M3347,1716C3304,1785 3121,2036 3055,2118"/>
<polygon style="fill:black;stroke:black;" points="3057,2121 3048,2126 3052,2116 3057,2121"/>
<text text-anchor="middle" x="3237" y="1929">[3.3.1,4.0[</text>
</g>
<g id="node86" class="node"><title>org.hibernate/hibernate&#45;validator</title>
<ellipse cx="2797" cy="2293" rx="66" ry="18" style="fill:aquamarine;stroke:black;"/>
<text text-anchor="middle" x="2797" y="2298">hibernate&#45;validator</text>
</g>
<g id="edge71" class="edge"><title>org.hibernate/hibernate&#45;entitymanager&#45;&gt;org.hibernate/hibernate&#45;validator</title>
<path style="fill:none;stroke:black;" d="M3344,1716C3271,1801 2924,2170 2824,2269"/>
<polygon style="fill:black;stroke:black;" points="2827,2271 2817,2276 2822,2266 2827,2271"/>
<text text-anchor="middle" x="3121" y="2005">[3.0.0,4.0[</text>
</g>
<g id="edge98" class="edge"><title>org.hibernate/hibernate&#45;&gt;org.codehaus.jaxen/jaxen</title>
<path style="fill:none;stroke:black;" d="M2504,2365C2246,2252 344,1423 68,1302"/>
<polygon style="fill:black;stroke:black;" points="67,1305 59,1298 70,1299 67,1305"/>
<text text-anchor="middle" x="1281" y="1849">[1.1,1.2[</text>
</g>
<g id="edge92" class="edge"><title>org.hibernate/hibernate&#45;&gt;org.antlr/antlr</title>
<path style="fill:none;stroke:black;" d="M2535,2360C2560,2170 2766,546 2797,312"/>
<polygon style="fill:black;stroke:black;" points="2794,312 2798,302 2800,312 2794,312"/>
<text text-anchor="middle" x="2634" y="1336">[2.7.6,2.8[</text>
</g>
<g id="edge79" class="edge"><title>org.hibernate/hibernate&#45;&gt;org.apache.commons/commons&#45;collections</title>
<path style="fill:none;stroke:black;" d="M2533,2360C2533,2165 2535,467 2535,226"/>
<polygon style="fill:black;stroke:black;" points="2532,226 2535,216 2539,226 2532,226"/>
<text text-anchor="middle" x="2564" y="1293">[2.1.1,3.0[</text>
</g>
<g id="edge81" class="edge"><title>org.hibernate/hibernate&#45;&gt;org.apache.commons/commons&#45;logging</title>
<path style="fill:none;stroke:black;" d="M2523,2360C2426,2186 1650,768 1533,554"/>
<polygon style="fill:black;stroke:black;" points="1530,555 1528,545 1536,552 1530,555"/>
<text text-anchor="middle" x="1991" y="1459">[1.0.4,1.2[</text>
</g>
<g id="edge85" class="edge"><title>org.hibernate/hibernate&#45;&gt;org.apache.xerces/xerces</title>
<path style="fill:none;stroke:black;" d="M2493,2375C2393,2368 2126,2352 2023,2346"/>
<polygon style="fill:black;stroke:black;" points="2023,2349 2013,2345 2023,2343 2023,2349"/>
<text text-anchor="middle" x="2252" y="2374">[2.5,3.0[</text>
</g>
<g id="edge83" class="edge"><title>org.hibernate/hibernate&#45;&gt;org.dom4j/dom4j</title>
<path style="fill:none;stroke:black;" d="M2493,2381C2441,2385 2349,2390 2296,2393"/>
<polygon style="fill:black;stroke:black;" points="2296,2396 2286,2394 2296,2390 2296,2396"/>
<text text-anchor="middle" x="2388" y="2402">1.6.1</text>
</g>
<g id="edge96" class="edge"><title>org.hibernate/hibernate&#45;&gt;org.jboss/javassist</title>
<path style="fill:none;stroke:black;" d="M2533,2396C2533,2521 2532,3249 2532,3402"/>
<polygon style="fill:black;stroke:black;" points="2536,3402 2532,3412 2529,3402 2536,3402"/>
<text text-anchor="middle" x="2506" y="2909">[3.4,4.0[</text>
</g>
<g id="edge104" class="edge"><title>org.hibernate/hibernate&#45;&gt;com.opensymphony/oscache</title>
<path style="fill:none;stroke:black;" d="M2521,2361C2405,2201 1512,969 1372,777"/>
<polygon style="fill:black;stroke:black;" points="1369,779 1366,769 1375,775 1369,779"/>
<text text-anchor="middle" x="1912" y="1570">[2.1,3.0[</text>
</g>
<g id="edge106" class="edge"><title>org.hibernate/hibernate&#45;&gt;org.jgroups/jgroups</title>
<path style="fill:none;stroke:black;" d="M2517,2361C2383,2218 1432,1204 1273,1034"/>
<polygon style="fill:black;stroke:black;" points="1271,1037 1266,1027 1276,1032 1271,1037"/>
<text text-anchor="middle" x="1852" y="1699">[2.2.8,3.0[</text>
</g>
<g id="node90" class="node"><title>net.sourceforge.ehcache/ehcache</title>
<ellipse cx="1730" cy="2224" rx="36" ry="18" style="fill:aquamarine;stroke:black;"/>
<text text-anchor="middle" x="1730" y="2229">ehcache</text>
</g>
<g id="edge75" class="edge"><title>org.hibernate/hibernate&#45;&gt;net.sourceforge.ehcache/ehcache</title>
<path style="fill:none;stroke:black;" d="M2496,2371C2364,2346 1916,2259 1774,2232"/>
<polygon style="fill:black;stroke:black;" points="1773,2235 1764,2230 1774,2229 1773,2235"/>
<text text-anchor="middle" x="2130" y="2316">1.2.3</text>
</g>
<g id="node92" class="node"><title>javax.transaction/jta</title>
<ellipse cx="2667" cy="3413" rx="27" ry="18" style="fill:aquamarine;stroke:black;"/>
<text text-anchor="middle" x="2667" y="3418">jta</text>
</g>
<g id="edge77" class="edge"><title>org.hibernate/hibernate&#45;&gt;javax.transaction/jta</title>
<path style="fill:none;stroke:black;" d="M2535,2396C2551,2520 2643,3233 2664,3385"/>
<polygon style="fill:black;stroke:black;" points="2667,3385 2665,3395 2661,3385 2667,3385"/>
<text text-anchor="middle" x="2588" y="2902">1.1</text>
</g>
<g id="node99" class="node"><title>net.sourceforge.cglib/cglib</title>
<ellipse cx="3427" cy="1428" rx="27" ry="18" style="fill:aquamarine;stroke:black;"/>
<text text-anchor="middle" x="3427" y="1433">cglib</text>
</g>
<g id="edge88" class="edge"><title>org.hibernate/hibernate&#45;&gt;net.sourceforge.cglib/cglib</title>
<path style="fill:none;stroke:black;" d="M2549,2361C2657,2246 3281,1584 3405,1451"/>
<polygon style="fill:black;stroke:black;" points="3403,1448 3412,1443 3408,1453 3403,1448"/>
<text text-anchor="middle" x="3007" y="1908">2.1.3+</text>
</g>
<g id="node101" class="node"><title>org.apache.log4j/log4j</title>
<ellipse cx="3225" cy="637" rx="27" ry="18" style="fill:aquamarine;stroke:black;"/>
<text text-anchor="middle" x="3225" y="642">log4j</text>
</g>
<g id="edge90" class="edge"><title>org.hibernate/hibernate&#45;&gt;org.apache.log4j/log4j</title>
<path style="fill:none;stroke:black;" d="M2540,2360C2607,2192 3132,871 3214,664"/>
<polygon style="fill:black;stroke:black;" points="3211,663 3218,655 3217,666 3211,663"/>
<text text-anchor="middle" x="2850" y="1513">[1.2,1.3[</text>
</g>
<g id="node104" class="node"><title>net.sourceforge.c3p0/c3p0</title>
<ellipse cx="2791" cy="3389" rx="27" ry="18" style="fill:aquamarine;stroke:black;"/>
<text text-anchor="middle" x="2791" y="3394">c3p0</text>
</g>
<g id="edge94" class="edge"><title>org.hibernate/hibernate&#45;&gt;net.sourceforge.c3p0/c3p0</title>
<path style="fill:none;stroke:black;" d="M2538,2396C2568,2517 2746,3212 2783,3361"/>
<polygon style="fill:black;stroke:black;" points="2786,3360 2786,3371 2780,3362 2786,3360"/>
<text text-anchor="middle" x="2629" y="2889">[0.9.1,2.0[</text>
</g>
<g id="node108" class="node"><title>net.sourceforge.proxool/proxool</title>
<ellipse cx="2921" cy="3356" rx="35" ry="18" style="fill:aquamarine;stroke:black;"/>
<text text-anchor="middle" x="2921" y="3361">proxool</text>
</g>
<g id="edge100" class="edge"><title>org.hibernate/hibernate&#45;&gt;net.sourceforge.proxool/proxool</title>
<path style="fill:none;stroke:black;" d="M2540,2396C2587,2514 2853,3185 2910,3329"/>
<polygon style="fill:black;stroke:black;" points="2913,3327 2914,3338 2907,3330 2913,3327"/>
<text text-anchor="middle" x="2693" y="2872">[0.8.3,1.1[</text>
</g>
<g id="node110" class="node"><title>net.sourceforge.swarmcache/swarmcache</title>
<ellipse cx="1216" cy="1287" rx="47" ry="18" style="fill:aquamarine;stroke:black;"/>
<text text-anchor="middle" x="1216" y="1292">swarmcache</text>
</g>
<g id="edge102" class="edge"><title>org.hibernate/hibernate&#45;&gt;net.sourceforge.swarmcache/swarmcache</title>
<path style="fill:none;stroke:black;" d="M2514,2362C2367,2240 1418,1454 1244,1309"/>
<polygon style="fill:black;stroke:black;" points="1242,1312 1236,1303 1246,1306 1242,1312"/>
<text text-anchor="middle" x="1875" y="1854">[1.0RC2,2.0[</text>
</g>
<g id="edge121" class="edge"><title>org.hibernate/hibernate&#45;annotations&#45;&gt;org.hibernate/hibernate&#45;entitymanager</title>
<path style="fill:none;stroke:black;" d="M3042,2126C3086,2056 3269,1805 3335,1724"/>
<polygon style="fill:black;stroke:black;" points="3332,1722 3341,1716 3338,1726 3332,1722"/>
<text text-anchor="middle" x="3150" y="1924">[3.3.2,4.0[</text>
</g>
<g id="edge117" class="edge"><title>org.hibernate/hibernate&#45;annotations&#45;&gt;org.hibernate/hibernate</title>
<path style="fill:none;stroke:black;" d="M2998,2160C2907,2202 2663,2317 2570,2361"/>
<polygon style="fill:black;stroke:black;" points="2572,2364 2561,2365 2569,2358 2572,2364"/>
<text text-anchor="middle" x="2778" y="2255">[3.2.0,4.0[</text>
</g>
<g id="edge119" class="edge"><title>org.hibernate/hibernate&#45;annotations&#45;&gt;org.hibernate/hibernate&#45;commons&#45;annotations</title>
<path style="fill:none;stroke:black;" d="M3049,2126C3083,2090 3160,2008 3199,1966"/>
<polygon style="fill:black;stroke:black;" points="3196,1964 3206,1959 3201,1969 3196,1964"/>
<text text-anchor="middle" x="3087" y="2049">[3.0.0,4.0[</text>
</g>
<g id="edge123" class="edge"><title>org.hibernate/hibernate&#45;annotations&#45;&gt;org.hibernate/hibernate&#45;validator</title>
<path style="fill:none;stroke:black;" d="M3005,2161C2962,2188 2879,2241 2832,2271"/>
<polygon style="fill:black;stroke:black;" points="2833,2274 2823,2276 2830,2268 2833,2274"/>
<text text-anchor="middle" x="2913" y="2210">[3.0.0,4.0[</text>
</g>
<g id="edge113" class="edge"><title>org.hibernate/hibernate&#45;validator&#45;&gt;org.hibernate/hibernate&#45;entitymanager</title>
<path style="fill:none;stroke:black;" d="M2811,2275C2884,2189 3230,1821 3330,1722"/>
<polygon style="fill:black;stroke:black;" points="3327,1720 3337,1715 3332,1725 3327,1720"/>
<text text-anchor="middle" x="3032" y="1997">[3.3.2,4.0[</text>
</g>
<g id="edge109" class="edge"><title>org.hibernate/hibernate&#45;validator&#45;&gt;org.hibernate/hibernate</title>
<path style="fill:none;stroke:black;" d="M2754,2307C2705,2323 2624,2348 2576,2365"/>
<polygon style="fill:black;stroke:black;" points="2577,2368 2566,2368 2575,2362 2577,2368"/>
<text text-anchor="middle" x="2660" y="2354">[3.2.0,4.0[</text>
</g>
<g id="edge111" class="edge"><title>org.hibernate/hibernate&#45;validator&#45;&gt;org.hibernate/hibernate&#45;commons&#45;annotations</title>
<path style="fill:none;stroke:black;" d="M2818,2276C2888,2218 3112,2032 3193,1965"/>
<polygon style="fill:black;stroke:black;" points="3191,1962 3201,1959 3195,1968 3191,1962"/>
<text text-anchor="middle" x="3008" y="2140">[3.0.0,4.0[</text>
</g>
<g id="edge236" class="edge"><title>net.sourceforge.ehcache/ehcache&#45;&gt;org.apache.commons/commons&#45;collections</title>
<path style="fill:none;stroke:black;" d="M1737,2206C1810,2022 2434,453 2524,226"/>
<polygon style="fill:black;stroke:black;" points="2521,224 2528,216 2528,227 2521,224"/>
<text text-anchor="middle" x="2114" y="1217">2.1.1</text>
</g>
<g id="edge234" class="edge"><title>net.sourceforge.ehcache/ehcache&#45;&gt;org.apache.commons/commons&#45;logging</title>
<path style="fill:none;stroke:black;" d="M1728,2206C1706,2038 1548,762 1521,555"/>
<polygon style="fill:black;stroke:black;" points="1518,555 1520,545 1524,555 1518,555"/>
<text text-anchor="middle" x="1608" y="1381">1.1+</text>
</g>
<g id="edge238" class="edge"><title>net.sourceforge.ehcache/ehcache&#45;&gt;org.apache.xerces/xerces</title>
<path style="fill:none;stroke:black;" d="M1756,2237C1802,2259 1897,2303 1949,2328"/>
<polygon style="fill:black;stroke:black;" points="1950,2325 1958,2332 1947,2331 1950,2325"/>
<text text-anchor="middle" x="1857" y="2303">2.5.0</text>
</g>
<g id="edge241" class="edge"><title>net.sourceforge.ehcache/ehcache&#45;&gt;net.sourceforge.jsr107cache/jsr107cache</title>
<path style="fill:none;stroke:black;" d="M1719,2242C1710,2257 1694,2281 1683,2298"/>
<polygon style="fill:black;stroke:black;" points="1685,2301 1677,2307 1680,2297 1685,2301"/>
<text text-anchor="middle" x="1717" y="2280">1.0+</text>
</g>
<g id="node159" class="node"><title>org.objectweb.asm/asm</title>
<ellipse cx="3427" cy="1150" rx="27" ry="18" style="fill:cyan;stroke:black;"/>
<text text-anchor="middle" x="3427" y="1155">asm</text>
</g>
<g id="edge230" class="edge"><title>net.sourceforge.cglib/cglib&#45;&gt;org.objectweb.asm/asm</title>
<path style="fill:none;stroke:black;" d="M3427,1410C3427,1363 3427,1236 3427,1178"/>
<polygon style="fill:black;stroke:black;" points="3424,1178 3427,1168 3431,1178 3424,1178"/>
<text text-anchor="middle" x="3443" y="1294">1.5.3</text>
</g>
<g id="edge218" class="edge"><title>org.apache.log4j/log4j&#45;&gt;javax.management/jmx</title>
<path style="fill:none;stroke:black;" d="M3249,628C3326,600 3567,513 3656,480"/>
<polygon style="fill:black;stroke:black;" points="3655,477 3666,477 3657,483 3655,477"/>
<text text-anchor="middle" x="3456" y="546">[1.2.1,2.0[</text>
</g>
<g id="edge214" class="edge"><title>org.apache.log4j/log4j&#45;&gt;javax.mail/javamail</title>
<path style="fill:none;stroke:black;" d="M3240,622C3290,574 3443,425 3503,366"/>
<polygon style="fill:black;stroke:black;" points="3500,364 3510,359 3505,369 3500,364"/>
<text text-anchor="middle" x="3375" y="513">[1.4,2.0[</text>
</g>
<g id="node142" class="node"><title>javax.jms/jms</title>
<ellipse cx="3034" cy="434" rx="27" ry="18" style="fill:cyan;stroke:black;"/>
<text text-anchor="middle" x="3034" y="439">jms</text>
</g>
<g id="edge216" class="edge"><title>org.apache.log4j/log4j&#45;&gt;javax.jms/jms</title>
<path style="fill:none;stroke:black;" d="M3211,622C3177,587 3095,499 3056,457"/>
<polygon style="fill:black;stroke:black;" points="3053,459 3049,449 3058,454 3053,459"/>
<text text-anchor="middle" x="3097" y="542">[1.1,2.0[</text>
</g>
<g id="edge222" class="edge"><title>net.sourceforge.swarmcache/swarmcache&#45;&gt;org.apache.commons/commons&#45;collections</title>
<path style="fill:none;stroke:black;" d="M1236,1271C1386,1147 2328,369 2506,222"/>
<polygon style="fill:black;stroke:black;" points="2504,219 2514,216 2508,225 2504,219"/>
<text text-anchor="middle" x="1874" y="733">[2.1,3.0[</text>
</g>
<g id="edge224" class="edge"><title>net.sourceforge.swarmcache/swarmcache&#45;&gt;org.apache.commons/commons&#45;logging</title>
<path style="fill:none;stroke:black;" d="M1223,1269C1263,1169 1459,677 1507,554"/>
<polygon style="fill:black;stroke:black;" points="1504,553 1511,545 1510,556 1504,553"/>
<text text-anchor="middle" x="1395" y="912">[1.1,2.0[</text>
</g>
<g id="edge226" class="edge"><title>net.sourceforge.swarmcache/swarmcache&#45;&gt;org.jgroups/jgroups</title>
<path style="fill:none;stroke:black;" d="M1218,1269C1225,1222 1240,1096 1248,1039"/>
<polygon style="fill:black;stroke:black;" points="1245,1039 1249,1029 1251,1039 1245,1039"/>
<text text-anchor="middle" x="1206" y="1155">[2.2,3.0[</text>
</g>
<g id="node118" class="node"><title>org.hibernate/hibernate&#45;tools</title>
<ellipse cx="2045" cy="1694" rx="55" ry="18" style="fill:aquamarine;stroke:black;"/>
<text text-anchor="middle" x="2045" y="1699">hibernate&#45;tools</text>
</g>
<g id="node126" class="node"><title>org.springframework/spring&#45;security</title>
<ellipse cx="1251" cy="1563" rx="55" ry="18" style="fill:cyan;stroke:black;"/>
<text text-anchor="middle" x="1251" y="1568">spring&#45;security</text>
</g>
<g id="edge139" class="edge"><title>org.springframework/spring&#45;security&#45;&gt;org.codehaus.jaxen/jaxen</title>
<path style="fill:none;stroke:black;" d="M1206,1553C1011,1509 251,1337 72,1296"/>
<polygon style="fill:black;stroke:black;" points="71,1299 62,1294 72,1293 71,1299"/>
<text text-anchor="middle" x="632" y="1440">[1.1.1,2.0[</text>
</g>
<g id="edge133" class="edge"><title>org.springframework/spring&#45;security&#45;&gt;org.apache.commons/commons&#45;collections</title>
<path style="fill:none;stroke:black;" d="M1267,1546C1403,1401 2349,396 2511,223"/>
<polygon style="fill:black;stroke:black;" points="2508,221 2518,216 2513,226 2508,221"/>
<text text-anchor="middle" x="1925" y="887">[3.2,4.0[</text>
</g>
<g id="edge131" class="edge"><title>org.springframework/spring&#45;security&#45;&gt;org.apache.commons/commons&#45;logging</title>
<path style="fill:none;stroke:black;" d="M1256,1545C1287,1422 1472,706 1510,555"/>
<polygon style="fill:black;stroke:black;" points="1507,554 1513,545 1513,556 1507,554"/>
<text text-anchor="middle" x="1353" y="1051">[1.1.1,2.0[</text>
</g>
<g id="edge141" class="edge"><title>org.springframework/spring&#45;security&#45;&gt;org.mortbay/jetty</title>
<path style="fill:none;stroke:black;" d="M1196,1565C1032,1571 548,1589 410,1595"/>
<polygon style="fill:black;stroke:black;" points="410,1598 400,1595 410,1591 410,1598"/>
<text text-anchor="middle" x="792" y="1595">[4.2.22,)</text>
</g>
<g id="edge127" class="edge"><title>org.springframework/spring&#45;security&#45;&gt;org.aopalliance/aopalliance</title>
<path style="fill:none;stroke:black;" d="M1258,1581C1276,1626 1321,1742 1342,1795"/>
<polygon style="fill:black;stroke:black;" points="1345,1793 1346,1804 1339,1796 1345,1793"/>
<text text-anchor="middle" x="1287" y="1698">1.+</text>
</g>
<g id="node129" class="node"><title>org.springframework/spring</title>
<ellipse cx="1516" cy="2047" rx="31" ry="18" style="fill:cyan;stroke:black;"/>
<text text-anchor="middle" x="1516" y="2052">spring</text>
</g>
<g id="edge129" class="edge"><title>org.springframework/spring&#45;security&#45;&gt;org.springframework/spring</title>
<path style="fill:none;stroke:black;" d="M1261,1581C1301,1654 1454,1934 1502,2021"/>
<polygon style="fill:black;stroke:black;" points="1505,2020 1507,2030 1499,2023 1505,2020"/>
<text text-anchor="middle" x="1349" y="1812">[2.5.3,3.0[</text>
</g>
<g id="node133" class="node"><title>org.apache.commons/commons&#45;codec</title>
<ellipse cx="404" cy="1751" rx="59" ry="18" style="fill:cyan;stroke:black;"/>
<text text-anchor="middle" x="404" y="1756">commons&#45;codec</text>
</g>
<g id="edge135" class="edge"><title>org.springframework/spring&#45;security&#45;&gt;org.apache.commons/commons&#45;codec</title>
<path style="fill:none;stroke:black;" d="M1205,1573C1062,1604 621,1703 462,1738"/>
<polygon style="fill:black;stroke:black;" points="462,1741 452,1740 461,1735 462,1741"/>
<text text-anchor="middle" x="828" y="1672">[1.3,2.0[</text>
</g>
<g id="node135" class="node"><title>org.apache.commons/commons&#45;lang</title>
<ellipse cx="456" cy="1929" rx="54" ry="18" style="fill:cyan;stroke:black;"/>
<text text-anchor="middle" x="456" y="1934">commons&#45;lang</text>
</g>
<g id="edge137" class="edge"><title>org.springframework/spring&#45;security&#45;&gt;org.apache.commons/commons&#45;lang</title>
<path style="fill:none;stroke:black;" d="M1219,1578C1093,1636 637,1846 497,1910"/>
<polygon style="fill:black;stroke:black;" points="499,1913 488,1914 496,1907 499,1913"/>
<text text-anchor="middle" x="852" y="1765">[2.4,3.0[</text>
</g>
<g id="edge146" class="edge"><title>org.springframework/spring&#45;&gt;org.apache.commons/commons&#45;logging</title>
<path style="fill:none;stroke:black;" d="M1516,2029C1516,1872 1518,749 1518,555"/>
<polygon style="fill:black;stroke:black;" points="1515,555 1518,545 1522,555 1515,555"/>
<text text-anchor="middle" x="1528" y="1292">1.+</text>
</g>
<g id="edge144" class="edge"><title>org.springframework/spring&#45;&gt;org.aopalliance/aopalliance</title>
<path style="fill:none;stroke:black;" d="M1504,2030C1476,1991 1405,1894 1372,1847"/>
<polygon style="fill:black;stroke:black;" points="1369,1849 1366,1839 1375,1845 1369,1849"/>
<text text-anchor="middle" x="1419" y="1940">1.+</text>
</g>
<g id="edge148" class="edge"><title>org.springframework/spring&#45;&gt;javax.jms/jms</title>
<path style="fill:none;stroke:black;" d="M1531,2031C1677,1876 2838,642 3012,458"/>
<polygon style="fill:black;stroke:black;" points="3010,455 3019,450 3015,460 3010,455"/>
<text text-anchor="middle" x="2256" y="1246">1.+</text>
</g>
<g id="node147" class="node"><title>com.google/gwt</title>
<ellipse cx="2265" cy="1446" rx="27" ry="18" style="fill:#bd3eff;stroke:black;"/>
<text text-anchor="middle" x="2265" y="1451">gwt</text>
</g>
<g id="node168" class="node"><title>org.apache.commons/commons&#45;dbcp</title>
<ellipse cx="2170" cy="1570" rx="56" ry="18" style="fill:darkorange;stroke:black;"/>
<text text-anchor="middle" x="2170" y="1575">commons&#45;dbcp</text>
</g>
<g id="node170" class="node"><title>org.apache.commons/commons&#45;pool</title>
<ellipse cx="2353" cy="1570" rx="55" ry="18" style="fill:darkorange;stroke:black;"/>
<text text-anchor="middle" x="2353" y="1575">commons&#45;pool</text>
</g>
<g id="edge176" class="edge"><title>org.apache.commons/commons&#45;dbcp&#45;&gt;org.apache.commons/commons&#45;pool</title>
<path style="fill:none;stroke:black;" d="M2226,1570C2246,1570 2268,1570 2288,1570"/>
<polygon style="fill:black;stroke:black;" points="2288,1566 2298,1570 2288,1573 2288,1566"/>
<text text-anchor="middle" x="2261" y="1584">1.3+</text>
</g>
<g id="node178" class="node"><title>org.apache.commons/commons&#45;email</title>
<ellipse cx="2296" cy="1694" rx="58" ry="18" style="fill:darkorange;stroke:black;"/>
<text text-anchor="middle" x="2296" y="1699">commons&#45;email</text>
</g>
<g id="node180" class="node"><title>org.apache.commons/commons&#45;digester</title>
<ellipse cx="1732" cy="350" rx="64" ry="18" style="fill:darkorange;stroke:black;"/>
<text text-anchor="middle" x="1732" y="355">commons&#45;digester</text>
</g>
<g id="edge190" class="edge"><title>org.apache.commons/commons&#45;digester&#45;&gt;org.apache.commons/commons&#45;collections</title>
<path style="fill:none;stroke:black;" d="M1785,340C1927,314 2310,240 2467,211"/>
<polygon style="fill:black;stroke:black;" points="2467,208 2477,209 2468,214 2467,208"/>
<text text-anchor="middle" x="2131" y="290">[2.0,4.0[</text>
</g>
<g id="edge186" class="edge"><title>org.apache.commons/commons&#45;digester&#45;&gt;org.apache.commons/commons&#45;logging</title>
<path style="fill:none;stroke:black;" d="M1711,367C1672,399 1590,467 1547,503"/>
<polygon style="fill:black;stroke:black;" points="1549,506 1539,510 1544,501 1549,506"/>
<text text-anchor="middle" x="1624" y="428">1.1+</text>
</g>
<g id="edge188" class="edge"><title>org.apache.commons/commons&#45;digester&#45;&gt;org.apache.commons/commons&#45;beanutils</title>
<path style="fill:none;stroke:black;" d="M1765,334C1811,312 1891,275 1941,252"/>
<polygon style="fill:black;stroke:black;" points="1939,249 1950,248 1942,255 1939,249"/>
<text text-anchor="middle" x="1856" y="283">[1.7,2.0]</text>
</g>
<g id="node198" class="node"><title>net.sourceforge.cobertura/cobertura</title>
<ellipse cx="3358" cy="881" rx="39" ry="18" style="fill:#bd3eff;stroke:black;"/>
<text text-anchor="middle" x="3358" y="886">cobertura</text>
</g>
<g id="edge208" class="edge"><title>net.sourceforge.cobertura/cobertura&#45;&gt;org.apache.oro/oro</title>
<path style="fill:none;stroke:black;" d="M3388,869C3398,865 3408,861 3418,857"/>
<polygon style="fill:black;stroke:black;" points="3416,854 3427,853 3419,860 3416,854"/>
<text text-anchor="middle" x="3406" y="879">[2.0.8,3.0[</text>
</g>
<g id="edge206" class="edge"><title>net.sourceforge.cobertura/cobertura&#45;&gt;org.apache.log4j/log4j</title>
<path style="fill:none;stroke:black;" d="M3348,863C3325,822 3267,713 3239,663"/>
<polygon style="fill:black;stroke:black;" points="3236,664 3234,654 3242,661 3236,664"/>
<text text-anchor="middle" x="3256" y="765">[1.2.9,2.0[</text>
</g>
<g id="edge210" class="edge"><title>net.sourceforge.cobertura/cobertura&#45;&gt;org.objectweb.asm/asm</title>
<path style="fill:none;stroke:black;" d="M3363,899C3374,945 3406,1067 3420,1122"/>
<polygon style="fill:black;stroke:black;" points="3423,1122 3422,1132 3417,1123 3423,1122"/>
<text text-anchor="middle" x="3375" y="1022">2.2+</text>
</g>
</g>
</svg>
