<?xml version="1.0" encoding="UTF-8" standalone="no"?>
<!DOCTYPE svg PUBLIC "-//W3C//DTD SVG 1.0//EN"
 "http://www.w3.org/TR/2001/REC-SVG-20010904/DTD/svg10.dtd">
<!-- Generated by circo version 2.2 (Tue Sep 13 00:37:56 UTC 2005)
     For user: (archie) Archie Cobbs   Title: modules    Pages: 1 -->
<svg width="804pt" height="758pt"
 viewBox = "-1 -1 803 757"
 xmlns="http://www.w3.org/2000/svg">
<g id="graph0" class="graph" transform = "scale(0.172624)"
 style="font-family:Times-Roman;font-size:14.00;">
<title>modules</title>
<g id="node3" class="node"><title>org.testng/testng</title>
<ellipse cx="2332" cy="2386" rx="30" ry="18" style="fill:#bd3eff;stroke:black;"/>
<text text-anchor="middle" x="2332" y="2391">testng</text>
</g>
<g id="node6" class="node"><title>org.codehaus.jaxen/jaxen</title>
<ellipse cx="35" cy="1611" rx="29" ry="18" style="fill:#97f6ff;stroke:black;"/>
<text text-anchor="middle" x="35" y="1616">jaxen</text>
</g>
<g id="node9" class="node"><title>com.puppycrawl/checkstyle</title>
<ellipse cx="4166" cy="706" rx="42" ry="18" style="fill:gold;stroke:black;"/>
<text text-anchor="middle" x="4166" y="711">checkstyle</text>
</g>
<g id="node11" class="node"><title>org.antlr/antlr</title>
<ellipse cx="4317" cy="941" rx="27" ry="18" style="fill:gold;stroke:black;"/>
<text text-anchor="middle" x="4317" y="946">antlr</text>
</g>
<g id="edge8" class="edge"><title>com.puppycrawl/checkstyle&#45;&gt;org.antlr/antlr</title>
<path style="fill:none;stroke:black;" d="M4177,724C4203,764 4270,867 4301,915"/>
<polygon style="fill:black;stroke:black;" points="4304,914 4306,924 4298,917 4304,914"/>
<text text-anchor="middle" x="4221" y="829">2.7+</text>
</g>
<g id="node13" class="node"><title>org.apache.commons/commons&#45;cli</title>
<ellipse cx="4262" cy="631" rx="49" ry="18" style="fill:gold;stroke:black;"/>
<text text-anchor="middle" x="4262" y="636">commons&#45;cli</text>
</g>
<g id="edge10" class="edge"><title>com.puppycrawl/checkstyle&#45;&gt;org.apache.commons/commons&#45;cli</title>
<path style="fill:none;stroke:black;" d="M4186,690C4200,679 4218,665 4233,653"/>
<polygon style="fill:black;stroke:black;" points="4231,650 4241,647 4235,656 4231,650"/>
<text text-anchor="middle" x="4212" y="658">[1.1,2.0[</text>
</g>
<g id="node15" class="node"><title>org.apache.commons/commons&#45;collections</title>
<ellipse cx="3974" cy="505" rx="73" ry="18" style="fill:gold;stroke:black;"/>
<text text-anchor="middle" x="3974" y="510">commons&#45;collections</text>
</g>
<g id="edge12" class="edge"><title>com.puppycrawl/checkstyle&#45;&gt;org.apache.commons/commons&#45;collections</title>
<path style="fill:none;stroke:black;" d="M4150,689C4116,654 4038,571 3998,530"/>
<polygon style="fill:black;stroke:black;" points="3996,533 3991,523 4001,528 3996,533"/>
<text text-anchor="middle" x="4048" y="611">2.1+</text>
</g>
<g id="node17" class="node"><title>org.apache.commons/commons&#45;logging</title>
<ellipse cx="1781" cy="2402" rx="64" ry="18" style="fill:gold;stroke:black;"/>
<text text-anchor="middle" x="1781" y="2407">commons&#45;logging</text>
</g>
<g id="edge14" class="edge"><title>com.puppycrawl/checkstyle&#45;&gt;org.apache.commons/commons&#45;logging</title>
<path style="fill:none;stroke:black;" d="M4144,721C3924,878 2079,2190 1813,2379"/>
<polygon style="fill:black;stroke:black;" points="1815,2382 1805,2385 1811,2376 1815,2382"/>
<text text-anchor="middle" x="2974" y="1573">1+</text>
</g>
<g id="node19" class="node"><title>org.apache.commons/commons&#45;beanutils</title>
<ellipse cx="3494" cy="227" rx="68" ry="18" style="fill:gold;stroke:black;"/>
<text text-anchor="middle" x="3494" y="232">commons&#45;beanutils</text>
</g>
<g id="edge16" class="edge"><title>com.puppycrawl/checkstyle&#45;&gt;org.apache.commons/commons&#45;beanutils</title>
<path style="fill:none;stroke:black;" d="M4144,690C4045,620 3643,333 3526,250"/>
<polygon style="fill:black;stroke:black;" points="3524,253 3518,244 3528,247 3524,253"/>
<text text-anchor="middle" x="3831" y="488">1.7+</text>
</g>
<g id="edge206" class="edge"><title>org.apache.commons/commons&#45;beanutils&#45;&gt;org.apache.commons/commons&#45;collections</title>
<path style="fill:none;stroke:black;" d="M3523,244C3605,291 3844,430 3936,483"/>
<polygon style="fill:black;stroke:black;" points="3938,480 3945,488 3935,486 3938,480"/>
<text text-anchor="middle" x="3734" y="386">3.+</text>
</g>
<g id="edge204" class="edge"><title>org.apache.commons/commons&#45;beanutils&#45;&gt;org.apache.commons/commons&#45;logging</title>
<path style="fill:none;stroke:black;" d="M3480,245C3328,438 1984,2145 1801,2376"/>
<polygon style="fill:black;stroke:black;" points="1804,2378 1795,2384 1798,2374 1804,2378"/>
<text text-anchor="middle" x="2669" y="1321">[1.0,2.0[</text>
</g>
<g id="node22" class="node"><title>org.apache.oro/oro</title>
<ellipse cx="4243" cy="2579" rx="27" ry="18" style="fill:#cda87d;stroke:black;"/>
<text text-anchor="middle" x="4243" y="2584">oro</text>
</g>
<g id="node25" class="node"><title>org.apache.xml/xalan&#45;j</title>
<ellipse cx="2786" cy="3667" rx="33" ry="18" style="fill:aquamarine;stroke:black;"/>
<text text-anchor="middle" x="2786" y="3672">xalan&#45;j</text>
</g>
<g id="node27" class="node"><title>org.apache.xerces/xerces</title>
<ellipse cx="2943" cy="3074" rx="31" ry="18" style="fill:aquamarine;stroke:black;"/>
<text text-anchor="middle" x="2943" y="3079">xerces</text>
</g>
<g id="edge22" class="edge"><title>org.apache.xml/xalan&#45;j&#45;&gt;org.apache.xerces/xerces</title>
<path style="fill:none;stroke:black;" d="M2791,3649C2813,3565 2908,3205 2935,3102"/>
<polygon style="fill:black;stroke:black;" points="2932,3101 2938,3092 2938,3103 2932,3101"/>
<text text-anchor="middle" x="2847" y="3376">2.7+</text>
</g>
<g id="node29" class="node"><title>org.apache.xml/xml&#45;security</title>
<ellipse cx="1653" cy="2154" rx="49" ry="18" style="fill:aquamarine;stroke:black;"/>
<text text-anchor="middle" x="1653" y="2159">xml&#45;security</text>
</g>
<g id="edge25" class="edge"><title>org.apache.xml/xml&#45;security&#45;&gt;org.apache.commons/commons&#45;logging</title>
<path style="fill:none;stroke:black;" d="M1662,2172C1685,2215 1741,2324 1767,2375"/>
<polygon style="fill:black;stroke:black;" points="1770,2374 1772,2384 1764,2377 1770,2374"/>
<text text-anchor="middle" x="1687" y="2283">[1.0,2.0[</text>
</g>
<g id="node35" class="node"><title>org.dom4j/dom4j</title>
<ellipse cx="3221" cy="3061" rx="31" ry="18" style="fill:darkorange;stroke:black;"/>
<text text-anchor="middle" x="3221" y="3066">dom4j</text>
</g>
<g id="edge31" class="edge"><title>org.dom4j/dom4j&#45;&gt;org.apache.xerces/xerces</title>
<path style="fill:none;stroke:black;" d="M3190,3062C3139,3065 3040,3069 2984,3072"/>
<polygon style="fill:black;stroke:black;" points="2984,3075 2974,3073 2984,3069 2984,3075"/>
<text text-anchor="middle" x="3081" y="3082">[2.5,3.0[</text>
</g>
<g id="node39" class="node"><title>org.jboss/javassist</title>
<ellipse cx="3752" cy="4354" rx="37" ry="18" style="fill:#bd3eff;stroke:black;"/>
<text text-anchor="middle" x="3752" y="4359">javassist</text>
</g>
<g id="node42" class="node"><title>net.sourceforge.jsr107cache/jsr107cache</title>
<ellipse cx="2639" cy="3150" rx="47" ry="18" style="fill:#97f6ff;stroke:black;"/>
<text text-anchor="middle" x="2639" y="3155">jsr107cache</text>
</g>
<g id="node45" class="node"><title>org.mortbay/jetty</title>
<ellipse cx="2730" cy="67" rx="27" ry="18" style="fill:gold;stroke:black;"/>
<text text-anchor="middle" x="2730" y="72">jetty</text>
</g>
<g id="node48" class="node"><title>net.sourceforge.freemarker/freemarker</title>
<ellipse cx="4549" cy="1236" rx="43" ry="18" style="fill:#cda87d;stroke:black;"/>
<text text-anchor="middle" x="4549" y="1241">freemarker</text>
</g>
<g id="node51" class="node"><title>org.mozilla/rhino</title>
<ellipse cx="2982" cy="3743" rx="28" ry="18" style="fill:aquamarine;stroke:black;"/>
<text text-anchor="middle" x="2982" y="3748">rhino</text>
</g>
<g id="node54" class="node"><title>org.apache.xmlgraphics/batik</title>
<ellipse cx="2984" cy="3615" rx="27" ry="18" style="fill:cyan;stroke:black;"/>
<text text-anchor="middle" x="2984" y="3620">batik</text>
</g>
<g id="edge47" class="edge"><title>org.apache.xmlgraphics/batik&#45;&gt;org.apache.xerces/xerces</title>
<path style="fill:none;stroke:black;" d="M2983,3597C2977,3518 2953,3199 2945,3102"/>
<polygon style="fill:black;stroke:black;" points="2942,3102 2944,3092 2948,3102 2942,3102"/>
<text text-anchor="middle" x="2948" y="3351">2.5+</text>
</g>
<g id="edge45" class="edge"><title>org.apache.xmlgraphics/batik&#45;&gt;org.mozilla/rhino</title>
<path style="fill:none;stroke:black;" d="M2984,3633C2983,3654 2983,3690 2982,3715"/>
<polygon style="fill:black;stroke:black;" points="2986,3715 2982,3725 2979,3715 2986,3715"/>
<text text-anchor="middle" x="2971" y="3685">1.+</text>
</g>
<g id="node59" class="node"><title>com.opensymphony/oscache</title>
<ellipse cx="1953" cy="2621" rx="35" ry="18" style="fill:darkorange;stroke:black;"/>
<text text-anchor="middle" x="1953" y="2626">oscache</text>
</g>
<g id="edge51" class="edge"><title>com.opensymphony/oscache&#45;&gt;org.apache.commons/commons&#45;logging</title>
<path style="fill:none;stroke:black;" d="M1940,2604C1910,2566 1837,2473 1801,2428"/>
<polygon style="fill:black;stroke:black;" points="1798,2430 1795,2420 1804,2426 1798,2430"/>
<text text-anchor="middle" x="1836" y="2517">[1.1,2.0[</text>
</g>
<g id="node62" class="node"><title>org.jgroups/jgroups</title>
<ellipse cx="2163" cy="2804" rx="35" ry="18" style="fill:darkorange;stroke:black;"/>
<text text-anchor="middle" x="2163" y="2809">jgroups</text>
</g>
<g id="edge53" class="edge"><title>com.opensymphony/oscache&#45;&gt;org.jgroups/jgroups</title>
<path style="fill:none;stroke:black;" d="M1971,2637C2009,2669 2095,2744 2137,2781"/>
<polygon style="fill:black;stroke:black;" points="2140,2779 2145,2788 2135,2784 2140,2779"/>
<text text-anchor="middle" x="2058" y="2734">[2.2,3.0[</text>
</g>
<g id="edge188" class="edge"><title>org.jgroups/jgroups&#45;&gt;org.apache.commons/commons&#45;logging</title>
<path style="fill:none;stroke:black;" d="M2148,2788C2088,2726 1878,2503 1805,2428"/>
<polygon style="fill:black;stroke:black;" points="1802,2430 1798,2420 1807,2425 1802,2430"/>
<text text-anchor="middle" x="1952" y="2610">1.1+</text>
</g>
<g id="node65" class="node"><title>net.sourceforge.gwt&#45;widget/gwt&#45;sl</title>
<ellipse cx="2168" cy="2386" rx="30" ry="18" style="fill:#bd3eff;stroke:black;"/>
<text text-anchor="middle" x="2168" y="2391">gwt&#45;sl</text>
</g>
<g id="node68" class="node"><title>com.mysql/mysql&#45;connector&#45;java</title>
<ellipse cx="2703" cy="2386" rx="73" ry="18" style="fill:#97f6ff;stroke:black;"/>
<text text-anchor="middle" x="2703" y="2391">mysql&#45;connector&#45;java</text>
</g>
<g id="node71" class="node"><title>org.aopalliance/aopalliance</title>
<ellipse cx="1782" cy="818" rx="45" ry="18" style="fill:gold;stroke:black;"/>
<text text-anchor="middle" x="1782" y="823">aopalliance</text>
</g>
<g id="node74" class="node"><title>javax.management/jmx</title>
<ellipse cx="918" cy="1472" rx="27" ry="18" style="fill:#cda87d;stroke:black;"/>
<text text-anchor="middle" x="918" y="1477">jmx</text>
</g>
<g id="node76" class="node"><title>javax.management/jmxremote</title>
<ellipse cx="2674" cy="1894" rx="44" ry="18" style="fill:#cda87d;stroke:black;"/>
<text text-anchor="middle" x="2674" y="1899">jmxremote</text>
</g>
<g id="node79" class="node"><title>javax.mail/javamail</title>
<ellipse cx="977" cy="1670" rx="38" ry="18" style="fill:aquamarine;stroke:black;"/>
<text text-anchor="middle" x="977" y="1675">javamail</text>
</g>
<g id="node81" class="node"><title>javax.activation/jaf</title>
<ellipse cx="840" cy="1674" rx="27" ry="18" style="fill:aquamarine;stroke:black;"/>
<text text-anchor="middle" x="840" y="1679">jaf</text>
</g>
<g id="edge66" class="edge"><title>javax.mail/javamail&#45;&gt;javax.activation/jaf</title>
<path style="fill:none;stroke:black;" d="M939,1671C920,1672 896,1672 877,1673"/>
<polygon style="fill:black;stroke:black;" points="877,1676 867,1673 877,1669 877,1676"/>
<text text-anchor="middle" x="902" y="1687">[1.1.1,2.0[</text>
</g>
<g id="node84" class="node"><title>org.openxri/openxri</title>
<ellipse cx="1575" cy="1887" rx="34" ry="18" style="fill:cyan;stroke:black;"/>
<text text-anchor="middle" x="1575" y="1892">openxri</text>
</g>
<g id="edge70" class="edge"><title>org.openxri/openxri&#45;&gt;org.apache.commons/commons&#45;logging</title>
<path style="fill:none;stroke:black;" d="M1582,1905C1612,1981 1733,2282 1770,2375"/>
<polygon style="fill:black;stroke:black;" points="1773,2373 1774,2384 1767,2376 1773,2373"/>
<text text-anchor="middle" x="1648" y="2150">[1.0,2.0[</text>
</g>
<g id="edge74" class="edge"><title>org.openxri/openxri&#45;&gt;org.apache.xml/xml&#45;security</title>
<path style="fill:none;stroke:black;" d="M1580,1905C1594,1951 1628,2071 1645,2126"/>
<polygon style="fill:black;stroke:black;" points="1648,2125 1648,2136 1642,2127 1648,2125"/>
<text text-anchor="middle" x="1580" y="2027">[1.3.0,2.0[</text>
</g>
<g id="node87" class="node"><title>org.apache.log4j/log4j</title>
<ellipse cx="1549" cy="1610" rx="27" ry="18" style="fill:cyan;stroke:black;"/>
<text text-anchor="middle" x="1549" y="1615">log4j</text>
</g>
<g id="edge72" class="edge"><title>org.openxri/openxri&#45;&gt;org.apache.log4j/log4j</title>
<path style="fill:none;stroke:black;" d="M1573,1869C1569,1822 1558,1695 1552,1638"/>
<polygon style="fill:black;stroke:black;" points="1549,1638 1551,1628 1555,1638 1549,1638"/>
<text text-anchor="middle" x="1529" y="1754">[1.2.14,1.3[</text>
</g>
<g id="edge259" class="edge"><title>org.apache.log4j/log4j&#45;&gt;javax.management/jmx</title>
<path style="fill:none;stroke:black;" d="M1523,1604C1424,1583 1068,1505 954,1480"/>
<polygon style="fill:black;stroke:black;" points="953,1483 944,1478 954,1477 953,1483"/>
<text text-anchor="middle" x="1233" y="1557">[1.2.1,2.0[</text>
</g>
<g id="edge255" class="edge"><title>org.apache.log4j/log4j&#45;&gt;javax.mail/javamail</title>
<path style="fill:none;stroke:black;" d="M1522,1613C1432,1623 1140,1653 1024,1665"/>
<polygon style="fill:black;stroke:black;" points="1024,1668 1014,1666 1024,1662 1024,1668"/>
<text text-anchor="middle" x="1267" y="1654">[1.4,2.0[</text>
</g>
<g id="node166" class="node"><title>javax.jms/jms</title>
<ellipse cx="1576" cy="1332" rx="27" ry="18" style="fill:#97f6ff;stroke:black;"/>
<text text-anchor="middle" x="1576" y="1337">jms</text>
</g>
<g id="edge257" class="edge"><title>org.apache.log4j/log4j&#45;&gt;javax.jms/jms</title>
<path style="fill:none;stroke:black;" d="M1551,1592C1556,1545 1567,1418 1573,1360"/>
<polygon style="fill:black;stroke:black;" points="1570,1360 1574,1350 1576,1360 1570,1360"/>
<text text-anchor="middle" x="1537" y="1476">[1.1,2.0[</text>
</g>
<g id="node91" class="node"><title>org.aspectj/aspectj</title>
<ellipse cx="2601" cy="96" rx="33" ry="18" style="fill:darkorange;stroke:black;"/>
<text text-anchor="middle" x="2601" y="101">aspectj</text>
</g>
<g id="node94" class="node"><title>org.hibernate/hibernate&#45;entitymanager</title>
<ellipse cx="4472" cy="1473" rx="82" ry="18" style="fill:#bd3eff;stroke:black;"/>
<text text-anchor="middle" x="4472" y="1478">hibernate&#45;entitymanager</text>
</g>
<g id="node96" class="node"><title>org.hibernate/hibernate</title>
<ellipse cx="3492" cy="2996" rx="40" ry="18" style="fill:#bd3eff;stroke:black;"/>
<text text-anchor="middle" x="3492" y="3001">hibernate</text>
</g>
<g id="edge80" class="edge"><title>org.hibernate/hibernate&#45;entitymanager&#45;&gt;org.hibernate/hibernate</title>
<path style="fill:none;stroke:black;" d="M4460,1491C4360,1647 3629,2783 3509,2970"/>
<polygon style="fill:black;stroke:black;" points="3511,2973 3503,2979 3506,2969 3511,2973"/>
<text text-anchor="middle" x="4017" y="2241">[3.2.0,4.0[</text>
</g>
<g id="node98" class="node"><title>org.hibernate/hibernate&#45;commons&#45;annotations</title>
<ellipse cx="4472" cy="1752" rx="103" ry="18" style="fill:#bd3eff;stroke:black;"/>
<text text-anchor="middle" x="4472" y="1757">hibernate&#45;commons&#45;annotations</text>
</g>
<g id="edge82" class="edge"><title>org.hibernate/hibernate&#45;entitymanager&#45;&gt;org.hibernate/hibernate&#45;commons&#45;annotations</title>
<path style="fill:none;stroke:black;" d="M4472,1491C4472,1539 4472,1667 4472,1724"/>
<polygon style="fill:black;stroke:black;" points="4476,1724 4472,1734 4469,1724 4476,1724"/>
<text text-anchor="middle" x="4441" y="1618">[3.0.0,4.0[</text>
</g>
<g id="node100" class="node"><title>org.hibernate/hibernate&#45;annotations</title>
<ellipse cx="4316" cy="2283" rx="74" ry="18" style="fill:#bd3eff;stroke:black;"/>
<text text-anchor="middle" x="4316" y="2288">hibernate&#45;annotations</text>
</g>
<g id="edge84" class="edge"><title>org.hibernate/hibernate&#45;entitymanager&#45;&gt;org.hibernate/hibernate&#45;annotations</title>
<path style="fill:none;stroke:black;" d="M4471,1491C4456,1596 4354,2127 4323,2255"/>
<polygon style="fill:black;stroke:black;" points="4326,2256 4321,2265 4320,2255 4326,2256"/>
<text text-anchor="middle" x="4432" y="1883">[3.3.1,4.0[</text>
</g>
<g id="node102" class="node"><title>org.hibernate/hibernate&#45;validator</title>
<ellipse cx="4419" cy="2025" rx="66" ry="18" style="fill:#bd3eff;stroke:black;"/>
<text text-anchor="middle" x="4419" y="2030">hibernate&#45;validator</text>
</g>
<g id="edge86" class="edge"><title>org.hibernate/hibernate&#45;entitymanager&#45;&gt;org.hibernate/hibernate&#45;validator</title>
<path style="fill:none;stroke:black;" d="M4473,1491C4469,1571 4438,1898 4424,1997"/>
<polygon style="fill:black;stroke:black;" points="4427,1997 4423,2007 4421,1997 4427,1997"/>
<text text-anchor="middle" x="4483" y="1755">[3.0.0,4.0[</text>
</g>
<g id="edge113" class="edge"><title>org.hibernate/hibernate&#45;&gt;org.codehaus.jaxen/jaxen</title>
<path style="fill:none;stroke:black;" d="M3462,2984C3145,2857 406,1759 68,1625"/>
<polygon style="fill:black;stroke:black;" points="67,1628 59,1621 70,1622 67,1628"/>
<text text-anchor="middle" x="1760" y="2320">[1.1,1.2[</text>
</g>
<g id="edge107" class="edge"><title>org.hibernate/hibernate&#45;&gt;org.antlr/antlr</title>
<path style="fill:none;stroke:black;" d="M3499,2978C3574,2792 4214,1196 4306,969"/>
<polygon style="fill:black;stroke:black;" points="4303,967 4310,959 4310,970 4303,967"/>
<text text-anchor="middle" x="3938" y="1975">[2.7.6,2.8[</text>
</g>
<g id="edge94" class="edge"><title>org.hibernate/hibernate&#45;&gt;org.apache.commons/commons&#45;collections</title>
<path style="fill:none;stroke:black;" d="M3496,2978C3536,2767 3918,793 3968,533"/>
<polygon style="fill:black;stroke:black;" points="3965,532 3970,523 3971,533 3965,532"/>
<text text-anchor="middle" x="3701" y="1757">[2.1.1,3.0[</text>
</g>
<g id="edge96" class="edge"><title>org.hibernate/hibernate&#45;&gt;org.apache.commons/commons&#45;logging</title>
<path style="fill:none;stroke:black;" d="M3460,2985C3252,2913 2087,2508 1830,2419"/>
<polygon style="fill:black;stroke:black;" points="1829,2422 1821,2416 1832,2416 1829,2422"/>
<text text-anchor="middle" x="2639" y="2718">[1.0.4,1.2[</text>
</g>
<g id="edge100" class="edge"><title>org.hibernate/hibernate&#45;&gt;org.apache.xerces/xerces</title>
<path style="fill:none;stroke:black;" d="M3454,3001C3353,3016 3086,3053 2983,3069"/>
<polygon style="fill:black;stroke:black;" points="2983,3072 2973,3070 2983,3066 2983,3072"/>
<text text-anchor="middle" x="3212" y="3051">[2.5,3.0[</text>
</g>
<g id="edge98" class="edge"><title>org.hibernate/hibernate&#45;&gt;org.dom4j/dom4j</title>
<path style="fill:none;stroke:black;" d="M3457,3004C3405,3016 3313,3039 3260,3052"/>
<polygon style="fill:black;stroke:black;" points="3260,3055 3250,3054 3259,3049 3260,3055"/>
<text text-anchor="middle" x="3352" y="3046">1.6.1</text>
</g>
<g id="edge111" class="edge"><title>org.hibernate/hibernate&#45;&gt;org.jboss/javassist</title>
<path style="fill:none;stroke:black;" d="M3495,3014C3523,3160 3712,4146 3747,4326"/>
<polygon style="fill:black;stroke:black;" points="3750,4326 3749,4336 3744,4327 3750,4326"/>
<text text-anchor="middle" x="3594" y="3680">[3.4,4.0[</text>
</g>
<g id="edge119" class="edge"><title>org.hibernate/hibernate&#45;&gt;com.opensymphony/oscache</title>
<path style="fill:none;stroke:black;" d="M3457,2987C3252,2937 2216,2685 1995,2631"/>
<polygon style="fill:black;stroke:black;" points="1994,2634 1985,2629 1995,2628 1994,2634"/>
<text text-anchor="middle" x="2721" y="2802">[2.1,3.0[</text>
</g>
<g id="edge121" class="edge"><title>org.hibernate/hibernate&#45;&gt;org.jgroups/jgroups</title>
<path style="fill:none;stroke:black;" d="M3454,2990C3262,2962 2411,2839 2207,2810"/>
<polygon style="fill:black;stroke:black;" points="2207,2813 2197,2809 2207,2807 2207,2813"/>
<text text-anchor="middle" x="2825" y="2894">[2.2.8,3.0[</text>
</g>
<g id="edge105" class="edge"><title>org.hibernate/hibernate&#45;&gt;org.apache.log4j/log4j</title>
<path style="fill:none;stroke:black;" d="M3471,2981C3274,2840 1795,1785 1576,1629"/>
<polygon style="fill:black;stroke:black;" points="1574,1632 1568,1623 1578,1626 1574,1632"/>
<text text-anchor="middle" x="2519" y="2322">[1.2,1.3[</text>
</g>
<g id="node106" class="node"><title>net.sourceforge.ehcache/ehcache</title>
<ellipse cx="2667" cy="3034" rx="36" ry="18" style="fill:#bd3eff;stroke:black;"/>
<text text-anchor="middle" x="2667" y="3039">ehcache</text>
</g>
<g id="edge90" class="edge"><title>org.hibernate/hibernate&#45;&gt;net.sourceforge.ehcache/ehcache</title>
<path style="fill:none;stroke:black;" d="M3452,2998C3314,3004 2860,3025 2713,3032"/>
<polygon style="fill:black;stroke:black;" points="2713,3035 2703,3032 2713,3028 2713,3035"/>
<text text-anchor="middle" x="3077" y="3030">1.2.3</text>
</g>
<g id="node108" class="node"><title>javax.transaction/jta</title>
<ellipse cx="3883" cy="4315" rx="27" ry="18" style="fill:#bd3eff;stroke:black;"/>
<text text-anchor="middle" x="3883" y="4320">jta</text>
</g>
<g id="edge92" class="edge"><title>org.hibernate/hibernate&#45;&gt;javax.transaction/jta</title>
<path style="fill:none;stroke:black;" d="M3497,3014C3540,3158 3822,4112 3875,4287"/>
<polygon style="fill:black;stroke:black;" points="3878,4286 3878,4297 3872,4288 3878,4286"/>
<text text-anchor="middle" x="3675" y="3662">1.1</text>
</g>
<g id="node115" class="node"><title>net.sourceforge.cglib/cglib</title>
<ellipse cx="3745" cy="2880" rx="27" ry="18" style="fill:#bd3eff;stroke:black;"/>
<text text-anchor="middle" x="3745" y="2885">cglib</text>
</g>
<g id="edge103" class="edge"><title>org.hibernate/hibernate&#45;&gt;net.sourceforge.cglib/cglib</title>
<path style="fill:none;stroke:black;" d="M3520,2983C3568,2961 3664,2917 3714,2894"/>
<polygon style="fill:black;stroke:black;" points="3712,2891 3723,2890 3715,2897 3712,2891"/>
<text text-anchor="middle" x="3620" y="2929">2.1.3+</text>
</g>
<g id="node119" class="node"><title>net.sourceforge.c3p0/c3p0</title>
<ellipse cx="4002" cy="4274" rx="27" ry="18" style="fill:#bd3eff;stroke:black;"/>
<text text-anchor="middle" x="4002" y="4279">c3p0</text>
</g>
<g id="edge109" class="edge"><title>org.hibernate/hibernate&#45;&gt;net.sourceforge.c3p0/c3p0</title>
<path style="fill:none;stroke:black;" d="M3499,3014C3555,3154 3924,4077 3991,4248"/>
<polygon style="fill:black;stroke:black;" points="3994,4246 3995,4257 3988,4249 3994,4246"/>
<text text-anchor="middle" x="3714" y="3641">[0.9.1,2.0[</text>
</g>
<g id="node123" class="node"><title>net.sourceforge.proxool/proxool</title>
<ellipse cx="4127" cy="4225" rx="35" ry="18" style="fill:#bd3eff;stroke:black;"/>
<text text-anchor="middle" x="4127" y="4230">proxool</text>
</g>
<g id="edge115" class="edge"><title>org.hibernate/hibernate&#45;&gt;net.sourceforge.proxool/proxool</title>
<path style="fill:none;stroke:black;" d="M3501,3014C3572,3150 4028,4034 4113,4198"/>
<polygon style="fill:black;stroke:black;" points="4116,4197 4118,4207 4110,4200 4116,4197"/>
<text text-anchor="middle" x="3775" y="3616">[0.8.3,1.1[</text>
</g>
<g id="node125" class="node"><title>net.sourceforge.swarmcache/swarmcache</title>
<ellipse cx="2404" cy="2943" rx="47" ry="18" style="fill:#bd3eff;stroke:black;"/>
<text text-anchor="middle" x="2404" y="2948">swarmcache</text>
</g>
<g id="edge117" class="edge"><title>org.hibernate/hibernate&#45;&gt;net.sourceforge.swarmcache/swarmcache</title>
<path style="fill:none;stroke:black;" d="M3452,2994C3287,2985 2654,2955 2461,2946"/>
<polygon style="fill:black;stroke:black;" points="2461,2949 2451,2945 2461,2943 2461,2949"/>
<text text-anchor="middle" x="2951" y="2984">[1.0RC2,2.0[</text>
</g>
<g id="edge146" class="edge"><title>org.hibernate/hibernate&#45;annotations&#45;&gt;org.hibernate/hibernate&#45;entitymanager</title>
<path style="fill:none;stroke:black;" d="M4317,2265C4332,2159 4433,1629 4464,1501"/>
<polygon style="fill:black;stroke:black;" points="4461,1500 4466,1491 4467,1501 4461,1500"/>
<text text-anchor="middle" x="4354" y="1883">[3.3.2,4.0[</text>
</g>
<g id="edge142" class="edge"><title>org.hibernate/hibernate&#45;annotations&#45;&gt;org.hibernate/hibernate</title>
<path style="fill:none;stroke:black;" d="M4296,2301C4184,2397 3644,2864 3519,2973"/>
<polygon style="fill:black;stroke:black;" points="3521,2976 3511,2980 3516,2971 3521,2976"/>
<text text-anchor="middle" x="3902" y="2630">[3.2.0,4.0[</text>
</g>
<g id="edge144" class="edge"><title>org.hibernate/hibernate&#45;annotations&#45;&gt;org.hibernate/hibernate&#45;commons&#45;annotations</title>
<path style="fill:none;stroke:black;" d="M4321,2265C4345,2187 4436,1876 4464,1780"/>
<polygon style="fill:black;stroke:black;" points="4461,1779 4467,1770 4467,1781 4461,1779"/>
<text text-anchor="middle" x="4427" y="2024">[3.0.0,4.0[</text>
</g>
<g id="edge148" class="edge"><title>org.hibernate/hibernate&#45;annotations&#45;&gt;org.hibernate/hibernate&#45;validator</title>
<path style="fill:none;stroke:black;" d="M4323,2265C4341,2220 4387,2105 4408,2052"/>
<polygon style="fill:black;stroke:black;" points="4405,2051 4412,2043 4411,2054 4405,2051"/>
<text text-anchor="middle" x="4333" y="2159">[3.0.0,4.0[</text>
</g>
<g id="edge128" class="edge"><title>org.hibernate/hibernate&#45;validator&#45;&gt;org.hibernate/hibernate&#45;entitymanager</title>
<path style="fill:none;stroke:black;" d="M4418,2007C4421,1927 4452,1600 4466,1501"/>
<polygon style="fill:black;stroke:black;" points="4463,1500 4468,1491 4469,1501 4463,1500"/>
<text text-anchor="middle" x="4407" y="1754">[3.3.2,4.0[</text>
</g>
<g id="edge124" class="edge"><title>org.hibernate/hibernate&#45;validator&#45;&gt;org.hibernate/hibernate</title>
<path style="fill:none;stroke:black;" d="M4402,2043C4289,2161 3646,2834 3515,2971"/>
<polygon style="fill:black;stroke:black;" points="3517,2974 3508,2979 3512,2969 3517,2974"/>
<text text-anchor="middle" x="3915" y="2517">[3.2.0,4.0[</text>
</g>
<g id="edge126" class="edge"><title>org.hibernate/hibernate&#45;validator&#45;&gt;org.hibernate/hibernate&#45;commons&#45;annotations</title>
<path style="fill:none;stroke:black;" d="M4423,2007C4431,1960 4456,1836 4466,1780"/>
<polygon style="fill:black;stroke:black;" points="4463,1779 4468,1770 4469,1780 4463,1779"/>
<text text-anchor="middle" x="4412" y="1894">[3.0.0,4.0[</text>
</g>
<g id="edge303" class="edge"><title>net.sourceforge.ehcache/ehcache&#45;&gt;org.apache.commons/commons&#45;collections</title>
<path style="fill:none;stroke:black;" d="M2676,3017C2785,2808 3826,790 3960,532"/>
<polygon style="fill:black;stroke:black;" points="3957,530 3965,523 3963,533 3957,530"/>
<text text-anchor="middle" x="3301" y="1775">2.1.1</text>
</g>
<g id="edge301" class="edge"><title>net.sourceforge.ehcache/ehcache&#45;&gt;org.apache.commons/commons&#45;logging</title>
<path style="fill:none;stroke:black;" d="M2646,3019C2528,2935 1955,2526 1813,2425"/>
<polygon style="fill:black;stroke:black;" points="1811,2428 1805,2419 1815,2422 1811,2428"/>
<text text-anchor="middle" x="2225" y="2739">1.1+</text>
</g>
<g id="edge305" class="edge"><title>net.sourceforge.ehcache/ehcache&#45;&gt;org.apache.xerces/xerces</title>
<path style="fill:none;stroke:black;" d="M2702,3039C2753,3047 2848,3060 2903,3068"/>
<polygon style="fill:black;stroke:black;" points="2904,3065 2913,3070 2903,3071 2904,3065"/>
<text text-anchor="middle" x="2807" y="3070">2.5.0</text>
</g>
<g id="edge308" class="edge"><title>net.sourceforge.ehcache/ehcache&#45;&gt;net.sourceforge.jsr107cache/jsr107cache</title>
<path style="fill:none;stroke:black;" d="M2663,3052C2659,3070 2651,3100 2646,3122"/>
<polygon style="fill:black;stroke:black;" points="2649,3123 2643,3132 2643,3121 2649,3123"/>
<text text-anchor="middle" x="2637" y="3097">1.0+</text>
</g>
<g id="node189" class="node"><title>org.objectweb.asm/asm</title>
<ellipse cx="3972" cy="2719" rx="27" ry="18" style="fill:gold;stroke:black;"/>
<text text-anchor="middle" x="3972" y="2724">asm</text>
</g>
<g id="edge271" class="edge"><title>net.sourceforge.cglib/cglib&#45;&gt;org.objectweb.asm/asm</title>
<path style="fill:none;stroke:black;" d="M3764,2867C3804,2838 3898,2771 3945,2738"/>
<polygon style="fill:black;stroke:black;" points="3943,2735 3953,2732 3947,2741 3943,2735"/>
<text text-anchor="middle" x="3857" y="2790">1.5.3</text>
</g>
<g id="edge263" class="edge"><title>net.sourceforge.swarmcache/swarmcache&#45;&gt;org.apache.commons/commons&#45;collections</title>
<path style="fill:none;stroke:black;" d="M2415,2925C2546,2721 3796,782 3957,532"/>
<polygon style="fill:black;stroke:black;" points="3954,530 3962,523 3960,533 3954,530"/>
<text text-anchor="middle" x="3218" y="1730">[2.1,3.0[</text>
</g>
<g id="edge265" class="edge"><title>net.sourceforge.swarmcache/swarmcache&#45;&gt;org.apache.commons/commons&#45;logging</title>
<path style="fill:none;stroke:black;" d="M2385,2927C2295,2849 1915,2518 1809,2426"/>
<polygon style="fill:black;stroke:black;" points="1806,2428 1801,2419 1811,2423 1806,2428"/>
<text text-anchor="middle" x="2093" y="2695">[1.1,2.0[</text>
</g>
<g id="edge267" class="edge"><title>net.sourceforge.swarmcache/swarmcache&#45;&gt;org.jgroups/jgroups</title>
<path style="fill:none;stroke:black;" d="M2378,2928C2333,2903 2243,2851 2195,2822"/>
<polygon style="fill:black;stroke:black;" points="2193,2825 2186,2817 2196,2819 2193,2825"/>
<text text-anchor="middle" x="2282" y="2893">[2.2,3.0[</text>
</g>
<g id="node133" class="node"><title>org.hibernate/hibernate&#45;tools</title>
<ellipse cx="4420" cy="1199" rx="55" ry="18" style="fill:#bd3eff;stroke:black;"/>
<text text-anchor="middle" x="4420" y="1204">hibernate&#45;tools</text>
</g>
<g id="edge137" class="edge"><title>org.hibernate/hibernate&#45;tools&#45;&gt;net.sourceforge.freemarker/freemarker</title>
<path style="fill:none;stroke:black;" d="M4462,1211C4475,1215 4490,1219 4503,1223"/>
<polygon style="fill:black;stroke:black;" points="4504,1220 4513,1226 4502,1226 4504,1220"/>
<text text-anchor="middle" x="4487" y="1235">[2.3.8,2.4[</text>
</g>
<g id="edge135" class="edge"><title>org.hibernate/hibernate&#45;tools&#45;&gt;org.hibernate/hibernate&#45;entitymanager</title>
<path style="fill:none;stroke:black;" d="M4423,1217C4432,1264 4456,1389 4467,1445"/>
<polygon style="fill:black;stroke:black;" points="4470,1445 4469,1455 4464,1446 4470,1445"/>
<text text-anchor="middle" x="4412" y="1341">[3.3.2,3.4[</text>
</g>
<g id="edge131" class="edge"><title>org.hibernate/hibernate&#45;tools&#45;&gt;org.hibernate/hibernate</title>
<path style="fill:none;stroke:black;" d="M4411,1217C4321,1388 3614,2760 3506,2969"/>
<polygon style="fill:black;stroke:black;" points="3509,2971 3501,2978 3503,2968 3509,2971"/>
<text text-anchor="middle" x="3920" y="2104">[3.2.6,3.3[</text>
</g>
<g id="edge133" class="edge"><title>org.hibernate/hibernate&#45;tools&#45;&gt;org.hibernate/hibernate&#45;annotations</title>
<path style="fill:none;stroke:black;" d="M4418,1217C4406,1345 4334,2098 4319,2255"/>
<polygon style="fill:black;stroke:black;" points="4322,2255 4318,2265 4316,2255 4322,2255"/>
<text text-anchor="middle" x="4337" y="1746">[3.3.1,3.4[</text>
</g>
<g id="node139" class="node"><title>net.sourceforge.jtidy/jtidy</title>
<ellipse cx="4509" cy="1099" rx="27" ry="18" style="fill:#bd3eff;stroke:black;"/>
<text text-anchor="middle" x="4509" y="1104">jtidy</text>
</g>
<g id="edge139" class="edge"><title>org.hibernate/hibernate&#45;tools&#45;&gt;net.sourceforge.jtidy/jtidy</title>
<path style="fill:none;stroke:black;" d="M4436,1182C4451,1166 4472,1141 4488,1123"/>
<polygon style="fill:black;stroke:black;" points="4486,1120 4495,1115 4491,1125 4486,1120"/>
<text text-anchor="middle" x="4498" y="1155">[8.0,9.0[</text>
</g>
<g id="node147" class="node"><title>org.springframework/spring&#45;security</title>
<ellipse cx="2670" cy="187" rx="55" ry="18" style="fill:#97f6ff;stroke:black;"/>
<text text-anchor="middle" x="2670" y="192">spring&#45;security</text>
</g>
<g id="edge164" class="edge"><title>org.springframework/spring&#45;security&#45;&gt;org.codehaus.jaxen/jaxen</title>
<path style="fill:none;stroke:black;" d="M2641,203C2375,346 342,1445 66,1594"/>
<polygon style="fill:black;stroke:black;" points="67,1597 57,1599 64,1591 67,1597"/>
<text text-anchor="middle" x="1348" y="893">[1.1.1,2.0[</text>
</g>
<g id="edge158" class="edge"><title>org.springframework/spring&#45;security&#45;&gt;org.apache.commons/commons&#45;collections</title>
<path style="fill:none;stroke:black;" d="M2714,198C2908,245 3686,434 3912,490"/>
<polygon style="fill:black;stroke:black;" points="3913,487 3922,492 3912,493 3913,487"/>
<text text-anchor="middle" x="3318" y="361">[3.2,4.0[</text>
</g>
<g id="edge156" class="edge"><title>org.springframework/spring&#45;security&#45;&gt;org.apache.commons/commons&#45;logging</title>
<path style="fill:none;stroke:black;" d="M2663,205C2584,402 1888,2135 1792,2375"/>
<polygon style="fill:black;stroke:black;" points="1795,2376 1788,2384 1789,2373 1795,2376"/>
<text text-anchor="middle" x="2257" y="1301">[1.1.1,2.0[</text>
</g>
<g id="edge168" class="edge"><title>org.springframework/spring&#45;security&#45;&gt;org.mortbay/jetty</title>
<path style="fill:none;stroke:black;" d="M2679,169C2690,149 2705,116 2717,93"/>
<polygon style="fill:black;stroke:black;" points="2714,92 2721,84 2720,95 2714,92"/>
<text text-anchor="middle" x="2729" y="133">[4.2.22,)</text>
</g>
<g id="edge152" class="edge"><title>org.springframework/spring&#45;security&#45;&gt;org.aopalliance/aopalliance</title>
<path style="fill:none;stroke:black;" d="M2647,204C2525,291 1952,697 1813,796"/>
<polygon style="fill:black;stroke:black;" points="1814,799 1804,802 1810,794 1814,799"/>
<text text-anchor="middle" x="2225" y="524">1.+</text>
</g>
<g id="edge166" class="edge"><title>org.springframework/spring&#45;security&#45;&gt;org.aspectj/aspectj</title>
<path style="fill:none;stroke:black;" d="M2657,169C2647,155 2632,136 2620,121"/>
<polygon style="fill:black;stroke:black;" points="2617,123 2614,113 2623,119 2617,123"/>
<text text-anchor="middle" x="2599" y="146">[1.5.4,1.6[</text>
</g>
<g id="node150" class="node"><title>org.springframework/spring</title>
<ellipse cx="1654" cy="1065" rx="31" ry="18" style="fill:#97f6ff;stroke:black;"/>
<text text-anchor="middle" x="1654" y="1070">spring</text>
</g>
<g id="edge154" class="edge"><title>org.springframework/spring&#45;security&#45;&gt;org.springframework/spring</title>
<path style="fill:none;stroke:black;" d="M2650,204C2523,315 1822,920 1680,1043"/>
<polygon style="fill:black;stroke:black;" points="1682,1046 1672,1050 1677,1041 1682,1046"/>
<text text-anchor="middle" x="2160" y="649">[2.5.3,3.0[</text>
</g>
<g id="node154" class="node"><title>org.apache.commons/commons&#45;codec</title>
<ellipse cx="2407" cy="278" rx="59" ry="18" style="fill:#97f6ff;stroke:black;"/>
<text text-anchor="middle" x="2407" y="283">commons&#45;codec</text>
</g>
<g id="edge160" class="edge"><title>org.springframework/spring&#45;security&#45;&gt;org.apache.commons/commons&#45;codec</title>
<path style="fill:none;stroke:black;" d="M2632,200C2585,216 2507,243 2456,261"/>
<polygon style="fill:black;stroke:black;" points="2457,264 2446,264 2455,258 2457,264"/>
<text text-anchor="middle" x="2538" y="250">[1.3,2.0[</text>
</g>
<g id="node156" class="node"><title>org.apache.commons/commons&#45;lang</title>
<ellipse cx="2946" cy="148" rx="54" ry="18" style="fill:#97f6ff;stroke:black;"/>
<text text-anchor="middle" x="2946" y="153">commons&#45;lang</text>
</g>
<g id="edge162" class="edge"><title>org.springframework/spring&#45;security&#45;&gt;org.apache.commons/commons&#45;lang</title>
<path style="fill:none;stroke:black;" d="M2721,180C2768,173 2836,163 2886,156"/>
<polygon style="fill:black;stroke:black;" points="2886,153 2896,155 2886,159 2886,153"/>
<text text-anchor="middle" x="2807" y="183">[2.4,3.0[</text>
</g>
<g id="node161" class="node"><title>org.openid4java/openid4java</title>
<ellipse cx="1955" cy="599" rx="47" ry="18" style="fill:#97f6ff;stroke:black;"/>
<text text-anchor="middle" x="1955" y="604">openid4java</text>
</g>
<g id="edge170" class="edge"><title>org.springframework/spring&#45;security&#45;&gt;org.openid4java/openid4java</title>
<path style="fill:none;stroke:black;" d="M2642,203C2531,267 2114,507 1990,579"/>
<polygon style="fill:black;stroke:black;" points="1991,582 1981,584 1988,576 1991,582"/>
<text text-anchor="middle" x="2310" y="385">[0.9.4.339,2.0[</text>
</g>
<g id="edge175" class="edge"><title>org.springframework/spring&#45;&gt;org.apache.commons/commons&#45;logging</title>
<path style="fill:none;stroke:black;" d="M1656,1083C1670,1228 1761,2195 1778,2374"/>
<polygon style="fill:black;stroke:black;" points="1781,2374 1779,2384 1775,2374 1781,2374"/>
<text text-anchor="middle" x="1706" y="1739">1.+</text>
</g>
<g id="edge173" class="edge"><title>org.springframework/spring&#45;&gt;org.aopalliance/aopalliance</title>
<path style="fill:none;stroke:black;" d="M1663,1048C1685,1005 1742,895 1768,845"/>
<polygon style="fill:black;stroke:black;" points="1765,843 1773,836 1771,846 1765,843"/>
<text text-anchor="middle" x="1702" y="947">1.+</text>
</g>
<g id="edge177" class="edge"><title>org.springframework/spring&#45;&gt;javax.jms/jms</title>
<path style="fill:none;stroke:black;" d="M1649,1083C1635,1129 1600,1250 1584,1304"/>
<polygon style="fill:black;stroke:black;" points="1587,1305 1581,1314 1581,1303 1587,1305"/>
<text text-anchor="middle" x="1601" y="1204">1.+</text>
</g>
<g id="edge293" class="edge"><title>org.openid4java/openid4java&#45;&gt;org.openxri/openxri</title>
<path style="fill:none;stroke:black;" d="M1950,617C1908,759 1634,1687 1583,1859"/>
<polygon style="fill:black;stroke:black;" points="1586,1860 1580,1869 1580,1858 1586,1860"/>
<text text-anchor="middle" x="1733" y="1248">[1.0.1,2.0[</text>
</g>
<g id="edge291" class="edge"><title>org.openid4java/openid4java&#45;&gt;org.apache.log4j/log4j</title>
<path style="fill:none;stroke:black;" d="M1948,617C1899,738 1619,1436 1560,1582"/>
<polygon style="fill:black;stroke:black;" points="1563,1584 1556,1592 1556,1581 1563,1584"/>
<text text-anchor="middle" x="1715" y="1110">[1.2.14,1.3[</text>
</g>
<g id="edge295" class="edge"><title>org.openid4java/openid4java&#45;&gt;net.sourceforge.ehcache/ehcache</title>
<path style="fill:none;stroke:black;" d="M1960,617C2021,825 2584,2752 2659,3006"/>
<polygon style="fill:black;stroke:black;" points="2662,3005 2662,3016 2656,3007 2662,3005"/>
<text text-anchor="middle" x="2278" y="1823">[1.3.0,1.5[</text>
</g>
<g id="edge297" class="edge"><title>org.openid4java/openid4java&#45;&gt;org.springframework/spring</title>
<path style="fill:none;stroke:black;" d="M1944,617C1898,688 1725,955 1670,1040"/>
<polygon style="fill:black;stroke:black;" points="1673,1041 1665,1048 1667,1038 1673,1041"/>
<text text-anchor="middle" x="1767" y="839">[2.0.6,3.0[</text>
</g>
<g id="node182" class="node"><title>net.sourceforge.htmlparser/htmlparser</title>
<ellipse cx="1871" cy="519" rx="43" ry="18" style="fill:darkorange;stroke:black;"/>
<text text-anchor="middle" x="1871" y="524">htmlparser</text>
</g>
<g id="edge289" class="edge"><title>org.openid4java/openid4java&#45;&gt;net.sourceforge.htmlparser/htmlparser</title>
<path style="fill:none;stroke:black;" d="M1937,582C1925,571 1909,555 1896,543"/>
<polygon style="fill:black;stroke:black;" points="1893,545 1888,536 1898,540 1893,545"/>
<text text-anchor="middle" x="1912" y="580">1.6</text>
</g>
<g id="node207" class="node"><title>org.apache.commons/commons&#45;httpclient</title>
<ellipse cx="2165" cy="417" rx="69" ry="18" style="fill:#cda87d;stroke:black;"/>
<text text-anchor="middle" x="2165" y="422">commons&#45;httpclient</text>
</g>
<g id="edge287" class="edge"><title>org.openid4java/openid4java&#45;&gt;org.apache.commons/commons&#45;httpclient</title>
<path style="fill:none;stroke:black;" d="M1974,583C2012,551 2095,479 2137,441"/>
<polygon style="fill:black;stroke:black;" points="2135,438 2145,434 2140,443 2135,438"/>
<text text-anchor="middle" x="2059" y="531">[3.0.1,4.0[</text>
</g>
<g id="node174" class="node"><title>com.google/gwt</title>
<ellipse cx="2001" cy="2386" rx="27" ry="18" style="fill:#cda87d;stroke:black;"/>
<text text-anchor="middle" x="2001" y="2391">gwt</text>
</g>
<g id="node198" class="node"><title>org.apache.commons/commons&#45;dbcp</title>
<ellipse cx="2522" cy="2222" rx="56" ry="18" style="fill:#cda87d;stroke:black;"/>
<text text-anchor="middle" x="2522" y="2227">commons&#45;dbcp</text>
</g>
<g id="node200" class="node"><title>org.apache.commons/commons&#45;pool</title>
<ellipse cx="2705" cy="2222" rx="55" ry="18" style="fill:#cda87d;stroke:black;"/>
<text text-anchor="middle" x="2705" y="2227">commons&#45;pool</text>
</g>
<g id="edge210" class="edge"><title>org.apache.commons/commons&#45;dbcp&#45;&gt;org.apache.commons/commons&#45;pool</title>
<path style="fill:none;stroke:black;" d="M2578,2222C2598,2222 2620,2222 2640,2222"/>
<polygon style="fill:black;stroke:black;" points="2640,2218 2650,2222 2640,2225 2640,2218"/>
<text text-anchor="middle" x="2613" y="2236">1.3+</text>
</g>
<g id="edge218" class="edge"><title>org.apache.commons/commons&#45;httpclient&#45;&gt;org.apache.commons/commons&#45;logging</title>
<path style="fill:none;stroke:black;" d="M2162,435C2126,619 1831,2147 1787,2374"/>
<polygon style="fill:black;stroke:black;" points="1790,2375 1785,2384 1784,2374 1790,2375"/>
<text text-anchor="middle" x="1941" y="1415">[1.0.4,2.0[</text>
</g>
<g id="edge220" class="edge"><title>org.apache.commons/commons&#45;httpclient&#45;&gt;org.apache.commons/commons&#45;codec</title>
<path style="fill:none;stroke:black;" d="M2194,401C2238,376 2322,327 2370,299"/>
<polygon style="fill:black;stroke:black;" points="2369,296 2379,294 2372,302 2369,296"/>
<text text-anchor="middle" x="2285" y="368">[1.2,2.0[</text>
</g>
<g id="node214" class="node"><title>org.apache.commons/commons&#45;email</title>
<ellipse cx="2360" cy="2714" rx="58" ry="18" style="fill:#cda87d;stroke:black;"/>
<text text-anchor="middle" x="2360" y="2719">commons&#45;email</text>
</g>
<g id="node216" class="node"><title>org.apache.commons/commons&#45;digester</title>
<ellipse cx="3748" cy="343" rx="64" ry="18" style="fill:#cda87d;stroke:black;"/>
<text text-anchor="middle" x="3748" y="348">commons&#45;digester</text>
</g>
<g id="edge231" class="edge"><title>org.apache.commons/commons&#45;digester&#45;&gt;org.apache.commons/commons&#45;collections</title>
<path style="fill:none;stroke:black;" d="M3772,360C3812,389 3896,449 3942,482"/>
<polygon style="fill:black;stroke:black;" points="3944,479 3950,488 3940,485 3944,479"/>
<text text-anchor="middle" x="3860" y="444">[2.0,4.0[</text>
</g>
<g id="edge227" class="edge"><title>org.apache.commons/commons&#45;digester&#45;&gt;org.apache.commons/commons&#45;logging</title>
<path style="fill:none;stroke:black;" d="M3731,360C3554,547 2015,2157 1805,2377"/>
<polygon style="fill:black;stroke:black;" points="1807,2380 1798,2385 1802,2375 1807,2380"/>
<text text-anchor="middle" x="2742" y="1379">1.1+</text>
</g>
<g id="edge229" class="edge"><title>org.apache.commons/commons&#45;digester&#45;&gt;org.apache.commons/commons&#45;beanutils</title>
<path style="fill:none;stroke:black;" d="M3714,328C3669,307 3588,270 3537,247"/>
<polygon style="fill:black;stroke:black;" points="3536,250 3528,243 3539,244 3536,250"/>
<text text-anchor="middle" x="3621" y="304">[1.7,2.0]</text>
</g>
<g id="node234" class="node"><title>net.sourceforge.cobertura/cobertura</title>
<ellipse cx="4165" cy="2518" rx="39" ry="18" style="fill:aquamarine;stroke:black;"/>
<text text-anchor="middle" x="4165" y="2523">cobertura</text>
</g>
<g id="edge249" class="edge"><title>net.sourceforge.cobertura/cobertura&#45;&gt;org.apache.oro/oro</title>
<path style="fill:none;stroke:black;" d="M4185,2534C4194,2542 4206,2551 4217,2559"/>
<polygon style="fill:black;stroke:black;" points="4219,2556 4225,2565 4215,2562 4219,2556"/>
<text text-anchor="middle" x="4204" y="2571">[2.0.8,3.0[</text>
</g>
<g id="edge247" class="edge"><title>net.sourceforge.cobertura/cobertura&#45;&gt;org.apache.log4j/log4j</title>
<path style="fill:none;stroke:black;" d="M4134,2507C3860,2412 1868,1721 1583,1621"/>
<polygon style="fill:black;stroke:black;" points="1582,1624 1573,1618 1584,1618 1582,1624"/>
<text text-anchor="middle" x="2853" y="2080">[1.2.9,2.0[</text>
</g>
<g id="edge251" class="edge"><title>net.sourceforge.cobertura/cobertura&#45;&gt;org.objectweb.asm/asm</title>
<path style="fill:none;stroke:black;" d="M4149,2535C4114,2571 4033,2656 3994,2697"/>
<polygon style="fill:black;stroke:black;" points="3997,2699 3987,2704 3992,2694 3997,2699"/>
<text text-anchor="middle" x="4045" y="2625">2.2+</text>
</g>
<g id="node253" class="node"><title>net.sourceforge.dozer/dozer</title>
<ellipse cx="3224" cy="161" rx="29" ry="18" style="fill:#97f6ff;stroke:black;"/>
<text text-anchor="middle" x="3224" y="166">dozer</text>
</g>
<g id="edge277" class="edge"><title>net.sourceforge.dozer/dozer&#45;&gt;org.apache.commons/commons&#45;collections</title>
<path style="fill:none;stroke:black;" d="M3248,172C3355,221 3790,421 3930,485"/>
<polygon style="fill:black;stroke:black;" points="3931,482 3939,489 3928,488 3931,482"/>
<text text-anchor="middle" x="3593" y="349">[3.1,4.0[</text>
</g>
<g id="edge281" class="edge"><title>net.sourceforge.dozer/dozer&#45;&gt;org.apache.commons/commons&#45;logging</title>
<path style="fill:none;stroke:black;" d="M3213,178C3090,369 1952,2137 1798,2375"/>
<polygon style="fill:black;stroke:black;" points="1800,2378 1792,2384 1795,2374 1800,2378"/>
<text text-anchor="middle" x="2538" y="1287">[1.0.3,2.0[</text>
</g>
<g id="edge275" class="edge"><title>net.sourceforge.dozer/dozer&#45;&gt;org.apache.commons/commons&#45;beanutils</title>
<path style="fill:none;stroke:black;" d="M3251,168C3293,178 3377,199 3434,213"/>
<polygon style="fill:black;stroke:black;" points="3435,210 3444,215 3434,216 3435,210"/>
<text text-anchor="middle" x="3347" y="208">[1.7,2.0[</text>
</g>
<g id="edge279" class="edge"><title>net.sourceforge.dozer/dozer&#45;&gt;org.apache.commons/commons&#45;lang</title>
<path style="fill:none;stroke:black;" d="M3195,160C3152,157 3068,153 3010,151"/>
<polygon style="fill:black;stroke:black;" points="3010,154 3000,150 3010,148 3010,154"/>
<text text-anchor="middle" x="3097" y="169">[2.1,3.0[</text>
</g>
</g>
</svg>
