<?xml version="1.0" encoding="UTF-8" standalone="no"?>
<!DOCTYPE svg PUBLIC "-//W3C//DTD SVG 1.0//EN"
 "http://www.w3.org/TR/2001/REC-SVG-20010904/DTD/svg10.dtd">
<!-- Generated by circo version 2.2 (Tue Sep 13 00:37:56 UTC 2005)
     For user: (archie) Archie Cobbs   Title: modules    Pages: 1 -->
<svg width="795pt" height="804pt"
 viewBox = "-1 -1 794 803"
 xmlns="http://www.w3.org/2000/svg">
<g id="graph0" class="graph" transform = "scale(0.637681)"
 style="font-family:Times-Roman;font-size:14.00;">
<title>modules</title>
<g id="node3" class="node"><title>org.testng/testng</title>
<ellipse cx="456" cy="518" rx="30" ry="18" style="fill:#bd3eff;stroke:black;"/>
<text text-anchor="middle" x="456" y="523">testng</text>
</g>
<g id="node6" class="node"><title>com.puppycrawl/checkstyle</title>
<ellipse cx="382" cy="1088" rx="42" ry="18" style="fill:#97f6ff;stroke:black;"/>
<text text-anchor="middle" x="382" y="1093">checkstyle</text>
</g>
<g id="node8" class="node"><title>org.antlr/antlr</title>
<ellipse cx="341" cy="1232" rx="27" ry="18" style="fill:#97f6ff;stroke:black;"/>
<text text-anchor="middle" x="341" y="1237">antlr</text>
</g>
<g id="edge6" class="edge"><title>com.puppycrawl/checkstyle&#45;&gt;org.antlr/antlr</title>
<path style="fill:none;stroke:black;" d="M377,1106C370,1131 357,1175 349,1204"/>
<polygon style="fill:black;stroke:black;" points="352,1205 346,1214 346,1203 352,1205"/>
<text text-anchor="middle" x="344" y="1166">2.7+</text>
</g>
<g id="node10" class="node"><title>org.apache.commons/commons&#45;cli</title>
<ellipse cx="475" cy="1172" rx="49" ry="18" style="fill:#97f6ff;stroke:black;"/>
<text text-anchor="middle" x="475" y="1177">commons&#45;cli</text>
</g>
<g id="edge8" class="edge"><title>com.puppycrawl/checkstyle&#45;&gt;org.apache.commons/commons&#45;cli</title>
<path style="fill:none;stroke:black;" d="M400,1105C414,1117 433,1134 448,1148"/>
<polygon style="fill:black;stroke:black;" points="451,1146 456,1155 446,1151 451,1146"/>
<text text-anchor="middle" x="428" y="1152">[1.1,2.0[</text>
</g>
<g id="node12" class="node"><title>org.apache.commons/commons&#45;collections</title>
<ellipse cx="174" cy="728" rx="73" ry="18" style="fill:#97f6ff;stroke:black;"/>
<text text-anchor="middle" x="174" y="733">commons&#45;collections</text>
</g>
<g id="edge10" class="edge"><title>com.puppycrawl/checkstyle&#45;&gt;org.apache.commons/commons&#45;collections</title>
<path style="fill:none;stroke:black;" d="M372,1070C339,1012 230,825 189,755"/>
<polygon style="fill:black;stroke:black;" points="186,756 184,746 192,753 186,756"/>
<text text-anchor="middle" x="259" y="914">2.1+</text>
</g>
<g id="node14" class="node"><title>org.apache.commons/commons&#45;logging</title>
<ellipse cx="486" cy="908" rx="64" ry="18" style="fill:#97f6ff;stroke:black;"/>
<text text-anchor="middle" x="486" y="913">commons&#45;logging</text>
</g>
<g id="edge12" class="edge"><title>com.puppycrawl/checkstyle&#45;&gt;org.apache.commons/commons&#45;logging</title>
<path style="fill:none;stroke:black;" d="M392,1070C410,1039 449,972 471,935"/>
<polygon style="fill:black;stroke:black;" points="468,933 476,926 474,936 468,933"/>
<text text-anchor="middle" x="448" y="1003">1+</text>
</g>
<g id="node16" class="node"><title>org.apache.commons/commons&#45;beanutils</title>
<ellipse cx="174" cy="1088" rx="68" ry="18" style="fill:#97f6ff;stroke:black;"/>
<text text-anchor="middle" x="174" y="1093">commons&#45;beanutils</text>
</g>
<g id="edge14" class="edge"><title>com.puppycrawl/checkstyle&#45;&gt;org.apache.commons/commons&#45;beanutils</title>
<path style="fill:none;stroke:black;" d="M340,1088C315,1088 282,1088 252,1088"/>
<polygon style="fill:black;stroke:black;" points="252,1091 242,1088 252,1084 252,1091"/>
<text text-anchor="middle" x="290" y="1084">1.7+</text>
</g>
<g id="edge64" class="edge"><title>org.apache.commons/commons&#45;beanutils&#45;&gt;org.apache.commons/commons&#45;collections</title>
<path style="fill:none;stroke:black;" d="M174,1070C174,1011 174,827 174,756"/>
<polygon style="fill:black;stroke:black;" points="171,756 174,746 178,756 171,756"/>
<text text-anchor="middle" x="185" y="914">3.+</text>
</g>
<g id="edge62" class="edge"><title>org.apache.commons/commons&#45;beanutils&#45;&gt;org.apache.commons/commons&#45;logging</title>
<path style="fill:none;stroke:black;" d="M203,1072C259,1039 386,966 449,929"/>
<polygon style="fill:black;stroke:black;" points="448,926 458,924 451,932 448,926"/>
<text text-anchor="middle" x="329" y="1018">[1.0,2.0[</text>
</g>
<g id="node19" class="node"><title>org.apache.oro/oro</title>
<ellipse cx="579" cy="524" rx="27" ry="18" style="fill:gold;stroke:black;"/>
<text text-anchor="middle" x="579" y="529">oro</text>
</g>
<g id="node22" class="node"><title>org.apache.xml/xalan&#45;j</title>
<ellipse cx="930" cy="263" rx="33" ry="18" style="fill:#cda87d;stroke:black;"/>
<text text-anchor="middle" x="930" y="268">xalan&#45;j</text>
</g>
<g id="node24" class="node"><title>org.apache.xerces/xerces</title>
<ellipse cx="736" cy="281" rx="31" ry="18" style="fill:#cda87d;stroke:black;"/>
<text text-anchor="middle" x="736" y="286">xerces</text>
</g>
<g id="edge20" class="edge"><title>org.apache.xml/xalan&#45;j&#45;&gt;org.apache.xerces/xerces</title>
<path style="fill:none;stroke:black;" d="M897,266C864,269 813,274 777,277"/>
<polygon style="fill:black;stroke:black;" points="777,280 767,278 777,274 777,280"/>
<text text-anchor="middle" x="832" y="287">2.7+</text>
</g>
<g id="node29" class="node"><title>org.dom4j/dom4j</title>
<ellipse cx="873" cy="142" rx="31" ry="18" style="fill:cyan;stroke:black;"/>
<text text-anchor="middle" x="873" y="147">dom4j</text>
</g>
<g id="edge26" class="edge"><title>org.dom4j/dom4j&#45;&gt;org.apache.xerces/xerces</title>
<path style="fill:none;stroke:black;" d="M858,158C834,182 787,229 759,257"/>
<polygon style="fill:black;stroke:black;" points="761,260 752,265 756,255 761,260"/>
<text text-anchor="middle" x="771" y="217">[2.5,3.0[</text>
</g>
<g id="node33" class="node"><title>net.sourceforge.jsr107cache/jsr107cache</title>
<ellipse cx="361" cy="136" rx="47" ry="18" style="fill:darkorange;stroke:black;"/>
<text text-anchor="middle" x="361" y="141">jsr107cache</text>
</g>
<g id="node36" class="node"><title>org.mortbay/jetty</title>
<ellipse cx="705" cy="770" rx="27" ry="18" style="fill:#bd3eff;stroke:black;"/>
<text text-anchor="middle" x="705" y="775">jetty</text>
</g>
<g id="node39" class="node"><title>org.mozilla/rhino</title>
<ellipse cx="680" cy="28" rx="28" ry="18" style="fill:#97f6ff;stroke:black;"/>
<text text-anchor="middle" x="680" y="33">rhino</text>
</g>
<g id="node42" class="node"><title>org.apache.xmlgraphics/batik</title>
<ellipse cx="707" cy="153" rx="27" ry="18" style="fill:gold;stroke:black;"/>
<text text-anchor="middle" x="707" y="158">batik</text>
</g>
<g id="edge38" class="edge"><title>org.apache.xmlgraphics/batik&#45;&gt;org.apache.xerces/xerces</title>
<path style="fill:none;stroke:black;" d="M711,171C716,192 724,228 730,253"/>
<polygon style="fill:black;stroke:black;" points="733,253 732,263 727,254 733,253"/>
<text text-anchor="middle" x="705" y="222">2.5+</text>
</g>
<g id="edge36" class="edge"><title>org.apache.xmlgraphics/batik&#45;&gt;org.mozilla/rhino</title>
<path style="fill:none;stroke:black;" d="M703,135C699,115 691,81 686,56"/>
<polygon style="fill:black;stroke:black;" points="683,56 684,46 689,55 683,56"/>
<text text-anchor="middle" x="681" y="96">1.+</text>
</g>
<g id="node47" class="node"><title>com.mysql/mysql&#45;connector&#45;java</title>
<ellipse cx="583" cy="728" rx="73" ry="18" style="fill:#cda87d;stroke:black;"/>
<text text-anchor="middle" x="583" y="733">mysql&#45;connector&#45;java</text>
</g>
<g id="node50" class="node"><title>org.aopalliance/aopalliance</title>
<ellipse cx="882" cy="977" rx="45" ry="18" style="fill:aquamarine;stroke:black;"/>
<text text-anchor="middle" x="882" y="982">aopalliance</text>
</g>
<g id="node53" class="node"><title>org.springframework/spring</title>
<ellipse cx="751" cy="908" rx="31" ry="18" style="fill:cyan;stroke:black;"/>
<text text-anchor="middle" x="751" y="913">spring</text>
</g>
<g id="edge48" class="edge"><title>org.springframework/spring&#45;&gt;org.apache.commons/commons&#45;logging</title>
<path style="fill:none;stroke:black;" d="M720,908C681,908 613,908 560,908"/>
<polygon style="fill:black;stroke:black;" points="560,911 550,908 560,904 560,911"/>
<text text-anchor="middle" x="635" y="904">1.+</text>
</g>
<g id="edge46" class="edge"><title>org.springframework/spring&#45;&gt;org.aopalliance/aopalliance</title>
<path style="fill:none;stroke:black;" d="M774,920C794,931 823,946 846,958"/>
<polygon style="fill:black;stroke:black;" points="848,955 855,963 845,961 848,955"/>
<text text-anchor="middle" x="814" y="960">1.+</text>
</g>
<g id="node57" class="node"><title>javax.jms/jms</title>
<ellipse cx="882" cy="839" rx="27" ry="18" style="fill:cyan;stroke:black;"/>
<text text-anchor="middle" x="882" y="844">jms</text>
</g>
<g id="edge50" class="edge"><title>org.springframework/spring&#45;&gt;javax.jms/jms</title>
<path style="fill:none;stroke:black;" d="M774,896C796,885 828,868 851,855"/>
<polygon style="fill:black;stroke:black;" points="850,852 860,850 853,858 850,852"/>
<text text-anchor="middle" x="817" y="892">1.+</text>
</g>
<g id="node62" class="node"><title>javax.transaction/jta</title>
<ellipse cx="537" cy="434" rx="27" ry="18" style="fill:#bd3eff;stroke:black;"/>
<text text-anchor="middle" x="537" y="439">jta</text>
</g>
<g id="node65" class="node"><title>org.objectweb.asm/asm</title>
<ellipse cx="1092" cy="587" rx="27" ry="18" style="fill:#97f6ff;stroke:black;"/>
<text text-anchor="middle" x="1092" y="592">asm</text>
</g>
<g id="node74" class="node"><title>org.apache.commons/commons&#45;dbcp</title>
<ellipse cx="566" cy="644" rx="56" ry="18" style="fill:gold;stroke:black;"/>
<text text-anchor="middle" x="566" y="649">commons&#45;dbcp</text>
</g>
<g id="node76" class="node"><title>org.apache.commons/commons&#45;pool</title>
<ellipse cx="749" cy="644" rx="55" ry="18" style="fill:gold;stroke:black;"/>
<text text-anchor="middle" x="749" y="649">commons&#45;pool</text>
</g>
<g id="edge68" class="edge"><title>org.apache.commons/commons&#45;dbcp&#45;&gt;org.apache.commons/commons&#45;pool</title>
<path style="fill:none;stroke:black;" d="M622,644C642,644 664,644 684,644"/>
<polygon style="fill:black;stroke:black;" points="684,640 694,644 684,647 684,640"/>
<text text-anchor="middle" x="657" y="658">1.3+</text>
</g>
<g id="node82" class="node"><title>org.apache.commons/commons&#45;email</title>
<ellipse cx="694" cy="476" rx="58" ry="18" style="fill:gold;stroke:black;"/>
<text text-anchor="middle" x="694" y="481">commons&#45;email</text>
</g>
<g id="node84" class="node"><title>org.apache.commons/commons&#45;digester</title>
<ellipse cx="70" cy="908" rx="64" ry="18" style="fill:gold;stroke:black;"/>
<text text-anchor="middle" x="70" y="913">commons&#45;digester</text>
</g>
<g id="edge80" class="edge"><title>org.apache.commons/commons&#45;digester&#45;&gt;org.apache.commons/commons&#45;collections</title>
<path style="fill:none;stroke:black;" d="M80,890C98,859 137,792 159,755"/>
<polygon style="fill:black;stroke:black;" points="156,753 164,746 162,756 156,753"/>
<text text-anchor="middle" x="152" y="823">[2.0,4.0[</text>
</g>
<g id="edge76" class="edge"><title>org.apache.commons/commons&#45;digester&#45;&gt;org.apache.commons/commons&#45;logging</title>
<path style="fill:none;stroke:black;" d="M134,908C209,908 333,908 412,908"/>
<polygon style="fill:black;stroke:black;" points="412,904 422,908 412,911 412,904"/>
<text text-anchor="middle" x="277" y="922">1.1+</text>
</g>
<g id="edge78" class="edge"><title>org.apache.commons/commons&#45;digester&#45;&gt;org.apache.commons/commons&#45;beanutils</title>
<path style="fill:none;stroke:black;" d="M80,926C98,957 137,1024 159,1061"/>
<polygon style="fill:black;stroke:black;" points="162,1060 164,1070 156,1063 162,1060"/>
<text text-anchor="middle" x="92" y="1004">[1.7,2.0]</text>
</g>
<g id="node102" class="node"><title>net.sourceforge.cobertura/cobertura</title>
<ellipse cx="969" cy="524" rx="39" ry="18" style="fill:#cda87d;stroke:black;"/>
<text text-anchor="middle" x="969" y="529">cobertura</text>
</g>
<g id="edge98" class="edge"><title>net.sourceforge.cobertura/cobertura&#45;&gt;org.apache.oro/oro</title>
<path style="fill:none;stroke:black;" d="M930,524C855,524 690,524 616,524"/>
<polygon style="fill:black;stroke:black;" points="616,527 606,524 616,520 616,527"/>
<text text-anchor="middle" x="768" y="520">[2.0.8,3.0[</text>
</g>
<g id="edge100" class="edge"><title>net.sourceforge.cobertura/cobertura&#45;&gt;org.objectweb.asm/asm</title>
<path style="fill:none;stroke:black;" d="M995,538C1015,547 1041,561 1061,571"/>
<polygon style="fill:black;stroke:black;" points="1063,568 1070,576 1060,574 1063,568"/>
<text text-anchor="middle" x="1032" y="575">2.2+</text>
</g>
<g id="node104" class="node"><title>org.apache.log4j/log4j</title>
<ellipse cx="1149" cy="433" rx="27" ry="18" style="fill:#cda87d;stroke:black;"/>
<text text-anchor="middle" x="1149" y="438">log4j</text>
</g>
<g id="edge96" class="edge"><title>net.sourceforge.cobertura/cobertura&#45;&gt;org.apache.log4j/log4j</title>
<path style="fill:none;stroke:black;" d="M996,511C1029,494 1084,466 1118,449"/>
<polygon style="fill:black;stroke:black;" points="1117,446 1127,444 1120,452 1117,446"/>
<text text-anchor="middle" x="1060" y="470">[1.2.9,2.0[</text>
</g>
<g id="node111" class="node"><title>net.sourceforge.cglib/cglib</title>
<ellipse cx="1205" cy="644" rx="27" ry="18" style="fill:cyan;stroke:black;"/>
<text text-anchor="middle" x="1205" y="649">cglib</text>
</g>
<g id="edge106" class="edge"><title>net.sourceforge.cglib/cglib&#45;&gt;org.objectweb.asm/asm</title>
<path style="fill:none;stroke:black;" d="M1183,633C1166,624 1142,612 1123,603"/>
<polygon style="fill:black;stroke:black;" points="1121,606 1114,598 1124,600 1121,606"/>
<text text-anchor="middle" x="1148" y="634">1.5.3</text>
</g>
<g id="node115" class="node"><title>net.sourceforge.ehcache/ehcache</title>
<ellipse cx="382" cy="728" rx="36" ry="18" style="fill:darkorange;stroke:black;"/>
<text text-anchor="middle" x="382" y="733">ehcache</text>
</g>
<g id="edge112" class="edge"><title>net.sourceforge.ehcache/ehcache&#45;&gt;org.apache.commons/commons&#45;collections</title>
<path style="fill:none;stroke:black;" d="M346,728C322,728 288,728 257,728"/>
<polygon style="fill:black;stroke:black;" points="257,731 247,728 257,724 257,731"/>
<text text-anchor="middle" x="296" y="724">2.1.1</text>
</g>
<g id="edge110" class="edge"><title>net.sourceforge.ehcache/ehcache&#45;&gt;org.apache.commons/commons&#45;logging</title>
<path style="fill:none;stroke:black;" d="M392,746C410,777 449,844 471,881"/>
<polygon style="fill:black;stroke:black;" points="474,880 476,890 468,883 474,880"/>
<text text-anchor="middle" x="416" y="824">1.1+</text>
</g>
<g id="edge114" class="edge"><title>net.sourceforge.ehcache/ehcache&#45;&gt;org.apache.xerces/xerces</title>
<path style="fill:none;stroke:black;" d="M395,711C449,642 652,387 717,306"/>
<polygon style="fill:black;stroke:black;" points="714,304 723,298 720,308 714,304"/>
<text text-anchor="middle" x="536" y="510">2.5.0</text>
</g>
<g id="edge117" class="edge"><title>net.sourceforge.ehcache/ehcache&#45;&gt;net.sourceforge.jsr107cache/jsr107cache</title>
<path style="fill:none;stroke:black;" d="M381,710C378,626 366,268 362,164"/>
<polygon style="fill:black;stroke:black;" points="359,164 362,154 366,164 359,164"/>
<text text-anchor="middle" x="357" y="437">1.0+</text>
</g>
<g id="node125" class="node"><title>net.sourceforge.c3p0/c3p0</title>
<ellipse cx="453" cy="434" rx="27" ry="18" style="fill:#97f6ff;stroke:black;"/>
<text text-anchor="middle" x="453" y="439">c3p0</text>
</g>
</g>
</svg>
