<?xml version="1.0" encoding="UTF-8" standalone="no"?>
<!DOCTYPE svg PUBLIC "-//W3C//DTD SVG 1.0//EN"
 "http://www.w3.org/TR/2001/REC-SVG-20010904/DTD/svg10.dtd">
<!-- Generated by circo version 2.2 (Tue Sep 13 00:37:56 UTC 2005)
     For user: (archie) Archie Cobbs   Title: modules    Pages: 1 -->
<svg width="800pt" height="804pt"
 viewBox = "-1 -1 799 803"
 xmlns="http://www.w3.org/2000/svg">
<g id="graph0" class="graph" transform = "scale(0.637681)"
 style="font-family:Times-Roman;font-size:14.00;">
<title>modules</title>
<g id="node3" class="node"><title>org.testng/testng</title>
<ellipse cx="480" cy="529" rx="30" ry="18" style="fill:#bd3eff;stroke:black;"/>
<text text-anchor="middle" x="480" y="534">testng</text>
</g>
<g id="node6" class="node"><title>org.codehaus.jaxen/jaxen</title>
<ellipse cx="479" cy="714" rx="29" ry="18" style="fill:#97f6ff;stroke:black;"/>
<text text-anchor="middle" x="479" y="719">jaxen</text>
</g>
<g id="node9" class="node"><title>com.puppycrawl/checkstyle</title>
<ellipse cx="382" cy="1088" rx="42" ry="18" style="fill:gold;stroke:black;"/>
<text text-anchor="middle" x="382" y="1093">checkstyle</text>
</g>
<g id="node11" class="node"><title>org.antlr/antlr</title>
<ellipse cx="341" cy="1232" rx="27" ry="18" style="fill:gold;stroke:black;"/>
<text text-anchor="middle" x="341" y="1237">antlr</text>
</g>
<g id="edge8" class="edge"><title>com.puppycrawl/checkstyle&#45;&gt;org.antlr/antlr</title>
<path style="fill:none;stroke:black;" d="M377,1106C370,1131 357,1175 349,1204"/>
<polygon style="fill:black;stroke:black;" points="352,1205 346,1214 346,1203 352,1205"/>
<text text-anchor="middle" x="344" y="1166">2.7+</text>
</g>
<g id="node13" class="node"><title>org.apache.commons/commons&#45;cli</title>
<ellipse cx="475" cy="1172" rx="49" ry="18" style="fill:gold;stroke:black;"/>
<text text-anchor="middle" x="475" y="1177">commons&#45;cli</text>
</g>
<g id="edge10" class="edge"><title>com.puppycrawl/checkstyle&#45;&gt;org.apache.commons/commons&#45;cli</title>
<path style="fill:none;stroke:black;" d="M400,1105C414,1117 433,1134 448,1148"/>
<polygon style="fill:black;stroke:black;" points="451,1146 456,1155 446,1151 451,1146"/>
<text text-anchor="middle" x="428" y="1152">[1.1,2.0[</text>
</g>
<g id="node15" class="node"><title>org.apache.commons/commons&#45;collections</title>
<ellipse cx="174" cy="728" rx="73" ry="18" style="fill:gold;stroke:black;"/>
<text text-anchor="middle" x="174" y="733">commons&#45;collections</text>
</g>
<g id="edge12" class="edge"><title>com.puppycrawl/checkstyle&#45;&gt;org.apache.commons/commons&#45;collections</title>
<path style="fill:none;stroke:black;" d="M372,1070C339,1012 230,825 189,755"/>
<polygon style="fill:black;stroke:black;" points="186,756 184,746 192,753 186,756"/>
<text text-anchor="middle" x="259" y="914">2.1+</text>
</g>
<g id="node17" class="node"><title>org.apache.commons/commons&#45;logging</title>
<ellipse cx="486" cy="908" rx="64" ry="18" style="fill:gold;stroke:black;"/>
<text text-anchor="middle" x="486" y="913">commons&#45;logging</text>
</g>
<g id="edge14" class="edge"><title>com.puppycrawl/checkstyle&#45;&gt;org.apache.commons/commons&#45;logging</title>
<path style="fill:none;stroke:black;" d="M392,1070C410,1039 449,972 471,935"/>
<polygon style="fill:black;stroke:black;" points="468,933 476,926 474,936 468,933"/>
<text text-anchor="middle" x="448" y="1003">1+</text>
</g>
<g id="node19" class="node"><title>org.apache.commons/commons&#45;beanutils</title>
<ellipse cx="174" cy="1088" rx="68" ry="18" style="fill:gold;stroke:black;"/>
<text text-anchor="middle" x="174" y="1093">commons&#45;beanutils</text>
</g>
<g id="edge16" class="edge"><title>com.puppycrawl/checkstyle&#45;&gt;org.apache.commons/commons&#45;beanutils</title>
<path style="fill:none;stroke:black;" d="M340,1088C315,1088 282,1088 252,1088"/>
<polygon style="fill:black;stroke:black;" points="252,1091 242,1088 252,1084 252,1091"/>
<text text-anchor="middle" x="290" y="1084">1.7+</text>
</g>
<g id="edge74" class="edge"><title>org.apache.commons/commons&#45;beanutils&#45;&gt;org.apache.commons/commons&#45;collections</title>
<path style="fill:none;stroke:black;" d="M174,1070C174,1011 174,827 174,756"/>
<polygon style="fill:black;stroke:black;" points="171,756 174,746 178,756 171,756"/>
<text text-anchor="middle" x="185" y="914">3.+</text>
</g>
<g id="edge72" class="edge"><title>org.apache.commons/commons&#45;beanutils&#45;&gt;org.apache.commons/commons&#45;logging</title>
<path style="fill:none;stroke:black;" d="M203,1072C259,1039 386,966 449,929"/>
<polygon style="fill:black;stroke:black;" points="448,926 458,924 451,932 448,926"/>
<text text-anchor="middle" x="329" y="1018">[1.0,2.0[</text>
</g>
<g id="node22" class="node"><title>org.apache.oro/oro</title>
<ellipse cx="588" cy="557" rx="27" ry="18" style="fill:#cda87d;stroke:black;"/>
<text text-anchor="middle" x="588" y="562">oro</text>
</g>
<g id="node25" class="node"><title>org.apache.xml/xalan&#45;j</title>
<ellipse cx="930" cy="263" rx="33" ry="18" style="fill:aquamarine;stroke:black;"/>
<text text-anchor="middle" x="930" y="268">xalan&#45;j</text>
</g>
<g id="node27" class="node"><title>org.apache.xerces/xerces</title>
<ellipse cx="736" cy="281" rx="31" ry="18" style="fill:aquamarine;stroke:black;"/>
<text text-anchor="middle" x="736" y="286">xerces</text>
</g>
<g id="edge22" class="edge"><title>org.apache.xml/xalan&#45;j&#45;&gt;org.apache.xerces/xerces</title>
<path style="fill:none;stroke:black;" d="M897,266C864,269 813,274 777,277"/>
<polygon style="fill:black;stroke:black;" points="777,280 767,278 777,274 777,280"/>
<text text-anchor="middle" x="832" y="287">2.7+</text>
</g>
<g id="node32" class="node"><title>org.dom4j/dom4j</title>
<ellipse cx="873" cy="142" rx="31" ry="18" style="fill:darkorange;stroke:black;"/>
<text text-anchor="middle" x="873" y="147">dom4j</text>
</g>
<g id="edge28" class="edge"><title>org.dom4j/dom4j&#45;&gt;org.apache.xerces/xerces</title>
<path style="fill:none;stroke:black;" d="M858,158C834,182 787,229 759,257"/>
<polygon style="fill:black;stroke:black;" points="761,260 752,265 756,255 761,260"/>
<text text-anchor="middle" x="771" y="217">[2.5,3.0[</text>
</g>
<g id="node36" class="node"><title>org.jboss/javassist</title>
<ellipse cx="487" cy="455" rx="37" ry="18" style="fill:#bd3eff;stroke:black;"/>
<text text-anchor="middle" x="487" y="460">javassist</text>
</g>
<g id="node39" class="node"><title>net.sourceforge.jsr107cache/jsr107cache</title>
<ellipse cx="361" cy="136" rx="47" ry="18" style="fill:#97f6ff;stroke:black;"/>
<text text-anchor="middle" x="361" y="141">jsr107cache</text>
</g>
<g id="node42" class="node"><title>org.mortbay/jetty</title>
<ellipse cx="699" cy="714" rx="27" ry="18" style="fill:gold;stroke:black;"/>
<text text-anchor="middle" x="699" y="719">jetty</text>
</g>
<g id="node45" class="node"><title>org.mozilla/rhino</title>
<ellipse cx="680" cy="28" rx="28" ry="18" style="fill:#cda87d;stroke:black;"/>
<text text-anchor="middle" x="680" y="33">rhino</text>
</g>
<g id="node48" class="node"><title>org.apache.xmlgraphics/batik</title>
<ellipse cx="707" cy="153" rx="27" ry="18" style="fill:aquamarine;stroke:black;"/>
<text text-anchor="middle" x="707" y="158">batik</text>
</g>
<g id="edge42" class="edge"><title>org.apache.xmlgraphics/batik&#45;&gt;org.apache.xerces/xerces</title>
<path style="fill:none;stroke:black;" d="M711,171C716,192 724,228 730,253"/>
<polygon style="fill:black;stroke:black;" points="733,253 732,263 727,254 733,253"/>
<text text-anchor="middle" x="705" y="222">2.5+</text>
</g>
<g id="edge40" class="edge"><title>org.apache.xmlgraphics/batik&#45;&gt;org.mozilla/rhino</title>
<path style="fill:none;stroke:black;" d="M703,135C699,115 691,81 686,56"/>
<polygon style="fill:black;stroke:black;" points="683,56 684,46 689,55 683,56"/>
<text text-anchor="middle" x="681" y="96">1.+</text>
</g>
<g id="node53" class="node"><title>com.mysql/mysql&#45;connector&#45;java</title>
<ellipse cx="597" cy="640" rx="73" ry="18" style="fill:cyan;stroke:black;"/>
<text text-anchor="middle" x="597" y="645">mysql&#45;connector&#45;java</text>
</g>
<g id="node56" class="node"><title>org.aopalliance/aopalliance</title>
<ellipse cx="968" cy="1064" rx="45" ry="18" style="fill:darkorange;stroke:black;"/>
<text text-anchor="middle" x="968" y="1069">aopalliance</text>
</g>
<g id="node59" class="node"><title>org.springframework/spring</title>
<ellipse cx="847" cy="979" rx="31" ry="18" style="fill:#bd3eff;stroke:black;"/>
<text text-anchor="middle" x="847" y="984">spring</text>
</g>
<g id="edge52" class="edge"><title>org.springframework/spring&#45;&gt;org.apache.commons/commons&#45;logging</title>
<path style="fill:none;stroke:black;" d="M817,973C759,962 628,935 549,920"/>
<polygon style="fill:black;stroke:black;" points="548,923 539,918 549,917 548,923"/>
<text text-anchor="middle" x="677" y="961">1.+</text>
</g>
<g id="edge50" class="edge"><title>org.springframework/spring&#45;&gt;org.aopalliance/aopalliance</title>
<path style="fill:none;stroke:black;" d="M867,993C886,1006 915,1026 937,1042"/>
<polygon style="fill:black;stroke:black;" points="939,1039 945,1048 935,1045 939,1039"/>
<text text-anchor="middle" x="906" y="1041">1.+</text>
</g>
<g id="node63" class="node"><title>javax.jms/jms</title>
<ellipse cx="986" cy="927" rx="27" ry="18" style="fill:#bd3eff;stroke:black;"/>
<text text-anchor="middle" x="986" y="932">jms</text>
</g>
<g id="edge54" class="edge"><title>org.springframework/spring&#45;&gt;javax.jms/jms</title>
<path style="fill:none;stroke:black;" d="M873,969C895,960 928,948 952,939"/>
<polygon style="fill:black;stroke:black;" points="951,936 962,936 953,942 951,936"/>
<text text-anchor="middle" x="917" y="970">1.+</text>
</g>
<g id="node68" class="node"><title>org.jgroups/jgroups</title>
<ellipse cx="807" cy="685" rx="35" ry="18" style="fill:gold;stroke:black;"/>
<text text-anchor="middle" x="807" y="690">jgroups</text>
</g>
<g id="edge60" class="edge"><title>org.jgroups/jgroups&#45;&gt;org.apache.commons/commons&#45;logging</title>
<path style="fill:none;stroke:black;" d="M786,700C731,737 584,840 518,885"/>
<polygon style="fill:black;stroke:black;" points="520,888 510,891 516,882 520,888"/>
<text text-anchor="middle" x="647" y="786">1.1+</text>
</g>
<g id="node72" class="node"><title>net.sourceforge.proxool/proxool</title>
<ellipse cx="559" cy="788" rx="35" ry="18" style="fill:#cda87d;stroke:black;"/>
<text text-anchor="middle" x="559" y="793">proxool</text>
</g>
<g id="node75" class="node"><title>javax.transaction/jta</title>
<ellipse cx="736" cy="418" rx="27" ry="18" style="fill:aquamarine;stroke:black;"/>
<text text-anchor="middle" x="736" y="423">jta</text>
</g>
<g id="node78" class="node"><title>org.objectweb.asm/asm</title>
<ellipse cx="1101" cy="620" rx="27" ry="18" style="fill:cyan;stroke:black;"/>
<text text-anchor="middle" x="1101" y="625">asm</text>
</g>
<g id="node87" class="node"><title>org.apache.commons/commons&#45;dbcp</title>
<ellipse cx="691" cy="492" rx="56" ry="18" style="fill:darkorange;stroke:black;"/>
<text text-anchor="middle" x="691" y="497">commons&#45;dbcp</text>
</g>
<g id="node89" class="node"><title>org.apache.commons/commons&#45;pool</title>
<ellipse cx="874" cy="492" rx="55" ry="18" style="fill:darkorange;stroke:black;"/>
<text text-anchor="middle" x="874" y="497">commons&#45;pool</text>
</g>
<g id="edge78" class="edge"><title>org.apache.commons/commons&#45;dbcp&#45;&gt;org.apache.commons/commons&#45;pool</title>
<path style="fill:none;stroke:black;" d="M747,492C767,492 789,492 809,492"/>
<polygon style="fill:black;stroke:black;" points="809,488 819,492 809,495 809,488"/>
<text text-anchor="middle" x="782" y="506">1.3+</text>
</g>
<g id="node95" class="node"><title>org.apache.commons/commons&#45;email</title>
<ellipse cx="582" cy="714" rx="58" ry="18" style="fill:darkorange;stroke:black;"/>
<text text-anchor="middle" x="582" y="719">commons&#45;email</text>
</g>
<g id="node97" class="node"><title>org.apache.commons/commons&#45;digester</title>
<ellipse cx="70" cy="908" rx="64" ry="18" style="fill:darkorange;stroke:black;"/>
<text text-anchor="middle" x="70" y="913">commons&#45;digester</text>
</g>
<g id="edge90" class="edge"><title>org.apache.commons/commons&#45;digester&#45;&gt;org.apache.commons/commons&#45;collections</title>
<path style="fill:none;stroke:black;" d="M80,890C98,859 137,792 159,755"/>
<polygon style="fill:black;stroke:black;" points="156,753 164,746 162,756 156,753"/>
<text text-anchor="middle" x="152" y="823">[2.0,4.0[</text>
</g>
<g id="edge86" class="edge"><title>org.apache.commons/commons&#45;digester&#45;&gt;org.apache.commons/commons&#45;logging</title>
<path style="fill:none;stroke:black;" d="M134,908C209,908 333,908 412,908"/>
<polygon style="fill:black;stroke:black;" points="412,904 422,908 412,911 412,904"/>
<text text-anchor="middle" x="277" y="922">1.1+</text>
</g>
<g id="edge88" class="edge"><title>org.apache.commons/commons&#45;digester&#45;&gt;org.apache.commons/commons&#45;beanutils</title>
<path style="fill:none;stroke:black;" d="M80,926C98,957 137,1024 159,1061"/>
<polygon style="fill:black;stroke:black;" points="162,1060 164,1070 156,1063 162,1060"/>
<text text-anchor="middle" x="92" y="1004">[1.7,2.0]</text>
</g>
<g id="node115" class="node"><title>net.sourceforge.cobertura/cobertura</title>
<ellipse cx="978" cy="557" rx="39" ry="18" style="fill:#bd3eff;stroke:black;"/>
<text text-anchor="middle" x="978" y="562">cobertura</text>
</g>
<g id="edge108" class="edge"><title>net.sourceforge.cobertura/cobertura&#45;&gt;org.apache.oro/oro</title>
<path style="fill:none;stroke:black;" d="M939,557C864,557 699,557 625,557"/>
<polygon style="fill:black;stroke:black;" points="625,560 615,557 625,553 625,560"/>
<text text-anchor="middle" x="777" y="553">[2.0.8,3.0[</text>
</g>
<g id="edge110" class="edge"><title>net.sourceforge.cobertura/cobertura&#45;&gt;org.objectweb.asm/asm</title>
<path style="fill:none;stroke:black;" d="M1004,571C1024,580 1050,594 1070,604"/>
<polygon style="fill:black;stroke:black;" points="1072,601 1079,609 1069,607 1072,601"/>
<text text-anchor="middle" x="1041" y="608">2.2+</text>
</g>
<g id="node117" class="node"><title>org.apache.log4j/log4j</title>
<ellipse cx="1158" cy="466" rx="27" ry="18" style="fill:#bd3eff;stroke:black;"/>
<text text-anchor="middle" x="1158" y="471">log4j</text>
</g>
<g id="edge106" class="edge"><title>net.sourceforge.cobertura/cobertura&#45;&gt;org.apache.log4j/log4j</title>
<path style="fill:none;stroke:black;" d="M1005,544C1038,527 1093,499 1127,482"/>
<polygon style="fill:black;stroke:black;" points="1126,479 1136,477 1129,485 1126,479"/>
<text text-anchor="middle" x="1069" y="503">[1.2.9,2.0[</text>
</g>
<g id="node124" class="node"><title>net.sourceforge.cglib/cglib</title>
<ellipse cx="1214" cy="677" rx="27" ry="18" style="fill:gold;stroke:black;"/>
<text text-anchor="middle" x="1214" y="682">cglib</text>
</g>
<g id="edge116" class="edge"><title>net.sourceforge.cglib/cglib&#45;&gt;org.objectweb.asm/asm</title>
<path style="fill:none;stroke:black;" d="M1192,666C1175,657 1151,645 1132,636"/>
<polygon style="fill:black;stroke:black;" points="1130,639 1123,631 1133,633 1130,639"/>
<text text-anchor="middle" x="1157" y="667">1.5.3</text>
</g>
<g id="node128" class="node"><title>net.sourceforge.ehcache/ehcache</title>
<ellipse cx="382" cy="728" rx="36" ry="18" style="fill:#cda87d;stroke:black;"/>
<text text-anchor="middle" x="382" y="733">ehcache</text>
</g>
<g id="edge122" class="edge"><title>net.sourceforge.ehcache/ehcache&#45;&gt;org.apache.commons/commons&#45;collections</title>
<path style="fill:none;stroke:black;" d="M346,728C322,728 288,728 257,728"/>
<polygon style="fill:black;stroke:black;" points="257,731 247,728 257,724 257,731"/>
<text text-anchor="middle" x="296" y="724">2.1.1</text>
</g>
<g id="edge120" class="edge"><title>net.sourceforge.ehcache/ehcache&#45;&gt;org.apache.commons/commons&#45;logging</title>
<path style="fill:none;stroke:black;" d="M392,746C410,777 449,844 471,881"/>
<polygon style="fill:black;stroke:black;" points="474,880 476,890 468,883 474,880"/>
<text text-anchor="middle" x="416" y="824">1.1+</text>
</g>
<g id="edge124" class="edge"><title>net.sourceforge.ehcache/ehcache&#45;&gt;org.apache.xerces/xerces</title>
<path style="fill:none;stroke:black;" d="M395,711C449,642 652,387 717,306"/>
<polygon style="fill:black;stroke:black;" points="714,304 723,298 720,308 714,304"/>
<text text-anchor="middle" x="536" y="510">2.5.0</text>
</g>
<g id="edge127" class="edge"><title>net.sourceforge.ehcache/ehcache&#45;&gt;net.sourceforge.jsr107cache/jsr107cache</title>
<path style="fill:none;stroke:black;" d="M381,710C378,626 366,268 362,164"/>
<polygon style="fill:black;stroke:black;" points="359,164 362,154 366,164 359,164"/>
<text text-anchor="middle" x="357" y="437">1.0+</text>
</g>
<g id="node138" class="node"><title>net.sourceforge.c3p0/c3p0</title>
<ellipse cx="403" cy="418" rx="27" ry="18" style="fill:cyan;stroke:black;"/>
<text text-anchor="middle" x="403" y="423">c3p0</text>
</g>
</g>
</svg>
