<?xml version="1.0" encoding="UTF-8" standalone="no"?>
<!DOCTYPE svg PUBLIC "-//W3C//DTD SVG 1.0//EN"
 "http://www.w3.org/TR/2001/REC-SVG-20010904/DTD/svg10.dtd">
<!-- Generated by circo version 2.2 (Tue Sep 13 00:37:56 UTC 2005)
     For user: (archie) Archie Cobbs   Title: modules    Pages: 1 -->
<svg width="804pt" height="768pt"
 viewBox = "-1 -1 803 767"
 xmlns="http://www.w3.org/2000/svg">
<g id="graph0" class="graph" transform = "scale(0.230501)"
 style="font-family:Times-Roman;font-size:14.00;">
<title>modules</title>
<g id="node3" class="node"><title>org.testng/testng</title>
<ellipse cx="1898" cy="1569" rx="30" ry="18" style="fill:#bd3eff;stroke:black;"/>
<text text-anchor="middle" x="1898" y="1574">testng</text>
</g>
<g id="node6" class="node"><title>org.codehaus.jaxen/jaxen</title>
<ellipse cx="35" cy="1260" rx="29" ry="18" style="fill:#97f6ff;stroke:black;"/>
<text text-anchor="middle" x="35" y="1265">jaxen</text>
</g>
<g id="node9" class="node"><title>com.puppycrawl/checkstyle</title>
<ellipse cx="1486" cy="506" rx="42" ry="18" style="fill:gold;stroke:black;"/>
<text text-anchor="middle" x="1486" y="511">checkstyle</text>
</g>
<g id="node11" class="node"><title>org.antlr/antlr</title>
<ellipse cx="1707" cy="337" rx="27" ry="18" style="fill:gold;stroke:black;"/>
<text text-anchor="middle" x="1707" y="342">antlr</text>
</g>
<g id="edge8" class="edge"><title>com.puppycrawl/checkstyle&#45;&gt;org.antlr/antlr</title>
<path style="fill:none;stroke:black;" d="M1507,490C1547,459 1637,391 1681,357"/>
<polygon style="fill:black;stroke:black;" points="1679,354 1689,351 1683,360 1679,354"/>
<text text-anchor="middle" x="1597" y="411">2.7+</text>
</g>
<g id="node13" class="node"><title>org.apache.commons/commons&#45;cli</title>
<ellipse cx="1401" cy="420" rx="49" ry="18" style="fill:gold;stroke:black;"/>
<text text-anchor="middle" x="1401" y="425">commons&#45;cli</text>
</g>
<g id="edge10" class="edge"><title>com.puppycrawl/checkstyle&#45;&gt;org.apache.commons/commons&#45;cli</title>
<path style="fill:none;stroke:black;" d="M1470,489C1457,476 1439,458 1425,444"/>
<polygon style="fill:black;stroke:black;" points="1423,447 1418,437 1428,442 1423,447"/>
<text text-anchor="middle" x="1444" y="487">[1.1,2.0[</text>
</g>
<g id="node15" class="node"><title>org.apache.commons/commons&#45;collections</title>
<ellipse cx="1964" cy="230" rx="73" ry="18" style="fill:gold;stroke:black;"/>
<text text-anchor="middle" x="1964" y="235">commons&#45;collections</text>
</g>
<g id="edge12" class="edge"><title>com.puppycrawl/checkstyle&#45;&gt;org.apache.commons/commons&#45;collections</title>
<path style="fill:none;stroke:black;" d="M1511,491C1590,446 1833,305 1926,252"/>
<polygon style="fill:black;stroke:black;" points="1925,249 1935,247 1928,255 1925,249"/>
<text text-anchor="middle" x="1722" y="360">2.1+</text>
</g>
<g id="node17" class="node"><title>org.apache.commons/commons&#45;logging</title>
<ellipse cx="1173" cy="1259" rx="64" ry="18" style="fill:gold;stroke:black;"/>
<text text-anchor="middle" x="1173" y="1264">commons&#45;logging</text>
</g>
<g id="edge14" class="edge"><title>com.puppycrawl/checkstyle&#45;&gt;org.apache.commons/commons&#45;logging</title>
<path style="fill:none;stroke:black;" d="M1479,524C1437,623 1235,1110 1184,1232"/>
<polygon style="fill:black;stroke:black;" points="1187,1233 1180,1241 1181,1230 1187,1233"/>
<text text-anchor="middle" x="1342" y="889">1+</text>
</g>
<g id="node19" class="node"><title>org.apache.commons/commons&#45;beanutils</title>
<ellipse cx="1317" cy="726" rx="68" ry="18" style="fill:gold;stroke:black;"/>
<text text-anchor="middle" x="1317" y="731">commons&#45;beanutils</text>
</g>
<g id="edge16" class="edge"><title>com.puppycrawl/checkstyle&#45;&gt;org.apache.commons/commons&#45;beanutils</title>
<path style="fill:none;stroke:black;" d="M1473,523C1443,562 1372,655 1337,700"/>
<polygon style="fill:black;stroke:black;" points="1340,702 1331,708 1334,698 1340,702"/>
<text text-anchor="middle" x="1422" y="621">1.7+</text>
</g>
<g id="edge164" class="edge"><title>org.apache.commons/commons&#45;beanutils&#45;&gt;org.apache.commons/commons&#45;collections</title>
<path style="fill:none;stroke:black;" d="M1339,709C1436,635 1822,340 1933,253"/>
<polygon style="fill:black;stroke:black;" points="1931,250 1941,247 1935,256 1931,250"/>
<text text-anchor="middle" x="1640" y="499">3.+</text>
</g>
<g id="edge162" class="edge"><title>org.apache.commons/commons&#45;beanutils&#45;&gt;org.apache.commons/commons&#45;logging</title>
<path style="fill:none;stroke:black;" d="M1312,744C1291,822 1206,1135 1181,1231"/>
<polygon style="fill:black;stroke:black;" points="1184,1232 1178,1241 1178,1230 1184,1232"/>
<text text-anchor="middle" x="1216" y="998">[1.0,2.0[</text>
</g>
<g id="node22" class="node"><title>org.apache.oro/oro</title>
<ellipse cx="3248" cy="679" rx="27" ry="18" style="fill:#cda87d;stroke:black;"/>
<text text-anchor="middle" x="3248" y="684">oro</text>
</g>
<g id="node25" class="node"><title>org.apache.xml/xalan&#45;j</title>
<ellipse cx="1726" cy="2674" rx="33" ry="18" style="fill:aquamarine;stroke:black;"/>
<text text-anchor="middle" x="1726" y="2679">xalan&#45;j</text>
</g>
<g id="node27" class="node"><title>org.apache.xerces/xerces</title>
<ellipse cx="1962" cy="2289" rx="31" ry="18" style="fill:aquamarine;stroke:black;"/>
<text text-anchor="middle" x="1962" y="2294">xerces</text>
</g>
<g id="edge22" class="edge"><title>org.apache.xml/xalan&#45;j&#45;&gt;org.apache.xerces/xerces</title>
<path style="fill:none;stroke:black;" d="M1737,2657C1774,2596 1901,2388 1946,2315"/>
<polygon style="fill:black;stroke:black;" points="1943,2313 1951,2306 1949,2316 1943,2313"/>
<text text-anchor="middle" x="1824" y="2487">2.7+</text>
</g>
<g id="node32" class="node"><title>org.dom4j/dom4j</title>
<ellipse cx="2238" cy="2325" rx="31" ry="18" style="fill:darkorange;stroke:black;"/>
<text text-anchor="middle" x="2238" y="2330">dom4j</text>
</g>
<g id="edge28" class="edge"><title>org.dom4j/dom4j&#45;&gt;org.apache.xerces/xerces</title>
<path style="fill:none;stroke:black;" d="M2208,2321C2158,2314 2059,2302 2002,2294"/>
<polygon style="fill:black;stroke:black;" points="2002,2297 1992,2293 2002,2291 2002,2297"/>
<text text-anchor="middle" x="2100" y="2302">[2.5,3.0[</text>
</g>
<g id="node36" class="node"><title>org.jboss/javassist</title>
<ellipse cx="2579" cy="3298" rx="37" ry="18" style="fill:#bd3eff;stroke:black;"/>
<text text-anchor="middle" x="2579" y="3303">javassist</text>
</g>
<g id="node39" class="node"><title>net.sourceforge.jsr107cache/jsr107cache</title>
<ellipse cx="1646" cy="2285" rx="47" ry="18" style="fill:#97f6ff;stroke:black;"/>
<text text-anchor="middle" x="1646" y="2290">jsr107cache</text>
</g>
<g id="node42" class="node"><title>org.mortbay/jetty</title>
<ellipse cx="2335" cy="57" rx="27" ry="18" style="fill:gold;stroke:black;"/>
<text text-anchor="middle" x="2335" y="62">jetty</text>
</g>
<g id="node45" class="node"><title>org.mozilla/rhino</title>
<ellipse cx="1901" cy="2791" rx="28" ry="18" style="fill:#cda87d;stroke:black;"/>
<text text-anchor="middle" x="1901" y="2796">rhino</text>
</g>
<g id="node48" class="node"><title>org.apache.xmlgraphics/batik</title>
<ellipse cx="1929" cy="2666" rx="27" ry="18" style="fill:aquamarine;stroke:black;"/>
<text text-anchor="middle" x="1929" y="2671">batik</text>
</g>
<g id="edge42" class="edge"><title>org.apache.xmlgraphics/batik&#45;&gt;org.apache.xerces/xerces</title>
<path style="fill:none;stroke:black;" d="M1931,2648C1936,2587 1953,2391 1959,2317"/>
<polygon style="fill:black;stroke:black;" points="1956,2317 1960,2307 1962,2317 1956,2317"/>
<text text-anchor="middle" x="1930" y="2484">2.5+</text>
</g>
<g id="edge40" class="edge"><title>org.apache.xmlgraphics/batik&#45;&gt;org.mozilla/rhino</title>
<path style="fill:none;stroke:black;" d="M1925,2684C1921,2704 1912,2738 1907,2763"/>
<polygon style="fill:black;stroke:black;" points="1910,2764 1905,2773 1904,2763 1910,2764"/>
<text text-anchor="middle" x="1902" y="2734">1.+</text>
</g>
<g id="node53" class="node"><title>com.opensymphony/oscache</title>
<ellipse cx="1209" cy="1535" rx="35" ry="18" style="fill:cyan;stroke:black;"/>
<text text-anchor="middle" x="1209" y="1540">oscache</text>
</g>
<g id="edge46" class="edge"><title>com.opensymphony/oscache&#45;&gt;org.apache.commons/commons&#45;logging</title>
<path style="fill:none;stroke:black;" d="M1207,1517C1200,1470 1184,1344 1176,1287"/>
<polygon style="fill:black;stroke:black;" points="1173,1287 1175,1277 1179,1287 1173,1287"/>
<text text-anchor="middle" x="1164" y="1403">[1.1,2.0[</text>
</g>
<g id="node56" class="node"><title>org.jgroups/jgroups</title>
<ellipse cx="1316" cy="1792" rx="35" ry="18" style="fill:cyan;stroke:black;"/>
<text text-anchor="middle" x="1316" y="1797">jgroups</text>
</g>
<g id="edge48" class="edge"><title>com.opensymphony/oscache&#45;&gt;org.jgroups/jgroups</title>
<path style="fill:none;stroke:black;" d="M1216,1553C1235,1597 1283,1712 1305,1765"/>
<polygon style="fill:black;stroke:black;" points="1308,1763 1309,1774 1302,1766 1308,1763"/>
<text text-anchor="middle" x="1233" y="1669">[2.2,3.0[</text>
</g>
<g id="edge148" class="edge"><title>org.jgroups/jgroups&#45;&gt;org.apache.commons/commons&#45;logging</title>
<path style="fill:none;stroke:black;" d="M1311,1774C1290,1696 1206,1383 1181,1287"/>
<polygon style="fill:black;stroke:black;" points="1178,1288 1178,1277 1184,1286 1178,1288"/>
<text text-anchor="middle" x="1228" y="1531">1.1+</text>
</g>
<g id="node59" class="node"><title>com.mysql/mysql&#45;connector&#45;java</title>
<ellipse cx="1941" cy="1835" rx="73" ry="18" style="fill:darkorange;stroke:black;"/>
<text text-anchor="middle" x="1941" y="1840">mysql&#45;connector&#45;java</text>
</g>
<g id="node62" class="node"><title>org.aopalliance/aopalliance</title>
<ellipse cx="2546" cy="118" rx="45" ry="18" style="fill:#bd3eff;stroke:black;"/>
<text text-anchor="middle" x="2546" y="123">aopalliance</text>
</g>
<g id="node65" class="node"><title>javax.management/jmx</title>
<ellipse cx="3413" cy="282" rx="27" ry="18" style="fill:#97f6ff;stroke:black;"/>
<text text-anchor="middle" x="3413" y="287">jmx</text>
</g>
<g id="node67" class="node"><title>javax.management/jmxremote</title>
<ellipse cx="2045" cy="1968" rx="44" ry="18" style="fill:#97f6ff;stroke:black;"/>
<text text-anchor="middle" x="2045" y="1973">jmxremote</text>
</g>
<g id="node70" class="node"><title>javax.mail/javamail</title>
<ellipse cx="3232" cy="184" rx="38" ry="18" style="fill:gold;stroke:black;"/>
<text text-anchor="middle" x="3232" y="189">javamail</text>
</g>
<g id="node72" class="node"><title>javax.activation/jaf</title>
<ellipse cx="3325" cy="83" rx="27" ry="18" style="fill:gold;stroke:black;"/>
<text text-anchor="middle" x="3325" y="88">jaf</text>
</g>
<g id="edge59" class="edge"><title>javax.mail/javamail&#45;&gt;javax.activation/jaf</title>
<path style="fill:none;stroke:black;" d="M3247,167C3263,150 3287,125 3304,106"/>
<polygon style="fill:black;stroke:black;" points="3302,103 3311,98 3307,108 3302,103"/>
<text text-anchor="middle" x="3314" y="139">[1.1.1,2.0[</text>
</g>
<g id="node75" class="node"><title>org.hibernate/hibernate&#45;entitymanager</title>
<ellipse cx="3268" cy="1537" rx="82" ry="18" style="fill:#cda87d;stroke:black;"/>
<text text-anchor="middle" x="3268" y="1542">hibernate&#45;entitymanager</text>
</g>
<g id="node77" class="node"><title>org.hibernate/hibernate</title>
<ellipse cx="2513" cy="2290" rx="40" ry="18" style="fill:#cda87d;stroke:black;"/>
<text text-anchor="middle" x="2513" y="2295">hibernate</text>
</g>
<g id="edge63" class="edge"><title>org.hibernate/hibernate&#45;entitymanager&#45;&gt;org.hibernate/hibernate</title>
<path style="fill:none;stroke:black;" d="M3250,1555C3149,1656 2653,2151 2537,2266"/>
<polygon style="fill:black;stroke:black;" points="2540,2268 2530,2273 2535,2263 2540,2268"/>
<text text-anchor="middle" x="2890" y="1937">[3.2.0,4.0[</text>
</g>
<g id="node79" class="node"><title>org.hibernate/hibernate&#45;commons&#45;annotations</title>
<ellipse cx="3161" cy="1794" rx="103" ry="18" style="fill:#cda87d;stroke:black;"/>
<text text-anchor="middle" x="3161" y="1799">hibernate&#45;commons&#45;annotations</text>
</g>
<g id="edge65" class="edge"><title>org.hibernate/hibernate&#45;entitymanager&#45;&gt;org.hibernate/hibernate&#45;commons&#45;annotations</title>
<path style="fill:none;stroke:black;" d="M3260,1555C3242,1600 3194,1714 3173,1767"/>
<polygon style="fill:black;stroke:black;" points="3176,1768 3169,1776 3170,1765 3176,1768"/>
<text text-anchor="middle" x="3248" y="1672">[3.0.0,4.0[</text>
</g>
<g id="node81" class="node"><title>org.hibernate/hibernate&#45;annotations</title>
<ellipse cx="2991" cy="2014" rx="74" ry="18" style="fill:#cda87d;stroke:black;"/>
<text text-anchor="middle" x="2991" y="2019">hibernate&#45;annotations</text>
</g>
<g id="edge67" class="edge"><title>org.hibernate/hibernate&#45;entitymanager&#45;&gt;org.hibernate/hibernate&#45;annotations</title>
<path style="fill:none;stroke:black;" d="M3260,1555C3223,1628 3065,1901 3010,1988"/>
<polygon style="fill:black;stroke:black;" points="3013,1990 3004,1996 3007,1986 3013,1990"/>
<text text-anchor="middle" x="3170" y="1783">[3.3.1,4.0[</text>
</g>
<g id="node83" class="node"><title>org.hibernate/hibernate&#45;validator</title>
<ellipse cx="2771" cy="2183" rx="66" ry="18" style="fill:#cda87d;stroke:black;"/>
<text text-anchor="middle" x="2771" y="2188">hibernate&#45;validator</text>
</g>
<g id="edge69" class="edge"><title>org.hibernate/hibernate&#45;entitymanager&#45;&gt;org.hibernate/hibernate&#45;validator</title>
<path style="fill:none;stroke:black;" d="M3257,1555C3194,1647 2883,2051 2795,2157"/>
<polygon style="fill:black;stroke:black;" points="2797,2160 2788,2165 2792,2155 2797,2160"/>
<text text-anchor="middle" x="3062" y="1870">[3.0.0,4.0[</text>
</g>
<g id="edge96" class="edge"><title>org.hibernate/hibernate&#45;&gt;org.codehaus.jaxen/jaxen</title>
<path style="fill:none;stroke:black;" d="M2483,2278C2224,2170 346,1389 69,1274"/>
<polygon style="fill:black;stroke:black;" points="67,1277 59,1270 70,1270 67,1277"/>
<text text-anchor="middle" x="1270" y="1791">[1.1,1.2[</text>
</g>
<g id="edge90" class="edge"><title>org.hibernate/hibernate&#45;&gt;org.antlr/antlr</title>
<path style="fill:none;stroke:black;" d="M2506,2272C2431,2092 1810,585 1718,365"/>
<polygon style="fill:black;stroke:black;" points="1714,366 1714,355 1721,363 1714,366"/>
<text text-anchor="middle" x="2076" y="1319">[2.7.6,2.8[</text>
</g>
<g id="edge77" class="edge"><title>org.hibernate/hibernate&#45;&gt;org.apache.commons/commons&#45;collections</title>
<path style="fill:none;stroke:black;" d="M2508,2272C2458,2084 2033,489 1972,258"/>
<polygon style="fill:black;stroke:black;" points="1969,259 1969,248 1975,257 1969,259"/>
<text text-anchor="middle" x="2206" y="1265">[2.1.1,3.0[</text>
</g>
<g id="edge79" class="edge"><title>org.hibernate/hibernate&#45;&gt;org.apache.commons/commons&#45;logging</title>
<path style="fill:none;stroke:black;" d="M2493,2274C2341,2158 1386,1423 1203,1282"/>
<polygon style="fill:black;stroke:black;" points="1201,1285 1195,1276 1205,1279 1201,1285"/>
<text text-anchor="middle" x="1844" y="1796">[1.0.4,1.2[</text>
</g>
<g id="edge83" class="edge"><title>org.hibernate/hibernate&#45;&gt;org.apache.xerces/xerces</title>
<path style="fill:none;stroke:black;" d="M2473,2290C2372,2290 2106,2289 2003,2289"/>
<polygon style="fill:black;stroke:black;" points="2003,2292 1993,2289 2003,2285 2003,2292"/>
<text text-anchor="middle" x="2233" y="2304">[2.5,3.0[</text>
</g>
<g id="edge81" class="edge"><title>org.hibernate/hibernate&#45;&gt;org.dom4j/dom4j</title>
<path style="fill:none;stroke:black;" d="M2474,2295C2422,2302 2331,2313 2279,2320"/>
<polygon style="fill:black;stroke:black;" points="2279,2323 2269,2321 2279,2317 2279,2323"/>
<text text-anchor="middle" x="2371" y="2324">1.6.1</text>
</g>
<g id="edge94" class="edge"><title>org.hibernate/hibernate&#45;&gt;org.jboss/javassist</title>
<path style="fill:none;stroke:black;" d="M2514,2308C2522,2430 2568,3120 2577,3270"/>
<polygon style="fill:black;stroke:black;" points="2580,3270 2578,3280 2574,3270 2580,3270"/>
<text text-anchor="middle" x="2520" y="2800">[3.4,4.0[</text>
</g>
<g id="edge102" class="edge"><title>org.hibernate/hibernate&#45;&gt;com.opensymphony/oscache</title>
<path style="fill:none;stroke:black;" d="M2488,2276C2327,2183 1424,1659 1241,1554"/>
<polygon style="fill:black;stroke:black;" points="1239,1557 1232,1549 1242,1551 1239,1557"/>
<text text-anchor="middle" x="1860" y="1932">[2.1,3.0[</text>
</g>
<g id="edge104" class="edge"><title>org.hibernate/hibernate&#45;&gt;org.jgroups/jgroups</title>
<path style="fill:none;stroke:black;" d="M2483,2278C2320,2210 1532,1882 1352,1807"/>
<polygon style="fill:black;stroke:black;" points="1351,1810 1343,1803 1354,1804 1351,1810"/>
<text text-anchor="middle" x="1913" y="2058">[2.2.8,3.0[</text>
</g>
<g id="node87" class="node"><title>net.sourceforge.ehcache/ehcache</title>
<ellipse cx="1705" cy="2182" rx="36" ry="18" style="fill:#cda87d;stroke:black;"/>
<text text-anchor="middle" x="1705" y="2187">ehcache</text>
</g>
<g id="edge73" class="edge"><title>org.hibernate/hibernate&#45;&gt;net.sourceforge.ehcache/ehcache</title>
<path style="fill:none;stroke:black;" d="M2475,2285C2340,2266 1895,2207 1750,2188"/>
<polygon style="fill:black;stroke:black;" points="1750,2191 1740,2187 1750,2185 1750,2191"/>
<text text-anchor="middle" x="2106" y="2251">1.2.3</text>
</g>
<g id="node89" class="node"><title>javax.transaction/jta</title>
<ellipse cx="2713" cy="3271" rx="27" ry="18" style="fill:#cda87d;stroke:black;"/>
<text text-anchor="middle" x="2713" y="3276">jta</text>
</g>
<g id="edge75" class="edge"><title>org.hibernate/hibernate&#45;&gt;javax.transaction/jta</title>
<path style="fill:none;stroke:black;" d="M2517,2308C2541,2428 2677,3097 2707,3243"/>
<polygon style="fill:black;stroke:black;" points="2710,3243 2709,3253 2704,3244 2710,3243"/>
<text text-anchor="middle" x="2601" y="2787">1.1</text>
</g>
<g id="node96" class="node"><title>net.sourceforge.cglib/cglib</title>
<ellipse cx="3304" cy="1261" rx="27" ry="18" style="fill:#cda87d;stroke:black;"/>
<text text-anchor="middle" x="3304" y="1266">cglib</text>
</g>
<g id="edge86" class="edge"><title>org.hibernate/hibernate&#45;&gt;net.sourceforge.cglib/cglib</title>
<path style="fill:none;stroke:black;" d="M2526,2273C2620,2151 3176,1428 3286,1285"/>
<polygon style="fill:black;stroke:black;" points="3283,1283 3292,1277 3289,1287 3283,1283"/>
<text text-anchor="middle" x="2934" y="1780">2.1.3+</text>
</g>
<g id="node98" class="node"><title>org.apache.log4j/log4j</title>
<ellipse cx="2993" cy="508" rx="27" ry="18" style="fill:#cda87d;stroke:black;"/>
<text text-anchor="middle" x="2993" y="513">log4j</text>
</g>
<g id="edge88" class="edge"><title>org.hibernate/hibernate&#45;&gt;org.apache.log4j/log4j</title>
<path style="fill:none;stroke:black;" d="M2518,2272C2564,2101 2929,746 2985,536"/>
<polygon style="fill:black;stroke:black;" points="2982,535 2988,526 2988,537 2982,535"/>
<text text-anchor="middle" x="2725" y="1405">[1.2,1.3[</text>
</g>
<g id="node101" class="node"><title>net.sourceforge.c3p0/c3p0</title>
<ellipse cx="2834" cy="3238" rx="27" ry="18" style="fill:#cda87d;stroke:black;"/>
<text text-anchor="middle" x="2834" y="3243">c3p0</text>
</g>
<g id="edge92" class="edge"><title>org.hibernate/hibernate&#45;&gt;net.sourceforge.c3p0/c3p0</title>
<path style="fill:none;stroke:black;" d="M2519,2308C2559,2424 2777,3068 2825,3210"/>
<polygon style="fill:black;stroke:black;" points="2828,3209 2828,3220 2822,3211 2828,3209"/>
<text text-anchor="middle" x="2640" y="2769">[0.9.1,2.0[</text>
</g>
<g id="node105" class="node"><title>net.sourceforge.proxool/proxool</title>
<ellipse cx="2961" cy="3196" rx="35" ry="18" style="fill:#cda87d;stroke:black;"/>
<text text-anchor="middle" x="2961" y="3201">proxool</text>
</g>
<g id="edge98" class="edge"><title>org.hibernate/hibernate&#45;&gt;net.sourceforge.proxool/proxool</title>
<path style="fill:none;stroke:black;" d="M2522,2308C2577,2420 2880,3032 2947,3169"/>
<polygon style="fill:black;stroke:black;" points="2950,3168 2952,3178 2944,3171 2950,3168"/>
<text text-anchor="middle" x="2702" y="2749">[0.8.3,1.1[</text>
</g>
<g id="node107" class="node"><title>net.sourceforge.swarmcache/swarmcache</title>
<ellipse cx="1485" cy="2012" rx="47" ry="18" style="fill:#cda87d;stroke:black;"/>
<text text-anchor="middle" x="1485" y="2017">swarmcache</text>
</g>
<g id="edge100" class="edge"><title>org.hibernate/hibernate&#45;&gt;net.sourceforge.swarmcache/swarmcache</title>
<path style="fill:none;stroke:black;" d="M2479,2281C2326,2239 1711,2073 1534,2025"/>
<polygon style="fill:black;stroke:black;" points="1533,2028 1524,2022 1535,2022 1533,2028"/>
<text text-anchor="middle" x="2000" y="2168">[1.0RC2,2.0[</text>
</g>
<g id="edge119" class="edge"><title>org.hibernate/hibernate&#45;annotations&#45;&gt;org.hibernate/hibernate&#45;entitymanager</title>
<path style="fill:none;stroke:black;" d="M2998,1996C3035,1923 3193,1650 3248,1563"/>
<polygon style="fill:black;stroke:black;" points="3245,1561 3254,1555 3251,1565 3245,1561"/>
<text text-anchor="middle" x="3086" y="1780">[3.3.2,4.0[</text>
</g>
<g id="edge115" class="edge"><title>org.hibernate/hibernate&#45;annotations&#45;&gt;org.hibernate/hibernate</title>
<path style="fill:none;stroke:black;" d="M2962,2031C2879,2078 2636,2219 2547,2271"/>
<polygon style="fill:black;stroke:black;" points="2548,2274 2538,2276 2545,2268 2548,2274"/>
<text text-anchor="middle" x="2750" y="2173">[3.2.0,4.0[</text>
</g>
<g id="edge117" class="edge"><title>org.hibernate/hibernate&#45;annotations&#45;&gt;org.hibernate/hibernate&#45;commons&#45;annotations</title>
<path style="fill:none;stroke:black;" d="M3005,1996C3035,1957 3106,1865 3141,1820"/>
<polygon style="fill:black;stroke:black;" points="3138,1818 3147,1812 3144,1822 3138,1818"/>
<text text-anchor="middle" x="3038" y="1909">[3.0.0,4.0[</text>
</g>
<g id="edge121" class="edge"><title>org.hibernate/hibernate&#45;annotations&#45;&gt;org.hibernate/hibernate&#45;validator</title>
<path style="fill:none;stroke:black;" d="M2968,2031C2929,2062 2846,2126 2801,2160"/>
<polygon style="fill:black;stroke:black;" points="2803,2163 2793,2166 2799,2157 2803,2163"/>
<text text-anchor="middle" x="2880" y="2120">[3.0.0,4.0[</text>
</g>
<g id="edge111" class="edge"><title>org.hibernate/hibernate&#45;validator&#45;&gt;org.hibernate/hibernate&#45;entitymanager</title>
<path style="fill:none;stroke:black;" d="M2782,2165C2846,2074 3157,1669 3245,1563"/>
<polygon style="fill:black;stroke:black;" points="3243,1560 3252,1555 3248,1565 3243,1560"/>
<text text-anchor="middle" x="2976" y="1863">[3.3.2,4.0[</text>
</g>
<g id="edge107" class="edge"><title>org.hibernate/hibernate&#45;validator&#45;&gt;org.hibernate/hibernate</title>
<path style="fill:none;stroke:black;" d="M2735,2198C2686,2219 2601,2253 2552,2274"/>
<polygon style="fill:black;stroke:black;" points="2554,2277 2543,2278 2551,2271 2554,2277"/>
<text text-anchor="middle" x="2638" y="2231">[3.2.0,4.0[</text>
</g>
<g id="edge109" class="edge"><title>org.hibernate/hibernate&#45;validator&#45;&gt;org.hibernate/hibernate&#45;commons&#45;annotations</title>
<path style="fill:none;stroke:black;" d="M2789,2166C2851,2103 3062,1893 3136,1819"/>
<polygon style="fill:black;stroke:black;" points="3133,1817 3143,1812 3138,1822 3133,1817"/>
<text text-anchor="middle" x="2965" y="1976">[3.0.0,4.0[</text>
</g>
<g id="edge227" class="edge"><title>net.sourceforge.ehcache/ehcache&#45;&gt;org.apache.commons/commons&#45;collections</title>
<path style="fill:none;stroke:black;" d="M1707,2164C1732,1982 1930,482 1961,258"/>
<polygon style="fill:black;stroke:black;" points="1958,258 1962,248 1964,258 1958,258"/>
<text text-anchor="middle" x="1818" y="1211">2.1.1</text>
</g>
<g id="edge225" class="edge"><title>net.sourceforge.ehcache/ehcache&#45;&gt;org.apache.commons/commons&#45;logging</title>
<path style="fill:none;stroke:black;" d="M1695,2164C1630,2051 1267,1423 1188,1286"/>
<polygon style="fill:black;stroke:black;" points="1185,1287 1183,1277 1191,1284 1185,1287"/>
<text text-anchor="middle" x="1421" y="1726">1.1+</text>
</g>
<g id="edge229" class="edge"><title>net.sourceforge.ehcache/ehcache&#45;&gt;org.apache.xerces/xerces</title>
<path style="fill:none;stroke:black;" d="M1733,2194C1781,2213 1876,2253 1928,2274"/>
<polygon style="fill:black;stroke:black;" points="1929,2271 1937,2278 1926,2277 1929,2271"/>
<text text-anchor="middle" x="1834" y="2253">2.5.0</text>
</g>
<g id="edge232" class="edge"><title>net.sourceforge.ehcache/ehcache&#45;&gt;net.sourceforge.jsr107cache/jsr107cache</title>
<path style="fill:none;stroke:black;" d="M1695,2199C1686,2215 1672,2240 1661,2258"/>
<polygon style="fill:black;stroke:black;" points="1664,2260 1656,2267 1658,2257 1664,2260"/>
<text text-anchor="middle" x="1694" y="2239">1.0+</text>
</g>
<g id="node150" class="node"><title>org.objectweb.asm/asm</title>
<ellipse cx="3268" cy="985" rx="27" ry="18" style="fill:#cda87d;stroke:black;"/>
<text text-anchor="middle" x="3268" y="990">asm</text>
</g>
<g id="edge221" class="edge"><title>net.sourceforge.cglib/cglib&#45;&gt;org.objectweb.asm/asm</title>
<path style="fill:none;stroke:black;" d="M3302,1243C3295,1196 3279,1070 3271,1013"/>
<polygon style="fill:black;stroke:black;" points="3268,1013 3270,1003 3274,1013 3268,1013"/>
<text text-anchor="middle" x="3268" y="1129">1.5.3</text>
</g>
<g id="edge209" class="edge"><title>org.apache.log4j/log4j&#45;&gt;javax.management/jmx</title>
<path style="fill:none;stroke:black;" d="M3014,497C3083,460 3302,342 3383,298"/>
<polygon style="fill:black;stroke:black;" points="3382,295 3392,293 3385,301 3382,295"/>
<text text-anchor="middle" x="3203" y="414">[1.2.1,2.0[</text>
</g>
<g id="edge205" class="edge"><title>org.apache.log4j/log4j&#45;&gt;javax.mail/javamail</title>
<path style="fill:none;stroke:black;" d="M3005,491C3044,438 3166,274 3213,209"/>
<polygon style="fill:black;stroke:black;" points="3210,207 3219,201 3216,211 3210,207"/>
<text text-anchor="middle" x="3143" y="351">[1.4,2.0[</text>
</g>
<g id="node136" class="node"><title>javax.jms/jms</title>
<ellipse cx="2773" cy="338" rx="27" ry="18" style="fill:aquamarine;stroke:black;"/>
<text text-anchor="middle" x="2773" y="343">jms</text>
</g>
<g id="edge207" class="edge"><title>org.apache.log4j/log4j&#45;&gt;javax.jms/jms</title>
<path style="fill:none;stroke:black;" d="M2975,494C2936,464 2844,393 2799,358"/>
<polygon style="fill:black;stroke:black;" points="2797,361 2791,352 2801,355 2797,361"/>
<text text-anchor="middle" x="2882" y="444">[1.1,2.0[</text>
</g>
<g id="edge213" class="edge"><title>net.sourceforge.swarmcache/swarmcache&#45;&gt;org.apache.commons/commons&#45;collections</title>
<path style="fill:none;stroke:black;" d="M1490,1994C1536,1823 1900,469 1956,258"/>
<polygon style="fill:black;stroke:black;" points="1953,257 1959,248 1959,259 1953,257"/>
<text text-anchor="middle" x="1697" y="1127">[2.1,3.0[</text>
</g>
<g id="edge215" class="edge"><title>net.sourceforge.swarmcache/swarmcache&#45;&gt;org.apache.commons/commons&#45;logging</title>
<path style="fill:none;stroke:black;" d="M1478,1994C1436,1895 1234,1408 1184,1286"/>
<polygon style="fill:black;stroke:black;" points="1181,1288 1180,1277 1187,1285 1181,1288"/>
<text text-anchor="middle" x="1300" y="1642">[1.1,2.0[</text>
</g>
<g id="edge217" class="edge"><title>net.sourceforge.swarmcache/swarmcache&#45;&gt;org.jgroups/jgroups</title>
<path style="fill:none;stroke:black;" d="M1471,1994C1441,1955 1369,1861 1335,1817"/>
<polygon style="fill:black;stroke:black;" points="1332,1819 1329,1809 1338,1815 1332,1819"/>
<text text-anchor="middle" x="1368" y="1907">[2.2,3.0[</text>
</g>
<g id="node115" class="node"><title>org.hibernate/hibernate&#45;tools</title>
<ellipse cx="2056" cy="1702" rx="55" ry="18" style="fill:#cda87d;stroke:black;"/>
<text text-anchor="middle" x="2056" y="1707">hibernate&#45;tools</text>
</g>
<g id="node123" class="node"><title>org.springframework/spring&#45;security</title>
<ellipse cx="2240" cy="195" rx="55" ry="18" style="fill:aquamarine;stroke:black;"/>
<text text-anchor="middle" x="2240" y="200">spring&#45;security</text>
</g>
<g id="edge133" class="edge"><title>org.springframework/spring&#45;security&#45;&gt;org.codehaus.jaxen/jaxen</title>
<path style="fill:none;stroke:black;" d="M2209,210C1961,330 320,1123 67,1244"/>
<polygon style="fill:black;stroke:black;" points="68,1247 58,1249 65,1241 68,1247"/>
<text text-anchor="middle" x="1132" y="722">[1.1.1,2.0[</text>
</g>
<g id="edge129" class="edge"><title>org.springframework/spring&#45;security&#45;&gt;org.apache.commons/commons&#45;collections</title>
<path style="fill:none;stroke:black;" d="M2188,202C2146,208 2087,215 2039,221"/>
<polygon style="fill:black;stroke:black;" points="2039,224 2029,222 2039,218 2039,224"/>
<text text-anchor="middle" x="2108" y="228">[3.2,4.0[</text>
</g>
<g id="edge127" class="edge"><title>org.springframework/spring&#45;security&#45;&gt;org.apache.commons/commons&#45;logging</title>
<path style="fill:none;stroke:black;" d="M2223,212C2099,336 1345,1088 1197,1235"/>
<polygon style="fill:black;stroke:black;" points="1200,1237 1190,1242 1195,1232 1200,1237"/>
<text text-anchor="middle" x="1706" y="750">[1.1.1,2.0[</text>
</g>
<g id="edge135" class="edge"><title>org.springframework/spring&#45;security&#45;&gt;org.mortbay/jetty</title>
<path style="fill:none;stroke:black;" d="M2252,177C2269,153 2299,110 2318,82"/>
<polygon style="fill:black;stroke:black;" points="2316,79 2324,73 2321,83 2316,79"/>
<text text-anchor="middle" x="2319" y="131">[4.2.22,)</text>
</g>
<g id="node125" class="node"><title>org.springframework/spring</title>
<ellipse cx="2516" cy="231" rx="31" ry="18" style="fill:aquamarine;stroke:black;"/>
<text text-anchor="middle" x="2516" y="236">spring</text>
</g>
<g id="edge125" class="edge"><title>org.springframework/spring&#45;security&#45;&gt;org.springframework/spring</title>
<path style="fill:none;stroke:black;" d="M2291,202C2344,209 2427,219 2475,226"/>
<polygon style="fill:black;stroke:black;" points="2475,223 2485,227 2475,229 2475,223"/>
<text text-anchor="middle" x="2388" y="230">[2.5,3.0[</text>
</g>
<g id="node129" class="node"><title>org.apache.commons/commons&#45;codec</title>
<ellipse cx="2177" cy="55" rx="59" ry="18" style="fill:aquamarine;stroke:black;"/>
<text text-anchor="middle" x="2177" y="60">commons&#45;codec</text>
</g>
<g id="edge131" class="edge"><title>org.springframework/spring&#45;security&#45;&gt;org.apache.commons/commons&#45;codec</title>
<path style="fill:none;stroke:black;" d="M2232,177C2221,153 2202,110 2189,82"/>
<polygon style="fill:black;stroke:black;" points="2186,84 2185,73 2192,81 2186,84"/>
<text text-anchor="middle" x="2179" y="130">[1.3,2.0[</text>
</g>
<g id="edge140" class="edge"><title>org.springframework/spring&#45;&gt;org.apache.commons/commons&#45;logging</title>
<path style="fill:none;stroke:black;" d="M2497,246C2349,358 1388,1094 1203,1236"/>
<polygon style="fill:black;stroke:black;" points="1205,1239 1195,1242 1201,1233 1205,1239"/>
<text text-anchor="middle" x="1845" y="734">1.+</text>
</g>
<g id="edge138" class="edge"><title>org.springframework/spring&#45;&gt;org.aopalliance/aopalliance</title>
<path style="fill:none;stroke:black;" d="M2521,213C2525,195 2532,167 2538,146"/>
<polygon style="fill:black;stroke:black;" points="2535,145 2541,136 2541,147 2535,145"/>
<text text-anchor="middle" x="2517" y="181">1.+</text>
</g>
<g id="edge142" class="edge"><title>org.springframework/spring&#45;&gt;javax.jms/jms</title>
<path style="fill:none;stroke:black;" d="M2542,242C2589,262 2689,303 2741,324"/>
<polygon style="fill:black;stroke:black;" points="2742,321 2750,328 2739,327 2742,321"/>
<text text-anchor="middle" x="2645" y="303">1.+</text>
</g>
<g id="node159" class="node"><title>org.apache.commons/commons&#45;dbcp</title>
<ellipse cx="2323" cy="1569" rx="56" ry="18" style="fill:aquamarine;stroke:black;"/>
<text text-anchor="middle" x="2323" y="1574">commons&#45;dbcp</text>
</g>
<g id="node161" class="node"><title>org.apache.commons/commons&#45;pool</title>
<ellipse cx="2506" cy="1569" rx="55" ry="18" style="fill:aquamarine;stroke:black;"/>
<text text-anchor="middle" x="2506" y="1574">commons&#45;pool</text>
</g>
<g id="edge168" class="edge"><title>org.apache.commons/commons&#45;dbcp&#45;&gt;org.apache.commons/commons&#45;pool</title>
<path style="fill:none;stroke:black;" d="M2379,1569C2399,1569 2421,1569 2441,1569"/>
<polygon style="fill:black;stroke:black;" points="2441,1565 2451,1569 2441,1572 2441,1565"/>
<text text-anchor="middle" x="2414" y="1583">1.3+</text>
</g>
<g id="node168" class="node"><title>org.apache.commons/commons&#45;email</title>
<ellipse cx="1926" cy="1702" rx="58" ry="18" style="fill:aquamarine;stroke:black;"/>
<text text-anchor="middle" x="1926" y="1707">commons&#45;email</text>
</g>
<g id="node170" class="node"><title>org.apache.commons/commons&#45;digester</title>
<ellipse cx="1210" cy="983" rx="64" ry="18" style="fill:aquamarine;stroke:black;"/>
<text text-anchor="middle" x="1210" y="988">commons&#45;digester</text>
</g>
<g id="edge181" class="edge"><title>org.apache.commons/commons&#45;digester&#45;&gt;org.apache.commons/commons&#45;collections</title>
<path style="fill:none;stroke:black;" d="M1228,965C1328,865 1822,372 1939,255"/>
<polygon style="fill:black;stroke:black;" points="1936,253 1946,248 1941,258 1936,253"/>
<text text-anchor="middle" x="1586" y="595">[2.0,4.0[</text>
</g>
<g id="edge177" class="edge"><title>org.apache.commons/commons&#45;digester&#45;&gt;org.apache.commons/commons&#45;logging</title>
<path style="fill:none;stroke:black;" d="M1208,1001C1201,1048 1184,1174 1176,1231"/>
<polygon style="fill:black;stroke:black;" points="1179,1231 1175,1241 1173,1231 1179,1231"/>
<text text-anchor="middle" x="1176" y="1126">1.1+</text>
</g>
<g id="edge179" class="edge"><title>org.apache.commons/commons&#45;digester&#45;&gt;org.apache.commons/commons&#45;beanutils</title>
<path style="fill:none;stroke:black;" d="M1218,965C1236,920 1284,806 1305,753"/>
<polygon style="fill:black;stroke:black;" points="1302,752 1309,744 1308,755 1302,752"/>
<text text-anchor="middle" x="1291" y="861">[1.7,2.0]</text>
</g>
<g id="node188" class="node"><title>net.sourceforge.cobertura/cobertura</title>
<ellipse cx="3162" cy="728" rx="39" ry="18" style="fill:cyan;stroke:black;"/>
<text text-anchor="middle" x="3162" y="733">cobertura</text>
</g>
<g id="edge199" class="edge"><title>net.sourceforge.cobertura/cobertura&#45;&gt;org.apache.oro/oro</title>
<path style="fill:none;stroke:black;" d="M3187,714C3197,708 3208,702 3218,696"/>
<polygon style="fill:black;stroke:black;" points="3217,693 3227,691 3220,699 3217,693"/>
<text text-anchor="middle" x="3206" y="694">[2.0.8,3.0[</text>
</g>
<g id="edge197" class="edge"><title>net.sourceforge.cobertura/cobertura&#45;&gt;org.apache.log4j/log4j</title>
<path style="fill:none;stroke:black;" d="M3149,711C3119,672 3047,577 3012,532"/>
<polygon style="fill:black;stroke:black;" points="3009,534 3006,524 3015,530 3009,534"/>
<text text-anchor="middle" x="3040" y="623">[1.2.9,2.0[</text>
</g>
<g id="edge201" class="edge"><title>net.sourceforge.cobertura/cobertura&#45;&gt;org.objectweb.asm/asm</title>
<path style="fill:none;stroke:black;" d="M3169,746C3188,791 3235,906 3257,958"/>
<polygon style="fill:black;stroke:black;" points="3260,956 3261,967 3254,959 3260,956"/>
<text text-anchor="middle" x="3197" y="863">2.2+</text>
</g>
</g>
</svg>
