<?xml version="1.0" encoding="UTF-8" standalone="no"?>
<!DOCTYPE svg PUBLIC "-//W3C//DTD SVG 1.0//EN"
 "http://www.w3.org/TR/2001/REC-SVG-20010904/DTD/svg10.dtd">
<!-- Generated by circo version 2.2 (Tue Sep 13 00:37:56 UTC 2005)
     For user: (archie) Archie Cobbs   Title: modules    Pages: 1 -->
<svg width="804pt" height="667pt"
 viewBox = "-1 -1 803 666"
 xmlns="http://www.w3.org/2000/svg">
<g id="graph0" class="graph" transform = "scale(0.188258)"
 style="font-family:Times-Roman;font-size:14.00;">
<title>modules</title>
<g id="node3" class="node"><title>org.testng/testng</title>
<ellipse cx="2166" cy="1945" rx="30" ry="18" style="fill:#bd3eff;stroke:black;"/>
<text text-anchor="middle" x="2166" y="1950">testng</text>
</g>
<g id="node6" class="node"><title>org.codehaus.jaxen/jaxen</title>
<ellipse cx="35" cy="721" rx="29" ry="18" style="fill:#97f6ff;stroke:black;"/>
<text text-anchor="middle" x="35" y="726">jaxen</text>
</g>
<g id="node9" class="node"><title>com.puppycrawl/checkstyle</title>
<ellipse cx="3673" cy="223" rx="42" ry="18" style="fill:gold;stroke:black;"/>
<text text-anchor="middle" x="3673" y="228">checkstyle</text>
</g>
<g id="node11" class="node"><title>org.antlr/antlr</title>
<ellipse cx="3888" cy="594" rx="27" ry="18" style="fill:gold;stroke:black;"/>
<text text-anchor="middle" x="3888" y="599">antlr</text>
</g>
<g id="edge8" class="edge"><title>com.puppycrawl/checkstyle&#45;&gt;org.antlr/antlr</title>
<path style="fill:none;stroke:black;" d="M3683,241C3718,301 3833,498 3873,568"/>
<polygon style="fill:black;stroke:black;" points="3876,567 3878,577 3870,570 3876,567"/>
<text text-anchor="middle" x="3761" y="414">2.7+</text>
</g>
<g id="node13" class="node"><title>org.apache.commons/commons&#45;cli</title>
<ellipse cx="3753" cy="132" rx="49" ry="18" style="fill:gold;stroke:black;"/>
<text text-anchor="middle" x="3753" y="137">commons&#45;cli</text>
</g>
<g id="edge10" class="edge"><title>com.puppycrawl/checkstyle&#45;&gt;org.apache.commons/commons&#45;cli</title>
<path style="fill:none;stroke:black;" d="M3688,206C3700,192 3718,173 3731,157"/>
<polygon style="fill:black;stroke:black;" points="3729,154 3738,149 3734,159 3729,154"/>
<text text-anchor="middle" x="3744" y="184">[1.1,2.0[</text>
</g>
<g id="node15" class="node"><title>org.apache.commons/commons&#45;collections</title>
<ellipse cx="3811" cy="391" rx="73" ry="18" style="fill:gold;stroke:black;"/>
<text text-anchor="middle" x="3811" y="396">commons&#45;collections</text>
</g>
<g id="edge12" class="edge"><title>com.puppycrawl/checkstyle&#45;&gt;org.apache.commons/commons&#45;collections</title>
<path style="fill:none;stroke:black;" d="M3687,240C3711,269 3761,330 3789,365"/>
<polygon style="fill:black;stroke:black;" points="3792,363 3796,373 3787,368 3792,363"/>
<text text-anchor="middle" x="3720" y="312">2.1+</text>
</g>
<g id="node17" class="node"><title>org.apache.commons/commons&#45;logging</title>
<ellipse cx="3061" cy="87" rx="64" ry="18" style="fill:gold;stroke:black;"/>
<text text-anchor="middle" x="3061" y="92">commons&#45;logging</text>
</g>
<g id="edge14" class="edge"><title>com.puppycrawl/checkstyle&#45;&gt;org.apache.commons/commons&#45;logging</title>
<path style="fill:none;stroke:black;" d="M3636,215C3534,192 3248,128 3122,100"/>
<polygon style="fill:black;stroke:black;" points="3121,103 3112,98 3122,97 3121,103"/>
<text text-anchor="middle" x="3373" y="172">1+</text>
</g>
<g id="node19" class="node"><title>org.apache.commons/commons&#45;beanutils</title>
<ellipse cx="3488" cy="110" rx="68" ry="18" style="fill:gold;stroke:black;"/>
<text text-anchor="middle" x="3488" y="115">commons&#45;beanutils</text>
</g>
<g id="edge16" class="edge"><title>com.puppycrawl/checkstyle&#45;&gt;org.apache.commons/commons&#45;beanutils</title>
<path style="fill:none;stroke:black;" d="M3649,208C3618,189 3561,155 3524,132"/>
<polygon style="fill:black;stroke:black;" points="3522,135 3515,127 3525,129 3522,135"/>
<text text-anchor="middle" x="3582" y="187">1.7+</text>
</g>
<g id="edge151" class="edge"><title>org.apache.commons/commons&#45;beanutils&#45;&gt;org.apache.commons/commons&#45;collections</title>
<path style="fill:none;stroke:black;" d="M3508,128C3564,176 3719,311 3783,366"/>
<polygon style="fill:black;stroke:black;" points="3786,364 3791,373 3781,369 3786,364"/>
<text text-anchor="middle" x="3649" y="272">3.+</text>
</g>
<g id="edge149" class="edge"><title>org.apache.commons/commons&#45;beanutils&#45;&gt;org.apache.commons/commons&#45;logging</title>
<path style="fill:none;stroke:black;" d="M3421,106C3343,102 3215,96 3134,91"/>
<polygon style="fill:black;stroke:black;" points="3134,94 3124,90 3134,88 3134,94"/>
<text text-anchor="middle" x="3271" y="113">[1.0,2.0[</text>
</g>
<g id="node22" class="node"><title>org.apache.oro/oro</title>
<ellipse cx="3566" cy="1406" rx="27" ry="18" style="fill:#cda87d;stroke:black;"/>
<text text-anchor="middle" x="3566" y="1411">oro</text>
</g>
<g id="node25" class="node"><title>org.apache.xml/xalan&#45;j</title>
<ellipse cx="2088" cy="1018" rx="33" ry="18" style="fill:aquamarine;stroke:black;"/>
<text text-anchor="middle" x="2088" y="1023">xalan&#45;j</text>
</g>
<g id="node27" class="node"><title>org.apache.xerces/xerces</title>
<ellipse cx="2624" cy="953" rx="31" ry="18" style="fill:aquamarine;stroke:black;"/>
<text text-anchor="middle" x="2624" y="958">xerces</text>
</g>
<g id="edge22" class="edge"><title>org.apache.xml/xalan&#45;j&#45;&gt;org.apache.xerces/xerces</title>
<path style="fill:none;stroke:black;" d="M2120,1014C2213,1002 2481,970 2584,958"/>
<polygon style="fill:black;stroke:black;" points="2584,955 2594,957 2584,961 2584,955"/>
<text text-anchor="middle" x="2356" y="980">2.7+</text>
</g>
<g id="node32" class="node"><title>org.dom4j/dom4j</title>
<ellipse cx="2733" cy="1141" rx="31" ry="18" style="fill:darkorange;stroke:black;"/>
<text text-anchor="middle" x="2733" y="1146">dom4j</text>
</g>
<g id="edge28" class="edge"><title>org.dom4j/dom4j&#45;&gt;org.apache.xerces/xerces</title>
<path style="fill:none;stroke:black;" d="M2723,1124C2704,1091 2662,1018 2639,979"/>
<polygon style="fill:black;stroke:black;" points="2636,980 2634,970 2642,977 2636,980"/>
<text text-anchor="middle" x="2648" y="1052">[2.5,3.0[</text>
</g>
<g id="node36" class="node"><title>org.jboss/javassist</title>
<ellipse cx="1378" cy="2979" rx="37" ry="18" style="fill:#bd3eff;stroke:black;"/>
<text text-anchor="middle" x="1378" y="2984">javassist</text>
</g>
<g id="node39" class="node"><title>net.sourceforge.jsr107cache/jsr107cache</title>
<ellipse cx="2463" cy="744" rx="47" ry="18" style="fill:#97f6ff;stroke:black;"/>
<text text-anchor="middle" x="2463" y="749">jsr107cache</text>
</g>
<g id="node42" class="node"><title>org.mortbay/jetty</title>
<ellipse cx="2021" cy="1661" rx="27" ry="18" style="fill:gold;stroke:black;"/>
<text text-anchor="middle" x="2021" y="1666">jetty</text>
</g>
<g id="node45" class="node"><title>org.mozilla/rhino</title>
<ellipse cx="2094" cy="1230" rx="28" ry="18" style="fill:#cda87d;stroke:black;"/>
<text text-anchor="middle" x="2094" y="1235">rhino</text>
</g>
<g id="node48" class="node"><title>org.apache.xmlgraphics/batik</title>
<ellipse cx="2211" cy="1178" rx="27" ry="18" style="fill:aquamarine;stroke:black;"/>
<text text-anchor="middle" x="2211" y="1183">batik</text>
</g>
<g id="edge42" class="edge"><title>org.apache.xmlgraphics/batik&#45;&gt;org.apache.xerces/xerces</title>
<path style="fill:none;stroke:black;" d="M2232,1167C2299,1130 2511,1015 2592,970"/>
<polygon style="fill:black;stroke:black;" points="2591,967 2601,965 2594,973 2591,967"/>
<text text-anchor="middle" x="2415" y="1085">2.5+</text>
</g>
<g id="edge40" class="edge"><title>org.apache.xmlgraphics/batik&#45;&gt;org.mozilla/rhino</title>
<path style="fill:none;stroke:black;" d="M2188,1188C2171,1196 2146,1207 2126,1216"/>
<polygon style="fill:black;stroke:black;" points="2128,1219 2117,1220 2125,1213 2128,1219"/>
<text text-anchor="middle" x="2151" y="1223">1.+</text>
</g>
<g id="node53" class="node"><title>com.opensymphony/oscache</title>
<ellipse cx="2865" cy="180" rx="35" ry="18" style="fill:cyan;stroke:black;"/>
<text text-anchor="middle" x="2865" y="185">oscache</text>
</g>
<g id="edge46" class="edge"><title>com.opensymphony/oscache&#45;&gt;org.apache.commons/commons&#45;logging</title>
<path style="fill:none;stroke:black;" d="M2891,168C2923,152 2979,126 3018,107"/>
<polygon style="fill:black;stroke:black;" points="3017,103 3028,103 3020,110 3017,103"/>
<text text-anchor="middle" x="2958" y="128">[1.1,2.0[</text>
</g>
<g id="node56" class="node"><title>org.jgroups/jgroups</title>
<ellipse cx="2709" cy="331" rx="35" ry="18" style="fill:cyan;stroke:black;"/>
<text text-anchor="middle" x="2709" y="336">jgroups</text>
</g>
<g id="edge48" class="edge"><title>com.opensymphony/oscache&#45;&gt;org.jgroups/jgroups</title>
<path style="fill:none;stroke:black;" d="M2848,196C2820,223 2765,277 2733,308"/>
<polygon style="fill:black;stroke:black;" points="2736,310 2726,315 2731,305 2736,310"/>
<text text-anchor="middle" x="2787" y="278">[2.2,3.0[</text>
</g>
<g id="edge135" class="edge"><title>org.jgroups/jgroups&#45;&gt;org.apache.commons/commons&#45;logging</title>
<path style="fill:none;stroke:black;" d="M2730,316C2789,276 2957,160 3027,110"/>
<polygon style="fill:black;stroke:black;" points="3026,107 3036,104 3030,112 3026,107"/>
<text text-anchor="middle" x="2883" y="231">1.1+</text>
</g>
<g id="node59" class="node"><title>com.mysql/mysql&#45;connector&#45;java</title>
<ellipse cx="2209" cy="1803" rx="73" ry="18" style="fill:darkorange;stroke:black;"/>
<text text-anchor="middle" x="2209" y="1808">mysql&#45;connector&#45;java</text>
</g>
<g id="node62" class="node"><title>org.aopalliance/aopalliance</title>
<ellipse cx="4010" cy="826" rx="45" ry="18" style="fill:#bd3eff;stroke:black;"/>
<text text-anchor="middle" x="4010" y="831">aopalliance</text>
</g>
<g id="node65" class="node"><title>javax.management/jmx</title>
<ellipse cx="3982" cy="1677" rx="27" ry="18" style="fill:#97f6ff;stroke:black;"/>
<text text-anchor="middle" x="3982" y="1682">jmx</text>
</g>
<g id="node67" class="node"><title>javax.management/jmxremote</title>
<ellipse cx="2038" cy="1803" rx="44" ry="18" style="fill:#97f6ff;stroke:black;"/>
<text text-anchor="middle" x="2038" y="1808">jmxremote</text>
</g>
<g id="node70" class="node"><title>javax.mail/javamail</title>
<ellipse cx="4083" cy="1499" rx="38" ry="18" style="fill:gold;stroke:black;"/>
<text text-anchor="middle" x="4083" y="1504">javamail</text>
</g>
<g id="node72" class="node"><title>javax.activation/jaf</title>
<ellipse cx="4184" cy="1592" rx="27" ry="18" style="fill:gold;stroke:black;"/>
<text text-anchor="middle" x="4184" y="1597">jaf</text>
</g>
<g id="edge59" class="edge"><title>javax.mail/javamail&#45;&gt;javax.activation/jaf</title>
<path style="fill:none;stroke:black;" d="M4101,1515C4117,1531 4142,1553 4160,1570"/>
<polygon style="fill:black;stroke:black;" points="4163,1568 4168,1577 4158,1573 4163,1568"/>
<text text-anchor="middle" x="4133" y="1568">[1.1.1,2.0[</text>
</g>
<g id="node75" class="node"><title>org.hibernate/hibernate&#45;entitymanager</title>
<ellipse cx="2027" cy="3188" rx="82" ry="18" style="fill:#cda87d;stroke:black;"/>
<text text-anchor="middle" x="2027" y="3193">hibernate&#45;entitymanager</text>
</g>
<g id="node77" class="node"><title>org.hibernate/hibernate</title>
<ellipse cx="2897" cy="1283" rx="40" ry="18" style="fill:#cda87d;stroke:black;"/>
<text text-anchor="middle" x="2897" y="1288">hibernate</text>
</g>
<g id="edge63" class="edge"><title>org.hibernate/hibernate&#45;entitymanager&#45;&gt;org.hibernate/hibernate</title>
<path style="fill:none;stroke:black;" d="M2035,3170C2118,2992 2786,1528 2885,1310"/>
<polygon style="fill:black;stroke:black;" points="2882,1309 2889,1301 2888,1312 2882,1309"/>
<text text-anchor="middle" x="2497" y="2242">[3.2.0,4.0[</text>
</g>
<g id="node79" class="node"><title>org.hibernate/hibernate&#45;commons&#45;annotations</title>
<ellipse cx="1789" cy="3269" rx="103" ry="18" style="fill:#cda87d;stroke:black;"/>
<text text-anchor="middle" x="1789" y="3274">hibernate&#45;commons&#45;annotations</text>
</g>
<g id="edge65" class="edge"><title>org.hibernate/hibernate&#45;entitymanager&#45;&gt;org.hibernate/hibernate&#45;commons&#45;annotations</title>
<path style="fill:none;stroke:black;" d="M1983,3203C1944,3216 1888,3236 1847,3250"/>
<polygon style="fill:black;stroke:black;" points="1848,3253 1837,3253 1846,3247 1848,3253"/>
<text text-anchor="middle" x="1910" y="3246">[3.0.0,4.0[</text>
</g>
<g id="node81" class="node"><title>org.hibernate/hibernate&#45;annotations</title>
<ellipse cx="1870" cy="3507" rx="74" ry="18" style="fill:#cda87d;stroke:black;"/>
<text text-anchor="middle" x="1870" y="3512">hibernate&#45;annotations</text>
</g>
<g id="edge67" class="edge"><title>org.hibernate/hibernate&#45;entitymanager&#45;&gt;org.hibernate/hibernate&#45;annotations</title>
<path style="fill:none;stroke:black;" d="M2022,3206C2000,3259 1923,3417 1888,3480"/>
<polygon style="fill:black;stroke:black;" points="1891,3482 1883,3489 1885,3479 1891,3482"/>
<text text-anchor="middle" x="1988" y="3355">[3.3.1,4.0[</text>
</g>
<g id="node83" class="node"><title>org.hibernate/hibernate&#45;validator</title>
<ellipse cx="2108" cy="3426" rx="66" ry="18" style="fill:#cda87d;stroke:black;"/>
<text text-anchor="middle" x="2108" y="3431">hibernate&#45;validator</text>
</g>
<g id="edge69" class="edge"><title>org.hibernate/hibernate&#45;entitymanager&#45;&gt;org.hibernate/hibernate&#45;validator</title>
<path style="fill:none;stroke:black;" d="M2037,3206C2054,3248 2089,3349 2103,3398"/>
<polygon style="fill:black;stroke:black;" points="2106,3397 2106,3408 2100,3399 2106,3397"/>
<text text-anchor="middle" x="2107" y="3312">[3.0.0,4.0[</text>
</g>
<g id="edge96" class="edge"><title>org.hibernate/hibernate&#45;&gt;org.codehaus.jaxen/jaxen</title>
<path style="fill:none;stroke:black;" d="M2860,1276C2552,1215 387,790 73,729"/>
<polygon style="fill:black;stroke:black;" points="72,732 63,727 73,726 72,732"/>
<text text-anchor="middle" x="1461" y="1017">[1.1,1.2[</text>
</g>
<g id="edge90" class="edge"><title>org.hibernate/hibernate&#45;&gt;org.antlr/antlr</title>
<path style="fill:none;stroke:black;" d="M2919,1268C3049,1177 3718,713 3861,613"/>
<polygon style="fill:black;stroke:black;" points="3859,610 3869,607 3863,616 3859,610"/>
<text text-anchor="middle" x="3393" y="928">[2.7.6,2.8[</text>
</g>
<g id="edge77" class="edge"><title>org.hibernate/hibernate&#45;&gt;org.apache.commons/commons&#45;collections</title>
<path style="fill:none;stroke:black;" d="M2914,1266C3026,1157 3651,547 3786,416"/>
<polygon style="fill:black;stroke:black;" points="3783,414 3793,409 3788,419 3783,414"/>
<text text-anchor="middle" x="3352" y="861">[2.1.1,3.0[</text>
</g>
<g id="edge79" class="edge"><title>org.hibernate/hibernate&#45;&gt;org.apache.commons/commons&#45;logging</title>
<path style="fill:none;stroke:black;" d="M2900,1265C2918,1129 3034,282 3057,115"/>
<polygon style="fill:black;stroke:black;" points="3054,115 3058,105 3060,115 3054,115"/>
<text text-anchor="middle" x="2947" y="690">[1.0.4,1.2[</text>
</g>
<g id="edge83" class="edge"><title>org.hibernate/hibernate&#45;&gt;org.apache.xerces/xerces</title>
<path style="fill:none;stroke:black;" d="M2883,1266C2838,1211 2697,1041 2645,977"/>
<polygon style="fill:black;stroke:black;" points="2642,979 2638,969 2647,974 2642,979"/>
<text text-anchor="middle" x="2728" y="1123">[2.5,3.0[</text>
</g>
<g id="edge81" class="edge"><title>org.hibernate/hibernate&#45;&gt;org.dom4j/dom4j</title>
<path style="fill:none;stroke:black;" d="M2879,1267C2850,1242 2792,1192 2759,1163"/>
<polygon style="fill:black;stroke:black;" points="2756,1165 2751,1156 2761,1160 2756,1165"/>
<text text-anchor="middle" x="2815" y="1233">1.6.1</text>
</g>
<g id="edge94" class="edge"><title>org.hibernate/hibernate&#45;&gt;org.jboss/javassist</title>
<path style="fill:none;stroke:black;" d="M2882,1300C2736,1463 1574,2760 1400,2954"/>
<polygon style="fill:black;stroke:black;" points="1402,2957 1393,2962 1397,2952 1402,2957"/>
<text text-anchor="middle" x="2103" y="2137">[3.4,4.0[</text>
</g>
<g id="edge102" class="edge"><title>org.hibernate/hibernate&#45;&gt;com.opensymphony/oscache</title>
<path style="fill:none;stroke:black;" d="M2896,1265C2892,1136 2870,366 2866,208"/>
<polygon style="fill:black;stroke:black;" points="2863,208 2866,198 2870,208 2863,208"/>
<text text-anchor="middle" x="2855" y="737">[2.1,3.0[</text>
</g>
<g id="edge104" class="edge"><title>org.hibernate/hibernate&#45;&gt;org.jgroups/jgroups</title>
<path style="fill:none;stroke:black;" d="M2893,1265C2870,1148 2743,502 2715,359"/>
<polygon style="fill:black;stroke:black;" points="2712,359 2713,349 2718,358 2712,359"/>
<text text-anchor="middle" x="2769" y="812">[2.2.8,3.0[</text>
</g>
<g id="node87" class="node"><title>net.sourceforge.ehcache/ehcache</title>
<ellipse cx="2582" cy="740" rx="36" ry="18" style="fill:#cda87d;stroke:black;"/>
<text text-anchor="middle" x="2582" y="745">ehcache</text>
</g>
<g id="edge73" class="edge"><title>org.hibernate/hibernate&#45;&gt;net.sourceforge.ehcache/ehcache</title>
<path style="fill:none;stroke:black;" d="M2887,1266C2841,1187 2652,861 2597,766"/>
<polygon style="fill:black;stroke:black;" points="2594,767 2592,757 2600,764 2594,767"/>
<text text-anchor="middle" x="2719" y="1017">1.2.3</text>
</g>
<g id="node89" class="node"><title>javax.transaction/jta</title>
<ellipse cx="1485" cy="3063" rx="27" ry="18" style="fill:#cda87d;stroke:black;"/>
<text text-anchor="middle" x="1485" y="3068">jta</text>
</g>
<g id="edge75" class="edge"><title>org.hibernate/hibernate&#45;&gt;javax.transaction/jta</title>
<path style="fill:none;stroke:black;" d="M2883,1300C2750,1468 1662,2840 1504,3039"/>
<polygon style="fill:black;stroke:black;" points="1507,3041 1498,3047 1501,3037 1507,3041"/>
<text text-anchor="middle" x="2174" y="2179">1.1</text>
</g>
<g id="node96" class="node"><title>net.sourceforge.cglib/cglib</title>
<ellipse cx="3098" cy="1364" rx="27" ry="18" style="fill:#cda87d;stroke:black;"/>
<text text-anchor="middle" x="3098" y="1369">cglib</text>
</g>
<g id="edge86" class="edge"><title>org.hibernate/hibernate&#45;&gt;net.sourceforge.cglib/cglib</title>
<path style="fill:none;stroke:black;" d="M2927,1295C2964,1311 3027,1335 3065,1351"/>
<polygon style="fill:black;stroke:black;" points="3067,1348 3075,1355 3064,1355 3067,1348"/>
<text text-anchor="middle" x="3000" y="1343">2.1.3+</text>
</g>
<g id="node98" class="node"><title>org.apache.log4j/log4j</title>
<ellipse cx="3701" cy="1193" rx="27" ry="18" style="fill:#cda87d;stroke:black;"/>
<text text-anchor="middle" x="3701" y="1198">log4j</text>
</g>
<g id="edge88" class="edge"><title>org.hibernate/hibernate&#45;&gt;org.apache.log4j/log4j</title>
<path style="fill:none;stroke:black;" d="M2936,1279C3073,1263 3531,1212 3664,1197"/>
<polygon style="fill:black;stroke:black;" points="3664,1194 3674,1196 3664,1200 3664,1194"/>
<text text-anchor="middle" x="3304" y="1253">[1.2,1.3[</text>
</g>
<g id="node101" class="node"><title>net.sourceforge.c3p0/c3p0</title>
<ellipse cx="1588" cy="3137" rx="27" ry="18" style="fill:#cda87d;stroke:black;"/>
<text text-anchor="middle" x="1588" y="3142">c3p0</text>
</g>
<g id="edge92" class="edge"><title>org.hibernate/hibernate&#45;&gt;net.sourceforge.c3p0/c3p0</title>
<path style="fill:none;stroke:black;" d="M2885,1300C2763,1473 1751,2906 1606,3113"/>
<polygon style="fill:black;stroke:black;" points="1609,3115 1600,3121 1603,3111 1609,3115"/>
<text text-anchor="middle" x="2205" y="2216">[0.9.1,2.0[</text>
</g>
<g id="node105" class="node"><title>net.sourceforge.proxool/proxool</title>
<ellipse cx="1700" cy="3210" rx="35" ry="18" style="fill:#cda87d;stroke:black;"/>
<text text-anchor="middle" x="1700" y="3215">proxool</text>
</g>
<g id="edge98" class="edge"><title>org.hibernate/hibernate&#45;&gt;net.sourceforge.proxool/proxool</title>
<path style="fill:none;stroke:black;" d="M2886,1301C2775,1479 1851,2967 1716,3184"/>
<polygon style="fill:black;stroke:black;" points="1719,3186 1711,3193 1713,3183 1719,3186"/>
<text text-anchor="middle" x="2333" y="2253">[0.8.3,1.1[</text>
</g>
<g id="node107" class="node"><title>net.sourceforge.swarmcache/swarmcache</title>
<ellipse cx="2612" cy="525" rx="47" ry="18" style="fill:#cda87d;stroke:black;"/>
<text text-anchor="middle" x="2612" y="530">swarmcache</text>
</g>
<g id="edge100" class="edge"><title>org.hibernate/hibernate&#45;&gt;net.sourceforge.swarmcache/swarmcache</title>
<path style="fill:none;stroke:black;" d="M2890,1265C2852,1165 2668,675 2623,552"/>
<polygon style="fill:black;stroke:black;" points="2620,554 2619,543 2626,551 2620,554"/>
<text text-anchor="middle" x="2713" y="909">[1.0RC2,2.0[</text>
</g>
<g id="edge119" class="edge"><title>org.hibernate/hibernate&#45;annotations&#45;&gt;org.hibernate/hibernate&#45;entitymanager</title>
<path style="fill:none;stroke:black;" d="M1876,3489C1897,3436 1974,3278 2009,3215"/>
<polygon style="fill:black;stroke:black;" points="2006,3213 2014,3206 2012,3216 2006,3213"/>
<text text-anchor="middle" x="1906" y="3352">[3.3.2,4.0[</text>
</g>
<g id="edge115" class="edge"><title>org.hibernate/hibernate&#45;annotations&#45;&gt;org.hibernate/hibernate</title>
<path style="fill:none;stroke:black;" d="M1878,3489C1969,3294 2774,1550 2885,1310"/>
<polygon style="fill:black;stroke:black;" points="2882,1309 2889,1301 2888,1312 2882,1309"/>
<text text-anchor="middle" x="2348" y="2400">[3.2.0,4.0[</text>
</g>
<g id="edge117" class="edge"><title>org.hibernate/hibernate&#45;annotations&#45;&gt;org.hibernate/hibernate&#45;commons&#45;annotations</title>
<path style="fill:none;stroke:black;" d="M1864,3489C1850,3447 1815,3346 1798,3297"/>
<polygon style="fill:black;stroke:black;" points="1795,3298 1795,3287 1801,3296 1795,3298"/>
<text text-anchor="middle" x="1795" y="3393">[3.0.0,4.0[</text>
</g>
<g id="edge121" class="edge"><title>org.hibernate/hibernate&#45;annotations&#45;&gt;org.hibernate/hibernate&#45;validator</title>
<path style="fill:none;stroke:black;" d="M1913,3492C1954,3478 2014,3458 2057,3443"/>
<polygon style="fill:black;stroke:black;" points="2055,3440 2066,3440 2058,3446 2055,3440"/>
<text text-anchor="middle" x="1989" y="3484">[3.0.0,4.0[</text>
</g>
<g id="edge111" class="edge"><title>org.hibernate/hibernate&#45;validator&#45;&gt;org.hibernate/hibernate&#45;entitymanager</title>
<path style="fill:none;stroke:black;" d="M2098,3408C2080,3367 2045,3266 2032,3216"/>
<polygon style="fill:black;stroke:black;" points="2029,3217 2029,3206 2035,3215 2029,3217"/>
<text text-anchor="middle" x="2026" y="3313">[3.3.2,4.0[</text>
</g>
<g id="edge107" class="edge"><title>org.hibernate/hibernate&#45;validator&#45;&gt;org.hibernate/hibernate</title>
<path style="fill:none;stroke:black;" d="M2115,3408C2186,3215 2801,1545 2887,1310"/>
<polygon style="fill:black;stroke:black;" points="2884,1309 2890,1301 2890,1312 2884,1309"/>
<text text-anchor="middle" x="2536" y="2361">[3.2.0,4.0[</text>
</g>
<g id="edge109" class="edge"><title>org.hibernate/hibernate&#45;validator&#45;&gt;org.hibernate/hibernate&#45;commons&#45;annotations</title>
<path style="fill:none;stroke:black;" d="M2076,3410C2019,3381 1898,3323 1833,3291"/>
<polygon style="fill:black;stroke:black;" points="1831,3294 1824,3286 1834,3288 1831,3294"/>
<text text-anchor="middle" x="1950" y="3340">[3.0.0,4.0[</text>
</g>
<g id="edge213" class="edge"><title>net.sourceforge.ehcache/ehcache&#45;&gt;org.apache.commons/commons&#45;collections</title>
<path style="fill:none;stroke:black;" d="M2613,731C2777,685 3537,469 3753,408"/>
<polygon style="fill:black;stroke:black;" points="3752,405 3763,405 3754,411 3752,405"/>
<text text-anchor="middle" x="3187" y="585">2.1.1</text>
</g>
<g id="edge211" class="edge"><title>net.sourceforge.ehcache/ehcache&#45;&gt;org.apache.commons/commons&#45;logging</title>
<path style="fill:none;stroke:black;" d="M2595,723C2660,633 2962,221 3042,113"/>
<polygon style="fill:black;stroke:black;" points="3039,111 3048,105 3045,115 3039,111"/>
<text text-anchor="middle" x="2801" y="420">1.1+</text>
</g>
<g id="edge215" class="edge"><title>net.sourceforge.ehcache/ehcache&#45;&gt;org.apache.xerces/xerces</title>
<path style="fill:none;stroke:black;" d="M2586,758C2593,796 2610,881 2618,925"/>
<polygon style="fill:black;stroke:black;" points="2621,925 2620,935 2615,926 2621,925"/>
<text text-anchor="middle" x="2585" y="852">2.5.0</text>
</g>
<g id="edge218" class="edge"><title>net.sourceforge.ehcache/ehcache&#45;&gt;net.sourceforge.jsr107cache/jsr107cache</title>
<path style="fill:none;stroke:black;" d="M2546,741C2538,741 2529,742 2520,742"/>
<polygon style="fill:black;stroke:black;" points="2520,745 2510,742 2520,738 2520,745"/>
<text text-anchor="middle" x="2528" y="756">1.0+</text>
</g>
<g id="node141" class="node"><title>org.objectweb.asm/asm</title>
<ellipse cx="3314" cy="1376" rx="27" ry="18" style="fill:#cda87d;stroke:black;"/>
<text text-anchor="middle" x="3314" y="1381">asm</text>
</g>
<g id="edge207" class="edge"><title>net.sourceforge.cglib/cglib&#45;&gt;org.objectweb.asm/asm</title>
<path style="fill:none;stroke:black;" d="M3125,1365C3163,1368 3233,1371 3277,1374"/>
<polygon style="fill:black;stroke:black;" points="3277,1371 3287,1375 3277,1377 3277,1371"/>
<text text-anchor="middle" x="3205" y="1384">1.5.3</text>
</g>
<g id="edge195" class="edge"><title>org.apache.log4j/log4j&#45;&gt;javax.management/jmx</title>
<path style="fill:none;stroke:black;" d="M3711,1210C3753,1282 3917,1564 3967,1651"/>
<polygon style="fill:black;stroke:black;" points="3970,1650 3972,1660 3964,1653 3970,1650"/>
<text text-anchor="middle" x="3806" y="1440">[1.2.1,2.0[</text>
</g>
<g id="edge191" class="edge"><title>org.apache.log4j/log4j&#45;&gt;javax.mail/javamail</title>
<path style="fill:none;stroke:black;" d="M3718,1207C3779,1256 3981,1417 4055,1477"/>
<polygon style="fill:black;stroke:black;" points="4057,1474 4063,1483 4053,1480 4057,1474"/>
<text text-anchor="middle" x="3890" y="1366">[1.4,2.0[</text>
</g>
<g id="node127" class="node"><title>javax.jms/jms</title>
<ellipse cx="3829" cy="1018" rx="27" ry="18" style="fill:aquamarine;stroke:black;"/>
<text text-anchor="middle" x="3829" y="1023">jms</text>
</g>
<g id="edge193" class="edge"><title>org.apache.log4j/log4j&#45;&gt;javax.jms/jms</title>
<path style="fill:none;stroke:black;" d="M3713,1177C3736,1146 3785,1079 3811,1042"/>
<polygon style="fill:black;stroke:black;" points="3808,1040 3817,1034 3814,1044 3808,1040"/>
<text text-anchor="middle" x="3795" y="1111">[1.1,2.0[</text>
</g>
<g id="edge199" class="edge"><title>net.sourceforge.swarmcache/swarmcache&#45;&gt;org.apache.commons/commons&#45;collections</title>
<path style="fill:none;stroke:black;" d="M2657,520C2837,500 3506,425 3734,399"/>
<polygon style="fill:black;stroke:black;" points="3734,396 3744,398 3734,402 3734,396"/>
<text text-anchor="middle" x="3199" y="475">[2.1,3.0[</text>
</g>
<g id="edge201" class="edge"><title>net.sourceforge.swarmcache/swarmcache&#45;&gt;org.apache.commons/commons&#45;logging</title>
<path style="fill:none;stroke:black;" d="M2629,508C2699,441 2954,191 3036,112"/>
<polygon style="fill:black;stroke:black;" points="3033,110 3043,105 3038,115 3033,110"/>
<text text-anchor="middle" x="2835" y="295">[1.1,2.0[</text>
</g>
<g id="edge203" class="edge"><title>net.sourceforge.swarmcache/swarmcache&#45;&gt;org.jgroups/jgroups</title>
<path style="fill:none;stroke:black;" d="M2621,507C2639,473 2676,398 2695,358"/>
<polygon style="fill:black;stroke:black;" points="2692,356 2700,349 2698,359 2692,356"/>
<text text-anchor="middle" x="2690" y="434">[2.2,3.0[</text>
</g>
<g id="node115" class="node"><title>org.hibernate/hibernate&#45;tools</title>
<ellipse cx="2049" cy="1945" rx="55" ry="18" style="fill:#cda87d;stroke:black;"/>
<text text-anchor="middle" x="2049" y="1950">hibernate&#45;tools</text>
</g>
<g id="node123" class="node"><title>org.springframework/spring</title>
<ellipse cx="3894" cy="811" rx="31" ry="18" style="fill:aquamarine;stroke:black;"/>
<text text-anchor="middle" x="3894" y="816">spring</text>
</g>
<g id="edge127" class="edge"><title>org.springframework/spring&#45;&gt;org.apache.commons/commons&#45;logging</title>
<path style="fill:none;stroke:black;" d="M3877,796C3771,704 3218,224 3089,111"/>
<polygon style="fill:black;stroke:black;" points="3086,113 3081,104 3091,108 3086,113"/>
<text text-anchor="middle" x="3478" y="472">1.+</text>
</g>
<g id="edge125" class="edge"><title>org.springframework/spring&#45;&gt;org.aopalliance/aopalliance</title>
<path style="fill:none;stroke:black;" d="M3924,815C3934,817 3946,817 3957,819"/>
<polygon style="fill:black;stroke:black;" points="3957,816 3967,820 3957,822 3957,816"/>
<text text-anchor="middle" x="3945" y="833">1.+</text>
</g>
<g id="edge129" class="edge"><title>org.springframework/spring&#45;&gt;javax.jms/jms</title>
<path style="fill:none;stroke:black;" d="M3888,829C3877,865 3851,947 3838,990"/>
<polygon style="fill:black;stroke:black;" points="3841,991 3835,1000 3835,989 3841,991"/>
<text text-anchor="middle" x="3848" y="921">1.+</text>
</g>
<g id="node150" class="node"><title>org.apache.commons/commons&#45;dbcp</title>
<ellipse cx="2192" cy="1661" rx="56" ry="18" style="fill:aquamarine;stroke:black;"/>
<text text-anchor="middle" x="2192" y="1666">commons&#45;dbcp</text>
</g>
<g id="node152" class="node"><title>org.apache.commons/commons&#45;pool</title>
<ellipse cx="2375" cy="1661" rx="55" ry="18" style="fill:aquamarine;stroke:black;"/>
<text text-anchor="middle" x="2375" y="1666">commons&#45;pool</text>
</g>
<g id="edge155" class="edge"><title>org.apache.commons/commons&#45;dbcp&#45;&gt;org.apache.commons/commons&#45;pool</title>
<path style="fill:none;stroke:black;" d="M2248,1661C2268,1661 2290,1661 2310,1661"/>
<polygon style="fill:black;stroke:black;" points="2310,1657 2320,1661 2310,1664 2310,1657"/>
<text text-anchor="middle" x="2283" y="1675">1.3+</text>
</g>
<g id="node158" class="node"><title>org.apache.commons/commons&#45;email</title>
<ellipse cx="2478" cy="1519" rx="58" ry="18" style="fill:aquamarine;stroke:black;"/>
<text text-anchor="middle" x="2478" y="1524">commons&#45;email</text>
</g>
<g id="node160" class="node"><title>org.apache.commons/commons&#45;digester</title>
<ellipse cx="3276" cy="63" rx="64" ry="18" style="fill:aquamarine;stroke:black;"/>
<text text-anchor="middle" x="3276" y="68">commons&#45;digester</text>
</g>
<g id="edge167" class="edge"><title>org.apache.commons/commons&#45;digester&#45;&gt;org.apache.commons/commons&#45;collections</title>
<path style="fill:none;stroke:black;" d="M3303,79C3391,133 3675,307 3775,369"/>
<polygon style="fill:black;stroke:black;" points="3777,366 3784,374 3774,372 3777,366"/>
<text text-anchor="middle" x="3543" y="246">[2.0,4.0[</text>
</g>
<g id="edge163" class="edge"><title>org.apache.commons/commons&#45;digester&#45;&gt;org.apache.commons/commons&#45;logging</title>
<path style="fill:none;stroke:black;" d="M3216,70C3189,73 3159,76 3131,79"/>
<polygon style="fill:black;stroke:black;" points="3131,82 3121,80 3131,76 3131,82"/>
<text text-anchor="middle" x="3168" y="90">1.1+</text>
</g>
<g id="edge165" class="edge"><title>org.apache.commons/commons&#45;digester&#45;&gt;org.apache.commons/commons&#45;beanutils</title>
<path style="fill:none;stroke:black;" d="M3327,74C3357,80 3394,89 3426,96"/>
<polygon style="fill:black;stroke:black;" points="3427,93 3436,98 3426,99 3427,93"/>
<text text-anchor="middle" x="3381" y="101">[1.7,2.0]</text>
</g>
<g id="node178" class="node"><title>net.sourceforge.cobertura/cobertura</title>
<ellipse cx="3523" cy="1317" rx="39" ry="18" style="fill:cyan;stroke:black;"/>
<text text-anchor="middle" x="3523" y="1322">cobertura</text>
</g>
<g id="edge185" class="edge"><title>net.sourceforge.cobertura/cobertura&#45;&gt;org.apache.oro/oro</title>
<path style="fill:none;stroke:black;" d="M3531,1335C3538,1348 3546,1365 3553,1380"/>
<polygon style="fill:black;stroke:black;" points="3556,1378 3557,1389 3550,1381 3556,1378"/>
<text text-anchor="middle" x="3509" y="1367">[2.0.8,3.0[</text>
</g>
<g id="edge183" class="edge"><title>net.sourceforge.cobertura/cobertura&#45;&gt;org.apache.log4j/log4j</title>
<path style="fill:none;stroke:black;" d="M3545,1302C3577,1280 3638,1237 3674,1212"/>
<polygon style="fill:black;stroke:black;" points="3672,1209 3682,1206 3676,1215 3672,1209"/>
<text text-anchor="middle" x="3613" y="1275">[1.2.9,2.0[</text>
</g>
<g id="edge187" class="edge"><title>net.sourceforge.cobertura/cobertura&#45;&gt;org.objectweb.asm/asm</title>
<path style="fill:none;stroke:black;" d="M3489,1326C3450,1337 3387,1355 3349,1366"/>
<polygon style="fill:black;stroke:black;" points="3350,1369 3339,1369 3348,1363 3350,1369"/>
<text text-anchor="middle" x="3413" y="1364">2.2+</text>
</g>
</g>
</svg>
