<?xml version="1.0" encoding="UTF-8" standalone="no"?>
<!DOCTYPE svg PUBLIC "-//W3C//DTD SVG 1.0//EN"
 "http://www.w3.org/TR/2001/REC-SVG-20010904/DTD/svg10.dtd">
<!-- Generated by circo version 2.2 (Tue Sep 13 00:37:56 UTC 2005)
     For user: (archie) Archie Cobbs   Title: modules    Pages: 1 -->
<svg width="804pt" height="539pt"
 viewBox = "-1 -1 803 538"
 xmlns="http://www.w3.org/2000/svg">
<g id="graph0" class="graph" transform = "scale(0.171466)"
 style="font-family:Times-Roman;font-size:14.00;">
<title>modules</title>
<g id="node3" class="node"><title>org.testng/testng</title>
<ellipse cx="2399" cy="1438" rx="30" ry="18" style="fill:#bd3eff;stroke:black;"/>
<text text-anchor="middle" x="2399" y="1443">testng</text>
</g>
<g id="node6" class="node"><title>org.codehaus.jaxen/jaxen</title>
<ellipse cx="35" cy="1721" rx="29" ry="18" style="fill:#97f6ff;stroke:black;"/>
<text text-anchor="middle" x="35" y="1726">jaxen</text>
</g>
<g id="node9" class="node"><title>com.puppycrawl/checkstyle</title>
<ellipse cx="1341" cy="1720" rx="42" ry="18" style="fill:gold;stroke:black;"/>
<text text-anchor="middle" x="1341" y="1725">checkstyle</text>
</g>
<g id="node11" class="node"><title>org.antlr/antlr</title>
<ellipse cx="1372" cy="1443" rx="27" ry="18" style="fill:gold;stroke:black;"/>
<text text-anchor="middle" x="1372" y="1448">antlr</text>
</g>
<g id="edge8" class="edge"><title>com.puppycrawl/checkstyle&#45;&gt;org.antlr/antlr</title>
<path style="fill:none;stroke:black;" d="M1343,1702C1349,1655 1362,1528 1369,1471"/>
<polygon style="fill:black;stroke:black;" points="1366,1471 1370,1461 1372,1471 1366,1471"/>
<text text-anchor="middle" x="1341" y="1587">2.7+</text>
</g>
<g id="node13" class="node"><title>org.apache.commons/commons&#45;cli</title>
<ellipse cx="1219" cy="1720" rx="49" ry="18" style="fill:gold;stroke:black;"/>
<text text-anchor="middle" x="1219" y="1725">commons&#45;cli</text>
</g>
<g id="edge10" class="edge"><title>com.puppycrawl/checkstyle&#45;&gt;org.apache.commons/commons&#45;cli</title>
<path style="fill:none;stroke:black;" d="M1299,1720C1292,1720 1285,1720 1278,1720"/>
<polygon style="fill:black;stroke:black;" points="1278,1723 1268,1720 1278,1716 1278,1723"/>
<text text-anchor="middle" x="1283" y="1716">[1.1,2.0[</text>
</g>
<g id="node15" class="node"><title>org.apache.commons/commons&#45;collections</title>
<ellipse cx="1372" cy="1996" rx="73" ry="18" style="fill:gold;stroke:black;"/>
<text text-anchor="middle" x="1372" y="2001">commons&#45;collections</text>
</g>
<g id="edge12" class="edge"><title>com.puppycrawl/checkstyle&#45;&gt;org.apache.commons/commons&#45;collections</title>
<path style="fill:none;stroke:black;" d="M1343,1738C1349,1785 1362,1911 1369,1968"/>
<polygon style="fill:black;stroke:black;" points="1372,1968 1370,1978 1366,1968 1372,1968"/>
<text text-anchor="middle" x="1341" y="1863">2.1+</text>
</g>
<g id="node17" class="node"><title>org.apache.commons/commons&#45;logging</title>
<ellipse cx="3358" cy="2694" rx="64" ry="18" style="fill:gold;stroke:black;"/>
<text text-anchor="middle" x="3358" y="2699">commons&#45;logging</text>
</g>
<g id="edge14" class="edge"><title>com.puppycrawl/checkstyle&#45;&gt;org.apache.commons/commons&#45;logging</title>
<path style="fill:none;stroke:black;" d="M1369,1734C1590,1841 3051,2545 3317,2674"/>
<polygon style="fill:black;stroke:black;" points="3318,2671 3326,2678 3315,2677 3318,2671"/>
<text text-anchor="middle" x="2347" y="2223">1+</text>
</g>
<g id="node19" class="node"><title>org.apache.commons/commons&#45;beanutils</title>
<ellipse cx="1611" cy="2495" rx="68" ry="18" style="fill:gold;stroke:black;"/>
<text text-anchor="middle" x="1611" y="2500">commons&#45;beanutils</text>
</g>
<g id="edge16" class="edge"><title>com.puppycrawl/checkstyle&#45;&gt;org.apache.commons/commons&#45;beanutils</title>
<path style="fill:none;stroke:black;" d="M1347,1738C1383,1839 1558,2344 1602,2468"/>
<polygon style="fill:black;stroke:black;" points="1605,2466 1605,2477 1599,2469 1605,2466"/>
<text text-anchor="middle" x="1459" y="2113">1.7+</text>
</g>
<g id="edge187" class="edge"><title>org.apache.commons/commons&#45;beanutils&#45;&gt;org.apache.commons/commons&#45;collections</title>
<path style="fill:none;stroke:black;" d="M1602,2477C1566,2402 1428,2113 1385,2023"/>
<polygon style="fill:black;stroke:black;" points="1382,2025 1381,2014 1388,2022 1382,2025"/>
<text text-anchor="middle" x="1476" y="2251">3.+</text>
</g>
<g id="edge185" class="edge"><title>org.apache.commons/commons&#45;beanutils&#45;&gt;org.apache.commons/commons&#45;logging</title>
<path style="fill:none;stroke:black;" d="M1674,2502C1944,2533 3006,2654 3288,2686"/>
<polygon style="fill:black;stroke:black;" points="3288,2683 3298,2687 3288,2689 3288,2683"/>
<text text-anchor="middle" x="2486" y="2610">[1.0,2.0[</text>
</g>
<g id="node22" class="node"><title>org.apache.oro/oro</title>
<ellipse cx="3168" cy="512" rx="27" ry="18" style="fill:#cda87d;stroke:black;"/>
<text text-anchor="middle" x="3168" y="517">oro</text>
</g>
<g id="node25" class="node"><title>org.apache.xml/xalan&#45;j</title>
<ellipse cx="4319" cy="1458" rx="33" ry="18" style="fill:aquamarine;stroke:black;"/>
<text text-anchor="middle" x="4319" y="1463">xalan&#45;j</text>
</g>
<g id="node27" class="node"><title>org.apache.xerces/xerces</title>
<ellipse cx="3796" cy="1446" rx="31" ry="18" style="fill:aquamarine;stroke:black;"/>
<text text-anchor="middle" x="3796" y="1451">xerces</text>
</g>
<g id="edge22" class="edge"><title>org.apache.xml/xalan&#45;j&#45;&gt;org.apache.xerces/xerces</title>
<path style="fill:none;stroke:black;" d="M4286,1457C4194,1455 3937,1449 3837,1447"/>
<polygon style="fill:black;stroke:black;" points="3837,1450 3827,1447 3837,1443 3837,1450"/>
<text text-anchor="middle" x="4056" y="1466">2.7+</text>
</g>
<g id="node32" class="node"><title>org.dom4j/dom4j</title>
<ellipse cx="3704" cy="1183" rx="31" ry="18" style="fill:darkorange;stroke:black;"/>
<text text-anchor="middle" x="3704" y="1188">dom4j</text>
</g>
<g id="edge28" class="edge"><title>org.dom4j/dom4j&#45;&gt;org.apache.xerces/xerces</title>
<path style="fill:none;stroke:black;" d="M3710,1201C3726,1246 3768,1364 3787,1418"/>
<polygon style="fill:black;stroke:black;" points="3790,1417 3790,1428 3784,1419 3790,1417"/>
<text text-anchor="middle" x="3722" y="1320">[2.5,3.0[</text>
</g>
<g id="node36" class="node"><title>org.jboss/javassist</title>
<ellipse cx="4586" cy="379" rx="37" ry="18" style="fill:#bd3eff;stroke:black;"/>
<text text-anchor="middle" x="4586" y="384">javassist</text>
</g>
<g id="node39" class="node"><title>net.sourceforge.jsr107cache/jsr107cache</title>
<ellipse cx="3946" cy="1722" rx="47" ry="18" style="fill:#97f6ff;stroke:black;"/>
<text text-anchor="middle" x="3946" y="1727">jsr107cache</text>
</g>
<g id="node42" class="node"><title>org.mortbay/jetty</title>
<ellipse cx="2177" cy="3069" rx="27" ry="18" style="fill:gold;stroke:black;"/>
<text text-anchor="middle" x="2177" y="3074">jetty</text>
</g>
<g id="node45" class="node"><title>net.sourceforge.freemarker/freemarker</title>
<ellipse cx="1394" cy="1065" rx="43" ry="18" style="fill:#cda87d;stroke:black;"/>
<text text-anchor="middle" x="1394" y="1070">freemarker</text>
</g>
<g id="node48" class="node"><title>org.mozilla/rhino</title>
<ellipse cx="4340" cy="1249" rx="28" ry="18" style="fill:aquamarine;stroke:black;"/>
<text text-anchor="middle" x="4340" y="1254">rhino</text>
</g>
<g id="node51" class="node"><title>org.apache.xmlgraphics/batik</title>
<ellipse cx="4217" cy="1282" rx="27" ry="18" style="fill:cyan;stroke:black;"/>
<text text-anchor="middle" x="4217" y="1287">batik</text>
</g>
<g id="edge44" class="edge"><title>org.apache.xmlgraphics/batik&#45;&gt;org.apache.xerces/xerces</title>
<path style="fill:none;stroke:black;" d="M4193,1291C4123,1319 3915,1399 3832,1432"/>
<polygon style="fill:black;stroke:black;" points="3833,1436 3822,1436 3830,1429 3833,1436"/>
<text text-anchor="middle" x="4006" y="1357">2.5+</text>
</g>
<g id="edge42" class="edge"><title>org.apache.xmlgraphics/batik&#45;&gt;org.mozilla/rhino</title>
<path style="fill:none;stroke:black;" d="M4242,1275C4260,1271 4284,1264 4304,1259"/>
<polygon style="fill:black;stroke:black;" points="4303,1256 4314,1256 4305,1262 4303,1256"/>
<text text-anchor="middle" x="4278" y="1282">1.+</text>
</g>
<g id="node56" class="node"><title>com.opensymphony/oscache</title>
<ellipse cx="3555" cy="2497" rx="35" ry="18" style="fill:darkorange;stroke:black;"/>
<text text-anchor="middle" x="3555" y="2502">oscache</text>
</g>
<g id="edge48" class="edge"><title>com.opensymphony/oscache&#45;&gt;org.apache.commons/commons&#45;logging</title>
<path style="fill:none;stroke:black;" d="M3539,2513C3504,2548 3423,2629 3382,2670"/>
<polygon style="fill:black;stroke:black;" points="3385,2672 3375,2677 3380,2667 3385,2672"/>
<text text-anchor="middle" x="3457" y="2582">[1.1,2.0[</text>
</g>
<g id="node59" class="node"><title>org.jgroups/jgroups</title>
<ellipse cx="3703" cy="2262" rx="35" ry="18" style="fill:darkorange;stroke:black;"/>
<text text-anchor="middle" x="3703" y="2267">jgroups</text>
</g>
<g id="edge50" class="edge"><title>com.opensymphony/oscache&#45;&gt;org.jgroups/jgroups</title>
<path style="fill:none;stroke:black;" d="M3566,2480C3591,2439 3656,2336 3687,2288"/>
<polygon style="fill:black;stroke:black;" points="3684,2286 3692,2279 3690,2289 3684,2286"/>
<text text-anchor="middle" x="3597" y="2385">[2.2,3.0[</text>
</g>
<g id="edge171" class="edge"><title>org.jgroups/jgroups&#45;&gt;org.apache.commons/commons&#45;logging</title>
<path style="fill:none;stroke:black;" d="M3690,2279C3637,2345 3442,2588 3378,2668"/>
<polygon style="fill:black;stroke:black;" points="3381,2670 3372,2676 3375,2666 3381,2670"/>
<text text-anchor="middle" x="3510" y="2483">1.1+</text>
</g>
<g id="node62" class="node"><title>net.sourceforge.gwt&#45;widget/gwt&#45;sl</title>
<ellipse cx="2260" cy="1438" rx="30" ry="18" style="fill:#bd3eff;stroke:black;"/>
<text text-anchor="middle" x="2260" y="1443">gwt&#45;sl</text>
</g>
<g id="node65" class="node"><title>com.mysql/mysql&#45;connector&#45;java</title>
<ellipse cx="2581" cy="1577" rx="73" ry="18" style="fill:#97f6ff;stroke:black;"/>
<text text-anchor="middle" x="2581" y="1582">mysql&#45;connector&#45;java</text>
</g>
<g id="node68" class="node"><title>org.aopalliance/aopalliance</title>
<ellipse cx="2583" cy="2964" rx="45" ry="18" style="fill:gold;stroke:black;"/>
<text text-anchor="middle" x="2583" y="2969">aopalliance</text>
</g>
<g id="node71" class="node"><title>javax.management/jmx</title>
<ellipse cx="3800" cy="418" rx="27" ry="18" style="fill:#cda87d;stroke:black;"/>
<text text-anchor="middle" x="3800" y="423">jmx</text>
</g>
<g id="node73" class="node"><title>javax.management/jmxremote</title>
<ellipse cx="2274" cy="1716" rx="44" ry="18" style="fill:#cda87d;stroke:black;"/>
<text text-anchor="middle" x="2274" y="1721">jmxremote</text>
</g>
<g id="node76" class="node"><title>javax.mail/javamail</title>
<ellipse cx="3609" cy="341" rx="38" ry="18" style="fill:aquamarine;stroke:black;"/>
<text text-anchor="middle" x="3609" y="346">javamail</text>
</g>
<g id="node78" class="node"><title>javax.activation/jaf</title>
<ellipse cx="3691" cy="231" rx="27" ry="18" style="fill:aquamarine;stroke:black;"/>
<text text-anchor="middle" x="3691" y="236">jaf</text>
</g>
<g id="edge63" class="edge"><title>javax.mail/javamail&#45;&gt;javax.activation/jaf</title>
<path style="fill:none;stroke:black;" d="M3622,324C3636,306 3658,276 3673,255"/>
<polygon style="fill:black;stroke:black;" points="3670,253 3679,247 3676,257 3670,253"/>
<text text-anchor="middle" x="3615" y="291">[1.1.1,2.0[</text>
</g>
<g id="node81" class="node"><title>org.hibernate/hibernate&#45;entitymanager</title>
<ellipse cx="2309" cy="509" rx="82" ry="18" style="fill:cyan;stroke:black;"/>
<text text-anchor="middle" x="2309" y="514">hibernate&#45;entitymanager</text>
</g>
<g id="node83" class="node"><title>org.hibernate/hibernate</title>
<ellipse cx="3557" cy="947" rx="40" ry="18" style="fill:cyan;stroke:black;"/>
<text text-anchor="middle" x="3557" y="952">hibernate</text>
</g>
<g id="edge67" class="edge"><title>org.hibernate/hibernate&#45;entitymanager&#45;&gt;org.hibernate/hibernate</title>
<path style="fill:none;stroke:black;" d="M2353,524C2547,593 3327,866 3515,933"/>
<polygon style="fill:black;stroke:black;" points="3516,930 3525,936 3514,936 3516,930"/>
<text text-anchor="middle" x="2939" y="748">[3.2.0,4.0[</text>
</g>
<g id="node85" class="node"><title>org.hibernate/hibernate&#45;commons&#45;annotations</title>
<ellipse cx="1810" cy="748" rx="103" ry="18" style="fill:cyan;stroke:black;"/>
<text text-anchor="middle" x="1810" y="753">hibernate&#45;commons&#45;annotations</text>
</g>
<g id="edge69" class="edge"><title>org.hibernate/hibernate&#45;entitymanager&#45;&gt;org.hibernate/hibernate&#45;commons&#45;annotations</title>
<path style="fill:none;stroke:black;" d="M2275,525C2187,568 1953,680 1855,727"/>
<polygon style="fill:black;stroke:black;" points="1857,730 1846,731 1854,724 1857,730"/>
<text text-anchor="middle" x="2060" y="647">[3.0.0,4.0[</text>
</g>
<g id="node87" class="node"><title>org.hibernate/hibernate&#45;annotations</title>
<ellipse cx="1613" cy="945" rx="74" ry="18" style="fill:cyan;stroke:black;"/>
<text text-anchor="middle" x="1613" y="950">hibernate&#45;annotations</text>
</g>
<g id="edge71" class="edge"><title>org.hibernate/hibernate&#45;entitymanager&#45;&gt;org.hibernate/hibernate&#45;annotations</title>
<path style="fill:none;stroke:black;" d="M2286,526C2186,595 1784,848 1654,924"/>
<polygon style="fill:black;stroke:black;" points="1655,927 1645,929 1652,921 1655,927"/>
<text text-anchor="middle" x="1967" y="750">[3.3.1,4.0[</text>
</g>
<g id="node89" class="node"><title>org.hibernate/hibernate&#45;validator</title>
<ellipse cx="2046" cy="600" rx="66" ry="18" style="fill:cyan;stroke:black;"/>
<text text-anchor="middle" x="2046" y="605">hibernate&#45;validator</text>
</g>
<g id="edge73" class="edge"><title>org.hibernate/hibernate&#45;entitymanager&#45;&gt;org.hibernate/hibernate&#45;validator</title>
<path style="fill:none;stroke:black;" d="M2276,526C2234,543 2159,569 2107,585"/>
<polygon style="fill:black;stroke:black;" points="2108,588 2097,588 2106,582 2108,588"/>
<text text-anchor="middle" x="2186" y="576">[3.0.0,4.0[</text>
</g>
<g id="edge100" class="edge"><title>org.hibernate/hibernate&#45;&gt;org.codehaus.jaxen/jaxen</title>
<path style="fill:none;stroke:black;" d="M3521,955C3174,1031 426,1635 72,1713"/>
<polygon style="fill:black;stroke:black;" points="72,1716 62,1715 71,1710 72,1716"/>
<text text-anchor="middle" x="1791" y="1330">[1.1,1.2[</text>
</g>
<g id="edge94" class="edge"><title>org.hibernate/hibernate&#45;&gt;org.antlr/antlr</title>
<path style="fill:none;stroke:black;" d="M3521,955C3261,1014 1667,1376 1408,1435"/>
<polygon style="fill:black;stroke:black;" points="1408,1438 1398,1437 1407,1432 1408,1438"/>
<text text-anchor="middle" x="2458" y="1213">[2.7.6,2.8[</text>
</g>
<g id="edge81" class="edge"><title>org.hibernate/hibernate&#45;&gt;org.apache.commons/commons&#45;collections</title>
<path style="fill:none;stroke:black;" d="M3529,960C3299,1071 1698,1839 1415,1976"/>
<polygon style="fill:black;stroke:black;" points="1417,1979 1406,1980 1414,1973 1417,1979"/>
<text text-anchor="middle" x="2467" y="1489">[2.1.1,3.0[</text>
</g>
<g id="edge83" class="edge"><title>org.hibernate/hibernate&#45;&gt;org.apache.commons/commons&#45;logging</title>
<path style="fill:none;stroke:black;" d="M3555,965C3535,1136 3385,2456 3361,2666"/>
<polygon style="fill:black;stroke:black;" points="3364,2666 3360,2676 3358,2666 3364,2666"/>
<text text-anchor="middle" x="3426" y="1826">[1.0.4,1.2[</text>
</g>
<g id="edge87" class="edge"><title>org.hibernate/hibernate&#45;&gt;org.apache.xerces/xerces</title>
<path style="fill:none;stroke:black;" d="M3566,965C3602,1040 3740,1329 3784,1419"/>
<polygon style="fill:black;stroke:black;" points="3787,1417 3788,1428 3781,1420 3787,1417"/>
<text text-anchor="middle" x="3648" y="1203">[2.5,3.0[</text>
</g>
<g id="edge85" class="edge"><title>org.hibernate/hibernate&#45;&gt;org.dom4j/dom4j</title>
<path style="fill:none;stroke:black;" d="M3568,964C3593,1005 3658,1109 3688,1157"/>
<polygon style="fill:black;stroke:black;" points="3691,1156 3693,1166 3685,1159 3691,1156"/>
<text text-anchor="middle" x="3610" y="1070">1.6.1</text>
</g>
<g id="edge98" class="edge"><title>org.hibernate/hibernate&#45;&gt;org.jboss/javassist</title>
<path style="fill:none;stroke:black;" d="M3582,933C3722,856 4394,485 4552,398"/>
<polygon style="fill:black;stroke:black;" points="4551,395 4561,393 4554,401 4551,395"/>
<text text-anchor="middle" x="4071" y="682">[3.4,4.0[</text>
</g>
<g id="edge106" class="edge"><title>org.hibernate/hibernate&#45;&gt;com.opensymphony/oscache</title>
<path style="fill:none;stroke:black;" d="M3557,965C3557,1124 3555,2273 3555,2469"/>
<polygon style="fill:black;stroke:black;" points="3559,2469 3555,2479 3552,2469 3559,2469"/>
<text text-anchor="middle" x="3530" y="1727">[2.1,3.0[</text>
</g>
<g id="edge108" class="edge"><title>org.hibernate/hibernate&#45;&gt;org.jgroups/jgroups</title>
<path style="fill:none;stroke:black;" d="M3559,965C3576,1108 3681,2056 3700,2234"/>
<polygon style="fill:black;stroke:black;" points="3703,2234 3701,2244 3697,2234 3703,2234"/>
<text text-anchor="middle" x="3598" y="1611">[2.2.8,3.0[</text>
</g>
<g id="node93" class="node"><title>net.sourceforge.ehcache/ehcache</title>
<ellipse cx="3827" cy="1722" rx="36" ry="18" style="fill:cyan;stroke:black;"/>
<text text-anchor="middle" x="3827" y="1727">ehcache</text>
</g>
<g id="edge77" class="edge"><title>org.hibernate/hibernate&#45;&gt;net.sourceforge.ehcache/ehcache</title>
<path style="fill:none;stroke:black;" d="M3563,965C3599,1066 3774,1571 3818,1695"/>
<polygon style="fill:black;stroke:black;" points="3821,1693 3821,1704 3815,1696 3821,1693"/>
<text text-anchor="middle" x="3674" y="1340">1.2.3</text>
</g>
<g id="node95" class="node"><title>javax.transaction/jta</title>
<ellipse cx="4507" cy="268" rx="27" ry="18" style="fill:cyan;stroke:black;"/>
<text text-anchor="middle" x="4507" y="273">jta</text>
</g>
<g id="edge79" class="edge"><title>org.hibernate/hibernate&#45;&gt;javax.transaction/jta</title>
<path style="fill:none;stroke:black;" d="M3579,932C3704,841 4340,387 4480,287"/>
<polygon style="fill:black;stroke:black;" points="4478,284 4488,281 4482,290 4478,284"/>
<text text-anchor="middle" x="4032" y="598">1.1</text>
</g>
<g id="node102" class="node"><title>net.sourceforge.cglib/cglib</title>
<ellipse cx="2585" cy="478" rx="27" ry="18" style="fill:cyan;stroke:black;"/>
<text text-anchor="middle" x="2585" y="483">cglib</text>
</g>
<g id="edge90" class="edge"><title>org.hibernate/hibernate&#45;&gt;net.sourceforge.cglib/cglib</title>
<path style="fill:none;stroke:black;" d="M3529,934C3390,867 2764,565 2616,494"/>
<polygon style="fill:black;stroke:black;" points="2614,497 2607,489 2617,491 2614,497"/>
<text text-anchor="middle" x="3067" y="730">2.1.3+</text>
</g>
<g id="node104" class="node"><title>org.apache.log4j/log4j</title>
<ellipse cx="3360" cy="750" rx="27" ry="18" style="fill:cyan;stroke:black;"/>
<text text-anchor="middle" x="3360" y="755">log4j</text>
</g>
<g id="edge92" class="edge"><title>org.hibernate/hibernate&#45;&gt;org.apache.log4j/log4j</title>
<path style="fill:none;stroke:black;" d="M3541,931C3505,895 3422,812 3382,772"/>
<polygon style="fill:black;stroke:black;" points="3380,775 3375,765 3385,770 3380,775"/>
<text text-anchor="middle" x="3458" y="872">[1.2,1.3[</text>
</g>
<g id="node107" class="node"><title>net.sourceforge.c3p0/c3p0</title>
<ellipse cx="4429" cy="169" rx="27" ry="18" style="fill:cyan;stroke:black;"/>
<text text-anchor="middle" x="4429" y="174">c3p0</text>
</g>
<g id="edge96" class="edge"><title>org.hibernate/hibernate&#45;&gt;net.sourceforge.c3p0/c3p0</title>
<path style="fill:none;stroke:black;" d="M3575,931C3687,831 4278,303 4405,191"/>
<polygon style="fill:black;stroke:black;" points="4403,188 4413,184 4408,193 4403,188"/>
<text text-anchor="middle" x="3993" y="546">[0.9.1,2.0[</text>
</g>
<g id="node111" class="node"><title>net.sourceforge.proxool/proxool</title>
<ellipse cx="4340" cy="69" rx="35" ry="18" style="fill:cyan;stroke:black;"/>
<text text-anchor="middle" x="4340" y="74">proxool</text>
</g>
<g id="edge102" class="edge"><title>org.hibernate/hibernate&#45;&gt;net.sourceforge.proxool/proxool</title>
<path style="fill:none;stroke:black;" d="M3572,930C3668,822 4203,223 4318,94"/>
<polygon style="fill:black;stroke:black;" points="4316,91 4325,86 4321,96 4316,91"/>
<text text-anchor="middle" x="3985" y="514">[0.8.3,1.1[</text>
</g>
<g id="node113" class="node"><title>net.sourceforge.swarmcache/swarmcache</title>
<ellipse cx="3796" cy="1999" rx="47" ry="18" style="fill:cyan;stroke:black;"/>
<text text-anchor="middle" x="3796" y="2004">swarmcache</text>
</g>
<g id="edge104" class="edge"><title>org.hibernate/hibernate&#45;&gt;net.sourceforge.swarmcache/swarmcache</title>
<path style="fill:none;stroke:black;" d="M3561,965C3589,1090 3755,1819 3790,1971"/>
<polygon style="fill:black;stroke:black;" points="3793,1971 3792,1981 3787,1972 3793,1971"/>
<text text-anchor="middle" x="3636" y="1479">[1.0RC2,2.0[</text>
</g>
<g id="edge133" class="edge"><title>org.hibernate/hibernate&#45;annotations&#45;&gt;org.hibernate/hibernate&#45;entitymanager</title>
<path style="fill:none;stroke:black;" d="M1636,928C1737,860 2139,607 2268,531"/>
<polygon style="fill:black;stroke:black;" points="2267,528 2277,526 2270,534 2267,528"/>
<text text-anchor="middle" x="1955" y="715">[3.3.2,4.0[</text>
</g>
<g id="edge129" class="edge"><title>org.hibernate/hibernate&#45;annotations&#45;&gt;org.hibernate/hibernate</title>
<path style="fill:none;stroke:black;" d="M1687,945C2005,945 3242,947 3507,947"/>
<polygon style="fill:black;stroke:black;" points="3507,943 3517,947 3507,950 3507,943"/>
<text text-anchor="middle" x="2617" y="961">[3.2.0,4.0[</text>
</g>
<g id="edge131" class="edge"><title>org.hibernate/hibernate&#45;annotations&#45;&gt;org.hibernate/hibernate&#45;commons&#45;annotations</title>
<path style="fill:none;stroke:black;" d="M1631,927C1666,892 1744,814 1785,773"/>
<polygon style="fill:black;stroke:black;" points="1782,771 1792,766 1787,776 1782,771"/>
<text text-anchor="middle" x="1711" y="870">[3.0.0,4.0[</text>
</g>
<g id="edge135" class="edge"><title>org.hibernate/hibernate&#45;annotations&#45;&gt;org.hibernate/hibernate&#45;validator</title>
<path style="fill:none;stroke:black;" d="M1635,928C1707,871 1935,689 2016,623"/>
<polygon style="fill:black;stroke:black;" points="2014,620 2024,617 2018,626 2014,620"/>
<text text-anchor="middle" x="1829" y="795">[3.0.0,4.0[</text>
</g>
<g id="edge115" class="edge"><title>org.hibernate/hibernate&#45;validator&#45;&gt;org.hibernate/hibernate&#45;entitymanager</title>
<path style="fill:none;stroke:black;" d="M2078,584C2119,567 2192,542 2244,526"/>
<polygon style="fill:black;stroke:black;" points="2243,523 2254,523 2245,529 2243,523"/>
<text text-anchor="middle" x="2165" y="545">[3.3.2,4.0[</text>
</g>
<g id="edge111" class="edge"><title>org.hibernate/hibernate&#45;validator&#45;&gt;org.hibernate/hibernate</title>
<path style="fill:none;stroke:black;" d="M2097,612C2329,665 3289,886 3511,937"/>
<polygon style="fill:black;stroke:black;" points="3512,934 3521,939 3511,940 3512,934"/>
<text text-anchor="middle" x="2809" y="792">[3.2.0,4.0[</text>
</g>
<g id="edge113" class="edge"><title>org.hibernate/hibernate&#45;validator&#45;&gt;org.hibernate/hibernate&#45;commons&#45;annotations</title>
<path style="fill:none;stroke:black;" d="M2019,617C1977,643 1894,695 1847,725"/>
<polygon style="fill:black;stroke:black;" points="1848,728 1838,731 1844,723 1848,728"/>
<text text-anchor="middle" x="1928" y="665">[3.0.0,4.0[</text>
</g>
<g id="edge263" class="edge"><title>net.sourceforge.ehcache/ehcache&#45;&gt;org.apache.commons/commons&#45;collections</title>
<path style="fill:none;stroke:black;" d="M3792,1726C3526,1756 1832,1945 1449,1988"/>
<polygon style="fill:black;stroke:black;" points="1449,1991 1439,1989 1449,1985 1449,1991"/>
<text text-anchor="middle" x="2614" y="1873">2.1.1</text>
</g>
<g id="edge261" class="edge"><title>net.sourceforge.ehcache/ehcache&#45;&gt;org.apache.commons/commons&#45;logging</title>
<path style="fill:none;stroke:black;" d="M3818,1740C3762,1856 3441,2523 3372,2667"/>
<polygon style="fill:black;stroke:black;" points="3375,2669 3367,2676 3369,2666 3375,2669"/>
<text text-anchor="middle" x="3575" y="2214">1.1+</text>
</g>
<g id="edge265" class="edge"><title>net.sourceforge.ehcache/ehcache&#45;&gt;org.apache.xerces/xerces</title>
<path style="fill:none;stroke:black;" d="M3825,1704C3819,1657 3806,1531 3799,1474"/>
<polygon style="fill:black;stroke:black;" points="3796,1474 3798,1464 3802,1474 3796,1474"/>
<text text-anchor="middle" x="3794" y="1590">2.5.0</text>
</g>
<g id="edge268" class="edge"><title>net.sourceforge.ehcache/ehcache&#45;&gt;net.sourceforge.jsr107cache/jsr107cache</title>
<path style="fill:none;stroke:black;" d="M3863,1722C3871,1722 3880,1722 3889,1722"/>
<polygon style="fill:black;stroke:black;" points="3889,1718 3899,1722 3889,1725 3889,1718"/>
<text text-anchor="middle" x="3880" y="1736">1.0+</text>
</g>
<g id="node171" class="node"><title>org.objectweb.asm/asm</title>
<ellipse cx="2862" cy="509" rx="27" ry="18" style="fill:darkorange;stroke:black;"/>
<text text-anchor="middle" x="2862" y="514">asm</text>
</g>
<g id="edge245" class="edge"><title>net.sourceforge.cglib/cglib&#45;&gt;org.objectweb.asm/asm</title>
<path style="fill:none;stroke:black;" d="M2612,481C2662,487 2769,499 2825,505"/>
<polygon style="fill:black;stroke:black;" points="2825,502 2835,506 2825,508 2825,502"/>
<text text-anchor="middle" x="2722" y="509">1.5.3</text>
</g>
<g id="edge233" class="edge"><title>org.apache.log4j/log4j&#45;&gt;javax.management/jmx</title>
<path style="fill:none;stroke:black;" d="M3378,736C3447,685 3693,499 3774,438"/>
<polygon style="fill:black;stroke:black;" points="3772,435 3782,432 3776,441 3772,435"/>
<text text-anchor="middle" x="3579" y="605">[1.2.1,2.0[</text>
</g>
<g id="edge229" class="edge"><title>org.apache.log4j/log4j&#45;&gt;javax.mail/javamail</title>
<path style="fill:none;stroke:black;" d="M3370,733C3408,670 3546,445 3593,368"/>
<polygon style="fill:black;stroke:black;" points="3590,366 3598,359 3596,369 3590,366"/>
<text text-anchor="middle" x="3453" y="552">[1.4,2.0[</text>
</g>
<g id="node151" class="node"><title>javax.jms/jms</title>
<ellipse cx="3122" cy="2842" rx="27" ry="18" style="fill:darkorange;stroke:black;"/>
<text text-anchor="middle" x="3122" y="2847">jms</text>
</g>
<g id="edge231" class="edge"><title>org.apache.log4j/log4j&#45;&gt;javax.jms/jms</title>
<path style="fill:none;stroke:black;" d="M3358,768C3336,958 3152,2578 3125,2814"/>
<polygon style="fill:black;stroke:black;" points="3128,2814 3124,2824 3122,2814 3128,2814"/>
<text text-anchor="middle" x="3215" y="1801">[1.1,2.0[</text>
</g>
<g id="edge237" class="edge"><title>net.sourceforge.swarmcache/swarmcache&#45;&gt;org.apache.commons/commons&#45;collections</title>
<path style="fill:none;stroke:black;" d="M3749,1999C3452,1999 1841,1997 1455,1996"/>
<polygon style="fill:black;stroke:black;" points="1455,1999 1445,1996 1455,1992 1455,1999"/>
<text text-anchor="middle" x="2596" y="2012">[2.1,3.0[</text>
</g>
<g id="edge239" class="edge"><title>net.sourceforge.swarmcache/swarmcache&#45;&gt;org.apache.commons/commons&#45;logging</title>
<path style="fill:none;stroke:black;" d="M3785,2017C3726,2110 3446,2554 3375,2667"/>
<polygon style="fill:black;stroke:black;" points="3377,2670 3369,2676 3372,2666 3377,2670"/>
<text text-anchor="middle" x="3546" y="2352">[1.1,2.0[</text>
</g>
<g id="edge241" class="edge"><title>net.sourceforge.swarmcache/swarmcache&#45;&gt;org.jgroups/jgroups</title>
<path style="fill:none;stroke:black;" d="M3790,2017C3774,2062 3732,2180 3712,2234"/>
<polygon style="fill:black;stroke:black;" points="3715,2235 3709,2244 3709,2233 3715,2235"/>
<text text-anchor="middle" x="3721" y="2136">[2.2,3.0[</text>
</g>
<g id="node121" class="node"><title>org.hibernate/hibernate&#45;tools</title>
<ellipse cx="1465" cy="1180" rx="55" ry="18" style="fill:cyan;stroke:black;"/>
<text text-anchor="middle" x="1465" y="1185">hibernate&#45;tools</text>
</g>
<g id="edge124" class="edge"><title>org.hibernate/hibernate&#45;tools&#45;&gt;net.sourceforge.freemarker/freemarker</title>
<path style="fill:none;stroke:black;" d="M1454,1162C1443,1143 1424,1113 1410,1092"/>
<polygon style="fill:black;stroke:black;" points="1407,1093 1405,1083 1413,1090 1407,1093"/>
<text text-anchor="middle" x="1393" y="1128">[2.3.8,2.4[</text>
</g>
<g id="edge122" class="edge"><title>org.hibernate/hibernate&#45;tools&#45;&gt;org.hibernate/hibernate&#45;entitymanager</title>
<path style="fill:none;stroke:black;" d="M1486,1163C1601,1072 2145,639 2279,532"/>
<polygon style="fill:black;stroke:black;" points="2277,529 2287,526 2281,535 2277,529"/>
<text text-anchor="middle" x="1886" y="866">[3.3.2,3.4[</text>
</g>
<g id="edge118" class="edge"><title>org.hibernate/hibernate&#45;tools&#45;&gt;org.hibernate/hibernate</title>
<path style="fill:none;stroke:black;" d="M1517,1174C1808,1141 3226,984 3508,952"/>
<polygon style="fill:black;stroke:black;" points="3508,949 3518,951 3508,955 3508,949"/>
<text text-anchor="middle" x="2517" y="1078">[3.2.6,3.3[</text>
</g>
<g id="edge120" class="edge"><title>org.hibernate/hibernate&#45;tools&#45;&gt;org.hibernate/hibernate&#45;annotations</title>
<path style="fill:none;stroke:black;" d="M1476,1162C1502,1122 1566,1020 1596,972"/>
<polygon style="fill:black;stroke:black;" points="1594,969 1602,963 1599,973 1594,969"/>
<text text-anchor="middle" x="1503" y="1069">[3.3.1,3.4[</text>
</g>
<g id="node127" class="node"><title>net.sourceforge.jtidy/jtidy</title>
<ellipse cx="1332" cy="1194" rx="27" ry="18" style="fill:cyan;stroke:black;"/>
<text text-anchor="middle" x="1332" y="1199">jtidy</text>
</g>
<g id="edge126" class="edge"><title>org.hibernate/hibernate&#45;tools&#45;&gt;net.sourceforge.jtidy/jtidy</title>
<path style="fill:none;stroke:black;" d="M1412,1186C1398,1187 1382,1188 1369,1190"/>
<polygon style="fill:black;stroke:black;" points="1369,1193 1359,1191 1369,1187 1369,1193"/>
<text text-anchor="middle" x="1384" y="1203">[8.0,9.0[</text>
</g>
<g id="node135" class="node"><title>org.springframework/spring&#45;security</title>
<ellipse cx="2306" cy="2933" rx="55" ry="18" style="fill:darkorange;stroke:black;"/>
<text text-anchor="middle" x="2306" y="2938">spring&#45;security</text>
</g>
<g id="edge151" class="edge"><title>org.springframework/spring&#45;security&#45;&gt;org.codehaus.jaxen/jaxen</title>
<path style="fill:none;stroke:black;" d="M2277,2917C2032,2787 319,1873 66,1738"/>
<polygon style="fill:black;stroke:black;" points="64,1741 57,1733 67,1735 64,1741"/>
<text text-anchor="middle" x="1166" y="2344">[1.1.1,2.0[</text>
</g>
<g id="edge145" class="edge"><title>org.springframework/spring&#45;security&#45;&gt;org.apache.commons/commons&#45;collections</title>
<path style="fill:none;stroke:black;" d="M2289,2916C2174,2800 1531,2156 1397,2021"/>
<polygon style="fill:black;stroke:black;" points="1395,2024 1390,2014 1400,2019 1395,2024"/>
<text text-anchor="middle" x="1806" y="2470">[3.2,4.0[</text>
</g>
<g id="edge143" class="edge"><title>org.springframework/spring&#45;security&#45;&gt;org.apache.commons/commons&#45;logging</title>
<path style="fill:none;stroke:black;" d="M2351,2923C2520,2885 3109,2751 3298,2707"/>
<polygon style="fill:black;stroke:black;" points="3298,2704 3308,2705 3299,2710 3298,2704"/>
<text text-anchor="middle" x="2829" y="2831">[1.1.1,2.0[</text>
</g>
<g id="edge153" class="edge"><title>org.springframework/spring&#45;security&#45;&gt;org.mortbay/jetty</title>
<path style="fill:none;stroke:black;" d="M2290,2950C2266,2975 2224,3019 2199,3046"/>
<polygon style="fill:black;stroke:black;" points="2201,3049 2192,3054 2196,3044 2201,3049"/>
<text text-anchor="middle" x="2207" y="3007">[4.2.22,)</text>
</g>
<g id="edge139" class="edge"><title>org.springframework/spring&#45;security&#45;&gt;org.aopalliance/aopalliance</title>
<path style="fill:none;stroke:black;" d="M2358,2939C2407,2945 2479,2953 2529,2958"/>
<polygon style="fill:black;stroke:black;" points="2529,2955 2539,2959 2529,2961 2529,2955"/>
<text text-anchor="middle" x="2448" y="2964">1.+</text>
</g>
<g id="node138" class="node"><title>org.springframework/spring</title>
<ellipse cx="2859" cy="2933" rx="31" ry="18" style="fill:darkorange;stroke:black;"/>
<text text-anchor="middle" x="2859" y="2938">spring</text>
</g>
<g id="edge141" class="edge"><title>org.springframework/spring&#45;security&#45;&gt;org.springframework/spring</title>
<path style="fill:none;stroke:black;" d="M2361,2933C2472,2933 2720,2933 2818,2933"/>
<polygon style="fill:black;stroke:black;" points="2818,2929 2828,2933 2818,2936 2818,2929"/>
<text text-anchor="middle" x="2594" y="2947">[2.5.3,3.0[</text>
</g>
<g id="node142" class="node"><title>org.apache.commons/commons&#45;codec</title>
<ellipse cx="2331" cy="3106" rx="59" ry="18" style="fill:darkorange;stroke:black;"/>
<text text-anchor="middle" x="2331" y="3111">commons&#45;codec</text>
</g>
<g id="edge147" class="edge"><title>org.springframework/spring&#45;security&#45;&gt;org.apache.commons/commons&#45;codec</title>
<path style="fill:none;stroke:black;" d="M2309,2951C2313,2982 2322,3042 2327,3078"/>
<polygon style="fill:black;stroke:black;" points="2330,3078 2328,3088 2324,3078 2330,3078"/>
<text text-anchor="middle" x="2291" y="3026">[1.3,2.0[</text>
</g>
<g id="node144" class="node"><title>org.apache.commons/commons&#45;lang</title>
<ellipse cx="2043" cy="2840" rx="54" ry="18" style="fill:darkorange;stroke:black;"/>
<text text-anchor="middle" x="2043" y="2845">commons&#45;lang</text>
</g>
<g id="edge149" class="edge"><title>org.springframework/spring&#45;security&#45;&gt;org.apache.commons/commons&#45;lang</title>
<path style="fill:none;stroke:black;" d="M2269,2920C2222,2903 2141,2875 2089,2856"/>
<polygon style="fill:black;stroke:black;" points="2088,2859 2080,2853 2091,2853 2088,2859"/>
<text text-anchor="middle" x="2173" y="2904">[2.4,3.0[</text>
</g>
<g id="edge158" class="edge"><title>org.springframework/spring&#45;&gt;org.apache.commons/commons&#45;logging</title>
<path style="fill:none;stroke:black;" d="M2883,2921C2962,2883 3215,2762 3316,2714"/>
<polygon style="fill:black;stroke:black;" points="3314,2711 3325,2710 3317,2717 3314,2711"/>
<text text-anchor="middle" x="3103" y="2834">1.+</text>
</g>
<g id="edge156" class="edge"><title>org.springframework/spring&#45;&gt;org.aopalliance/aopalliance</title>
<path style="fill:none;stroke:black;" d="M2828,2936C2782,2942 2694,2952 2636,2958"/>
<polygon style="fill:black;stroke:black;" points="2636,2961 2626,2959 2636,2955 2636,2961"/>
<text text-anchor="middle" x="2726" y="2964">1.+</text>
</g>
<g id="edge160" class="edge"><title>org.springframework/spring&#45;&gt;javax.jms/jms</title>
<path style="fill:none;stroke:black;" d="M2886,2924C2934,2907 3036,2872 3088,2853"/>
<polygon style="fill:black;stroke:black;" points="3087,2850 3098,2850 3089,2856 3087,2850"/>
<text text-anchor="middle" x="2991" y="2905">1.+</text>
</g>
<g id="node159" class="node"><title>com.google/gwt</title>
<ellipse cx="2674" cy="1299" rx="27" ry="18" style="fill:#97f6ff;stroke:black;"/>
<text text-anchor="middle" x="2674" y="1304">gwt</text>
</g>
<g id="node180" class="node"><title>org.apache.commons/commons&#45;dbcp</title>
<ellipse cx="2425" cy="1716" rx="56" ry="18" style="fill:#bd3eff;stroke:black;"/>
<text text-anchor="middle" x="2425" y="1721">commons&#45;dbcp</text>
</g>
<g id="node182" class="node"><title>org.apache.commons/commons&#45;pool</title>
<ellipse cx="2608" cy="1716" rx="55" ry="18" style="fill:#bd3eff;stroke:black;"/>
<text text-anchor="middle" x="2608" y="1721">commons&#45;pool</text>
</g>
<g id="edge191" class="edge"><title>org.apache.commons/commons&#45;dbcp&#45;&gt;org.apache.commons/commons&#45;pool</title>
<path style="fill:none;stroke:black;" d="M2481,1716C2501,1716 2523,1716 2543,1716"/>
<polygon style="fill:black;stroke:black;" points="2543,1712 2553,1716 2543,1719 2543,1712"/>
<text text-anchor="middle" x="2516" y="1730">1.3+</text>
</g>
<g id="node190" class="node"><title>org.apache.commons/commons&#45;email</title>
<ellipse cx="2566" cy="1299" rx="58" ry="18" style="fill:#bd3eff;stroke:black;"/>
<text text-anchor="middle" x="2566" y="1304">commons&#45;email</text>
</g>
<g id="node192" class="node"><title>org.apache.commons/commons&#45;digester</title>
<ellipse cx="1463" cy="2259" rx="64" ry="18" style="fill:#bd3eff;stroke:black;"/>
<text text-anchor="middle" x="1463" y="2264">commons&#45;digester</text>
</g>
<g id="edge205" class="edge"><title>org.apache.commons/commons&#45;digester&#45;&gt;org.apache.commons/commons&#45;collections</title>
<path style="fill:none;stroke:black;" d="M1457,2241C1441,2196 1400,2078 1381,2024"/>
<polygon style="fill:black;stroke:black;" points="1378,2025 1378,2014 1384,2023 1378,2025"/>
<text text-anchor="middle" x="1389" y="2134">[2.0,4.0[</text>
</g>
<g id="edge201" class="edge"><title>org.apache.commons/commons&#45;digester&#45;&gt;org.apache.commons/commons&#45;logging</title>
<path style="fill:none;stroke:black;" d="M1513,2270C1777,2331 3013,2614 3298,2681"/>
<polygon style="fill:black;stroke:black;" points="3299,2678 3308,2683 3298,2684 3299,2678"/>
<text text-anchor="middle" x="2409" y="2493">1.1+</text>
</g>
<g id="edge203" class="edge"><title>org.apache.commons/commons&#45;digester&#45;&gt;org.apache.commons/commons&#45;beanutils</title>
<path style="fill:none;stroke:black;" d="M1474,2277C1500,2318 1564,2420 1594,2468"/>
<polygon style="fill:black;stroke:black;" points="1597,2467 1600,2477 1592,2471 1597,2467"/>
<text text-anchor="middle" x="1506" y="2382">[1.7,2.0]</text>
</g>
<g id="node210" class="node"><title>net.sourceforge.cobertura/cobertura</title>
<ellipse cx="3124" cy="602" rx="39" ry="18" style="fill:#97f6ff;stroke:black;"/>
<text text-anchor="middle" x="3124" y="607">cobertura</text>
</g>
<g id="edge223" class="edge"><title>net.sourceforge.cobertura/cobertura&#45;&gt;org.apache.oro/oro</title>
<path style="fill:none;stroke:black;" d="M3133,584C3140,571 3148,553 3155,538"/>
<polygon style="fill:black;stroke:black;" points="3152,536 3160,529 3158,539 3152,536"/>
<text text-anchor="middle" x="3181" y="563">[2.0.8,3.0[</text>
</g>
<g id="edge221" class="edge"><title>net.sourceforge.cobertura/cobertura&#45;&gt;org.apache.log4j/log4j</title>
<path style="fill:none;stroke:black;" d="M3147,617C3191,644 3285,702 3332,733"/>
<polygon style="fill:black;stroke:black;" points="3333,730 3340,738 3330,736 3333,730"/>
<text text-anchor="middle" x="3243" y="668">[1.2.9,2.0[</text>
</g>
<g id="edge225" class="edge"><title>net.sourceforge.cobertura/cobertura&#45;&gt;org.objectweb.asm/asm</title>
<path style="fill:none;stroke:black;" d="M3093,591C3043,573 2947,539 2896,521"/>
<polygon style="fill:black;stroke:black;" points="2895,524 2886,518 2897,518 2895,524"/>
<text text-anchor="middle" x="2989" y="572">2.2+</text>
</g>
<g id="node229" class="node"><title>net.sourceforge.dozer/dozer</title>
<ellipse cx="1808" cy="2692" rx="29" ry="18" style="fill:cyan;stroke:black;"/>
<text text-anchor="middle" x="1808" y="2697">dozer</text>
</g>
<g id="edge251" class="edge"><title>net.sourceforge.dozer/dozer&#45;&gt;org.apache.commons/commons&#45;collections</title>
<path style="fill:none;stroke:black;" d="M1797,2675C1740,2583 1459,2136 1388,2023"/>
<polygon style="fill:black;stroke:black;" points="1385,2024 1383,2014 1391,2021 1385,2024"/>
<text text-anchor="middle" x="1560" y="2350">[3.1,4.0[</text>
</g>
<g id="edge255" class="edge"><title>net.sourceforge.dozer/dozer&#45;&gt;org.apache.commons/commons&#45;logging</title>
<path style="fill:none;stroke:black;" d="M1837,2692C2020,2692 3005,2694 3284,2694"/>
<polygon style="fill:black;stroke:black;" points="3284,2690 3294,2694 3284,2697 3284,2690"/>
<text text-anchor="middle" x="2564" y="2708">[1.0.3,2.0[</text>
</g>
<g id="edge249" class="edge"><title>net.sourceforge.dozer/dozer&#45;&gt;org.apache.commons/commons&#45;beanutils</title>
<path style="fill:none;stroke:black;" d="M1793,2677C1758,2642 1677,2561 1636,2520"/>
<polygon style="fill:black;stroke:black;" points="1634,2523 1629,2513 1639,2518 1634,2523"/>
<text text-anchor="middle" x="1711" y="2619">[1.7,2.0[</text>
</g>
<g id="edge253" class="edge"><title>net.sourceforge.dozer/dozer&#45;&gt;org.apache.commons/commons&#45;lang</title>
<path style="fill:none;stroke:black;" d="M1828,2705C1870,2730 1960,2787 2010,2819"/>
<polygon style="fill:black;stroke:black;" points="2011,2816 2018,2824 2008,2822 2011,2816"/>
<text text-anchor="middle" x="1923" y="2784">[2.1,3.0[</text>
</g>
</g>
</svg>
