<?xml version="1.0" encoding="UTF-8" standalone="no"?>
<!DOCTYPE svg PUBLIC "-//W3C//DTD SVG 1.0//EN"
 "http://www.w3.org/TR/2001/REC-SVG-20010904/DTD/svg10.dtd">
<!-- Generated by circo version 2.2 (Tue Sep 13 00:37:56 UTC 2005)
     For user: (archie) Archie Cobbs   Title: modules    Pages: 1 -->
<svg width="624pt" height="360pt"
 viewBox = "-1 -1 623 359"
 xmlns="http://www.w3.org/2000/svg">
<g id="graph0" class="graph" transform = "scale(0.436519)"
 style="font-family:Times-Roman;font-size:14.00;">
<title>modules</title>
<g id="node3" class="node"><title>org.testng/testng</title>
<ellipse cx="660" cy="411" rx="30" ry="18" style="fill:#bd3eff;stroke:black;"/>
<text text-anchor="middle" x="660" y="416">testng</text>
</g>
<g id="node6" class="node"><title>com.puppycrawl/checkstyle</title>
<ellipse cx="181" cy="699" rx="42" ry="18" style="fill:#97f6ff;stroke:black;"/>
<text text-anchor="middle" x="181" y="704">checkstyle</text>
</g>
<g id="node8" class="node"><title>org.antlr/antlr</title>
<ellipse cx="33" cy="660" rx="27" ry="18" style="fill:#97f6ff;stroke:black;"/>
<text text-anchor="middle" x="33" y="665">antlr</text>
</g>
<g id="edge6" class="edge"><title>com.puppycrawl/checkstyle&#45;&gt;org.antlr/antlr</title>
<path style="fill:none;stroke:black;" d="M145,690C121,684 91,676 68,670"/>
<polygon style="fill:black;stroke:black;" points="67,673 58,667 69,667 67,673"/>
<text text-anchor="middle" x="101" y="695">2.7+</text>
</g>
<g id="node10" class="node"><title>org.apache.commons/commons&#45;cli</title>
<ellipse cx="99" cy="791" rx="49" ry="18" style="fill:#97f6ff;stroke:black;"/>
<text text-anchor="middle" x="99" y="796">commons&#45;cli</text>
</g>
<g id="edge8" class="edge"><title>com.puppycrawl/checkstyle&#45;&gt;org.apache.commons/commons&#45;cli</title>
<path style="fill:none;stroke:black;" d="M166,716C153,730 135,750 121,766"/>
<polygon style="fill:black;stroke:black;" points="123,769 114,774 118,764 123,769"/>
<text text-anchor="middle" x="107" y="750">[1.1,2.0[</text>
</g>
<g id="node12" class="node"><title>org.apache.commons/commons&#45;collections</title>
<ellipse cx="375" cy="762" rx="73" ry="18" style="fill:#97f6ff;stroke:black;"/>
<text text-anchor="middle" x="375" y="767">commons&#45;collections</text>
</g>
<g id="edge10" class="edge"><title>com.puppycrawl/checkstyle&#45;&gt;org.apache.commons/commons&#45;collections</title>
<path style="fill:none;stroke:black;" d="M215,710C244,719 287,733 321,745"/>
<polygon style="fill:black;stroke:black;" points="322,742 331,748 320,748 322,742"/>
<text text-anchor="middle" x="273" y="745">2.1+</text>
</g>
<g id="node14" class="node"><title>org.apache.commons/commons&#45;logging</title>
<ellipse cx="375" cy="432" rx="64" ry="18" style="fill:#97f6ff;stroke:black;"/>
<text text-anchor="middle" x="375" y="437">commons&#45;logging</text>
</g>
<g id="edge12" class="edge"><title>com.puppycrawl/checkstyle&#45;&gt;org.apache.commons/commons&#45;logging</title>
<path style="fill:none;stroke:black;" d="M194,681C227,636 317,513 356,458"/>
<polygon style="fill:black;stroke:black;" points="353,456 362,450 359,460 353,456"/>
<text text-anchor="middle" x="292" y="572">1+</text>
</g>
<g id="node16" class="node"><title>org.apache.commons/commons&#45;beanutils</title>
<ellipse cx="181" cy="495" rx="68" ry="18" style="fill:#97f6ff;stroke:black;"/>
<text text-anchor="middle" x="181" y="500">commons&#45;beanutils</text>
</g>
<g id="edge14" class="edge"><title>com.puppycrawl/checkstyle&#45;&gt;org.apache.commons/commons&#45;beanutils</title>
<path style="fill:none;stroke:black;" d="M181,681C181,645 181,566 181,523"/>
<polygon style="fill:black;stroke:black;" points="178,523 181,513 185,523 178,523"/>
<text text-anchor="middle" x="195" y="602">1.7+</text>
</g>
<g id="edge58" class="edge"><title>org.apache.commons/commons&#45;beanutils&#45;&gt;org.apache.commons/commons&#45;collections</title>
<path style="fill:none;stroke:black;" d="M194,513C228,559 317,682 356,736"/>
<polygon style="fill:black;stroke:black;" points="359,734 362,744 353,738 359,734"/>
<text text-anchor="middle" x="247" y="634">[2.0,3.0[</text>
</g>
<g id="edge56" class="edge"><title>org.apache.commons/commons&#45;beanutils&#45;&gt;org.apache.commons/commons&#45;logging</title>
<path style="fill:none;stroke:black;" d="M224,481C253,471 292,459 323,449"/>
<polygon style="fill:black;stroke:black;" points="322,446 333,446 324,452 322,446"/>
<text text-anchor="middle" x="277" y="480">[1.0,2.0[</text>
</g>
<g id="node19" class="node"><title>org.apache.oro/oro</title>
<ellipse cx="753" cy="195" rx="27" ry="18" style="fill:gold;stroke:black;"/>
<text text-anchor="middle" x="753" y="200">oro</text>
</g>
<g id="node22" class="node"><title>org.apache.xml/xalan&#45;j</title>
<ellipse cx="1120" cy="795" rx="33" ry="18" style="fill:#cda87d;stroke:black;"/>
<text text-anchor="middle" x="1120" y="800">xalan&#45;j</text>
</g>
<g id="node24" class="node"><title>org.apache.xerces/xerces</title>
<ellipse cx="962" cy="680" rx="31" ry="18" style="fill:#cda87d;stroke:black;"/>
<text text-anchor="middle" x="962" y="685">xerces</text>
</g>
<g id="edge20" class="edge"><title>org.apache.xml/xalan&#45;j&#45;&gt;org.apache.xerces/xerces</title>
<path style="fill:none;stroke:black;" d="M1100,780C1072,760 1022,723 990,700"/>
<polygon style="fill:black;stroke:black;" points="988,703 982,694 992,697 988,703"/>
<text text-anchor="middle" x="1040" y="758">2.7+</text>
</g>
<g id="node29" class="node"><title>net.sourceforge.jsr107cache/jsr107cache</title>
<ellipse cx="889" cy="287" rx="47" ry="18" style="fill:cyan;stroke:black;"/>
<text text-anchor="middle" x="889" y="292">jsr107cache</text>
</g>
<g id="node32" class="node"><title>org.mortbay/jetty</title>
<ellipse cx="609" cy="459" rx="27" ry="18" style="fill:darkorange;stroke:black;"/>
<text text-anchor="middle" x="609" y="464">jetty</text>
</g>
<g id="node35" class="node"><title>org.mozilla/rhino</title>
<ellipse cx="1203" cy="585" rx="28" ry="18" style="fill:#bd3eff;stroke:black;"/>
<text text-anchor="middle" x="1203" y="590">rhino</text>
</g>
<g id="node38" class="node"><title>org.apache.xmlgraphics/batik</title>
<ellipse cx="1084" cy="632" rx="27" ry="18" style="fill:#97f6ff;stroke:black;"/>
<text text-anchor="middle" x="1084" y="637">batik</text>
</g>
<g id="edge34" class="edge"><title>org.apache.xmlgraphics/batik&#45;&gt;org.apache.xerces/xerces</title>
<path style="fill:none;stroke:black;" d="M1060,641C1042,648 1017,658 997,666"/>
<polygon style="fill:black;stroke:black;" points="999,669 988,670 996,663 999,669"/>
<text text-anchor="middle" x="1024" y="673">2.5+</text>
</g>
<g id="edge32" class="edge"><title>org.apache.xmlgraphics/batik&#45;&gt;org.mozilla/rhino</title>
<path style="fill:none;stroke:black;" d="M1108,623C1125,616 1150,606 1170,598"/>
<polygon style="fill:black;stroke:black;" points="1168,595 1179,594 1171,601 1168,595"/>
<text text-anchor="middle" x="1142" y="602">1.+</text>
</g>
<g id="node43" class="node"><title>org.aopalliance/aopalliance</title>
<ellipse cx="563" cy="77" rx="45" ry="18" style="fill:gold;stroke:black;"/>
<text text-anchor="middle" x="563" y="82">aopalliance</text>
</g>
<g id="node46" class="node"><title>org.springframework/spring</title>
<ellipse cx="456" cy="180" rx="31" ry="18" style="fill:#cda87d;stroke:black;"/>
<text text-anchor="middle" x="456" y="185">spring</text>
</g>
<g id="edge42" class="edge"><title>org.springframework/spring&#45;&gt;org.apache.commons/commons&#45;logging</title>
<path style="fill:none;stroke:black;" d="M450,198C437,241 401,352 384,404"/>
<polygon style="fill:black;stroke:black;" points="387,405 381,414 381,403 387,405"/>
<text text-anchor="middle" x="402" y="311">1.+</text>
</g>
<g id="edge40" class="edge"><title>org.springframework/spring&#45;&gt;org.aopalliance/aopalliance</title>
<path style="fill:none;stroke:black;" d="M472,164C490,148 518,121 538,101"/>
<polygon style="fill:black;stroke:black;" points="535,99 545,94 540,104 535,99"/>
<text text-anchor="middle" x="508" y="152">1.+</text>
</g>
<g id="node50" class="node"><title>javax.jms/jms</title>
<ellipse cx="431" cy="34" rx="27" ry="18" style="fill:#cda87d;stroke:black;"/>
<text text-anchor="middle" x="431" y="39">jms</text>
</g>
<g id="edge44" class="edge"><title>org.springframework/spring&#45;&gt;javax.jms/jms</title>
<path style="fill:none;stroke:black;" d="M453,162C449,137 441,92 436,62"/>
<polygon style="fill:black;stroke:black;" points="433,62 434,52 439,61 433,62"/>
<text text-anchor="middle" x="431" y="113">1.+</text>
</g>
<g id="node55" class="node"><title>javax.transaction/jta</title>
<ellipse cx="705" cy="507" rx="27" ry="18" style="fill:cyan;stroke:black;"/>
<text text-anchor="middle" x="705" y="512">jta</text>
</g>
<g id="node58" class="node"><title>org.objectweb.asm/asm</title>
<ellipse cx="1266" cy="258" rx="27" ry="18" style="fill:darkorange;stroke:black;"/>
<text text-anchor="middle" x="1266" y="263">asm</text>
</g>
<g id="node67" class="node"><title>org.apache.commons/commons&#45;email</title>
<ellipse cx="688" cy="363" rx="58" ry="18" style="fill:#bd3eff;stroke:black;"/>
<text text-anchor="middle" x="688" y="368">commons&#45;email</text>
</g>
<g id="node70" class="node"><title>net.sourceforge.cobertura/cobertura</title>
<ellipse cx="1143" cy="195" rx="39" ry="18" style="fill:#97f6ff;stroke:black;"/>
<text text-anchor="middle" x="1143" y="200">cobertura</text>
</g>
<g id="edge66" class="edge"><title>net.sourceforge.cobertura/cobertura&#45;&gt;org.apache.oro/oro</title>
<path style="fill:none;stroke:black;" d="M1104,195C1029,195 864,195 790,195"/>
<polygon style="fill:black;stroke:black;" points="790,198 780,195 790,191 790,198"/>
<text text-anchor="middle" x="942" y="191">[2.0.8,3.0[</text>
</g>
<g id="edge68" class="edge"><title>net.sourceforge.cobertura/cobertura&#45;&gt;org.objectweb.asm/asm</title>
<path style="fill:none;stroke:black;" d="M1169,209C1189,218 1215,232 1235,242"/>
<polygon style="fill:black;stroke:black;" points="1237,239 1244,247 1234,245 1237,239"/>
<text text-anchor="middle" x="1206" y="246">2.2+</text>
</g>
<g id="node72" class="node"><title>org.apache.log4j/log4j</title>
<ellipse cx="1323" cy="104" rx="27" ry="18" style="fill:#97f6ff;stroke:black;"/>
<text text-anchor="middle" x="1323" y="109">log4j</text>
</g>
<g id="edge64" class="edge"><title>net.sourceforge.cobertura/cobertura&#45;&gt;org.apache.log4j/log4j</title>
<path style="fill:none;stroke:black;" d="M1170,182C1203,165 1258,137 1292,120"/>
<polygon style="fill:black;stroke:black;" points="1291,117 1301,115 1294,123 1291,117"/>
<text text-anchor="middle" x="1234" y="141">[1.2.9,2.0[</text>
</g>
<g id="node79" class="node"><title>net.sourceforge.cglib/cglib</title>
<ellipse cx="1379" cy="315" rx="27" ry="18" style="fill:#cda87d;stroke:black;"/>
<text text-anchor="middle" x="1379" y="320">cglib</text>
</g>
<g id="edge74" class="edge"><title>net.sourceforge.cglib/cglib&#45;&gt;org.objectweb.asm/asm</title>
<path style="fill:none;stroke:black;" d="M1357,304C1340,295 1316,283 1297,274"/>
<polygon style="fill:black;stroke:black;" points="1295,277 1288,269 1298,271 1295,277"/>
<text text-anchor="middle" x="1322" y="305">1.5.3</text>
</g>
<g id="node83" class="node"><title>net.sourceforge.ehcache/ehcache</title>
<ellipse cx="494" cy="597" rx="36" ry="18" style="fill:aquamarine;stroke:black;"/>
<text text-anchor="middle" x="494" y="602">ehcache</text>
</g>
<g id="edge80" class="edge"><title>net.sourceforge.ehcache/ehcache&#45;&gt;org.apache.commons/commons&#45;collections</title>
<path style="fill:none;stroke:black;" d="M482,614C461,642 419,701 394,735"/>
<polygon style="fill:black;stroke:black;" points="396,738 388,744 391,734 396,738"/>
<text text-anchor="middle" x="414" y="684">2.1.1</text>
</g>
<g id="edge78" class="edge"><title>net.sourceforge.ehcache/ehcache&#45;&gt;org.apache.commons/commons&#45;logging</title>
<path style="fill:none;stroke:black;" d="M482,580C461,552 419,493 394,459"/>
<polygon style="fill:black;stroke:black;" points="391,460 388,450 396,456 391,460"/>
<text text-anchor="middle" x="415" y="521">1.1+</text>
</g>
<g id="edge82" class="edge"><title>net.sourceforge.ehcache/ehcache&#45;&gt;org.apache.xerces/xerces</title>
<path style="fill:none;stroke:black;" d="M528,603C613,617 832,657 922,673"/>
<polygon style="fill:black;stroke:black;" points="923,670 932,675 922,676 923,670"/>
<text text-anchor="middle" x="730" y="654">2.5.0</text>
</g>
<g id="edge85" class="edge"><title>net.sourceforge.ehcache/ehcache&#45;&gt;net.sourceforge.jsr107cache/jsr107cache</title>
<path style="fill:none;stroke:black;" d="M514,582C578,531 784,370 860,309"/>
<polygon style="fill:black;stroke:black;" points="858,306 868,303 862,312 858,306"/>
<text text-anchor="middle" x="690" y="432">1.0+</text>
</g>
</g>
</svg>
