<?xml version="1.0" encoding="UTF-8" standalone="no"?>
<!DOCTYPE svg PUBLIC "-//W3C//DTD SVG 1.0//EN"
 "http://www.w3.org/TR/2001/REC-SVG-20010904/DTD/svg10.dtd">
<!-- Generated by circo version 2.2 (Tue Sep 13 00:37:56 UTC 2005)
     For user: (archie) Archie Cobbs   Title: modules    Pages: 1 -->
<svg width="788pt" height="804pt"
 viewBox = "-1 -1 787 803"
 xmlns="http://www.w3.org/2000/svg">
<g id="graph0" class="graph" transform = "scale(0.635634)"
 style="font-family:Times-Roman;font-size:14.00;">
<title>modules</title>
<g id="node3" class="node"><title>org.testng/testng</title>
<ellipse cx="531" cy="786" rx="30" ry="18" style="fill:#bd3eff;stroke:black;"/>
<text text-anchor="middle" x="531" y="791">testng</text>
</g>
<g id="node6" class="node"><title>com.puppycrawl/checkstyle</title>
<ellipse cx="382" cy="1092" rx="42" ry="18" style="fill:#97f6ff;stroke:black;"/>
<text text-anchor="middle" x="382" y="1097">checkstyle</text>
</g>
<g id="node8" class="node"><title>org.antlr/antlr</title>
<ellipse cx="341" cy="1236" rx="27" ry="18" style="fill:#97f6ff;stroke:black;"/>
<text text-anchor="middle" x="341" y="1241">antlr</text>
</g>
<g id="edge6" class="edge"><title>com.puppycrawl/checkstyle&#45;&gt;org.antlr/antlr</title>
<path style="fill:none;stroke:black;" d="M377,1110C370,1135 357,1179 349,1208"/>
<polygon style="fill:black;stroke:black;" points="352,1209 346,1218 346,1207 352,1209"/>
<text text-anchor="middle" x="344" y="1170">2.7+</text>
</g>
<g id="node10" class="node"><title>org.apache.commons/commons&#45;cli</title>
<ellipse cx="475" cy="1176" rx="49" ry="18" style="fill:#97f6ff;stroke:black;"/>
<text text-anchor="middle" x="475" y="1181">commons&#45;cli</text>
</g>
<g id="edge8" class="edge"><title>com.puppycrawl/checkstyle&#45;&gt;org.apache.commons/commons&#45;cli</title>
<path style="fill:none;stroke:black;" d="M400,1109C414,1121 433,1138 448,1152"/>
<polygon style="fill:black;stroke:black;" points="451,1150 456,1159 446,1155 451,1150"/>
<text text-anchor="middle" x="428" y="1156">[1.1,2.0[</text>
</g>
<g id="node12" class="node"><title>org.apache.commons/commons&#45;collections</title>
<ellipse cx="174" cy="732" rx="73" ry="18" style="fill:#97f6ff;stroke:black;"/>
<text text-anchor="middle" x="174" y="737">commons&#45;collections</text>
</g>
<g id="edge10" class="edge"><title>com.puppycrawl/checkstyle&#45;&gt;org.apache.commons/commons&#45;collections</title>
<path style="fill:none;stroke:black;" d="M372,1074C339,1016 230,829 189,759"/>
<polygon style="fill:black;stroke:black;" points="186,760 184,750 192,757 186,760"/>
<text text-anchor="middle" x="259" y="918">2.1+</text>
</g>
<g id="node14" class="node"><title>org.apache.commons/commons&#45;logging</title>
<ellipse cx="486" cy="912" rx="64" ry="18" style="fill:#97f6ff;stroke:black;"/>
<text text-anchor="middle" x="486" y="917">commons&#45;logging</text>
</g>
<g id="edge12" class="edge"><title>com.puppycrawl/checkstyle&#45;&gt;org.apache.commons/commons&#45;logging</title>
<path style="fill:none;stroke:black;" d="M392,1074C410,1043 449,976 471,939"/>
<polygon style="fill:black;stroke:black;" points="468,937 476,930 474,940 468,937"/>
<text text-anchor="middle" x="448" y="1007">1+</text>
</g>
<g id="node16" class="node"><title>org.apache.commons/commons&#45;beanutils</title>
<ellipse cx="174" cy="1092" rx="68" ry="18" style="fill:#97f6ff;stroke:black;"/>
<text text-anchor="middle" x="174" y="1097">commons&#45;beanutils</text>
</g>
<g id="edge14" class="edge"><title>com.puppycrawl/checkstyle&#45;&gt;org.apache.commons/commons&#45;beanutils</title>
<path style="fill:none;stroke:black;" d="M340,1092C315,1092 282,1092 252,1092"/>
<polygon style="fill:black;stroke:black;" points="252,1095 242,1092 252,1088 252,1095"/>
<text text-anchor="middle" x="290" y="1088">1.7+</text>
</g>
<g id="edge60" class="edge"><title>org.apache.commons/commons&#45;beanutils&#45;&gt;org.apache.commons/commons&#45;collections</title>
<path style="fill:none;stroke:black;" d="M174,1074C174,1015 174,831 174,760"/>
<polygon style="fill:black;stroke:black;" points="171,760 174,750 178,760 171,760"/>
<text text-anchor="middle" x="185" y="918">3.+</text>
</g>
<g id="edge58" class="edge"><title>org.apache.commons/commons&#45;beanutils&#45;&gt;org.apache.commons/commons&#45;logging</title>
<path style="fill:none;stroke:black;" d="M203,1076C259,1043 386,970 449,933"/>
<polygon style="fill:black;stroke:black;" points="448,930 458,928 451,936 448,930"/>
<text text-anchor="middle" x="329" y="1022">[1.0,2.0[</text>
</g>
<g id="node19" class="node"><title>org.apache.oro/oro</title>
<ellipse cx="573" cy="576" rx="27" ry="18" style="fill:gold;stroke:black;"/>
<text text-anchor="middle" x="573" y="581">oro</text>
</g>
<g id="node22" class="node"><title>org.apache.xml/xalan&#45;j</title>
<ellipse cx="913" cy="203" rx="33" ry="18" style="fill:#cda87d;stroke:black;"/>
<text text-anchor="middle" x="913" y="208">xalan&#45;j</text>
</g>
<g id="node24" class="node"><title>org.apache.xerces/xerces</title>
<ellipse cx="736" cy="285" rx="31" ry="18" style="fill:#cda87d;stroke:black;"/>
<text text-anchor="middle" x="736" y="290">xerces</text>
</g>
<g id="edge20" class="edge"><title>org.apache.xml/xalan&#45;j&#45;&gt;org.apache.xerces/xerces</title>
<path style="fill:none;stroke:black;" d="M888,215C857,229 804,253 769,270"/>
<polygon style="fill:black;stroke:black;" points="771,273 760,274 768,267 771,273"/>
<text text-anchor="middle" x="823" y="263">2.7+</text>
</g>
<g id="node29" class="node"><title>net.sourceforge.jsr107cache/jsr107cache</title>
<ellipse cx="361" cy="140" rx="47" ry="18" style="fill:cyan;stroke:black;"/>
<text text-anchor="middle" x="361" y="145">jsr107cache</text>
</g>
<g id="node32" class="node"><title>org.mortbay/jetty</title>
<ellipse cx="618" cy="786" rx="27" ry="18" style="fill:darkorange;stroke:black;"/>
<text text-anchor="middle" x="618" y="791">jetty</text>
</g>
<g id="node35" class="node"><title>org.mozilla/rhino</title>
<ellipse cx="768" cy="28" rx="28" ry="18" style="fill:#bd3eff;stroke:black;"/>
<text text-anchor="middle" x="768" y="33">rhino</text>
</g>
<g id="node38" class="node"><title>org.apache.xmlgraphics/batik</title>
<ellipse cx="752" cy="155" rx="27" ry="18" style="fill:#97f6ff;stroke:black;"/>
<text text-anchor="middle" x="752" y="160">batik</text>
</g>
<g id="edge34" class="edge"><title>org.apache.xmlgraphics/batik&#45;&gt;org.apache.xerces/xerces</title>
<path style="fill:none;stroke:black;" d="M750,173C747,195 742,231 739,257"/>
<polygon style="fill:black;stroke:black;" points="742,257 738,267 736,257 742,257"/>
<text text-anchor="middle" x="727" y="225">2.5+</text>
</g>
<g id="edge32" class="edge"><title>org.apache.xmlgraphics/batik&#45;&gt;org.mozilla/rhino</title>
<path style="fill:none;stroke:black;" d="M754,137C757,116 762,81 765,56"/>
<polygon style="fill:black;stroke:black;" points="762,56 766,46 768,56 762,56"/>
<text text-anchor="middle" x="772" y="98">1.+</text>
</g>
<g id="node43" class="node"><title>com.mysql/mysql&#45;connector&#45;java</title>
<ellipse cx="709" cy="516" rx="73" ry="18" style="fill:gold;stroke:black;"/>
<text text-anchor="middle" x="709" y="521">mysql&#45;connector&#45;java</text>
</g>
<g id="node46" class="node"><title>org.aopalliance/aopalliance</title>
<ellipse cx="882" cy="981" rx="45" ry="18" style="fill:#cda87d;stroke:black;"/>
<text text-anchor="middle" x="882" y="986">aopalliance</text>
</g>
<g id="node49" class="node"><title>org.springframework/spring</title>
<ellipse cx="751" cy="912" rx="31" ry="18" style="fill:aquamarine;stroke:black;"/>
<text text-anchor="middle" x="751" y="917">spring</text>
</g>
<g id="edge44" class="edge"><title>org.springframework/spring&#45;&gt;org.apache.commons/commons&#45;logging</title>
<path style="fill:none;stroke:black;" d="M720,912C681,912 613,912 560,912"/>
<polygon style="fill:black;stroke:black;" points="560,915 550,912 560,908 560,915"/>
<text text-anchor="middle" x="635" y="908">1.+</text>
</g>
<g id="edge42" class="edge"><title>org.springframework/spring&#45;&gt;org.aopalliance/aopalliance</title>
<path style="fill:none;stroke:black;" d="M774,924C794,935 823,950 846,962"/>
<polygon style="fill:black;stroke:black;" points="848,959 855,967 845,965 848,959"/>
<text text-anchor="middle" x="814" y="964">1.+</text>
</g>
<g id="node53" class="node"><title>javax.jms/jms</title>
<ellipse cx="882" cy="843" rx="27" ry="18" style="fill:aquamarine;stroke:black;"/>
<text text-anchor="middle" x="882" y="848">jms</text>
</g>
<g id="edge46" class="edge"><title>org.springframework/spring&#45;&gt;javax.jms/jms</title>
<path style="fill:none;stroke:black;" d="M774,900C796,889 828,872 851,859"/>
<polygon style="fill:black;stroke:black;" points="850,856 860,854 853,862 850,856"/>
<text text-anchor="middle" x="817" y="896">1.+</text>
</g>
<g id="node58" class="node"><title>javax.transaction/jta</title>
<ellipse cx="708" cy="786" rx="27" ry="18" style="fill:darkorange;stroke:black;"/>
<text text-anchor="middle" x="708" y="791">jta</text>
</g>
<g id="node61" class="node"><title>org.objectweb.asm/asm</title>
<ellipse cx="1086" cy="639" rx="27" ry="18" style="fill:#bd3eff;stroke:black;"/>
<text text-anchor="middle" x="1086" y="644">asm</text>
</g>
<g id="node70" class="node"><title>org.apache.commons/commons&#45;dbcp</title>
<ellipse cx="557" cy="696" rx="56" ry="18" style="fill:#97f6ff;stroke:black;"/>
<text text-anchor="middle" x="557" y="701">commons&#45;dbcp</text>
</g>
<g id="node72" class="node"><title>org.apache.commons/commons&#45;pool</title>
<ellipse cx="740" cy="696" rx="55" ry="18" style="fill:#97f6ff;stroke:black;"/>
<text text-anchor="middle" x="740" y="701">commons&#45;pool</text>
</g>
<g id="edge64" class="edge"><title>org.apache.commons/commons&#45;dbcp&#45;&gt;org.apache.commons/commons&#45;pool</title>
<path style="fill:none;stroke:black;" d="M613,696C633,696 655,696 675,696"/>
<polygon style="fill:black;stroke:black;" points="675,692 685,696 675,699 675,692"/>
<text text-anchor="middle" x="648" y="710">1.3+</text>
</g>
<g id="node78" class="node"><title>org.apache.commons/commons&#45;email</title>
<ellipse cx="469" cy="516" rx="58" ry="18" style="fill:#97f6ff;stroke:black;"/>
<text text-anchor="middle" x="469" y="521">commons&#45;email</text>
</g>
<g id="node80" class="node"><title>org.apache.commons/commons&#45;digester</title>
<ellipse cx="70" cy="912" rx="64" ry="18" style="fill:#97f6ff;stroke:black;"/>
<text text-anchor="middle" x="70" y="917">commons&#45;digester</text>
</g>
<g id="edge76" class="edge"><title>org.apache.commons/commons&#45;digester&#45;&gt;org.apache.commons/commons&#45;collections</title>
<path style="fill:none;stroke:black;" d="M80,894C98,863 137,796 159,759"/>
<polygon style="fill:black;stroke:black;" points="156,757 164,750 162,760 156,757"/>
<text text-anchor="middle" x="152" y="827">[2.0,4.0[</text>
</g>
<g id="edge72" class="edge"><title>org.apache.commons/commons&#45;digester&#45;&gt;org.apache.commons/commons&#45;logging</title>
<path style="fill:none;stroke:black;" d="M134,912C209,912 333,912 412,912"/>
<polygon style="fill:black;stroke:black;" points="412,908 422,912 412,915 412,908"/>
<text text-anchor="middle" x="277" y="926">1.1+</text>
</g>
<g id="edge74" class="edge"><title>org.apache.commons/commons&#45;digester&#45;&gt;org.apache.commons/commons&#45;beanutils</title>
<path style="fill:none;stroke:black;" d="M80,930C98,961 137,1028 159,1065"/>
<polygon style="fill:black;stroke:black;" points="162,1064 164,1074 156,1067 162,1064"/>
<text text-anchor="middle" x="92" y="1008">[1.7,2.0]</text>
</g>
<g id="node98" class="node"><title>net.sourceforge.cobertura/cobertura</title>
<ellipse cx="963" cy="576" rx="39" ry="18" style="fill:gold;stroke:black;"/>
<text text-anchor="middle" x="963" y="581">cobertura</text>
</g>
<g id="edge94" class="edge"><title>net.sourceforge.cobertura/cobertura&#45;&gt;org.apache.oro/oro</title>
<path style="fill:none;stroke:black;" d="M924,576C849,576 684,576 610,576"/>
<polygon style="fill:black;stroke:black;" points="610,579 600,576 610,572 610,579"/>
<text text-anchor="middle" x="762" y="572">[2.0.8,3.0[</text>
</g>
<g id="edge96" class="edge"><title>net.sourceforge.cobertura/cobertura&#45;&gt;org.objectweb.asm/asm</title>
<path style="fill:none;stroke:black;" d="M989,590C1009,599 1035,613 1055,623"/>
<polygon style="fill:black;stroke:black;" points="1057,620 1064,628 1054,626 1057,620"/>
<text text-anchor="middle" x="1026" y="627">2.2+</text>
</g>
<g id="node100" class="node"><title>org.apache.log4j/log4j</title>
<ellipse cx="1143" cy="485" rx="27" ry="18" style="fill:gold;stroke:black;"/>
<text text-anchor="middle" x="1143" y="490">log4j</text>
</g>
<g id="edge92" class="edge"><title>net.sourceforge.cobertura/cobertura&#45;&gt;org.apache.log4j/log4j</title>
<path style="fill:none;stroke:black;" d="M990,563C1023,546 1078,518 1112,501"/>
<polygon style="fill:black;stroke:black;" points="1111,498 1121,496 1114,504 1111,498"/>
<text text-anchor="middle" x="1054" y="522">[1.2.9,2.0[</text>
</g>
<g id="node107" class="node"><title>net.sourceforge.cglib/cglib</title>
<ellipse cx="1199" cy="696" rx="27" ry="18" style="fill:aquamarine;stroke:black;"/>
<text text-anchor="middle" x="1199" y="701">cglib</text>
</g>
<g id="edge102" class="edge"><title>net.sourceforge.cglib/cglib&#45;&gt;org.objectweb.asm/asm</title>
<path style="fill:none;stroke:black;" d="M1177,685C1160,676 1136,664 1117,655"/>
<polygon style="fill:black;stroke:black;" points="1115,658 1108,650 1118,652 1115,658"/>
<text text-anchor="middle" x="1142" y="686">1.5.3</text>
</g>
<g id="node111" class="node"><title>net.sourceforge.ehcache/ehcache</title>
<ellipse cx="382" cy="732" rx="36" ry="18" style="fill:cyan;stroke:black;"/>
<text text-anchor="middle" x="382" y="737">ehcache</text>
</g>
<g id="edge108" class="edge"><title>net.sourceforge.ehcache/ehcache&#45;&gt;org.apache.commons/commons&#45;collections</title>
<path style="fill:none;stroke:black;" d="M346,732C322,732 288,732 257,732"/>
<polygon style="fill:black;stroke:black;" points="257,735 247,732 257,728 257,735"/>
<text text-anchor="middle" x="296" y="728">2.1.1</text>
</g>
<g id="edge106" class="edge"><title>net.sourceforge.ehcache/ehcache&#45;&gt;org.apache.commons/commons&#45;logging</title>
<path style="fill:none;stroke:black;" d="M392,750C410,781 449,848 471,885"/>
<polygon style="fill:black;stroke:black;" points="474,884 476,894 468,887 474,884"/>
<text text-anchor="middle" x="416" y="828">1.1+</text>
</g>
<g id="edge110" class="edge"><title>net.sourceforge.ehcache/ehcache&#45;&gt;org.apache.xerces/xerces</title>
<path style="fill:none;stroke:black;" d="M395,715C449,646 652,391 717,310"/>
<polygon style="fill:black;stroke:black;" points="714,308 723,302 720,312 714,308"/>
<text text-anchor="middle" x="536" y="514">2.5.0</text>
</g>
<g id="edge113" class="edge"><title>net.sourceforge.ehcache/ehcache&#45;&gt;net.sourceforge.jsr107cache/jsr107cache</title>
<path style="fill:none;stroke:black;" d="M381,714C378,630 366,272 362,168"/>
<polygon style="fill:black;stroke:black;" points="359,168 362,158 366,168 359,168"/>
<text text-anchor="middle" x="357" y="441">1.0+</text>
</g>
</g>
</svg>
