<?xml version="1.0" encoding="UTF-8" standalone="no"?>
<!DOCTYPE svg PUBLIC "-//W3C//DTD SVG 1.0//EN"
 "http://www.w3.org/TR/2001/REC-SVG-20010904/DTD/svg10.dtd">
<!-- Generated by circo version 2.2 (Tue Sep 13 00:37:56 UTC 2005)
     For user: (archie) Archie Cobbs   Title: modules    Pages: 1 -->
<svg width="804pt" height="797pt"
 viewBox = "-1 -1 803 796"
 xmlns="http://www.w3.org/2000/svg">
<g id="graph0" class="graph" transform = "scale(0.632588)"
 style="font-family:Times-Roman;font-size:14.00;">
<title>modules</title>
<g id="node3" class="node"><title>org.testng/testng</title>
<ellipse cx="454" cy="547" rx="30" ry="18" style="fill:#bd3eff;stroke:black;"/>
<text text-anchor="middle" x="454" y="552">testng</text>
</g>
<g id="node6" class="node"><title>org.codehaus.jaxen/jaxen</title>
<ellipse cx="415" cy="623" rx="29" ry="18" style="fill:#97f6ff;stroke:black;"/>
<text text-anchor="middle" x="415" y="628">jaxen</text>
</g>
<g id="node9" class="node"><title>com.puppycrawl/checkstyle</title>
<ellipse cx="382" cy="1087" rx="42" ry="18" style="fill:gold;stroke:black;"/>
<text text-anchor="middle" x="382" y="1092">checkstyle</text>
</g>
<g id="node11" class="node"><title>org.antlr/antlr</title>
<ellipse cx="341" cy="1231" rx="27" ry="18" style="fill:gold;stroke:black;"/>
<text text-anchor="middle" x="341" y="1236">antlr</text>
</g>
<g id="edge8" class="edge"><title>com.puppycrawl/checkstyle&#45;&gt;org.antlr/antlr</title>
<path style="fill:none;stroke:black;" d="M377,1105C370,1130 357,1174 349,1203"/>
<polygon style="fill:black;stroke:black;" points="352,1204 346,1213 346,1202 352,1204"/>
<text text-anchor="middle" x="344" y="1165">2.7+</text>
</g>
<g id="node13" class="node"><title>org.apache.commons/commons&#45;cli</title>
<ellipse cx="475" cy="1171" rx="49" ry="18" style="fill:gold;stroke:black;"/>
<text text-anchor="middle" x="475" y="1176">commons&#45;cli</text>
</g>
<g id="edge10" class="edge"><title>com.puppycrawl/checkstyle&#45;&gt;org.apache.commons/commons&#45;cli</title>
<path style="fill:none;stroke:black;" d="M400,1104C414,1116 433,1133 448,1147"/>
<polygon style="fill:black;stroke:black;" points="451,1145 456,1154 446,1150 451,1145"/>
<text text-anchor="middle" x="428" y="1151">[1.1,2.0[</text>
</g>
<g id="node15" class="node"><title>org.apache.commons/commons&#45;collections</title>
<ellipse cx="174" cy="727" rx="73" ry="18" style="fill:gold;stroke:black;"/>
<text text-anchor="middle" x="174" y="732">commons&#45;collections</text>
</g>
<g id="edge12" class="edge"><title>com.puppycrawl/checkstyle&#45;&gt;org.apache.commons/commons&#45;collections</title>
<path style="fill:none;stroke:black;" d="M372,1069C339,1011 230,824 189,754"/>
<polygon style="fill:black;stroke:black;" points="186,755 184,745 192,752 186,755"/>
<text text-anchor="middle" x="259" y="913">2.1+</text>
</g>
<g id="node17" class="node"><title>org.apache.commons/commons&#45;logging</title>
<ellipse cx="486" cy="907" rx="64" ry="18" style="fill:gold;stroke:black;"/>
<text text-anchor="middle" x="486" y="912">commons&#45;logging</text>
</g>
<g id="edge14" class="edge"><title>com.puppycrawl/checkstyle&#45;&gt;org.apache.commons/commons&#45;logging</title>
<path style="fill:none;stroke:black;" d="M392,1069C410,1038 449,971 471,934"/>
<polygon style="fill:black;stroke:black;" points="468,932 476,925 474,935 468,932"/>
<text text-anchor="middle" x="448" y="1002">1+</text>
</g>
<g id="node19" class="node"><title>org.apache.commons/commons&#45;beanutils</title>
<ellipse cx="174" cy="1087" rx="68" ry="18" style="fill:gold;stroke:black;"/>
<text text-anchor="middle" x="174" y="1092">commons&#45;beanutils</text>
</g>
<g id="edge16" class="edge"><title>com.puppycrawl/checkstyle&#45;&gt;org.apache.commons/commons&#45;beanutils</title>
<path style="fill:none;stroke:black;" d="M340,1087C315,1087 282,1087 252,1087"/>
<polygon style="fill:black;stroke:black;" points="252,1090 242,1087 252,1083 252,1090"/>
<text text-anchor="middle" x="290" y="1083">1.7+</text>
</g>
<g id="edge68" class="edge"><title>org.apache.commons/commons&#45;beanutils&#45;&gt;org.apache.commons/commons&#45;collections</title>
<path style="fill:none;stroke:black;" d="M174,1069C174,1010 174,826 174,755"/>
<polygon style="fill:black;stroke:black;" points="171,755 174,745 178,755 171,755"/>
<text text-anchor="middle" x="185" y="913">3.+</text>
</g>
<g id="edge66" class="edge"><title>org.apache.commons/commons&#45;beanutils&#45;&gt;org.apache.commons/commons&#45;logging</title>
<path style="fill:none;stroke:black;" d="M203,1071C259,1038 386,965 449,928"/>
<polygon style="fill:black;stroke:black;" points="448,925 458,923 451,931 448,925"/>
<text text-anchor="middle" x="329" y="1017">[1.0,2.0[</text>
</g>
<g id="node22" class="node"><title>org.apache.oro/oro</title>
<ellipse cx="603" cy="541" rx="27" ry="18" style="fill:#cda87d;stroke:black;"/>
<text text-anchor="middle" x="603" y="546">oro</text>
</g>
<g id="node25" class="node"><title>org.apache.xml/xalan&#45;j</title>
<ellipse cx="930" cy="262" rx="33" ry="18" style="fill:aquamarine;stroke:black;"/>
<text text-anchor="middle" x="930" y="267">xalan&#45;j</text>
</g>
<g id="node27" class="node"><title>org.apache.xerces/xerces</title>
<ellipse cx="736" cy="280" rx="31" ry="18" style="fill:aquamarine;stroke:black;"/>
<text text-anchor="middle" x="736" y="285">xerces</text>
</g>
<g id="edge22" class="edge"><title>org.apache.xml/xalan&#45;j&#45;&gt;org.apache.xerces/xerces</title>
<path style="fill:none;stroke:black;" d="M897,265C864,268 813,273 777,276"/>
<polygon style="fill:black;stroke:black;" points="777,279 767,277 777,273 777,279"/>
<text text-anchor="middle" x="832" y="286">2.7+</text>
</g>
<g id="node32" class="node"><title>org.dom4j/dom4j</title>
<ellipse cx="873" cy="141" rx="31" ry="18" style="fill:darkorange;stroke:black;"/>
<text text-anchor="middle" x="873" y="146">dom4j</text>
</g>
<g id="edge28" class="edge"><title>org.dom4j/dom4j&#45;&gt;org.apache.xerces/xerces</title>
<path style="fill:none;stroke:black;" d="M858,157C834,181 787,228 759,256"/>
<polygon style="fill:black;stroke:black;" points="761,259 752,264 756,254 761,259"/>
<text text-anchor="middle" x="771" y="216">[2.5,3.0[</text>
</g>
<g id="node36" class="node"><title>org.jboss/javassist</title>
<ellipse cx="689" cy="737" rx="37" ry="18" style="fill:#bd3eff;stroke:black;"/>
<text text-anchor="middle" x="689" y="742">javassist</text>
</g>
<g id="node39" class="node"><title>net.sourceforge.jsr107cache/jsr107cache</title>
<ellipse cx="361" cy="135" rx="47" ry="18" style="fill:#97f6ff;stroke:black;"/>
<text text-anchor="middle" x="361" y="140">jsr107cache</text>
</g>
<g id="node42" class="node"><title>org.mortbay/jetty</title>
<ellipse cx="679" cy="509" rx="27" ry="18" style="fill:gold;stroke:black;"/>
<text text-anchor="middle" x="679" y="514">jetty</text>
</g>
<g id="node45" class="node"><title>org.mozilla/rhino</title>
<ellipse cx="680" cy="27" rx="28" ry="18" style="fill:#cda87d;stroke:black;"/>
<text text-anchor="middle" x="680" y="32">rhino</text>
</g>
<g id="node48" class="node"><title>org.apache.xmlgraphics/batik</title>
<ellipse cx="707" cy="152" rx="27" ry="18" style="fill:aquamarine;stroke:black;"/>
<text text-anchor="middle" x="707" y="157">batik</text>
</g>
<g id="edge42" class="edge"><title>org.apache.xmlgraphics/batik&#45;&gt;org.apache.xerces/xerces</title>
<path style="fill:none;stroke:black;" d="M711,170C716,191 724,227 730,252"/>
<polygon style="fill:black;stroke:black;" points="733,252 732,262 727,253 733,252"/>
<text text-anchor="middle" x="705" y="221">2.5+</text>
</g>
<g id="edge40" class="edge"><title>org.apache.xmlgraphics/batik&#45;&gt;org.mozilla/rhino</title>
<path style="fill:none;stroke:black;" d="M703,134C699,114 691,80 686,55"/>
<polygon style="fill:black;stroke:black;" points="683,55 684,45 689,54 683,55"/>
<text text-anchor="middle" x="681" y="95">1.+</text>
</g>
<g id="node53" class="node"><title>com.mysql/mysql&#45;connector&#45;java</title>
<ellipse cx="459" cy="471" rx="73" ry="18" style="fill:cyan;stroke:black;"/>
<text text-anchor="middle" x="459" y="476">mysql&#45;connector&#45;java</text>
</g>
<g id="node56" class="node"><title>org.aopalliance/aopalliance</title>
<ellipse cx="882" cy="976" rx="45" ry="18" style="fill:darkorange;stroke:black;"/>
<text text-anchor="middle" x="882" y="981">aopalliance</text>
</g>
<g id="node59" class="node"><title>org.springframework/spring</title>
<ellipse cx="751" cy="907" rx="31" ry="18" style="fill:#bd3eff;stroke:black;"/>
<text text-anchor="middle" x="751" y="912">spring</text>
</g>
<g id="edge52" class="edge"><title>org.springframework/spring&#45;&gt;org.apache.commons/commons&#45;logging</title>
<path style="fill:none;stroke:black;" d="M720,907C681,907 613,907 560,907"/>
<polygon style="fill:black;stroke:black;" points="560,910 550,907 560,903 560,910"/>
<text text-anchor="middle" x="635" y="903">1.+</text>
</g>
<g id="edge50" class="edge"><title>org.springframework/spring&#45;&gt;org.aopalliance/aopalliance</title>
<path style="fill:none;stroke:black;" d="M774,919C794,930 823,945 846,957"/>
<polygon style="fill:black;stroke:black;" points="848,954 855,962 845,960 848,954"/>
<text text-anchor="middle" x="814" y="959">1.+</text>
</g>
<g id="node63" class="node"><title>javax.jms/jms</title>
<ellipse cx="882" cy="838" rx="27" ry="18" style="fill:#bd3eff;stroke:black;"/>
<text text-anchor="middle" x="882" y="843">jms</text>
</g>
<g id="edge54" class="edge"><title>org.springframework/spring&#45;&gt;javax.jms/jms</title>
<path style="fill:none;stroke:black;" d="M774,895C796,884 828,867 851,854"/>
<polygon style="fill:black;stroke:black;" points="850,851 860,849 853,857 850,851"/>
<text text-anchor="middle" x="817" y="891">1.+</text>
</g>
<g id="node68" class="node"><title>javax.transaction/jta</title>
<ellipse cx="717" cy="433" rx="27" ry="18" style="fill:gold;stroke:black;"/>
<text text-anchor="middle" x="717" y="438">jta</text>
</g>
<g id="node71" class="node"><title>org.objectweb.asm/asm</title>
<ellipse cx="1116" cy="604" rx="27" ry="18" style="fill:#cda87d;stroke:black;"/>
<text text-anchor="middle" x="1116" y="609">asm</text>
</g>
<g id="node80" class="node"><title>org.apache.commons/commons&#45;dbcp</title>
<ellipse cx="556" cy="661" rx="56" ry="18" style="fill:aquamarine;stroke:black;"/>
<text text-anchor="middle" x="556" y="666">commons&#45;dbcp</text>
</g>
<g id="node82" class="node"><title>org.apache.commons/commons&#45;pool</title>
<ellipse cx="739" cy="661" rx="55" ry="18" style="fill:aquamarine;stroke:black;"/>
<text text-anchor="middle" x="739" y="666">commons&#45;pool</text>
</g>
<g id="edge72" class="edge"><title>org.apache.commons/commons&#45;dbcp&#45;&gt;org.apache.commons/commons&#45;pool</title>
<path style="fill:none;stroke:black;" d="M612,661C632,661 654,661 674,661"/>
<polygon style="fill:black;stroke:black;" points="674,657 684,661 674,664 674,657"/>
<text text-anchor="middle" x="647" y="675">1.3+</text>
</g>
<g id="node88" class="node"><title>org.apache.commons/commons&#45;email</title>
<ellipse cx="558" cy="737" rx="58" ry="18" style="fill:aquamarine;stroke:black;"/>
<text text-anchor="middle" x="558" y="742">commons&#45;email</text>
</g>
<g id="node90" class="node"><title>org.apache.commons/commons&#45;digester</title>
<ellipse cx="70" cy="907" rx="64" ry="18" style="fill:aquamarine;stroke:black;"/>
<text text-anchor="middle" x="70" y="912">commons&#45;digester</text>
</g>
<g id="edge84" class="edge"><title>org.apache.commons/commons&#45;digester&#45;&gt;org.apache.commons/commons&#45;collections</title>
<path style="fill:none;stroke:black;" d="M80,889C98,858 137,791 159,754"/>
<polygon style="fill:black;stroke:black;" points="156,752 164,745 162,755 156,752"/>
<text text-anchor="middle" x="152" y="822">[2.0,4.0[</text>
</g>
<g id="edge80" class="edge"><title>org.apache.commons/commons&#45;digester&#45;&gt;org.apache.commons/commons&#45;logging</title>
<path style="fill:none;stroke:black;" d="M134,907C209,907 333,907 412,907"/>
<polygon style="fill:black;stroke:black;" points="412,903 422,907 412,910 412,903"/>
<text text-anchor="middle" x="277" y="921">1.1+</text>
</g>
<g id="edge82" class="edge"><title>org.apache.commons/commons&#45;digester&#45;&gt;org.apache.commons/commons&#45;beanutils</title>
<path style="fill:none;stroke:black;" d="M80,925C98,956 137,1023 159,1060"/>
<polygon style="fill:black;stroke:black;" points="162,1059 164,1069 156,1062 162,1059"/>
<text text-anchor="middle" x="92" y="1003">[1.7,2.0]</text>
</g>
<g id="node108" class="node"><title>net.sourceforge.cobertura/cobertura</title>
<ellipse cx="993" cy="541" rx="39" ry="18" style="fill:cyan;stroke:black;"/>
<text text-anchor="middle" x="993" y="546">cobertura</text>
</g>
<g id="edge102" class="edge"><title>net.sourceforge.cobertura/cobertura&#45;&gt;org.apache.oro/oro</title>
<path style="fill:none;stroke:black;" d="M954,541C879,541 714,541 640,541"/>
<polygon style="fill:black;stroke:black;" points="640,544 630,541 640,537 640,544"/>
<text text-anchor="middle" x="792" y="537">[2.0.8,3.0[</text>
</g>
<g id="edge104" class="edge"><title>net.sourceforge.cobertura/cobertura&#45;&gt;org.objectweb.asm/asm</title>
<path style="fill:none;stroke:black;" d="M1019,555C1039,564 1065,578 1085,588"/>
<polygon style="fill:black;stroke:black;" points="1087,585 1094,593 1084,591 1087,585"/>
<text text-anchor="middle" x="1056" y="592">2.2+</text>
</g>
<g id="node110" class="node"><title>org.apache.log4j/log4j</title>
<ellipse cx="1173" cy="450" rx="27" ry="18" style="fill:cyan;stroke:black;"/>
<text text-anchor="middle" x="1173" y="455">log4j</text>
</g>
<g id="edge100" class="edge"><title>net.sourceforge.cobertura/cobertura&#45;&gt;org.apache.log4j/log4j</title>
<path style="fill:none;stroke:black;" d="M1020,528C1053,511 1108,483 1142,466"/>
<polygon style="fill:black;stroke:black;" points="1141,463 1151,461 1144,469 1141,463"/>
<text text-anchor="middle" x="1084" y="487">[1.2.9,2.0[</text>
</g>
<g id="node117" class="node"><title>net.sourceforge.cglib/cglib</title>
<ellipse cx="1229" cy="661" rx="27" ry="18" style="fill:#bd3eff;stroke:black;"/>
<text text-anchor="middle" x="1229" y="666">cglib</text>
</g>
<g id="edge110" class="edge"><title>net.sourceforge.cglib/cglib&#45;&gt;org.objectweb.asm/asm</title>
<path style="fill:none;stroke:black;" d="M1207,650C1190,641 1166,629 1147,620"/>
<polygon style="fill:black;stroke:black;" points="1145,623 1138,615 1148,617 1145,623"/>
<text text-anchor="middle" x="1172" y="651">1.5.3</text>
</g>
<g id="node121" class="node"><title>net.sourceforge.ehcache/ehcache</title>
<ellipse cx="382" cy="727" rx="36" ry="18" style="fill:#97f6ff;stroke:black;"/>
<text text-anchor="middle" x="382" y="732">ehcache</text>
</g>
<g id="edge116" class="edge"><title>net.sourceforge.ehcache/ehcache&#45;&gt;org.apache.commons/commons&#45;collections</title>
<path style="fill:none;stroke:black;" d="M346,727C322,727 288,727 257,727"/>
<polygon style="fill:black;stroke:black;" points="257,730 247,727 257,723 257,730"/>
<text text-anchor="middle" x="296" y="723">2.1.1</text>
</g>
<g id="edge114" class="edge"><title>net.sourceforge.ehcache/ehcache&#45;&gt;org.apache.commons/commons&#45;logging</title>
<path style="fill:none;stroke:black;" d="M392,745C410,776 449,843 471,880"/>
<polygon style="fill:black;stroke:black;" points="474,879 476,889 468,882 474,879"/>
<text text-anchor="middle" x="416" y="823">1.1+</text>
</g>
<g id="edge118" class="edge"><title>net.sourceforge.ehcache/ehcache&#45;&gt;org.apache.xerces/xerces</title>
<path style="fill:none;stroke:black;" d="M395,710C449,641 652,386 717,305"/>
<polygon style="fill:black;stroke:black;" points="714,303 723,297 720,307 714,303"/>
<text text-anchor="middle" x="536" y="509">2.5.0</text>
</g>
<g id="edge121" class="edge"><title>net.sourceforge.ehcache/ehcache&#45;&gt;net.sourceforge.jsr107cache/jsr107cache</title>
<path style="fill:none;stroke:black;" d="M381,709C378,625 366,267 362,163"/>
<polygon style="fill:black;stroke:black;" points="359,163 362,153 366,163 359,163"/>
<text text-anchor="middle" x="357" y="436">1.0+</text>
</g>
<g id="node131" class="node"><title>net.sourceforge.c3p0/c3p0</title>
<ellipse cx="603" cy="395" rx="27" ry="18" style="fill:#cda87d;stroke:black;"/>
<text text-anchor="middle" x="603" y="400">c3p0</text>
</g>
</g>
</svg>
