<?xml version="1.0" encoding="UTF-8" standalone="no"?>
<!DOCTYPE svg PUBLIC "-//W3C//DTD SVG 1.0//EN"
 "http://www.w3.org/TR/2001/REC-SVG-20010904/DTD/svg10.dtd">
<!-- Generated by circo version 2.2 (Tue Sep 13 00:37:56 UTC 2005)
     For user: (archie) Archie Cobbs   Title: modules    Pages: 1 -->
<svg width="803pt" height="483pt"
 viewBox = "-1 -1 802 482"
 xmlns="http://www.w3.org/2000/svg">
<g id="graph0" class="graph" transform = "scale(0.590164)"
 style="font-family:Times-Roman;font-size:14.00;">
<title>modules</title>
<g id="node3" class="node"><title>org.testng/testng</title>
<ellipse cx="564" cy="306" rx="30" ry="18" style="fill:#bd3eff;stroke:black;"/>
<text text-anchor="middle" x="564" y="311">testng</text>
</g>
<g id="node6" class="node"><title>com.puppycrawl/checkstyle</title>
<ellipse cx="181" cy="694" rx="42" ry="18" style="fill:#97f6ff;stroke:black;"/>
<text text-anchor="middle" x="181" y="699">checkstyle</text>
</g>
<g id="node8" class="node"><title>org.antlr/antlr</title>
<ellipse cx="33" cy="655" rx="27" ry="18" style="fill:#97f6ff;stroke:black;"/>
<text text-anchor="middle" x="33" y="660">antlr</text>
</g>
<g id="edge6" class="edge"><title>com.puppycrawl/checkstyle&#45;&gt;org.antlr/antlr</title>
<path style="fill:none;stroke:black;" d="M145,685C121,679 91,671 68,665"/>
<polygon style="fill:black;stroke:black;" points="67,668 58,662 69,662 67,668"/>
<text text-anchor="middle" x="101" y="690">2.7+</text>
</g>
<g id="node10" class="node"><title>org.apache.commons/commons&#45;cli</title>
<ellipse cx="99" cy="786" rx="49" ry="18" style="fill:#97f6ff;stroke:black;"/>
<text text-anchor="middle" x="99" y="791">commons&#45;cli</text>
</g>
<g id="edge8" class="edge"><title>com.puppycrawl/checkstyle&#45;&gt;org.apache.commons/commons&#45;cli</title>
<path style="fill:none;stroke:black;" d="M166,711C153,725 135,745 121,761"/>
<polygon style="fill:black;stroke:black;" points="123,764 114,769 118,759 123,764"/>
<text text-anchor="middle" x="107" y="745">[1.1,2.0[</text>
</g>
<g id="node12" class="node"><title>org.apache.commons/commons&#45;collections</title>
<ellipse cx="375" cy="757" rx="73" ry="18" style="fill:#97f6ff;stroke:black;"/>
<text text-anchor="middle" x="375" y="762">commons&#45;collections</text>
</g>
<g id="edge10" class="edge"><title>com.puppycrawl/checkstyle&#45;&gt;org.apache.commons/commons&#45;collections</title>
<path style="fill:none;stroke:black;" d="M215,705C244,714 287,728 321,740"/>
<polygon style="fill:black;stroke:black;" points="322,737 331,743 320,743 322,737"/>
<text text-anchor="middle" x="273" y="740">2.1+</text>
</g>
<g id="node14" class="node"><title>org.apache.commons/commons&#45;logging</title>
<ellipse cx="375" cy="427" rx="64" ry="18" style="fill:#97f6ff;stroke:black;"/>
<text text-anchor="middle" x="375" y="432">commons&#45;logging</text>
</g>
<g id="edge12" class="edge"><title>com.puppycrawl/checkstyle&#45;&gt;org.apache.commons/commons&#45;logging</title>
<path style="fill:none;stroke:black;" d="M194,676C227,631 317,508 356,453"/>
<polygon style="fill:black;stroke:black;" points="353,451 362,445 359,455 353,451"/>
<text text-anchor="middle" x="292" y="567">1+</text>
</g>
<g id="node16" class="node"><title>org.apache.commons/commons&#45;beanutils</title>
<ellipse cx="181" cy="490" rx="68" ry="18" style="fill:#97f6ff;stroke:black;"/>
<text text-anchor="middle" x="181" y="495">commons&#45;beanutils</text>
</g>
<g id="edge14" class="edge"><title>com.puppycrawl/checkstyle&#45;&gt;org.apache.commons/commons&#45;beanutils</title>
<path style="fill:none;stroke:black;" d="M181,676C181,640 181,561 181,518"/>
<polygon style="fill:black;stroke:black;" points="178,518 181,508 185,518 178,518"/>
<text text-anchor="middle" x="195" y="597">1.7+</text>
</g>
<g id="edge60" class="edge"><title>org.apache.commons/commons&#45;beanutils&#45;&gt;org.apache.commons/commons&#45;collections</title>
<path style="fill:none;stroke:black;" d="M194,508C228,554 317,677 356,731"/>
<polygon style="fill:black;stroke:black;" points="359,729 362,739 353,733 359,729"/>
<text text-anchor="middle" x="247" y="629">[2.0,3.0[</text>
</g>
<g id="edge58" class="edge"><title>org.apache.commons/commons&#45;beanutils&#45;&gt;org.apache.commons/commons&#45;logging</title>
<path style="fill:none;stroke:black;" d="M224,476C253,466 292,454 323,444"/>
<polygon style="fill:black;stroke:black;" points="322,441 333,441 324,447 322,441"/>
<text text-anchor="middle" x="277" y="475">[1.0,2.0[</text>
</g>
<g id="node19" class="node"><title>org.apache.oro/oro</title>
<ellipse cx="693" cy="230" rx="27" ry="18" style="fill:gold;stroke:black;"/>
<text text-anchor="middle" x="693" y="235">oro</text>
</g>
<g id="node22" class="node"><title>org.apache.xml/xalan&#45;j</title>
<ellipse cx="1120" cy="790" rx="33" ry="18" style="fill:#cda87d;stroke:black;"/>
<text text-anchor="middle" x="1120" y="795">xalan&#45;j</text>
</g>
<g id="node24" class="node"><title>org.apache.xerces/xerces</title>
<ellipse cx="962" cy="675" rx="31" ry="18" style="fill:#cda87d;stroke:black;"/>
<text text-anchor="middle" x="962" y="680">xerces</text>
</g>
<g id="edge20" class="edge"><title>org.apache.xml/xalan&#45;j&#45;&gt;org.apache.xerces/xerces</title>
<path style="fill:none;stroke:black;" d="M1100,775C1072,755 1022,718 990,695"/>
<polygon style="fill:black;stroke:black;" points="988,698 982,689 992,692 988,698"/>
<text text-anchor="middle" x="1040" y="753">2.7+</text>
</g>
<g id="node29" class="node"><title>net.sourceforge.jsr107cache/jsr107cache</title>
<ellipse cx="889" cy="282" rx="47" ry="18" style="fill:cyan;stroke:black;"/>
<text text-anchor="middle" x="889" y="287">jsr107cache</text>
</g>
<g id="node32" class="node"><title>org.mortbay/jetty</title>
<ellipse cx="737" cy="526" rx="27" ry="18" style="fill:darkorange;stroke:black;"/>
<text text-anchor="middle" x="737" y="531">jetty</text>
</g>
<g id="node35" class="node"><title>org.mozilla/rhino</title>
<ellipse cx="1203" cy="580" rx="28" ry="18" style="fill:#bd3eff;stroke:black;"/>
<text text-anchor="middle" x="1203" y="585">rhino</text>
</g>
<g id="node38" class="node"><title>org.apache.xmlgraphics/batik</title>
<ellipse cx="1084" cy="627" rx="27" ry="18" style="fill:#97f6ff;stroke:black;"/>
<text text-anchor="middle" x="1084" y="632">batik</text>
</g>
<g id="edge34" class="edge"><title>org.apache.xmlgraphics/batik&#45;&gt;org.apache.xerces/xerces</title>
<path style="fill:none;stroke:black;" d="M1060,636C1042,643 1017,653 997,661"/>
<polygon style="fill:black;stroke:black;" points="999,664 988,665 996,658 999,664"/>
<text text-anchor="middle" x="1024" y="668">2.5+</text>
</g>
<g id="edge32" class="edge"><title>org.apache.xmlgraphics/batik&#45;&gt;org.mozilla/rhino</title>
<path style="fill:none;stroke:black;" d="M1108,618C1125,611 1150,601 1170,593"/>
<polygon style="fill:black;stroke:black;" points="1168,590 1179,589 1171,596 1168,590"/>
<text text-anchor="middle" x="1142" y="597">1.+</text>
</g>
<g id="node43" class="node"><title>com.mysql/mysql&#45;connector&#45;java</title>
<ellipse cx="695" cy="350" rx="73" ry="18" style="fill:gold;stroke:black;"/>
<text text-anchor="middle" x="695" y="355">mysql&#45;connector&#45;java</text>
</g>
<g id="node46" class="node"><title>org.aopalliance/aopalliance</title>
<ellipse cx="563" cy="72" rx="45" ry="18" style="fill:#cda87d;stroke:black;"/>
<text text-anchor="middle" x="563" y="77">aopalliance</text>
</g>
<g id="node49" class="node"><title>org.springframework/spring</title>
<ellipse cx="456" cy="175" rx="31" ry="18" style="fill:aquamarine;stroke:black;"/>
<text text-anchor="middle" x="456" y="180">spring</text>
</g>
<g id="edge44" class="edge"><title>org.springframework/spring&#45;&gt;org.apache.commons/commons&#45;logging</title>
<path style="fill:none;stroke:black;" d="M450,193C437,236 401,347 384,399"/>
<polygon style="fill:black;stroke:black;" points="387,400 381,409 381,398 387,400"/>
<text text-anchor="middle" x="402" y="306">1.+</text>
</g>
<g id="edge42" class="edge"><title>org.springframework/spring&#45;&gt;org.aopalliance/aopalliance</title>
<path style="fill:none;stroke:black;" d="M472,159C490,143 518,116 538,96"/>
<polygon style="fill:black;stroke:black;" points="535,94 545,89 540,99 535,94"/>
<text text-anchor="middle" x="508" y="147">1.+</text>
</g>
<g id="node53" class="node"><title>javax.jms/jms</title>
<ellipse cx="431" cy="29" rx="27" ry="18" style="fill:aquamarine;stroke:black;"/>
<text text-anchor="middle" x="431" y="34">jms</text>
</g>
<g id="edge46" class="edge"><title>org.springframework/spring&#45;&gt;javax.jms/jms</title>
<path style="fill:none;stroke:black;" d="M453,157C449,132 441,87 436,57"/>
<polygon style="fill:black;stroke:black;" points="433,57 434,47 439,56 433,57"/>
<text text-anchor="middle" x="431" y="108">1.+</text>
</g>
<g id="node58" class="node"><title>javax.transaction/jta</title>
<ellipse cx="517" cy="394" rx="27" ry="18" style="fill:darkorange;stroke:black;"/>
<text text-anchor="middle" x="517" y="399">jta</text>
</g>
<g id="node61" class="node"><title>org.objectweb.asm/asm</title>
<ellipse cx="1206" cy="293" rx="27" ry="18" style="fill:#bd3eff;stroke:black;"/>
<text text-anchor="middle" x="1206" y="298">asm</text>
</g>
<g id="node70" class="node"><title>org.apache.commons/commons&#45;email</title>
<ellipse cx="636" cy="438" rx="58" ry="18" style="fill:#97f6ff;stroke:black;"/>
<text text-anchor="middle" x="636" y="443">commons&#45;email</text>
</g>
<g id="node73" class="node"><title>net.sourceforge.cobertura/cobertura</title>
<ellipse cx="1083" cy="230" rx="39" ry="18" style="fill:gold;stroke:black;"/>
<text text-anchor="middle" x="1083" y="235">cobertura</text>
</g>
<g id="edge68" class="edge"><title>net.sourceforge.cobertura/cobertura&#45;&gt;org.apache.oro/oro</title>
<path style="fill:none;stroke:black;" d="M1044,230C969,230 804,230 730,230"/>
<polygon style="fill:black;stroke:black;" points="730,233 720,230 730,226 730,233"/>
<text text-anchor="middle" x="882" y="226">[2.0.8,3.0[</text>
</g>
<g id="edge70" class="edge"><title>net.sourceforge.cobertura/cobertura&#45;&gt;org.objectweb.asm/asm</title>
<path style="fill:none;stroke:black;" d="M1109,244C1129,253 1155,267 1175,277"/>
<polygon style="fill:black;stroke:black;" points="1177,274 1184,282 1174,280 1177,274"/>
<text text-anchor="middle" x="1146" y="281">2.2+</text>
</g>
<g id="node75" class="node"><title>org.apache.log4j/log4j</title>
<ellipse cx="1263" cy="139" rx="27" ry="18" style="fill:gold;stroke:black;"/>
<text text-anchor="middle" x="1263" y="144">log4j</text>
</g>
<g id="edge66" class="edge"><title>net.sourceforge.cobertura/cobertura&#45;&gt;org.apache.log4j/log4j</title>
<path style="fill:none;stroke:black;" d="M1110,217C1143,200 1198,172 1232,155"/>
<polygon style="fill:black;stroke:black;" points="1231,152 1241,150 1234,158 1231,152"/>
<text text-anchor="middle" x="1174" y="176">[1.2.9,2.0[</text>
</g>
<g id="node82" class="node"><title>net.sourceforge.cglib/cglib</title>
<ellipse cx="1319" cy="350" rx="27" ry="18" style="fill:aquamarine;stroke:black;"/>
<text text-anchor="middle" x="1319" y="355">cglib</text>
</g>
<g id="edge76" class="edge"><title>net.sourceforge.cglib/cglib&#45;&gt;org.objectweb.asm/asm</title>
<path style="fill:none;stroke:black;" d="M1297,339C1280,330 1256,318 1237,309"/>
<polygon style="fill:black;stroke:black;" points="1235,312 1228,304 1238,306 1235,312"/>
<text text-anchor="middle" x="1262" y="340">1.5.3</text>
</g>
<g id="node86" class="node"><title>net.sourceforge.ehcache/ehcache</title>
<ellipse cx="494" cy="592" rx="36" ry="18" style="fill:cyan;stroke:black;"/>
<text text-anchor="middle" x="494" y="597">ehcache</text>
</g>
<g id="edge82" class="edge"><title>net.sourceforge.ehcache/ehcache&#45;&gt;org.apache.commons/commons&#45;collections</title>
<path style="fill:none;stroke:black;" d="M482,609C461,637 419,696 394,730"/>
<polygon style="fill:black;stroke:black;" points="396,733 388,739 391,729 396,733"/>
<text text-anchor="middle" x="414" y="679">2.1.1</text>
</g>
<g id="edge80" class="edge"><title>net.sourceforge.ehcache/ehcache&#45;&gt;org.apache.commons/commons&#45;logging</title>
<path style="fill:none;stroke:black;" d="M482,575C461,547 419,488 394,454"/>
<polygon style="fill:black;stroke:black;" points="391,455 388,445 396,451 391,455"/>
<text text-anchor="middle" x="415" y="516">1.1+</text>
</g>
<g id="edge84" class="edge"><title>net.sourceforge.ehcache/ehcache&#45;&gt;org.apache.xerces/xerces</title>
<path style="fill:none;stroke:black;" d="M528,598C613,612 832,652 922,668"/>
<polygon style="fill:black;stroke:black;" points="923,665 932,670 922,671 923,665"/>
<text text-anchor="middle" x="730" y="649">2.5.0</text>
</g>
<g id="edge87" class="edge"><title>net.sourceforge.ehcache/ehcache&#45;&gt;net.sourceforge.jsr107cache/jsr107cache</title>
<path style="fill:none;stroke:black;" d="M514,577C578,526 784,365 860,304"/>
<polygon style="fill:black;stroke:black;" points="858,301 868,298 862,307 858,301"/>
<text text-anchor="middle" x="690" y="427">1.0+</text>
</g>
</g>
</svg>
