<?xml version="1.0" encoding="UTF-8" standalone="no"?>
<!DOCTYPE svg PUBLIC "-//W3C//DTD SVG 1.0//EN"
 "http://www.w3.org/TR/2001/REC-SVG-20010904/DTD/svg10.dtd">
<!-- Generated by circo version 2.2 (Tue Sep 13 00:37:56 UTC 2005)
     For user: (archie) Archie Cobbs   Title: modules    Pages: 1 -->
<svg width="804pt" height="487pt"
 viewBox = "-1 -1 803 486"
 xmlns="http://www.w3.org/2000/svg">
<g id="graph0" class="graph" transform = "scale(0.173115)"
 style="font-family:Times-Roman;font-size:14.00;">
<title>modules</title>
<g id="node3" class="node"><title>org.testng/testng</title>
<ellipse cx="2268" cy="1412" rx="30" ry="18" style="fill:#bd3eff;stroke:black;"/>
<text text-anchor="middle" x="2268" y="1417">testng</text>
</g>
<g id="node6" class="node"><title>org.codehaus.jaxen/jaxen</title>
<ellipse cx="35" cy="1506" rx="29" ry="18" style="fill:#97f6ff;stroke:black;"/>
<text text-anchor="middle" x="35" y="1511">jaxen</text>
</g>
<g id="node9" class="node"><title>com.puppycrawl/checkstyle</title>
<ellipse cx="1332" cy="1228" rx="42" ry="18" style="fill:gold;stroke:black;"/>
<text text-anchor="middle" x="1332" y="1233">checkstyle</text>
</g>
<g id="node11" class="node"><title>org.antlr/antlr</title>
<ellipse cx="1427" cy="967" rx="27" ry="18" style="fill:gold;stroke:black;"/>
<text text-anchor="middle" x="1427" y="972">antlr</text>
</g>
<g id="edge8" class="edge"><title>com.puppycrawl/checkstyle&#45;&gt;org.antlr/antlr</title>
<path style="fill:none;stroke:black;" d="M1339,1210C1355,1165 1397,1047 1417,994"/>
<polygon style="fill:black;stroke:black;" points="1414,993 1421,985 1420,996 1414,993"/>
<text text-anchor="middle" x="1361" y="1104">2.7+</text>
</g>
<g id="node13" class="node"><title>org.apache.commons/commons&#45;cli</title>
<ellipse cx="1214" cy="1200" rx="49" ry="18" style="fill:gold;stroke:black;"/>
<text text-anchor="middle" x="1214" y="1205">commons&#45;cli</text>
</g>
<g id="edge10" class="edge"><title>com.puppycrawl/checkstyle&#45;&gt;org.apache.commons/commons&#45;cli</title>
<path style="fill:none;stroke:black;" d="M1295,1219C1285,1217 1275,1214 1265,1212"/>
<polygon style="fill:black;stroke:black;" points="1264,1215 1255,1210 1265,1209 1264,1215"/>
<text text-anchor="middle" x="1275" y="1231">[1.1,2.0[</text>
</g>
<g id="node15" class="node"><title>org.apache.commons/commons&#45;collections</title>
<ellipse cx="1299" cy="1505" rx="73" ry="18" style="fill:gold;stroke:black;"/>
<text text-anchor="middle" x="1299" y="1510">commons&#45;collections</text>
</g>
<g id="edge12" class="edge"><title>com.puppycrawl/checkstyle&#45;&gt;org.apache.commons/commons&#45;collections</title>
<path style="fill:none;stroke:black;" d="M1330,1246C1323,1293 1309,1420 1302,1477"/>
<polygon style="fill:black;stroke:black;" points="1305,1477 1301,1487 1299,1477 1305,1477"/>
<text text-anchor="middle" x="1299" y="1373">2.1+</text>
</g>
<g id="node17" class="node"><title>org.apache.commons/commons&#45;logging</title>
<ellipse cx="3096" cy="2545" rx="64" ry="18" style="fill:gold;stroke:black;"/>
<text text-anchor="middle" x="3096" y="2550">commons&#45;logging</text>
</g>
<g id="edge14" class="edge"><title>com.puppycrawl/checkstyle&#45;&gt;org.apache.commons/commons&#45;logging</title>
<path style="fill:none;stroke:black;" d="M1353,1244C1536,1379 2846,2359 3065,2522"/>
<polygon style="fill:black;stroke:black;" points="3067,2519 3073,2528 3063,2525 3067,2519"/>
<text text-anchor="middle" x="2213" y="1905">1+</text>
</g>
<g id="node19" class="node"><title>org.apache.commons/commons&#45;beanutils</title>
<ellipse cx="1426" cy="2043" rx="68" ry="18" style="fill:gold;stroke:black;"/>
<text text-anchor="middle" x="1426" y="2048">commons&#45;beanutils</text>
</g>
<g id="edge16" class="edge"><title>com.puppycrawl/checkstyle&#45;&gt;org.apache.commons/commons&#45;beanutils</title>
<path style="fill:none;stroke:black;" d="M1334,1246C1347,1351 1408,1886 1423,2015"/>
<polygon style="fill:black;stroke:black;" points="1426,2015 1424,2025 1420,2015 1426,2015"/>
<text text-anchor="middle" x="1364" y="1641">1.7+</text>
</g>
<g id="edge175" class="edge"><title>org.apache.commons/commons&#45;beanutils&#45;&gt;org.apache.commons/commons&#45;collections</title>
<path style="fill:none;stroke:black;" d="M1422,2025C1404,1946 1329,1630 1305,1533"/>
<polygon style="fill:black;stroke:black;" points="1302,1533 1303,1523 1308,1532 1302,1533"/>
<text text-anchor="middle" x="1349" y="1779">3.+</text>
</g>
<g id="edge173" class="edge"><title>org.apache.commons/commons&#45;beanutils&#45;&gt;org.apache.commons/commons&#45;logging</title>
<path style="fill:none;stroke:black;" d="M1471,2057C1706,2127 2788,2452 3042,2529"/>
<polygon style="fill:black;stroke:black;" points="3043,2526 3052,2532 3041,2532 3043,2526"/>
<text text-anchor="middle" x="2261" y="2288">[1.0,2.0[</text>
</g>
<g id="node22" class="node"><title>org.apache.oro/oro</title>
<ellipse cx="3148" cy="383" rx="27" ry="18" style="fill:#cda87d;stroke:black;"/>
<text text-anchor="middle" x="3148" y="388">oro</text>
</g>
<g id="node25" class="node"><title>org.apache.xml/xalan&#45;j</title>
<ellipse cx="4189" cy="1439" rx="33" ry="18" style="fill:aquamarine;stroke:black;"/>
<text text-anchor="middle" x="4189" y="1444">xalan&#45;j</text>
</g>
<g id="node27" class="node"><title>org.apache.xerces/xerces</title>
<ellipse cx="3689" cy="1368" rx="31" ry="18" style="fill:aquamarine;stroke:black;"/>
<text text-anchor="middle" x="3689" y="1373">xerces</text>
</g>
<g id="edge22" class="edge"><title>org.apache.xml/xalan&#45;j&#45;&gt;org.apache.xerces/xerces</title>
<path style="fill:none;stroke:black;" d="M4157,1434C4069,1422 3826,1388 3729,1373"/>
<polygon style="fill:black;stroke:black;" points="3729,1376 3719,1372 3729,1370 3729,1376"/>
<text text-anchor="middle" x="3937" y="1419">2.7+</text>
</g>
<g id="node32" class="node"><title>org.dom4j/dom4j</title>
<ellipse cx="3625" cy="1097" rx="31" ry="18" style="fill:darkorange;stroke:black;"/>
<text text-anchor="middle" x="3625" y="1102">dom4j</text>
</g>
<g id="edge28" class="edge"><title>org.dom4j/dom4j&#45;&gt;org.apache.xerces/xerces</title>
<path style="fill:none;stroke:black;" d="M3629,1115C3640,1162 3669,1285 3683,1340"/>
<polygon style="fill:black;stroke:black;" points="3686,1340 3685,1350 3680,1341 3686,1340"/>
<text text-anchor="middle" x="3629" y="1238">[2.5,3.0[</text>
</g>
<g id="node36" class="node"><title>org.jboss/javassist</title>
<ellipse cx="4542" cy="400" rx="37" ry="18" style="fill:#bd3eff;stroke:black;"/>
<text text-anchor="middle" x="4542" y="405">javassist</text>
</g>
<g id="node39" class="node"><title>net.sourceforge.jsr107cache/jsr107cache</title>
<ellipse cx="3807" cy="1660" rx="47" ry="18" style="fill:#97f6ff;stroke:black;"/>
<text text-anchor="middle" x="3807" y="1665">jsr107cache</text>
</g>
<g id="node42" class="node"><title>org.mortbay/jetty</title>
<ellipse cx="1873" cy="2711" rx="27" ry="18" style="fill:gold;stroke:black;"/>
<text text-anchor="middle" x="1873" y="2716">jetty</text>
</g>
<g id="node45" class="node"><title>org.mozilla/rhino</title>
<ellipse cx="4232" cy="1233" rx="28" ry="18" style="fill:#cda87d;stroke:black;"/>
<text text-anchor="middle" x="4232" y="1238">rhino</text>
</g>
<g id="node48" class="node"><title>org.apache.xmlgraphics/batik</title>
<ellipse cx="4106" cy="1253" rx="27" ry="18" style="fill:aquamarine;stroke:black;"/>
<text text-anchor="middle" x="4106" y="1258">batik</text>
</g>
<g id="edge42" class="edge"><title>org.apache.xmlgraphics/batik&#45;&gt;org.apache.xerces/xerces</title>
<path style="fill:none;stroke:black;" d="M4081,1260C4011,1279 3811,1334 3727,1357"/>
<polygon style="fill:black;stroke:black;" points="3728,1360 3717,1360 3726,1354 3728,1360"/>
<text text-anchor="middle" x="3898" y="1304">2.5+</text>
</g>
<g id="edge40" class="edge"><title>org.apache.xmlgraphics/batik&#45;&gt;org.mozilla/rhino</title>
<path style="fill:none;stroke:black;" d="M4132,1249C4150,1246 4175,1242 4195,1239"/>
<polygon style="fill:black;stroke:black;" points="4195,1236 4205,1237 4196,1242 4195,1236"/>
<text text-anchor="middle" x="4167" y="1259">1.+</text>
</g>
<g id="node53" class="node"><title>com.opensymphony/oscache</title>
<ellipse cx="3320" cy="2379" rx="35" ry="18" style="fill:cyan;stroke:black;"/>
<text text-anchor="middle" x="3320" y="2384">oscache</text>
</g>
<g id="edge46" class="edge"><title>com.opensymphony/oscache&#45;&gt;org.apache.commons/commons&#45;logging</title>
<path style="fill:none;stroke:black;" d="M3300,2394C3260,2423 3174,2487 3127,2522"/>
<polygon style="fill:black;stroke:black;" points="3129,2525 3119,2528 3125,2519 3129,2525"/>
<text text-anchor="middle" x="3209" y="2451">[1.1,2.0[</text>
</g>
<g id="node56" class="node"><title>org.jgroups/jgroups</title>
<ellipse cx="3499" cy="2166" rx="35" ry="18" style="fill:cyan;stroke:black;"/>
<text text-anchor="middle" x="3499" y="2171">jgroups</text>
</g>
<g id="edge48" class="edge"><title>com.opensymphony/oscache&#45;&gt;org.jgroups/jgroups</title>
<path style="fill:none;stroke:black;" d="M3334,2362C3365,2324 3442,2234 3478,2191"/>
<polygon style="fill:black;stroke:black;" points="3476,2188 3485,2183 3481,2193 3476,2188"/>
<text text-anchor="middle" x="3376" y="2279">[2.2,3.0[</text>
</g>
<g id="edge159" class="edge"><title>org.jgroups/jgroups&#45;&gt;org.apache.commons/commons&#45;logging</title>
<path style="fill:none;stroke:black;" d="M3482,2182C3419,2241 3198,2449 3122,2520"/>
<polygon style="fill:black;stroke:black;" points="3125,2522 3115,2527 3120,2517 3125,2522"/>
<text text-anchor="middle" x="3297" y="2343">1.1+</text>
</g>
<g id="node59" class="node"><title>net.sourceforge.gwt&#45;widget/gwt&#45;sl</title>
<ellipse cx="2144" cy="1412" rx="30" ry="18" style="fill:darkorange;stroke:black;"/>
<text text-anchor="middle" x="2144" y="1417">gwt&#45;sl</text>
</g>
<g id="node62" class="node"><title>com.mysql/mysql&#45;connector&#45;java</title>
<ellipse cx="2559" cy="1536" rx="73" ry="18" style="fill:#bd3eff;stroke:black;"/>
<text text-anchor="middle" x="2559" y="1541">mysql&#45;connector&#45;java</text>
</g>
<g id="node65" class="node"><title>org.aopalliance/aopalliance</title>
<ellipse cx="2289" cy="2686" rx="45" ry="18" style="fill:#97f6ff;stroke:black;"/>
<text text-anchor="middle" x="2289" y="2691">aopalliance</text>
</g>
<g id="node68" class="node"><title>javax.management/jmx</title>
<ellipse cx="3774" cy="355" rx="27" ry="18" style="fill:gold;stroke:black;"/>
<text text-anchor="middle" x="3774" y="360">jmx</text>
</g>
<g id="node70" class="node"><title>javax.management/jmxremote</title>
<ellipse cx="2406" cy="1784" rx="44" ry="18" style="fill:gold;stroke:black;"/>
<text text-anchor="middle" x="2406" y="1789">jmxremote</text>
</g>
<g id="node73" class="node"><title>javax.mail/javamail</title>
<ellipse cx="3591" cy="262" rx="38" ry="18" style="fill:#cda87d;stroke:black;"/>
<text text-anchor="middle" x="3591" y="267">javamail</text>
</g>
<g id="node75" class="node"><title>javax.activation/jaf</title>
<ellipse cx="3681" cy="159" rx="27" ry="18" style="fill:#cda87d;stroke:black;"/>
<text text-anchor="middle" x="3681" y="164">jaf</text>
</g>
<g id="edge61" class="edge"><title>javax.mail/javamail&#45;&gt;javax.activation/jaf</title>
<path style="fill:none;stroke:black;" d="M3606,245C3621,228 3644,202 3660,183"/>
<polygon style="fill:black;stroke:black;" points="3658,180 3667,175 3663,185 3658,180"/>
<text text-anchor="middle" x="3672" y="216">[1.1.1,2.0[</text>
</g>
<g id="node78" class="node"><title>org.hibernate/hibernate&#45;entitymanager</title>
<ellipse cx="1581" cy="735" rx="82" ry="18" style="fill:aquamarine;stroke:black;"/>
<text text-anchor="middle" x="1581" y="740">hibernate&#45;entitymanager</text>
</g>
<g id="node80" class="node"><title>org.hibernate/hibernate</title>
<ellipse cx="3500" cy="848" rx="40" ry="18" style="fill:aquamarine;stroke:black;"/>
<text text-anchor="middle" x="3500" y="853">hibernate</text>
</g>
<g id="edge65" class="edge"><title>org.hibernate/hibernate&#45;entitymanager&#45;&gt;org.hibernate/hibernate</title>
<path style="fill:none;stroke:black;" d="M1660,740C1984,759 3188,830 3450,845"/>
<polygon style="fill:black;stroke:black;" points="3450,842 3460,846 3450,848 3450,842"/>
<text text-anchor="middle" x="2578" y="809">[3.2.0,4.0[</text>
</g>
<g id="node82" class="node"><title>org.hibernate/hibernate&#45;commons&#45;annotations</title>
<ellipse cx="1783" cy="544" rx="103" ry="18" style="fill:aquamarine;stroke:black;"/>
<text text-anchor="middle" x="1783" y="549">hibernate&#45;commons&#45;annotations</text>
</g>
<g id="edge67" class="edge"><title>org.hibernate/hibernate&#45;entitymanager&#45;&gt;org.hibernate/hibernate&#45;commons&#45;annotations</title>
<path style="fill:none;stroke:black;" d="M1600,717C1636,683 1716,608 1757,569"/>
<polygon style="fill:black;stroke:black;" points="1754,567 1764,562 1759,572 1754,567"/>
<text text-anchor="middle" x="1682" y="662">[3.0.0,4.0[</text>
</g>
<g id="node84" class="node"><title>org.hibernate/hibernate&#45;annotations</title>
<ellipse cx="2024" cy="405" rx="74" ry="18" style="fill:aquamarine;stroke:black;"/>
<text text-anchor="middle" x="2024" y="410">hibernate&#45;annotations</text>
</g>
<g id="edge69" class="edge"><title>org.hibernate/hibernate&#45;entitymanager&#45;&gt;org.hibernate/hibernate&#45;annotations</title>
<path style="fill:none;stroke:black;" d="M1599,717C1667,662 1897,490 1987,428"/>
<polygon style="fill:black;stroke:black;" points="1986,425 1996,422 1990,430 1986,425"/>
<text text-anchor="middle" x="1794" y="558">[3.3.1,4.0[</text>
</g>
<g id="node86" class="node"><title>org.hibernate/hibernate&#45;validator</title>
<ellipse cx="2291" cy="325" rx="66" ry="18" style="fill:aquamarine;stroke:black;"/>
<text text-anchor="middle" x="2291" y="330">hibernate&#45;validator</text>
</g>
<g id="edge71" class="edge"><title>org.hibernate/hibernate&#45;entitymanager&#45;&gt;org.hibernate/hibernate&#45;validator</title>
<path style="fill:none;stroke:black;" d="M1606,718C1710,652 2117,416 2249,346"/>
<polygon style="fill:black;stroke:black;" points="2248,343 2258,341 2251,349 2248,343"/>
<text text-anchor="middle" x="1929" y="518">[3.0.0,4.0[</text>
</g>
<g id="edge98" class="edge"><title>org.hibernate/hibernate&#45;&gt;org.codehaus.jaxen/jaxen</title>
<path style="fill:none;stroke:black;" d="M3463,855C3117,921 425,1432 73,1499"/>
<polygon style="fill:black;stroke:black;" points="73,1502 63,1501 72,1496 73,1502"/>
<text text-anchor="middle" x="1763" y="1173">[1.1,1.2[</text>
</g>
<g id="edge92" class="edge"><title>org.hibernate/hibernate&#45;&gt;org.antlr/antlr</title>
<path style="fill:none;stroke:black;" d="M3460,850C3197,866 1719,951 1464,964"/>
<polygon style="fill:black;stroke:black;" points="1464,967 1454,965 1464,961 1464,967"/>
<text text-anchor="middle" x="2457" y="923">[2.7.6,2.8[</text>
</g>
<g id="edge79" class="edge"><title>org.hibernate/hibernate&#45;&gt;org.apache.commons/commons&#45;collections</title>
<path style="fill:none;stroke:black;" d="M3466,858C3218,932 1673,1393 1356,1488"/>
<polygon style="fill:black;stroke:black;" points="1357,1491 1346,1491 1355,1485 1357,1491"/>
<text text-anchor="middle" x="2406" y="1191">[2.1.1,3.0[</text>
</g>
<g id="edge81" class="edge"><title>org.hibernate/hibernate&#45;&gt;org.apache.commons/commons&#45;logging</title>
<path style="fill:none;stroke:black;" d="M3496,866C3457,1032 3152,2311 3102,2517"/>
<polygon style="fill:black;stroke:black;" points="3105,2518 3100,2527 3099,2517 3105,2518"/>
<text text-anchor="middle" x="3330" y="1702">[1.0.4,1.2[</text>
</g>
<g id="edge85" class="edge"><title>org.hibernate/hibernate&#45;&gt;org.apache.xerces/xerces</title>
<path style="fill:none;stroke:black;" d="M3507,866C3535,943 3646,1247 3680,1340"/>
<polygon style="fill:black;stroke:black;" points="3683,1339 3683,1350 3677,1341 3683,1339"/>
<text text-anchor="middle" x="3567" y="1113">[2.5,3.0[</text>
</g>
<g id="edge83" class="edge"><title>org.hibernate/hibernate&#45;&gt;org.dom4j/dom4j</title>
<path style="fill:none;stroke:black;" d="M3509,866C3531,909 3587,1020 3612,1071"/>
<polygon style="fill:black;stroke:black;" points="3615,1069 3616,1080 3609,1072 3615,1069"/>
<text text-anchor="middle" x="3582" y="978">1.6.1</text>
</g>
<g id="edge96" class="edge"><title>org.hibernate/hibernate&#45;&gt;org.jboss/javassist</title>
<path style="fill:none;stroke:black;" d="M3529,836C3676,772 4340,486 4505,416"/>
<polygon style="fill:black;stroke:black;" points="4503,413 4514,412 4506,419 4503,413"/>
<text text-anchor="middle" x="4021" y="617">[3.4,4.0[</text>
</g>
<g id="edge104" class="edge"><title>org.hibernate/hibernate&#45;&gt;com.opensymphony/oscache</title>
<path style="fill:none;stroke:black;" d="M3498,866C3479,1023 3346,2158 3323,2351"/>
<polygon style="fill:black;stroke:black;" points="3326,2351 3322,2361 3320,2351 3326,2351"/>
<text text-anchor="middle" x="3383" y="1620">[2.1,3.0[</text>
</g>
<g id="edge106" class="edge"><title>org.hibernate/hibernate&#45;&gt;org.jgroups/jgroups</title>
<path style="fill:none;stroke:black;" d="M3500,866C3500,1009 3499,1962 3499,2138"/>
<polygon style="fill:black;stroke:black;" points="3503,2138 3499,2148 3496,2138 3503,2138"/>
<text text-anchor="middle" x="3468" y="1512">[2.2.8,3.0[</text>
</g>
<g id="node90" class="node"><title>net.sourceforge.ehcache/ehcache</title>
<ellipse cx="3688" cy="1646" rx="36" ry="18" style="fill:aquamarine;stroke:black;"/>
<text text-anchor="middle" x="3688" y="1651">ehcache</text>
</g>
<g id="edge75" class="edge"><title>org.hibernate/hibernate&#45;&gt;net.sourceforge.ehcache/ehcache</title>
<path style="fill:none;stroke:black;" d="M3504,866C3528,970 3651,1491 3682,1618"/>
<polygon style="fill:black;stroke:black;" points="3685,1618 3684,1628 3679,1619 3685,1618"/>
<text text-anchor="middle" x="3576" y="1253">1.2.3</text>
</g>
<g id="node92" class="node"><title>javax.transaction/jta</title>
<ellipse cx="4474" cy="282" rx="27" ry="18" style="fill:aquamarine;stroke:black;"/>
<text text-anchor="middle" x="4474" y="287">jta</text>
</g>
<g id="edge77" class="edge"><title>org.hibernate/hibernate&#45;&gt;javax.transaction/jta</title>
<path style="fill:none;stroke:black;" d="M3525,834C3659,756 4299,383 4444,299"/>
<polygon style="fill:black;stroke:black;" points="4443,296 4453,294 4446,302 4443,296"/>
<text text-anchor="middle" x="3988" y="556">1.1</text>
</g>
<g id="node99" class="node"><title>net.sourceforge.cglib/cglib</title>
<ellipse cx="2569" cy="309" rx="27" ry="18" style="fill:aquamarine;stroke:black;"/>
<text text-anchor="middle" x="2569" y="314">cglib</text>
</g>
<g id="edge88" class="edge"><title>org.hibernate/hibernate&#45;&gt;net.sourceforge.cglib/cglib</title>
<path style="fill:none;stroke:black;" d="M3475,834C3344,758 2739,407 2598,326"/>
<polygon style="fill:black;stroke:black;" points="2596,329 2589,321 2599,323 2596,329"/>
<text text-anchor="middle" x="3032" y="597">2.1.3+</text>
</g>
<g id="node101" class="node"><title>org.apache.log4j/log4j</title>
<ellipse cx="3321" cy="635" rx="27" ry="18" style="fill:aquamarine;stroke:black;"/>
<text text-anchor="middle" x="3321" y="640">log4j</text>
</g>
<g id="edge90" class="edge"><title>org.hibernate/hibernate&#45;&gt;org.apache.log4j/log4j</title>
<path style="fill:none;stroke:black;" d="M3486,831C3454,792 3377,702 3341,659"/>
<polygon style="fill:black;stroke:black;" points="3338,661 3334,651 3343,656 3338,661"/>
<text text-anchor="middle" x="3379" y="747">[1.2,1.3[</text>
</g>
<g id="node104" class="node"><title>net.sourceforge.c3p0/c3p0</title>
<ellipse cx="4405" cy="177" rx="27" ry="18" style="fill:aquamarine;stroke:black;"/>
<text text-anchor="middle" x="4405" y="182">c3p0</text>
</g>
<g id="edge94" class="edge"><title>org.hibernate/hibernate&#45;&gt;net.sourceforge.c3p0/c3p0</title>
<path style="fill:none;stroke:black;" d="M3521,832C3641,743 4244,296 4379,197"/>
<polygon style="fill:black;stroke:black;" points="4377,194 4387,191 4381,200 4377,194"/>
<text text-anchor="middle" x="3954" y="532">[0.9.1,2.0[</text>
</g>
<g id="node108" class="node"><title>net.sourceforge.proxool/proxool</title>
<ellipse cx="4325" cy="69" rx="35" ry="18" style="fill:aquamarine;stroke:black;"/>
<text text-anchor="middle" x="4325" y="74">proxool</text>
</g>
<g id="edge100" class="edge"><title>org.hibernate/hibernate&#45;&gt;net.sourceforge.proxool/proxool</title>
<path style="fill:none;stroke:black;" d="M3517,832C3623,732 4177,208 4301,92"/>
<polygon style="fill:black;stroke:black;" points="4298,90 4308,85 4303,95 4298,90"/>
<text text-anchor="middle" x="3912" y="481">[0.8.3,1.1[</text>
</g>
<g id="node110" class="node"><title>net.sourceforge.swarmcache/swarmcache</title>
<ellipse cx="3624" cy="1917" rx="47" ry="18" style="fill:aquamarine;stroke:black;"/>
<text text-anchor="middle" x="3624" y="1922">swarmcache</text>
</g>
<g id="edge102" class="edge"><title>org.hibernate/hibernate&#45;&gt;net.sourceforge.swarmcache/swarmcache</title>
<path style="fill:none;stroke:black;" d="M3502,866C3517,992 3603,1734 3621,1889"/>
<polygon style="fill:black;stroke:black;" points="3624,1889 3622,1899 3618,1889 3624,1889"/>
<text text-anchor="middle" x="3523" y="1389">[1.0RC2,2.0[</text>
</g>
<g id="edge121" class="edge"><title>org.hibernate/hibernate&#45;annotations&#45;&gt;org.hibernate/hibernate&#45;entitymanager</title>
<path style="fill:none;stroke:black;" d="M2005,423C1937,478 1707,650 1617,712"/>
<polygon style="fill:black;stroke:black;" points="1619,715 1609,718 1615,709 1619,715"/>
<text text-anchor="middle" x="1808" y="593">[3.3.2,4.0[</text>
</g>
<g id="edge117" class="edge"><title>org.hibernate/hibernate&#45;annotations&#45;&gt;org.hibernate/hibernate</title>
<path style="fill:none;stroke:black;" d="M2071,419C2293,485 3243,771 3457,835"/>
<polygon style="fill:black;stroke:black;" points="3458,832 3467,838 3456,838 3458,832"/>
<text text-anchor="middle" x="2768" y="645">[3.2.0,4.0[</text>
</g>
<g id="edge119" class="edge"><title>org.hibernate/hibernate&#45;annotations&#45;&gt;org.hibernate/hibernate&#45;commons&#45;annotations</title>
<path style="fill:none;stroke:black;" d="M1995,422C1952,447 1870,494 1822,522"/>
<polygon style="fill:black;stroke:black;" points="1823,525 1813,527 1820,519 1823,525"/>
<text text-anchor="middle" x="1903" y="466">[3.0.0,4.0[</text>
</g>
<g id="edge123" class="edge"><title>org.hibernate/hibernate&#45;annotations&#45;&gt;org.hibernate/hibernate&#45;validator</title>
<path style="fill:none;stroke:black;" d="M2071,391C2117,377 2188,356 2236,341"/>
<polygon style="fill:black;stroke:black;" points="2235,338 2246,338 2237,344 2235,338"/>
<text text-anchor="middle" x="2158" y="381">[3.0.0,4.0[</text>
</g>
<g id="edge113" class="edge"><title>org.hibernate/hibernate&#45;validator&#45;&gt;org.hibernate/hibernate&#45;entitymanager</title>
<path style="fill:none;stroke:black;" d="M2267,342C2163,407 1760,642 1625,714"/>
<polygon style="fill:black;stroke:black;" points="1626,717 1616,719 1623,711 1626,717"/>
<text text-anchor="middle" x="1942" y="554">[3.3.2,4.0[</text>
</g>
<g id="edge109" class="edge"><title>org.hibernate/hibernate&#45;validator&#45;&gt;org.hibernate/hibernate</title>
<path style="fill:none;stroke:black;" d="M2326,340C2502,416 3280,753 3462,832"/>
<polygon style="fill:black;stroke:black;" points="3463,829 3471,836 3460,835 3463,829"/>
<text text-anchor="middle" x="2898" y="605">[3.2.0,4.0[</text>
</g>
<g id="edge111" class="edge"><title>org.hibernate/hibernate&#45;validator&#45;&gt;org.hibernate/hibernate&#45;commons&#45;annotations</title>
<path style="fill:none;stroke:black;" d="M2256,340C2166,379 1932,479 1831,523"/>
<polygon style="fill:black;stroke:black;" points="1833,526 1822,527 1830,520 1833,526"/>
<text text-anchor="middle" x="2038" y="451">[3.0.0,4.0[</text>
</g>
<g id="edge249" class="edge"><title>net.sourceforge.ehcache/ehcache&#45;&gt;org.apache.commons/commons&#45;collections</title>
<path style="fill:none;stroke:black;" d="M3652,1644C3388,1628 1765,1533 1380,1510"/>
<polygon style="fill:black;stroke:black;" points="1380,1513 1370,1509 1380,1507 1380,1513"/>
<text text-anchor="middle" x="2511" y="1591">2.1.1</text>
</g>
<g id="edge247" class="edge"><title>net.sourceforge.ehcache/ehcache&#45;&gt;org.apache.commons/commons&#45;logging</title>
<path style="fill:none;stroke:black;" d="M3677,1663C3604,1773 3202,2385 3114,2519"/>
<polygon style="fill:black;stroke:black;" points="3117,2521 3108,2527 3111,2517 3117,2521"/>
<text text-anchor="middle" x="3373" y="2100">1.1+</text>
</g>
<g id="edge251" class="edge"><title>net.sourceforge.ehcache/ehcache&#45;&gt;org.apache.xerces/xerces</title>
<path style="fill:none;stroke:black;" d="M3688,1628C3688,1581 3689,1454 3689,1396"/>
<polygon style="fill:black;stroke:black;" points="3686,1396 3689,1386 3693,1396 3686,1396"/>
<text text-anchor="middle" x="3672" y="1512">2.5.0</text>
</g>
<g id="edge254" class="edge"><title>net.sourceforge.ehcache/ehcache&#45;&gt;net.sourceforge.jsr107cache/jsr107cache</title>
<path style="fill:none;stroke:black;" d="M3723,1650C3732,1651 3742,1652 3752,1654"/>
<polygon style="fill:black;stroke:black;" points="3752,1651 3762,1655 3752,1657 3752,1651"/>
<text text-anchor="middle" x="3741" y="1668">1.0+</text>
</g>
<g id="node162" class="node"><title>org.objectweb.asm/asm</title>
<ellipse cx="2843" cy="358" rx="27" ry="18" style="fill:cyan;stroke:black;"/>
<text text-anchor="middle" x="2843" y="363">asm</text>
</g>
<g id="edge233" class="edge"><title>net.sourceforge.cglib/cglib&#45;&gt;org.objectweb.asm/asm</title>
<path style="fill:none;stroke:black;" d="M2595,314C2645,322 2751,342 2807,351"/>
<polygon style="fill:black;stroke:black;" points="2808,348 2817,353 2807,354 2808,348"/>
<text text-anchor="middle" x="2706" y="349">1.5.3</text>
</g>
<g id="edge221" class="edge"><title>org.apache.log4j/log4j&#45;&gt;javax.management/jmx</title>
<path style="fill:none;stroke:black;" d="M3341,623C3413,578 3661,425 3745,372"/>
<polygon style="fill:black;stroke:black;" points="3744,369 3754,367 3747,375 3744,369"/>
<text text-anchor="middle" x="3547" y="515">[1.2.1,2.0[</text>
</g>
<g id="edge217" class="edge"><title>org.apache.log4j/log4j&#45;&gt;javax.mail/javamail</title>
<path style="fill:none;stroke:black;" d="M3333,618C3375,560 3520,359 3573,287"/>
<polygon style="fill:black;stroke:black;" points="3570,285 3579,279 3576,289 3570,285"/>
<text text-anchor="middle" x="3424" y="454">[1.4,2.0[</text>
</g>
<g id="node142" class="node"><title>javax.jms/jms</title>
<ellipse cx="2841" cy="2655" rx="27" ry="18" style="fill:cyan;stroke:black;"/>
<text text-anchor="middle" x="2841" y="2660">jms</text>
</g>
<g id="edge219" class="edge"><title>org.apache.log4j/log4j&#45;&gt;javax.jms/jms</title>
<path style="fill:none;stroke:black;" d="M3317,653C3273,839 2902,2399 2847,2627"/>
<polygon style="fill:black;stroke:black;" points="2850,2628 2845,2637 2844,2627 2850,2628"/>
<text text-anchor="middle" x="3055" y="1650">[1.1,2.0[</text>
</g>
<g id="edge225" class="edge"><title>net.sourceforge.swarmcache/swarmcache&#45;&gt;org.apache.commons/commons&#45;collections</title>
<path style="fill:none;stroke:black;" d="M3581,1909C3300,1859 1720,1580 1368,1518"/>
<polygon style="fill:black;stroke:black;" points="1367,1521 1358,1516 1368,1515 1367,1521"/>
<text text-anchor="middle" x="2469" y="1728">[2.1,3.0[</text>
</g>
<g id="edge227" class="edge"><title>net.sourceforge.swarmcache/swarmcache&#45;&gt;org.apache.commons/commons&#45;logging</title>
<path style="fill:none;stroke:black;" d="M3609,1934C3535,2023 3205,2415 3118,2519"/>
<polygon style="fill:black;stroke:black;" points="3120,2522 3111,2527 3115,2517 3120,2522"/>
<text text-anchor="middle" x="3328" y="2236">[1.1,2.0[</text>
</g>
<g id="edge229" class="edge"><title>net.sourceforge.swarmcache/swarmcache&#45;&gt;org.jgroups/jgroups</title>
<path style="fill:none;stroke:black;" d="M3615,1935C3593,1978 3538,2088 3513,2139"/>
<polygon style="fill:black;stroke:black;" points="3516,2141 3508,2148 3510,2138 3516,2141"/>
<text text-anchor="middle" x="3530" y="2048">[2.2,3.0[</text>
</g>
<g id="node118" class="node"><title>org.hibernate/hibernate&#45;tools</title>
<ellipse cx="2541" cy="1288" rx="55" ry="18" style="fill:aquamarine;stroke:black;"/>
<text text-anchor="middle" x="2541" y="1293">hibernate&#45;tools</text>
</g>
<g id="node126" class="node"><title>org.springframework/spring&#45;security</title>
<ellipse cx="2022" cy="2606" rx="55" ry="18" style="fill:cyan;stroke:black;"/>
<text text-anchor="middle" x="2022" y="2611">spring&#45;security</text>
</g>
<g id="edge139" class="edge"><title>org.springframework/spring&#45;security&#45;&gt;org.codehaus.jaxen/jaxen</title>
<path style="fill:none;stroke:black;" d="M1994,2590C1771,2468 298,1652 66,1523"/>
<polygon style="fill:black;stroke:black;" points="64,1526 57,1518 67,1520 64,1526"/>
<text text-anchor="middle" x="1024" y="2073">[1.1.1,2.0[</text>
</g>
<g id="edge133" class="edge"><title>org.springframework/spring&#45;security&#45;&gt;org.apache.commons/commons&#45;collections</title>
<path style="fill:none;stroke:black;" d="M2010,2588C1927,2462 1417,1685 1317,1531"/>
<polygon style="fill:black;stroke:black;" points="1314,1533 1311,1523 1320,1529 1314,1533"/>
<text text-anchor="middle" x="1629" y="2061">[3.2,4.0[</text>
</g>
<g id="edge131" class="edge"><title>org.springframework/spring&#45;security&#45;&gt;org.apache.commons/commons&#45;logging</title>
<path style="fill:none;stroke:black;" d="M2076,2603C2255,2593 2820,2561 3023,2550"/>
<polygon style="fill:black;stroke:black;" points="3023,2547 3033,2549 3023,2553 3023,2547"/>
<text text-anchor="middle" x="2553" y="2591">[1.1.1,2.0[</text>
</g>
<g id="edge141" class="edge"><title>org.springframework/spring&#45;security&#45;&gt;org.mortbay/jetty</title>
<path style="fill:none;stroke:black;" d="M1999,2622C1972,2641 1929,2672 1901,2692"/>
<polygon style="fill:black;stroke:black;" points="1902,2695 1892,2698 1898,2690 1902,2695"/>
<text text-anchor="middle" x="1945" y="2681">[4.2.22,)</text>
</g>
<g id="edge127" class="edge"><title>org.springframework/spring&#45;security&#45;&gt;org.aopalliance/aopalliance</title>
<path style="fill:none;stroke:black;" d="M2063,2618C2112,2633 2192,2657 2243,2672"/>
<polygon style="fill:black;stroke:black;" points="2244,2669 2253,2675 2242,2675 2244,2669"/>
<text text-anchor="middle" x="2158" y="2663">1.+</text>
</g>
<g id="node129" class="node"><title>org.springframework/spring</title>
<ellipse cx="2566" cy="2703" rx="31" ry="18" style="fill:cyan;stroke:black;"/>
<text text-anchor="middle" x="2566" y="2708">spring</text>
</g>
<g id="edge129" class="edge"><title>org.springframework/spring&#45;security&#45;&gt;org.springframework/spring</title>
<path style="fill:none;stroke:black;" d="M2071,2615C2177,2634 2428,2679 2526,2696"/>
<polygon style="fill:black;stroke:black;" points="2527,2693 2536,2698 2526,2699 2527,2693"/>
<text text-anchor="middle" x="2303" y="2672">[2.5.3,3.0[</text>
</g>
<g id="node133" class="node"><title>org.apache.commons/commons&#45;codec</title>
<ellipse cx="2017" cy="2776" rx="59" ry="18" style="fill:cyan;stroke:black;"/>
<text text-anchor="middle" x="2017" y="2781">commons&#45;codec</text>
</g>
<g id="edge135" class="edge"><title>org.springframework/spring&#45;security&#45;&gt;org.apache.commons/commons&#45;codec</title>
<path style="fill:none;stroke:black;" d="M2021,2624C2020,2654 2018,2713 2017,2748"/>
<polygon style="fill:black;stroke:black;" points="2021,2748 2017,2758 2014,2748 2021,2748"/>
<text text-anchor="middle" x="1992" y="2696">[1.3,2.0[</text>
</g>
<g id="node135" class="node"><title>org.apache.commons/commons&#45;lang</title>
<ellipse cx="1781" cy="2467" rx="54" ry="18" style="fill:cyan;stroke:black;"/>
<text text-anchor="middle" x="1781" y="2472">commons&#45;lang</text>
</g>
<g id="edge137" class="edge"><title>org.springframework/spring&#45;security&#45;&gt;org.apache.commons/commons&#45;lang</title>
<path style="fill:none;stroke:black;" d="M1995,2590C1952,2565 1866,2515 1817,2488"/>
<polygon style="fill:black;stroke:black;" points="1815,2491 1808,2483 1818,2485 1815,2491"/>
<text text-anchor="middle" x="1901" y="2527">[2.4,3.0[</text>
</g>
<g id="edge146" class="edge"><title>org.springframework/spring&#45;&gt;org.apache.commons/commons&#45;logging</title>
<path style="fill:none;stroke:black;" d="M2594,2695C2678,2670 2931,2595 3042,2561"/>
<polygon style="fill:black;stroke:black;" points="3041,2558 3052,2558 3043,2564 3041,2558"/>
<text text-anchor="middle" x="2823" y="2643">1.+</text>
</g>
<g id="edge144" class="edge"><title>org.springframework/spring&#45;&gt;org.aopalliance/aopalliance</title>
<path style="fill:none;stroke:black;" d="M2535,2701C2489,2698 2401,2693 2343,2690"/>
<polygon style="fill:black;stroke:black;" points="2343,2693 2333,2689 2343,2687 2343,2693"/>
<text text-anchor="middle" x="2433" y="2709">1.+</text>
</g>
<g id="edge148" class="edge"><title>org.springframework/spring&#45;&gt;javax.jms/jms</title>
<path style="fill:none;stroke:black;" d="M2596,2698C2647,2689 2750,2670 2805,2662"/>
<polygon style="fill:black;stroke:black;" points="2805,2659 2815,2660 2806,2665 2805,2659"/>
<text text-anchor="middle" x="2704" y="2674">1.+</text>
</g>
<g id="node150" class="node"><title>com.google/gwt</title>
<ellipse cx="2761" cy="1536" rx="27" ry="18" style="fill:#bd3eff;stroke:black;"/>
<text text-anchor="middle" x="2761" y="1541">gwt</text>
</g>
<g id="node171" class="node"><title>org.apache.commons/commons&#45;dbcp</title>
<ellipse cx="2418" cy="1412" rx="56" ry="18" style="fill:darkorange;stroke:black;"/>
<text text-anchor="middle" x="2418" y="1417">commons&#45;dbcp</text>
</g>
<g id="node173" class="node"><title>org.apache.commons/commons&#45;pool</title>
<ellipse cx="2601" cy="1412" rx="55" ry="18" style="fill:darkorange;stroke:black;"/>
<text text-anchor="middle" x="2601" y="1417">commons&#45;pool</text>
</g>
<g id="edge179" class="edge"><title>org.apache.commons/commons&#45;dbcp&#45;&gt;org.apache.commons/commons&#45;pool</title>
<path style="fill:none;stroke:black;" d="M2474,1412C2494,1412 2516,1412 2536,1412"/>
<polygon style="fill:black;stroke:black;" points="2536,1408 2546,1412 2536,1415 2536,1408"/>
<text text-anchor="middle" x="2509" y="1426">1.3+</text>
</g>
<g id="node181" class="node"><title>org.apache.commons/commons&#45;email</title>
<ellipse cx="2668" cy="1288" rx="58" ry="18" style="fill:darkorange;stroke:black;"/>
<text text-anchor="middle" x="2668" y="1293">commons&#45;email</text>
</g>
<g id="node183" class="node"><title>org.apache.commons/commons&#45;digester</title>
<ellipse cx="1331" cy="1781" rx="64" ry="18" style="fill:darkorange;stroke:black;"/>
<text text-anchor="middle" x="1331" y="1786">commons&#45;digester</text>
</g>
<g id="edge193" class="edge"><title>org.apache.commons/commons&#45;digester&#45;&gt;org.apache.commons/commons&#45;collections</title>
<path style="fill:none;stroke:black;" d="M1329,1763C1323,1716 1309,1590 1302,1533"/>
<polygon style="fill:black;stroke:black;" points="1299,1533 1301,1523 1305,1533 1299,1533"/>
<text text-anchor="middle" x="1288" y="1649">[2.0,4.0[</text>
</g>
<g id="edge189" class="edge"><title>org.apache.commons/commons&#45;digester&#45;&gt;org.apache.commons/commons&#45;logging</title>
<path style="fill:none;stroke:black;" d="M1366,1796C1589,1893 2803,2418 3052,2526"/>
<polygon style="fill:black;stroke:black;" points="3053,2523 3061,2530 3050,2529 3053,2523"/>
<text text-anchor="middle" x="2213" y="2180">1.1+</text>
</g>
<g id="edge191" class="edge"><title>org.apache.commons/commons&#45;digester&#45;&gt;org.apache.commons/commons&#45;beanutils</title>
<path style="fill:none;stroke:black;" d="M1338,1799C1354,1844 1396,1962 1416,2015"/>
<polygon style="fill:black;stroke:black;" points="1419,2014 1419,2025 1413,2016 1419,2014"/>
<text text-anchor="middle" x="1350" y="1917">[1.7,2.0]</text>
</g>
<g id="node201" class="node"><title>net.sourceforge.cobertura/cobertura</title>
<ellipse cx="3098" cy="469" rx="39" ry="18" style="fill:#bd3eff;stroke:black;"/>
<text text-anchor="middle" x="3098" y="474">cobertura</text>
</g>
<g id="edge211" class="edge"><title>net.sourceforge.cobertura/cobertura&#45;&gt;org.apache.oro/oro</title>
<path style="fill:none;stroke:black;" d="M3108,452C3115,439 3125,423 3133,409"/>
<polygon style="fill:black;stroke:black;" points="3130,407 3138,400 3136,410 3130,407"/>
<text text-anchor="middle" x="3159" y="432">[2.0.8,3.0[</text>
</g>
<g id="edge209" class="edge"><title>net.sourceforge.cobertura/cobertura&#45;&gt;org.apache.log4j/log4j</title>
<path style="fill:none;stroke:black;" d="M3119,484C3159,514 3250,582 3295,616"/>
<polygon style="fill:black;stroke:black;" points="3297,613 3303,622 3293,619 3297,613"/>
<text text-anchor="middle" x="3211" y="574">[1.2.9,2.0[</text>
</g>
<g id="edge213" class="edge"><title>net.sourceforge.cobertura/cobertura&#45;&gt;org.objectweb.asm/asm</title>
<path style="fill:none;stroke:black;" d="M3069,456C3021,435 2925,394 2875,372"/>
<polygon style="fill:black;stroke:black;" points="2874,375 2866,368 2877,369 2874,375"/>
<text text-anchor="middle" x="2966" y="429">2.2+</text>
</g>
<g id="node220" class="node"><title>net.sourceforge.dozer/dozer</title>
<ellipse cx="1579" cy="2275" rx="29" ry="18" style="fill:aquamarine;stroke:black;"/>
<text text-anchor="middle" x="1579" y="2280">dozer</text>
</g>
<g id="edge239" class="edge"><title>net.sourceforge.dozer/dozer&#45;&gt;org.apache.commons/commons&#45;collections</title>
<path style="fill:none;stroke:black;" d="M1572,2257C1535,2156 1354,1656 1309,1533"/>
<polygon style="fill:black;stroke:black;" points="1306,1534 1306,1523 1312,1532 1306,1534"/>
<text text-anchor="middle" x="1410" y="1895">[3.1,4.0[</text>
</g>
<g id="edge243" class="edge"><title>net.sourceforge.dozer/dozer&#45;&gt;org.apache.commons/commons&#45;logging</title>
<path style="fill:none;stroke:black;" d="M1607,2280C1786,2312 2770,2487 3032,2533"/>
<polygon style="fill:black;stroke:black;" points="3033,2530 3042,2535 3032,2536 3033,2530"/>
<text text-anchor="middle" x="2323" y="2423">[1.0.3,2.0[</text>
</g>
<g id="edge237" class="edge"><title>net.sourceforge.dozer/dozer&#45;&gt;org.apache.commons/commons&#45;beanutils</title>
<path style="fill:none;stroke:black;" d="M1568,2258C1542,2219 1475,2117 1444,2070"/>
<polygon style="fill:black;stroke:black;" points="1441,2071 1438,2061 1446,2067 1441,2071"/>
<text text-anchor="middle" x="1473" y="2166">[1.7,2.0[</text>
</g>
<g id="edge241" class="edge"><title>net.sourceforge.dozer/dozer&#45;&gt;org.apache.commons/commons&#45;lang</title>
<path style="fill:none;stroke:black;" d="M1595,2290C1630,2324 1713,2403 1756,2443"/>
<polygon style="fill:black;stroke:black;" points="1758,2440 1763,2450 1753,2445 1758,2440"/>
<text text-anchor="middle" x="1678" y="2393">[2.1,3.0[</text>
</g>
</g>
</svg>
