<?xml version="1.0" encoding="UTF-8" standalone="no"?>
<!DOCTYPE svg PUBLIC "-//W3C//DTD SVG 1.0//EN"
 "http://www.w3.org/TR/2001/REC-SVG-20010904/DTD/svg10.dtd">
<!-- Generated by circo version 2.2 (Tue Sep 13 00:37:56 UTC 2005)
     For user: (archie) Archie Cobbs   Title: modules    Pages: 1 -->
<svg width="804pt" height="635pt"
 viewBox = "-1 -1 803 634"
 xmlns="http://www.w3.org/2000/svg">
<g id="graph0" class="graph" transform = "scale(0.288210)"
 style="font-family:Times-Roman;font-size:14.00;">
<title>modules</title>
<g id="node3" class="node"><title>org.testng/testng</title>
<ellipse cx="1491" cy="1104" rx="30" ry="18" style="fill:#bd3eff;stroke:black;"/>
<text text-anchor="middle" x="1491" y="1109">testng</text>
</g>
<g id="node6" class="node"><title>org.codehaus.jaxen/jaxen</title>
<ellipse cx="35" cy="704" rx="29" ry="18" style="fill:#97f6ff;stroke:black;"/>
<text text-anchor="middle" x="35" y="709">jaxen</text>
</g>
<g id="node9" class="node"><title>com.puppycrawl/checkstyle</title>
<ellipse cx="2256" cy="220" rx="42" ry="18" style="fill:gold;stroke:black;"/>
<text text-anchor="middle" x="2256" y="225">checkstyle</text>
</g>
<g id="node11" class="node"><title>org.antlr/antlr</title>
<ellipse cx="2459" cy="597" rx="27" ry="18" style="fill:gold;stroke:black;"/>
<text text-anchor="middle" x="2459" y="602">antlr</text>
</g>
<g id="edge8" class="edge"><title>com.puppycrawl/checkstyle&#45;&gt;org.antlr/antlr</title>
<path style="fill:none;stroke:black;" d="M2266,238C2299,298 2406,499 2445,571"/>
<polygon style="fill:black;stroke:black;" points="2448,570 2450,580 2442,573 2448,570"/>
<text text-anchor="middle" x="2339" y="415">2.7+</text>
</g>
<g id="node13" class="node"><title>org.apache.commons/commons&#45;cli</title>
<ellipse cx="2338" cy="131" rx="49" ry="18" style="fill:gold;stroke:black;"/>
<text text-anchor="middle" x="2338" y="136">commons&#45;cli</text>
</g>
<g id="edge10" class="edge"><title>com.puppycrawl/checkstyle&#45;&gt;org.apache.commons/commons&#45;cli</title>
<path style="fill:none;stroke:black;" d="M2272,203C2285,189 2302,171 2315,156"/>
<polygon style="fill:black;stroke:black;" points="2313,153 2322,148 2318,158 2313,153"/>
<text text-anchor="middle" x="2329" y="182">[1.1,2.0[</text>
</g>
<g id="node15" class="node"><title>org.apache.commons/commons&#45;collections</title>
<ellipse cx="2389" cy="391" rx="73" ry="18" style="fill:gold;stroke:black;"/>
<text text-anchor="middle" x="2389" y="396">commons&#45;collections</text>
</g>
<g id="edge12" class="edge"><title>com.puppycrawl/checkstyle&#45;&gt;org.apache.commons/commons&#45;collections</title>
<path style="fill:none;stroke:black;" d="M2269,237C2293,268 2341,330 2369,365"/>
<polygon style="fill:black;stroke:black;" points="2372,363 2375,373 2366,367 2372,363"/>
<text text-anchor="middle" x="2301" y="311">2.1+</text>
</g>
<g id="node17" class="node"><title>org.apache.commons/commons&#45;logging</title>
<ellipse cx="1648" cy="65" rx="64" ry="18" style="fill:gold;stroke:black;"/>
<text text-anchor="middle" x="1648" y="70">commons&#45;logging</text>
</g>
<g id="edge14" class="edge"><title>com.puppycrawl/checkstyle&#45;&gt;org.apache.commons/commons&#45;logging</title>
<path style="fill:none;stroke:black;" d="M2220,211C2118,185 1830,111 1706,79"/>
<polygon style="fill:black;stroke:black;" points="1705,82 1696,77 1706,76 1705,82"/>
<text text-anchor="middle" x="1958" y="138">1+</text>
</g>
<g id="node19" class="node"><title>org.apache.commons/commons&#45;beanutils</title>
<ellipse cx="2075" cy="101" rx="68" ry="18" style="fill:gold;stroke:black;"/>
<text text-anchor="middle" x="2075" y="106">commons&#45;beanutils</text>
</g>
<g id="edge16" class="edge"><title>com.puppycrawl/checkstyle&#45;&gt;org.apache.commons/commons&#45;beanutils</title>
<path style="fill:none;stroke:black;" d="M2233,205C2202,185 2146,147 2110,124"/>
<polygon style="fill:black;stroke:black;" points="2107,126 2101,118 2111,121 2107,126"/>
<text text-anchor="middle" x="2167" y="181">1.7+</text>
</g>
<g id="edge124" class="edge"><title>org.apache.commons/commons&#45;beanutils&#45;&gt;org.apache.commons/commons&#45;collections</title>
<path style="fill:none;stroke:black;" d="M2094,119C2148,169 2301,310 2363,367"/>
<polygon style="fill:black;stroke:black;" points="2365,364 2370,374 2360,369 2365,364"/>
<text text-anchor="middle" x="2232" y="269">3.+</text>
</g>
<g id="edge122" class="edge"><title>org.apache.commons/commons&#45;beanutils&#45;&gt;org.apache.commons/commons&#45;logging</title>
<path style="fill:none;stroke:black;" d="M2010,96C1932,88 1801,78 1720,71"/>
<polygon style="fill:black;stroke:black;" points="1720,74 1710,70 1720,68 1720,74"/>
<text text-anchor="middle" x="1859" y="97">[1.0,2.0[</text>
</g>
<g id="node22" class="node"><title>org.apache.oro/oro</title>
<ellipse cx="2112" cy="1399" rx="27" ry="18" style="fill:#cda87d;stroke:black;"/>
<text text-anchor="middle" x="2112" y="1404">oro</text>
</g>
<g id="node25" class="node"><title>org.apache.xml/xalan&#45;j</title>
<ellipse cx="647" cy="966" rx="33" ry="18" style="fill:aquamarine;stroke:black;"/>
<text text-anchor="middle" x="647" y="971">xalan&#45;j</text>
</g>
<g id="node27" class="node"><title>org.apache.xerces/xerces</title>
<ellipse cx="1185" cy="917" rx="31" ry="18" style="fill:aquamarine;stroke:black;"/>
<text text-anchor="middle" x="1185" y="922">xerces</text>
</g>
<g id="edge22" class="edge"><title>org.apache.xml/xalan&#45;j&#45;&gt;org.apache.xerces/xerces</title>
<path style="fill:none;stroke:black;" d="M680,963C774,954 1041,930 1144,921"/>
<polygon style="fill:black;stroke:black;" points="1144,918 1154,920 1144,924 1144,918"/>
<text text-anchor="middle" x="917" y="956">2.7+</text>
</g>
<g id="node32" class="node"><title>org.dom4j/dom4j</title>
<ellipse cx="1288" cy="1108" rx="31" ry="18" style="fill:darkorange;stroke:black;"/>
<text text-anchor="middle" x="1288" y="1113">dom4j</text>
</g>
<g id="edge28" class="edge"><title>org.dom4j/dom4j&#45;&gt;org.apache.xerces/xerces</title>
<path style="fill:none;stroke:black;" d="M1279,1091C1260,1058 1221,983 1199,943"/>
<polygon style="fill:black;stroke:black;" points="1196,944 1194,934 1202,941 1196,944"/>
<text text-anchor="middle" x="1206" y="1019">[2.5,3.0[</text>
</g>
<g id="node36" class="node"><title>org.jboss/javassist</title>
<ellipse cx="754" cy="1954" rx="37" ry="18" style="fill:#bd3eff;stroke:black;"/>
<text text-anchor="middle" x="754" y="1959">javassist</text>
</g>
<g id="node39" class="node"><title>net.sourceforge.jsr107cache/jsr107cache</title>
<ellipse cx="1031" cy="703" rx="47" ry="18" style="fill:#97f6ff;stroke:black;"/>
<text text-anchor="middle" x="1031" y="708">jsr107cache</text>
</g>
<g id="node42" class="node"><title>org.mortbay/jetty</title>
<ellipse cx="1585" cy="1007" rx="27" ry="18" style="fill:gold;stroke:black;"/>
<text text-anchor="middle" x="1585" y="1012">jetty</text>
</g>
<g id="node45" class="node"><title>org.mozilla/rhino</title>
<ellipse cx="647" cy="1178" rx="28" ry="18" style="fill:#cda87d;stroke:black;"/>
<text text-anchor="middle" x="647" y="1183">rhino</text>
</g>
<g id="node48" class="node"><title>org.apache.xmlgraphics/batik</title>
<ellipse cx="766" cy="1129" rx="27" ry="18" style="fill:aquamarine;stroke:black;"/>
<text text-anchor="middle" x="766" y="1134">batik</text>
</g>
<g id="edge42" class="edge"><title>org.apache.xmlgraphics/batik&#45;&gt;org.apache.xerces/xerces</title>
<path style="fill:none;stroke:black;" d="M788,1118C856,1083 1069,976 1152,934"/>
<polygon style="fill:black;stroke:black;" points="1151,931 1161,929 1154,937 1151,931"/>
<text text-anchor="middle" x="973" y="1016">2.5+</text>
</g>
<g id="edge40" class="edge"><title>org.apache.xmlgraphics/batik&#45;&gt;org.mozilla/rhino</title>
<path style="fill:none;stroke:black;" d="M743,1139C725,1146 700,1156 680,1164"/>
<polygon style="fill:black;stroke:black;" points="682,1167 671,1168 679,1161 682,1167"/>
<text text-anchor="middle" x="707" y="1171">1.+</text>
</g>
<g id="node53" class="node"><title>com.opensymphony/oscache</title>
<ellipse cx="1449" cy="152" rx="35" ry="18" style="fill:cyan;stroke:black;"/>
<text text-anchor="middle" x="1449" y="157">oscache</text>
</g>
<g id="edge46" class="edge"><title>com.opensymphony/oscache&#45;&gt;org.apache.commons/commons&#45;logging</title>
<path style="fill:none;stroke:black;" d="M1476,140C1508,126 1564,101 1603,84"/>
<polygon style="fill:black;stroke:black;" points="1602,80 1613,80 1605,87 1602,80"/>
<text text-anchor="middle" x="1544" y="103">[1.1,2.0[</text>
</g>
<g id="node56" class="node"><title>org.jgroups/jgroups</title>
<ellipse cx="1290" cy="298" rx="35" ry="18" style="fill:cyan;stroke:black;"/>
<text text-anchor="middle" x="1290" y="303">jgroups</text>
</g>
<g id="edge48" class="edge"><title>com.opensymphony/oscache&#45;&gt;org.jgroups/jgroups</title>
<path style="fill:none;stroke:black;" d="M1432,168C1403,194 1348,245 1315,275"/>
<polygon style="fill:black;stroke:black;" points="1317,278 1307,282 1312,273 1317,278"/>
<text text-anchor="middle" x="1368" y="214">[2.2,3.0[</text>
</g>
<g id="edge108" class="edge"><title>org.jgroups/jgroups&#45;&gt;org.apache.commons/commons&#45;logging</title>
<path style="fill:none;stroke:black;" d="M1312,284C1372,245 1540,135 1613,88"/>
<polygon style="fill:black;stroke:black;" points="1612,85 1622,82 1616,90 1612,85"/>
<text text-anchor="middle" x="1467" y="202">1.1+</text>
</g>
<g id="node59" class="node"><title>com.mysql/mysql&#45;connector&#45;java</title>
<ellipse cx="1631" cy="910" rx="73" ry="18" style="fill:darkorange;stroke:black;"/>
<text text-anchor="middle" x="1631" y="915">mysql&#45;connector&#45;java</text>
</g>
<g id="node62" class="node"><title>org.aopalliance/aopalliance</title>
<ellipse cx="2574" cy="833" rx="45" ry="18" style="fill:#bd3eff;stroke:black;"/>
<text text-anchor="middle" x="2574" y="838">aopalliance</text>
</g>
<g id="node65" class="node"><title>javax.management/jmx</title>
<ellipse cx="2521" cy="1682" rx="27" ry="18" style="fill:#97f6ff;stroke:black;"/>
<text text-anchor="middle" x="2521" y="1687">jmx</text>
</g>
<g id="node67" class="node"><title>javax.management/jmxremote</title>
<ellipse cx="1699" cy="1201" rx="44" ry="18" style="fill:#97f6ff;stroke:black;"/>
<text text-anchor="middle" x="1699" y="1206">jmxremote</text>
</g>
<g id="node70" class="node"><title>javax.mail/javamail</title>
<ellipse cx="2627" cy="1507" rx="38" ry="18" style="fill:gold;stroke:black;"/>
<text text-anchor="middle" x="2627" y="1512">javamail</text>
</g>
<g id="node72" class="node"><title>javax.activation/jaf</title>
<ellipse cx="2725" cy="1603" rx="27" ry="18" style="fill:gold;stroke:black;"/>
<text text-anchor="middle" x="2725" y="1608">jaf</text>
</g>
<g id="edge59" class="edge"><title>javax.mail/javamail&#45;&gt;javax.activation/jaf</title>
<path style="fill:none;stroke:black;" d="M2644,1523C2660,1539 2685,1563 2703,1581"/>
<polygon style="fill:black;stroke:black;" points="2705,1578 2710,1588 2700,1583 2705,1578"/>
<text text-anchor="middle" x="2677" y="1578">[1.1.1,2.0[</text>
</g>
<g id="node75" class="node"><title>org.hibernate/hibernate</title>
<ellipse cx="1448" cy="1255" rx="40" ry="18" style="fill:#cda87d;stroke:black;"/>
<text text-anchor="middle" x="1448" y="1260">hibernate</text>
</g>
<g id="edge86" class="edge"><title>org.hibernate/hibernate&#45;&gt;org.codehaus.jaxen/jaxen</title>
<path style="fill:none;stroke:black;" d="M1418,1243C1233,1171 264,793 69,718"/>
<polygon style="fill:black;stroke:black;" points="68,721 60,714 71,715 68,721"/>
<text text-anchor="middle" x="738" y="996">[1.1,1.2[</text>
</g>
<g id="edge80" class="edge"><title>org.hibernate/hibernate&#45;&gt;org.antlr/antlr</title>
<path style="fill:none;stroke:black;" d="M1471,1240C1605,1153 2284,711 2431,616"/>
<polygon style="fill:black;stroke:black;" points="2429,613 2439,610 2433,619 2429,613"/>
<text text-anchor="middle" x="1955" y="945">[2.7.6,2.8[</text>
</g>
<g id="edge67" class="edge"><title>org.hibernate/hibernate&#45;&gt;org.apache.commons/commons&#45;collections</title>
<path style="fill:none;stroke:black;" d="M1466,1239C1582,1132 2222,545 2362,416"/>
<polygon style="fill:black;stroke:black;" points="2360,413 2370,409 2365,418 2360,413"/>
<text text-anchor="middle" x="1917" y="812">[2.1.1,3.0[</text>
</g>
<g id="edge69" class="edge"><title>org.hibernate/hibernate&#45;&gt;org.apache.commons/commons&#45;logging</title>
<path style="fill:none;stroke:black;" d="M1451,1237C1474,1102 1616,258 1643,93"/>
<polygon style="fill:black;stroke:black;" points="1640,92 1645,83 1646,93 1640,92"/>
<text text-anchor="middle" x="1579" y="666">[1.0.4,1.2[</text>
</g>
<g id="edge73" class="edge"><title>org.hibernate/hibernate&#45;&gt;org.apache.xerces/xerces</title>
<path style="fill:none;stroke:black;" d="M1435,1238C1391,1182 1255,1007 1204,942"/>
<polygon style="fill:black;stroke:black;" points="1201,944 1198,934 1207,940 1201,944"/>
<text text-anchor="middle" x="1284" y="1091">[2.5,3.0[</text>
</g>
<g id="edge71" class="edge"><title>org.hibernate/hibernate&#45;&gt;org.dom4j/dom4j</title>
<path style="fill:none;stroke:black;" d="M1430,1239C1401,1212 1345,1160 1313,1130"/>
<polygon style="fill:black;stroke:black;" points="1310,1132 1305,1123 1315,1127 1310,1132"/>
<text text-anchor="middle" x="1367" y="1203">1.6.1</text>
</g>
<g id="edge84" class="edge"><title>org.hibernate/hibernate&#45;&gt;org.jboss/javassist</title>
<path style="fill:none;stroke:black;" d="M1432,1272C1339,1364 886,1821 777,1931"/>
<polygon style="fill:black;stroke:black;" points="780,1933 770,1938 775,1928 780,1933"/>
<text text-anchor="middle" x="1067" y="1610">[3.4,4.0[</text>
</g>
<g id="edge92" class="edge"><title>org.hibernate/hibernate&#45;&gt;com.opensymphony/oscache</title>
<path style="fill:none;stroke:black;" d="M1448,1237C1448,1108 1449,338 1449,180"/>
<polygon style="fill:black;stroke:black;" points="1446,180 1449,170 1453,180 1446,180"/>
<text text-anchor="middle" x="1423" y="709">[2.1,3.0[</text>
</g>
<g id="edge94" class="edge"><title>org.hibernate/hibernate&#45;&gt;org.jgroups/jgroups</title>
<path style="fill:none;stroke:black;" d="M1445,1237C1426,1119 1319,470 1295,326"/>
<polygon style="fill:black;stroke:black;" points="1292,326 1293,316 1298,325 1292,326"/>
<text text-anchor="middle" x="1337" y="782">[2.2.8,3.0[</text>
</g>
<g id="node77" class="node"><title>net.sourceforge.ehcache/ehcache</title>
<ellipse cx="1150" cy="703" rx="36" ry="18" style="fill:#cda87d;stroke:black;"/>
<text text-anchor="middle" x="1150" y="708">ehcache</text>
</g>
<g id="edge63" class="edge"><title>org.hibernate/hibernate&#45;&gt;net.sourceforge.ehcache/ehcache</title>
<path style="fill:none;stroke:black;" d="M1438,1237C1394,1157 1216,825 1164,729"/>
<polygon style="fill:black;stroke:black;" points="1161,730 1159,720 1167,727 1161,730"/>
<text text-anchor="middle" x="1278" y="985">1.2.3</text>
</g>
<g id="node79" class="node"><title>javax.transaction/jta</title>
<ellipse cx="862" cy="2038" rx="27" ry="18" style="fill:#cda87d;stroke:black;"/>
<text text-anchor="middle" x="862" y="2043">jta</text>
</g>
<g id="edge65" class="edge"><title>org.hibernate/hibernate&#45;&gt;javax.transaction/jta</title>
<path style="fill:none;stroke:black;" d="M1435,1272C1360,1373 970,1895 880,2014"/>
<polygon style="fill:black;stroke:black;" points="883,2016 874,2022 877,2012 883,2016"/>
<text text-anchor="middle" x="1169" y="1653">1.1</text>
</g>
<g id="node86" class="node"><title>net.sourceforge.cglib/cglib</title>
<ellipse cx="1646" cy="1343" rx="27" ry="18" style="fill:#cda87d;stroke:black;"/>
<text text-anchor="middle" x="1646" y="1348">cglib</text>
</g>
<g id="edge76" class="edge"><title>org.hibernate/hibernate&#45;&gt;net.sourceforge.cglib/cglib</title>
<path style="fill:none;stroke:black;" d="M1477,1268C1514,1284 1576,1312 1613,1329"/>
<polygon style="fill:black;stroke:black;" points="1615,1326 1623,1333 1612,1333 1615,1326"/>
<text text-anchor="middle" x="1550" y="1319">2.1.3+</text>
</g>
<g id="node88" class="node"><title>org.apache.log4j/log4j</title>
<ellipse cx="2255" cy="1190" rx="27" ry="18" style="fill:#cda87d;stroke:black;"/>
<text text-anchor="middle" x="2255" y="1195">log4j</text>
</g>
<g id="edge78" class="edge"><title>org.hibernate/hibernate&#45;&gt;org.apache.log4j/log4j</title>
<path style="fill:none;stroke:black;" d="M1487,1252C1624,1241 2083,1204 2218,1193"/>
<polygon style="fill:black;stroke:black;" points="2218,1190 2228,1192 2218,1196 2218,1190"/>
<text text-anchor="middle" x="1856" y="1237">[1.2,1.3[</text>
</g>
<g id="node91" class="node"><title>net.sourceforge.c3p0/c3p0</title>
<ellipse cx="968" cy="2107" rx="27" ry="18" style="fill:#cda87d;stroke:black;"/>
<text text-anchor="middle" x="968" y="2112">c3p0</text>
</g>
<g id="edge82" class="edge"><title>org.hibernate/hibernate&#45;&gt;net.sourceforge.c3p0/c3p0</title>
<path style="fill:none;stroke:black;" d="M1438,1273C1377,1381 1055,1952 983,2081"/>
<polygon style="fill:black;stroke:black;" points="986,2083 978,2090 980,2080 986,2083"/>
<text text-anchor="middle" x="1172" y="1687">[0.9.1,2.0[</text>
</g>
<g id="node95" class="node"><title>net.sourceforge.proxool/proxool</title>
<ellipse cx="1085" cy="2171" rx="35" ry="18" style="fill:#cda87d;stroke:black;"/>
<text text-anchor="middle" x="1085" y="2176">proxool</text>
</g>
<g id="edge88" class="edge"><title>org.hibernate/hibernate&#45;&gt;net.sourceforge.proxool/proxool</title>
<path style="fill:none;stroke:black;" d="M1441,1273C1396,1386 1150,2005 1096,2143"/>
<polygon style="fill:black;stroke:black;" points="1099,2145 1092,2153 1092,2142 1099,2145"/>
<text text-anchor="middle" x="1233" y="1718">[0.8.3,1.1[</text>
</g>
<g id="node97" class="node"><title>net.sourceforge.swarmcache/swarmcache</title>
<ellipse cx="1186" cy="489" rx="47" ry="18" style="fill:#cda87d;stroke:black;"/>
<text text-anchor="middle" x="1186" y="494">swarmcache</text>
</g>
<g id="edge90" class="edge"><title>org.hibernate/hibernate&#45;&gt;net.sourceforge.swarmcache/swarmcache</title>
<path style="fill:none;stroke:black;" d="M1442,1237C1408,1137 1238,639 1195,516"/>
<polygon style="fill:black;stroke:black;" points="1192,518 1192,507 1198,515 1192,518"/>
<text text-anchor="middle" x="1358" y="877">[1.0RC2,2.0[</text>
</g>
<g id="edge186" class="edge"><title>net.sourceforge.ehcache/ehcache&#45;&gt;org.apache.commons/commons&#45;collections</title>
<path style="fill:none;stroke:black;" d="M1182,695C1348,654 2106,462 2328,406"/>
<polygon style="fill:black;stroke:black;" points="2328,403 2338,404 2329,409 2328,403"/>
<text text-anchor="middle" x="1759" y="566">2.1.1</text>
</g>
<g id="edge184" class="edge"><title>net.sourceforge.ehcache/ehcache&#45;&gt;org.apache.commons/commons&#45;logging</title>
<path style="fill:none;stroke:black;" d="M1163,686C1232,597 1545,197 1628,91"/>
<polygon style="fill:black;stroke:black;" points="1625,89 1634,83 1631,93 1625,89"/>
<text text-anchor="middle" x="1378" y="390">1.1+</text>
</g>
<g id="edge188" class="edge"><title>net.sourceforge.ehcache/ehcache&#45;&gt;org.apache.xerces/xerces</title>
<path style="fill:none;stroke:black;" d="M1153,721C1159,759 1173,844 1180,889"/>
<polygon style="fill:black;stroke:black;" points="1183,889 1182,899 1177,890 1183,889"/>
<text text-anchor="middle" x="1150" y="815">2.5.0</text>
</g>
<g id="edge191" class="edge"><title>net.sourceforge.ehcache/ehcache&#45;&gt;net.sourceforge.jsr107cache/jsr107cache</title>
<path style="fill:none;stroke:black;" d="M1114,703C1106,703 1097,703 1088,703"/>
<polygon style="fill:black;stroke:black;" points="1088,706 1078,703 1088,699 1088,706"/>
<text text-anchor="middle" x="1096" y="699">1.0+</text>
</g>
<g id="node120" class="node"><title>org.objectweb.asm/asm</title>
<ellipse cx="1862" cy="1361" rx="27" ry="18" style="fill:#cda87d;stroke:black;"/>
<text text-anchor="middle" x="1862" y="1366">asm</text>
</g>
<g id="edge180" class="edge"><title>net.sourceforge.cglib/cglib&#45;&gt;org.objectweb.asm/asm</title>
<path style="fill:none;stroke:black;" d="M1673,1345C1712,1349 1782,1354 1825,1358"/>
<polygon style="fill:black;stroke:black;" points="1825,1355 1835,1359 1825,1361 1825,1355"/>
<text text-anchor="middle" x="1754" y="1367">1.5.3</text>
</g>
<g id="edge168" class="edge"><title>org.apache.log4j/log4j&#45;&gt;javax.management/jmx</title>
<path style="fill:none;stroke:black;" d="M2264,1207C2304,1279 2459,1568 2507,1656"/>
<polygon style="fill:black;stroke:black;" points="2510,1655 2512,1665 2504,1658 2510,1655"/>
<text text-anchor="middle" x="2354" y="1442">[1.2.1,2.0[</text>
</g>
<g id="edge164" class="edge"><title>org.apache.log4j/log4j&#45;&gt;javax.mail/javamail</title>
<path style="fill:none;stroke:black;" d="M2272,1204C2332,1254 2529,1423 2600,1484"/>
<polygon style="fill:black;stroke:black;" points="2603,1482 2608,1491 2598,1487 2603,1482"/>
<text text-anchor="middle" x="2440" y="1369">[1.4,2.0[</text>
</g>
<g id="node106" class="node"><title>javax.jms/jms</title>
<ellipse cx="2388" cy="1019" rx="27" ry="18" style="fill:aquamarine;stroke:black;"/>
<text text-anchor="middle" x="2388" y="1024">jms</text>
</g>
<g id="edge166" class="edge"><title>org.apache.log4j/log4j&#45;&gt;javax.jms/jms</title>
<path style="fill:none;stroke:black;" d="M2268,1174C2291,1143 2342,1079 2369,1043"/>
<polygon style="fill:black;stroke:black;" points="2366,1041 2375,1035 2372,1045 2366,1041"/>
<text text-anchor="middle" x="2352" y="1111">[1.1,2.0[</text>
</g>
<g id="edge172" class="edge"><title>net.sourceforge.swarmcache/swarmcache&#45;&gt;org.apache.commons/commons&#45;collections</title>
<path style="fill:none;stroke:black;" d="M1232,485C1413,470 2078,417 2309,398"/>
<polygon style="fill:black;stroke:black;" points="2309,395 2319,397 2309,401 2309,395"/>
<text text-anchor="middle" x="1774" y="456">[2.1,3.0[</text>
</g>
<g id="edge174" class="edge"><title>net.sourceforge.swarmcache/swarmcache&#45;&gt;org.apache.commons/commons&#45;logging</title>
<path style="fill:none;stroke:black;" d="M1204,472C1276,407 1537,167 1621,89"/>
<polygon style="fill:black;stroke:black;" points="1619,86 1629,82 1624,91 1619,86"/>
<text text-anchor="middle" x="1416" y="300">[1.1,2.0[</text>
</g>
<g id="edge176" class="edge"><title>net.sourceforge.swarmcache/swarmcache&#45;&gt;org.jgroups/jgroups</title>
<path style="fill:none;stroke:black;" d="M1196,471C1214,438 1254,365 1275,325"/>
<polygon style="fill:black;stroke:black;" points="1272,323 1280,316 1278,326 1272,323"/>
<text text-anchor="middle" x="1207" y="400">[2.2,3.0[</text>
</g>
<g id="node102" class="node"><title>org.springframework/spring</title>
<ellipse cx="2459" cy="813" rx="31" ry="18" style="fill:aquamarine;stroke:black;"/>
<text text-anchor="middle" x="2459" y="818">spring</text>
</g>
<g id="edge100" class="edge"><title>org.springframework/spring&#45;&gt;org.apache.commons/commons&#45;logging</title>
<path style="fill:none;stroke:black;" d="M2442,798C2340,704 1801,206 1674,90"/>
<polygon style="fill:black;stroke:black;" points="1672,93 1667,83 1677,88 1672,93"/>
<text text-anchor="middle" x="2054" y="463">1.+</text>
</g>
<g id="edge98" class="edge"><title>org.springframework/spring&#45;&gt;org.aopalliance/aopalliance</title>
<path style="fill:none;stroke:black;" d="M2489,818C2499,820 2511,822 2523,824"/>
<polygon style="fill:black;stroke:black;" points="2524,821 2533,826 2523,827 2524,821"/>
<text text-anchor="middle" x="2510" y="837">1.+</text>
</g>
<g id="edge102" class="edge"><title>org.springframework/spring&#45;&gt;javax.jms/jms</title>
<path style="fill:none;stroke:black;" d="M2453,831C2441,867 2413,949 2397,991"/>
<polygon style="fill:black;stroke:black;" points="2400,992 2394,1001 2394,990 2400,992"/>
<text text-anchor="middle" x="2437" y="921">1.+</text>
</g>
<g id="node129" class="node"><title>org.apache.commons/commons&#45;dbcp</title>
<ellipse cx="1420" cy="1492" rx="56" ry="18" style="fill:aquamarine;stroke:black;"/>
<text text-anchor="middle" x="1420" y="1497">commons&#45;dbcp</text>
</g>
<g id="node131" class="node"><title>org.apache.commons/commons&#45;pool</title>
<ellipse cx="1603" cy="1492" rx="55" ry="18" style="fill:aquamarine;stroke:black;"/>
<text text-anchor="middle" x="1603" y="1497">commons&#45;pool</text>
</g>
<g id="edge128" class="edge"><title>org.apache.commons/commons&#45;dbcp&#45;&gt;org.apache.commons/commons&#45;pool</title>
<path style="fill:none;stroke:black;" d="M1476,1492C1496,1492 1518,1492 1538,1492"/>
<polygon style="fill:black;stroke:black;" points="1538,1488 1548,1492 1538,1495 1538,1488"/>
<text text-anchor="middle" x="1511" y="1506">1.3+</text>
</g>
<g id="node137" class="node"><title>org.apache.commons/commons&#45;email</title>
<ellipse cx="1713" cy="813" rx="58" ry="18" style="fill:aquamarine;stroke:black;"/>
<text text-anchor="middle" x="1713" y="818">commons&#45;email</text>
</g>
<g id="node139" class="node"><title>org.apache.commons/commons&#45;digester</title>
<ellipse cx="1864" cy="47" rx="64" ry="18" style="fill:aquamarine;stroke:black;"/>
<text text-anchor="middle" x="1864" y="52">commons&#45;digester</text>
</g>
<g id="edge140" class="edge"><title>org.apache.commons/commons&#45;digester&#45;&gt;org.apache.commons/commons&#45;collections</title>
<path style="fill:none;stroke:black;" d="M1889,64C1975,119 2256,304 2355,368"/>
<polygon style="fill:black;stroke:black;" points="2357,365 2363,374 2353,371 2357,365"/>
<text text-anchor="middle" x="2125" y="238">[2.0,4.0[</text>
</g>
<g id="edge136" class="edge"><title>org.apache.commons/commons&#45;digester&#45;&gt;org.apache.commons/commons&#45;logging</title>
<path style="fill:none;stroke:black;" d="M1802,52C1776,54 1746,56 1719,59"/>
<polygon style="fill:black;stroke:black;" points="1719,62 1709,60 1719,56 1719,62"/>
<text text-anchor="middle" x="1754" y="52">1.1+</text>
</g>
<g id="edge138" class="edge"><title>org.apache.commons/commons&#45;digester&#45;&gt;org.apache.commons/commons&#45;beanutils</title>
<path style="fill:none;stroke:black;" d="M1911,59C1943,67 1983,78 2016,86"/>
<polygon style="fill:black;stroke:black;" points="2017,83 2026,88 2016,89 2017,83"/>
<text text-anchor="middle" x="1968" y="90">[1.7,2.0]</text>
</g>
<g id="node157" class="node"><title>net.sourceforge.cobertura/cobertura</title>
<ellipse cx="2073" cy="1308" rx="39" ry="18" style="fill:cyan;stroke:black;"/>
<text text-anchor="middle" x="2073" y="1313">cobertura</text>
</g>
<g id="edge158" class="edge"><title>net.sourceforge.cobertura/cobertura&#45;&gt;org.apache.oro/oro</title>
<path style="fill:none;stroke:black;" d="M2081,1326C2087,1339 2095,1357 2101,1373"/>
<polygon style="fill:black;stroke:black;" points="2104,1371 2105,1382 2098,1374 2104,1371"/>
<text text-anchor="middle" x="2059" y="1359">[2.0.8,3.0[</text>
</g>
<g id="edge156" class="edge"><title>net.sourceforge.cobertura/cobertura&#45;&gt;org.apache.log4j/log4j</title>
<path style="fill:none;stroke:black;" d="M2096,1293C2129,1272 2191,1232 2227,1209"/>
<polygon style="fill:black;stroke:black;" points="2226,1206 2236,1203 2230,1211 2226,1206"/>
<text text-anchor="middle" x="2166" y="1268">[1.2.9,2.0[</text>
</g>
<g id="edge160" class="edge"><title>net.sourceforge.cobertura/cobertura&#45;&gt;org.objectweb.asm/asm</title>
<path style="fill:none;stroke:black;" d="M2039,1317C1999,1327 1936,1342 1897,1352"/>
<polygon style="fill:black;stroke:black;" points="1898,1355 1887,1355 1896,1349 1898,1355"/>
<text text-anchor="middle" x="1962" y="1330">2.2+</text>
</g>
</g>
</svg>
