<?xml version="1.0" encoding="UTF-8" standalone="no"?>
<!DOCTYPE svg PUBLIC "-//W3C//DTD SVG 1.0//EN"
 "http://www.w3.org/TR/2001/REC-SVG-20010904/DTD/svg10.dtd">
<!-- Generated by circo version 2.2 (Tue Sep 13 00:37:56 UTC 2005)
     For user: (archie) Archie Cobbs   Title: modules    Pages: 1 -->
<svg width="804pt" height="754pt"
 viewBox = "-1 -1 803 753"
 xmlns="http://www.w3.org/2000/svg">
<g id="graph0" class="graph" transform = "scale(0.172624)"
 style="font-family:Times-Roman;font-size:14.00;">
<title>modules</title>
<g id="node3" class="node"><title>org.testng/testng</title>
<ellipse cx="2332" cy="2363" rx="30" ry="18" style="fill:#bd3eff;stroke:black;"/>
<text text-anchor="middle" x="2332" y="2368">testng</text>
</g>
<g id="node6" class="node"><title>org.codehaus.jaxen/jaxen</title>
<ellipse cx="35" cy="1588" rx="29" ry="18" style="fill:#97f6ff;stroke:black;"/>
<text text-anchor="middle" x="35" y="1593">jaxen</text>
</g>
<g id="node9" class="node"><title>com.puppycrawl/checkstyle</title>
<ellipse cx="4166" cy="683" rx="42" ry="18" style="fill:gold;stroke:black;"/>
<text text-anchor="middle" x="4166" y="688">checkstyle</text>
</g>
<g id="node11" class="node"><title>org.antlr/antlr</title>
<ellipse cx="4317" cy="918" rx="27" ry="18" style="fill:gold;stroke:black;"/>
<text text-anchor="middle" x="4317" y="923">antlr</text>
</g>
<g id="edge8" class="edge"><title>com.puppycrawl/checkstyle&#45;&gt;org.antlr/antlr</title>
<path style="fill:none;stroke:black;" d="M4177,701C4203,741 4270,844 4301,892"/>
<polygon style="fill:black;stroke:black;" points="4304,891 4306,901 4298,894 4304,891"/>
<text text-anchor="middle" x="4221" y="806">2.7+</text>
</g>
<g id="node13" class="node"><title>org.apache.commons/commons&#45;cli</title>
<ellipse cx="4262" cy="608" rx="49" ry="18" style="fill:gold;stroke:black;"/>
<text text-anchor="middle" x="4262" y="613">commons&#45;cli</text>
</g>
<g id="edge10" class="edge"><title>com.puppycrawl/checkstyle&#45;&gt;org.apache.commons/commons&#45;cli</title>
<path style="fill:none;stroke:black;" d="M4186,667C4200,656 4218,642 4233,630"/>
<polygon style="fill:black;stroke:black;" points="4231,627 4241,624 4235,633 4231,627"/>
<text text-anchor="middle" x="4212" y="635">[1.1,2.0[</text>
</g>
<g id="node15" class="node"><title>org.apache.commons/commons&#45;collections</title>
<ellipse cx="3974" cy="482" rx="73" ry="18" style="fill:gold;stroke:black;"/>
<text text-anchor="middle" x="3974" y="487">commons&#45;collections</text>
</g>
<g id="edge12" class="edge"><title>com.puppycrawl/checkstyle&#45;&gt;org.apache.commons/commons&#45;collections</title>
<path style="fill:none;stroke:black;" d="M4150,666C4116,631 4038,548 3998,507"/>
<polygon style="fill:black;stroke:black;" points="3996,510 3991,500 4001,505 3996,510"/>
<text text-anchor="middle" x="4048" y="588">2.1+</text>
</g>
<g id="node17" class="node"><title>org.apache.commons/commons&#45;logging</title>
<ellipse cx="1781" cy="2379" rx="64" ry="18" style="fill:gold;stroke:black;"/>
<text text-anchor="middle" x="1781" y="2384">commons&#45;logging</text>
</g>
<g id="edge14" class="edge"><title>com.puppycrawl/checkstyle&#45;&gt;org.apache.commons/commons&#45;logging</title>
<path style="fill:none;stroke:black;" d="M4144,698C3924,855 2079,2167 1813,2356"/>
<polygon style="fill:black;stroke:black;" points="1815,2359 1805,2362 1811,2353 1815,2359"/>
<text text-anchor="middle" x="2974" y="1550">1+</text>
</g>
<g id="node19" class="node"><title>org.apache.commons/commons&#45;beanutils</title>
<ellipse cx="3494" cy="204" rx="68" ry="18" style="fill:gold;stroke:black;"/>
<text text-anchor="middle" x="3494" y="209">commons&#45;beanutils</text>
</g>
<g id="edge16" class="edge"><title>com.puppycrawl/checkstyle&#45;&gt;org.apache.commons/commons&#45;beanutils</title>
<path style="fill:none;stroke:black;" d="M4144,667C4045,597 3643,310 3526,227"/>
<polygon style="fill:black;stroke:black;" points="3524,230 3518,221 3528,224 3524,230"/>
<text text-anchor="middle" x="3831" y="465">1.7+</text>
</g>
<g id="edge202" class="edge"><title>org.apache.commons/commons&#45;beanutils&#45;&gt;org.apache.commons/commons&#45;collections</title>
<path style="fill:none;stroke:black;" d="M3523,221C3605,268 3844,407 3936,460"/>
<polygon style="fill:black;stroke:black;" points="3938,457 3945,465 3935,463 3938,457"/>
<text text-anchor="middle" x="3734" y="363">3.+</text>
</g>
<g id="edge200" class="edge"><title>org.apache.commons/commons&#45;beanutils&#45;&gt;org.apache.commons/commons&#45;logging</title>
<path style="fill:none;stroke:black;" d="M3480,222C3328,415 1984,2122 1801,2353"/>
<polygon style="fill:black;stroke:black;" points="1804,2355 1795,2361 1798,2351 1804,2355"/>
<text text-anchor="middle" x="2669" y="1298">[1.0,2.0[</text>
</g>
<g id="node22" class="node"><title>org.apache.oro/oro</title>
<ellipse cx="4243" cy="2556" rx="27" ry="18" style="fill:#cda87d;stroke:black;"/>
<text text-anchor="middle" x="4243" y="2561">oro</text>
</g>
<g id="node25" class="node"><title>org.apache.xml/xalan&#45;j</title>
<ellipse cx="2786" cy="3644" rx="33" ry="18" style="fill:aquamarine;stroke:black;"/>
<text text-anchor="middle" x="2786" y="3649">xalan&#45;j</text>
</g>
<g id="node27" class="node"><title>org.apache.xerces/xerces</title>
<ellipse cx="2943" cy="3051" rx="31" ry="18" style="fill:aquamarine;stroke:black;"/>
<text text-anchor="middle" x="2943" y="3056">xerces</text>
</g>
<g id="edge22" class="edge"><title>org.apache.xml/xalan&#45;j&#45;&gt;org.apache.xerces/xerces</title>
<path style="fill:none;stroke:black;" d="M2791,3626C2813,3542 2908,3182 2935,3079"/>
<polygon style="fill:black;stroke:black;" points="2932,3078 2938,3069 2938,3080 2932,3078"/>
<text text-anchor="middle" x="2847" y="3353">2.7+</text>
</g>
<g id="node29" class="node"><title>org.apache.xml/xml&#45;security</title>
<ellipse cx="1653" cy="2131" rx="49" ry="18" style="fill:aquamarine;stroke:black;"/>
<text text-anchor="middle" x="1653" y="2136">xml&#45;security</text>
</g>
<g id="edge25" class="edge"><title>org.apache.xml/xml&#45;security&#45;&gt;org.apache.commons/commons&#45;logging</title>
<path style="fill:none;stroke:black;" d="M1662,2149C1685,2192 1741,2301 1767,2352"/>
<polygon style="fill:black;stroke:black;" points="1770,2351 1772,2361 1764,2354 1770,2351"/>
<text text-anchor="middle" x="1687" y="2260">[1.0,2.0[</text>
</g>
<g id="node35" class="node"><title>org.dom4j/dom4j</title>
<ellipse cx="3221" cy="3038" rx="31" ry="18" style="fill:darkorange;stroke:black;"/>
<text text-anchor="middle" x="3221" y="3043">dom4j</text>
</g>
<g id="edge31" class="edge"><title>org.dom4j/dom4j&#45;&gt;org.apache.xerces/xerces</title>
<path style="fill:none;stroke:black;" d="M3190,3039C3139,3042 3040,3046 2984,3049"/>
<polygon style="fill:black;stroke:black;" points="2984,3052 2974,3050 2984,3046 2984,3052"/>
<text text-anchor="middle" x="3081" y="3059">[2.5,3.0[</text>
</g>
<g id="node39" class="node"><title>org.jboss/javassist</title>
<ellipse cx="3752" cy="4331" rx="37" ry="18" style="fill:#bd3eff;stroke:black;"/>
<text text-anchor="middle" x="3752" y="4336">javassist</text>
</g>
<g id="node42" class="node"><title>net.sourceforge.jsr107cache/jsr107cache</title>
<ellipse cx="2639" cy="3127" rx="47" ry="18" style="fill:#97f6ff;stroke:black;"/>
<text text-anchor="middle" x="2639" y="3132">jsr107cache</text>
</g>
<g id="node45" class="node"><title>org.mortbay/jetty</title>
<ellipse cx="2647" cy="68" rx="27" ry="18" style="fill:gold;stroke:black;"/>
<text text-anchor="middle" x="2647" y="73">jetty</text>
</g>
<g id="node48" class="node"><title>net.sourceforge.freemarker/freemarker</title>
<ellipse cx="4549" cy="1213" rx="43" ry="18" style="fill:#cda87d;stroke:black;"/>
<text text-anchor="middle" x="4549" y="1218">freemarker</text>
</g>
<g id="node51" class="node"><title>org.mozilla/rhino</title>
<ellipse cx="2982" cy="3720" rx="28" ry="18" style="fill:aquamarine;stroke:black;"/>
<text text-anchor="middle" x="2982" y="3725">rhino</text>
</g>
<g id="node54" class="node"><title>org.apache.xmlgraphics/batik</title>
<ellipse cx="2984" cy="3592" rx="27" ry="18" style="fill:cyan;stroke:black;"/>
<text text-anchor="middle" x="2984" y="3597">batik</text>
</g>
<g id="edge47" class="edge"><title>org.apache.xmlgraphics/batik&#45;&gt;org.apache.xerces/xerces</title>
<path style="fill:none;stroke:black;" d="M2983,3574C2977,3495 2953,3176 2945,3079"/>
<polygon style="fill:black;stroke:black;" points="2942,3079 2944,3069 2948,3079 2942,3079"/>
<text text-anchor="middle" x="2948" y="3328">2.5+</text>
</g>
<g id="edge45" class="edge"><title>org.apache.xmlgraphics/batik&#45;&gt;org.mozilla/rhino</title>
<path style="fill:none;stroke:black;" d="M2984,3610C2983,3631 2983,3667 2982,3692"/>
<polygon style="fill:black;stroke:black;" points="2986,3692 2982,3702 2979,3692 2986,3692"/>
<text text-anchor="middle" x="2971" y="3662">1.+</text>
</g>
<g id="node59" class="node"><title>com.opensymphony/oscache</title>
<ellipse cx="1953" cy="2598" rx="35" ry="18" style="fill:darkorange;stroke:black;"/>
<text text-anchor="middle" x="1953" y="2603">oscache</text>
</g>
<g id="edge51" class="edge"><title>com.opensymphony/oscache&#45;&gt;org.apache.commons/commons&#45;logging</title>
<path style="fill:none;stroke:black;" d="M1940,2581C1910,2543 1837,2450 1801,2405"/>
<polygon style="fill:black;stroke:black;" points="1798,2407 1795,2397 1804,2403 1798,2407"/>
<text text-anchor="middle" x="1836" y="2494">[1.1,2.0[</text>
</g>
<g id="node62" class="node"><title>org.jgroups/jgroups</title>
<ellipse cx="2163" cy="2781" rx="35" ry="18" style="fill:darkorange;stroke:black;"/>
<text text-anchor="middle" x="2163" y="2786">jgroups</text>
</g>
<g id="edge53" class="edge"><title>com.opensymphony/oscache&#45;&gt;org.jgroups/jgroups</title>
<path style="fill:none;stroke:black;" d="M1971,2614C2009,2646 2095,2721 2137,2758"/>
<polygon style="fill:black;stroke:black;" points="2140,2756 2145,2765 2135,2761 2140,2756"/>
<text text-anchor="middle" x="2058" y="2711">[2.2,3.0[</text>
</g>
<g id="edge184" class="edge"><title>org.jgroups/jgroups&#45;&gt;org.apache.commons/commons&#45;logging</title>
<path style="fill:none;stroke:black;" d="M2148,2765C2088,2703 1878,2480 1805,2405"/>
<polygon style="fill:black;stroke:black;" points="1802,2407 1798,2397 1807,2402 1802,2407"/>
<text text-anchor="middle" x="1952" y="2587">1.1+</text>
</g>
<g id="node65" class="node"><title>net.sourceforge.gwt&#45;widget/gwt&#45;sl</title>
<ellipse cx="2168" cy="2363" rx="30" ry="18" style="fill:#bd3eff;stroke:black;"/>
<text text-anchor="middle" x="2168" y="2368">gwt&#45;sl</text>
</g>
<g id="node68" class="node"><title>com.mysql/mysql&#45;connector&#45;java</title>
<ellipse cx="2703" cy="2363" rx="73" ry="18" style="fill:#97f6ff;stroke:black;"/>
<text text-anchor="middle" x="2703" y="2368">mysql&#45;connector&#45;java</text>
</g>
<g id="node71" class="node"><title>org.aopalliance/aopalliance</title>
<ellipse cx="1782" cy="795" rx="45" ry="18" style="fill:gold;stroke:black;"/>
<text text-anchor="middle" x="1782" y="800">aopalliance</text>
</g>
<g id="node74" class="node"><title>javax.management/jmx</title>
<ellipse cx="918" cy="1449" rx="27" ry="18" style="fill:#cda87d;stroke:black;"/>
<text text-anchor="middle" x="918" y="1454">jmx</text>
</g>
<g id="node76" class="node"><title>javax.management/jmxremote</title>
<ellipse cx="2674" cy="1871" rx="44" ry="18" style="fill:#cda87d;stroke:black;"/>
<text text-anchor="middle" x="2674" y="1876">jmxremote</text>
</g>
<g id="node79" class="node"><title>javax.mail/javamail</title>
<ellipse cx="977" cy="1647" rx="38" ry="18" style="fill:aquamarine;stroke:black;"/>
<text text-anchor="middle" x="977" y="1652">javamail</text>
</g>
<g id="node81" class="node"><title>javax.activation/jaf</title>
<ellipse cx="840" cy="1651" rx="27" ry="18" style="fill:aquamarine;stroke:black;"/>
<text text-anchor="middle" x="840" y="1656">jaf</text>
</g>
<g id="edge66" class="edge"><title>javax.mail/javamail&#45;&gt;javax.activation/jaf</title>
<path style="fill:none;stroke:black;" d="M939,1648C920,1649 896,1649 877,1650"/>
<polygon style="fill:black;stroke:black;" points="877,1653 867,1650 877,1646 877,1653"/>
<text text-anchor="middle" x="902" y="1664">[1.1.1,2.0[</text>
</g>
<g id="node84" class="node"><title>org.openxri/openxri</title>
<ellipse cx="1575" cy="1864" rx="34" ry="18" style="fill:cyan;stroke:black;"/>
<text text-anchor="middle" x="1575" y="1869">openxri</text>
</g>
<g id="edge70" class="edge"><title>org.openxri/openxri&#45;&gt;org.apache.commons/commons&#45;logging</title>
<path style="fill:none;stroke:black;" d="M1582,1882C1612,1958 1733,2259 1770,2352"/>
<polygon style="fill:black;stroke:black;" points="1773,2350 1774,2361 1767,2353 1773,2350"/>
<text text-anchor="middle" x="1648" y="2127">[1.0,2.0[</text>
</g>
<g id="edge74" class="edge"><title>org.openxri/openxri&#45;&gt;org.apache.xml/xml&#45;security</title>
<path style="fill:none;stroke:black;" d="M1580,1882C1594,1928 1628,2048 1645,2103"/>
<polygon style="fill:black;stroke:black;" points="1648,2102 1648,2113 1642,2104 1648,2102"/>
<text text-anchor="middle" x="1580" y="2004">[1.3.0,2.0[</text>
</g>
<g id="node87" class="node"><title>org.apache.log4j/log4j</title>
<ellipse cx="1549" cy="1587" rx="27" ry="18" style="fill:cyan;stroke:black;"/>
<text text-anchor="middle" x="1549" y="1592">log4j</text>
</g>
<g id="edge72" class="edge"><title>org.openxri/openxri&#45;&gt;org.apache.log4j/log4j</title>
<path style="fill:none;stroke:black;" d="M1573,1846C1569,1799 1558,1672 1552,1615"/>
<polygon style="fill:black;stroke:black;" points="1549,1615 1551,1605 1555,1615 1549,1615"/>
<text text-anchor="middle" x="1529" y="1731">[1.2.14,1.3[</text>
</g>
<g id="edge255" class="edge"><title>org.apache.log4j/log4j&#45;&gt;javax.management/jmx</title>
<path style="fill:none;stroke:black;" d="M1523,1581C1424,1560 1068,1482 954,1457"/>
<polygon style="fill:black;stroke:black;" points="953,1460 944,1455 954,1454 953,1460"/>
<text text-anchor="middle" x="1233" y="1534">[1.2.1,2.0[</text>
</g>
<g id="edge251" class="edge"><title>org.apache.log4j/log4j&#45;&gt;javax.mail/javamail</title>
<path style="fill:none;stroke:black;" d="M1522,1590C1432,1600 1140,1630 1024,1642"/>
<polygon style="fill:black;stroke:black;" points="1024,1645 1014,1643 1024,1639 1024,1645"/>
<text text-anchor="middle" x="1267" y="1631">[1.4,2.0[</text>
</g>
<g id="node162" class="node"><title>javax.jms/jms</title>
<ellipse cx="1576" cy="1309" rx="27" ry="18" style="fill:#bd3eff;stroke:black;"/>
<text text-anchor="middle" x="1576" y="1314">jms</text>
</g>
<g id="edge253" class="edge"><title>org.apache.log4j/log4j&#45;&gt;javax.jms/jms</title>
<path style="fill:none;stroke:black;" d="M1551,1569C1556,1522 1567,1395 1573,1337"/>
<polygon style="fill:black;stroke:black;" points="1570,1337 1574,1327 1576,1337 1570,1337"/>
<text text-anchor="middle" x="1537" y="1453">[1.1,2.0[</text>
</g>
<g id="node91" class="node"><title>org.hibernate/hibernate&#45;entitymanager</title>
<ellipse cx="4472" cy="1450" rx="82" ry="18" style="fill:darkorange;stroke:black;"/>
<text text-anchor="middle" x="4472" y="1455">hibernate&#45;entitymanager</text>
</g>
<g id="node93" class="node"><title>org.hibernate/hibernate</title>
<ellipse cx="3492" cy="2973" rx="40" ry="18" style="fill:darkorange;stroke:black;"/>
<text text-anchor="middle" x="3492" y="2978">hibernate</text>
</g>
<g id="edge78" class="edge"><title>org.hibernate/hibernate&#45;entitymanager&#45;&gt;org.hibernate/hibernate</title>
<path style="fill:none;stroke:black;" d="M4460,1468C4360,1624 3629,2760 3509,2947"/>
<polygon style="fill:black;stroke:black;" points="3511,2950 3503,2956 3506,2946 3511,2950"/>
<text text-anchor="middle" x="4017" y="2218">[3.2.0,4.0[</text>
</g>
<g id="node95" class="node"><title>org.hibernate/hibernate&#45;commons&#45;annotations</title>
<ellipse cx="4472" cy="1729" rx="103" ry="18" style="fill:darkorange;stroke:black;"/>
<text text-anchor="middle" x="4472" y="1734">hibernate&#45;commons&#45;annotations</text>
</g>
<g id="edge80" class="edge"><title>org.hibernate/hibernate&#45;entitymanager&#45;&gt;org.hibernate/hibernate&#45;commons&#45;annotations</title>
<path style="fill:none;stroke:black;" d="M4472,1468C4472,1516 4472,1644 4472,1701"/>
<polygon style="fill:black;stroke:black;" points="4476,1701 4472,1711 4469,1701 4476,1701"/>
<text text-anchor="middle" x="4441" y="1595">[3.0.0,4.0[</text>
</g>
<g id="node97" class="node"><title>org.hibernate/hibernate&#45;annotations</title>
<ellipse cx="4316" cy="2260" rx="74" ry="18" style="fill:darkorange;stroke:black;"/>
<text text-anchor="middle" x="4316" y="2265">hibernate&#45;annotations</text>
</g>
<g id="edge82" class="edge"><title>org.hibernate/hibernate&#45;entitymanager&#45;&gt;org.hibernate/hibernate&#45;annotations</title>
<path style="fill:none;stroke:black;" d="M4471,1468C4456,1573 4354,2104 4323,2232"/>
<polygon style="fill:black;stroke:black;" points="4326,2233 4321,2242 4320,2232 4326,2233"/>
<text text-anchor="middle" x="4432" y="1860">[3.3.1,4.0[</text>
</g>
<g id="node99" class="node"><title>org.hibernate/hibernate&#45;validator</title>
<ellipse cx="4419" cy="2002" rx="66" ry="18" style="fill:darkorange;stroke:black;"/>
<text text-anchor="middle" x="4419" y="2007">hibernate&#45;validator</text>
</g>
<g id="edge84" class="edge"><title>org.hibernate/hibernate&#45;entitymanager&#45;&gt;org.hibernate/hibernate&#45;validator</title>
<path style="fill:none;stroke:black;" d="M4473,1468C4469,1548 4438,1875 4424,1974"/>
<polygon style="fill:black;stroke:black;" points="4427,1974 4423,1984 4421,1974 4427,1974"/>
<text text-anchor="middle" x="4483" y="1732">[3.0.0,4.0[</text>
</g>
<g id="edge111" class="edge"><title>org.hibernate/hibernate&#45;&gt;org.codehaus.jaxen/jaxen</title>
<path style="fill:none;stroke:black;" d="M3462,2961C3145,2834 406,1736 68,1602"/>
<polygon style="fill:black;stroke:black;" points="67,1605 59,1598 70,1599 67,1605"/>
<text text-anchor="middle" x="1760" y="2297">[1.1,1.2[</text>
</g>
<g id="edge105" class="edge"><title>org.hibernate/hibernate&#45;&gt;org.antlr/antlr</title>
<path style="fill:none;stroke:black;" d="M3499,2955C3574,2769 4214,1173 4306,946"/>
<polygon style="fill:black;stroke:black;" points="4303,944 4310,936 4310,947 4303,944"/>
<text text-anchor="middle" x="3938" y="1952">[2.7.6,2.8[</text>
</g>
<g id="edge92" class="edge"><title>org.hibernate/hibernate&#45;&gt;org.apache.commons/commons&#45;collections</title>
<path style="fill:none;stroke:black;" d="M3496,2955C3536,2744 3918,770 3968,510"/>
<polygon style="fill:black;stroke:black;" points="3965,509 3970,500 3971,510 3965,509"/>
<text text-anchor="middle" x="3701" y="1734">[2.1.1,3.0[</text>
</g>
<g id="edge94" class="edge"><title>org.hibernate/hibernate&#45;&gt;org.apache.commons/commons&#45;logging</title>
<path style="fill:none;stroke:black;" d="M3460,2962C3252,2890 2087,2485 1830,2396"/>
<polygon style="fill:black;stroke:black;" points="1829,2399 1821,2393 1832,2393 1829,2399"/>
<text text-anchor="middle" x="2639" y="2695">[1.0.4,1.2[</text>
</g>
<g id="edge98" class="edge"><title>org.hibernate/hibernate&#45;&gt;org.apache.xerces/xerces</title>
<path style="fill:none;stroke:black;" d="M3454,2978C3353,2993 3086,3030 2983,3046"/>
<polygon style="fill:black;stroke:black;" points="2983,3049 2973,3047 2983,3043 2983,3049"/>
<text text-anchor="middle" x="3212" y="3028">[2.5,3.0[</text>
</g>
<g id="edge96" class="edge"><title>org.hibernate/hibernate&#45;&gt;org.dom4j/dom4j</title>
<path style="fill:none;stroke:black;" d="M3457,2981C3405,2993 3313,3016 3260,3029"/>
<polygon style="fill:black;stroke:black;" points="3260,3032 3250,3031 3259,3026 3260,3032"/>
<text text-anchor="middle" x="3352" y="3023">1.6.1</text>
</g>
<g id="edge109" class="edge"><title>org.hibernate/hibernate&#45;&gt;org.jboss/javassist</title>
<path style="fill:none;stroke:black;" d="M3495,2991C3523,3137 3712,4123 3747,4303"/>
<polygon style="fill:black;stroke:black;" points="3750,4303 3749,4313 3744,4304 3750,4303"/>
<text text-anchor="middle" x="3594" y="3657">[3.4,4.0[</text>
</g>
<g id="edge117" class="edge"><title>org.hibernate/hibernate&#45;&gt;com.opensymphony/oscache</title>
<path style="fill:none;stroke:black;" d="M3457,2964C3252,2914 2216,2662 1995,2608"/>
<polygon style="fill:black;stroke:black;" points="1994,2611 1985,2606 1995,2605 1994,2611"/>
<text text-anchor="middle" x="2721" y="2779">[2.1,3.0[</text>
</g>
<g id="edge119" class="edge"><title>org.hibernate/hibernate&#45;&gt;org.jgroups/jgroups</title>
<path style="fill:none;stroke:black;" d="M3454,2967C3262,2939 2411,2816 2207,2787"/>
<polygon style="fill:black;stroke:black;" points="2207,2790 2197,2786 2207,2784 2207,2790"/>
<text text-anchor="middle" x="2825" y="2871">[2.2.8,3.0[</text>
</g>
<g id="edge103" class="edge"><title>org.hibernate/hibernate&#45;&gt;org.apache.log4j/log4j</title>
<path style="fill:none;stroke:black;" d="M3471,2958C3274,2817 1795,1762 1576,1606"/>
<polygon style="fill:black;stroke:black;" points="1574,1609 1568,1600 1578,1603 1574,1609"/>
<text text-anchor="middle" x="2519" y="2299">[1.2,1.3[</text>
</g>
<g id="node103" class="node"><title>net.sourceforge.ehcache/ehcache</title>
<ellipse cx="2667" cy="3011" rx="36" ry="18" style="fill:darkorange;stroke:black;"/>
<text text-anchor="middle" x="2667" y="3016">ehcache</text>
</g>
<g id="edge88" class="edge"><title>org.hibernate/hibernate&#45;&gt;net.sourceforge.ehcache/ehcache</title>
<path style="fill:none;stroke:black;" d="M3452,2975C3314,2981 2860,3002 2713,3009"/>
<polygon style="fill:black;stroke:black;" points="2713,3012 2703,3009 2713,3005 2713,3012"/>
<text text-anchor="middle" x="3077" y="3007">1.2.3</text>
</g>
<g id="node105" class="node"><title>javax.transaction/jta</title>
<ellipse cx="3883" cy="4292" rx="27" ry="18" style="fill:darkorange;stroke:black;"/>
<text text-anchor="middle" x="3883" y="4297">jta</text>
</g>
<g id="edge90" class="edge"><title>org.hibernate/hibernate&#45;&gt;javax.transaction/jta</title>
<path style="fill:none;stroke:black;" d="M3497,2991C3540,3135 3822,4089 3875,4264"/>
<polygon style="fill:black;stroke:black;" points="3878,4263 3878,4274 3872,4265 3878,4263"/>
<text text-anchor="middle" x="3675" y="3639">1.1</text>
</g>
<g id="node112" class="node"><title>net.sourceforge.cglib/cglib</title>
<ellipse cx="3745" cy="2857" rx="27" ry="18" style="fill:darkorange;stroke:black;"/>
<text text-anchor="middle" x="3745" y="2862">cglib</text>
</g>
<g id="edge101" class="edge"><title>org.hibernate/hibernate&#45;&gt;net.sourceforge.cglib/cglib</title>
<path style="fill:none;stroke:black;" d="M3520,2960C3568,2938 3664,2894 3714,2871"/>
<polygon style="fill:black;stroke:black;" points="3712,2868 3723,2867 3715,2874 3712,2868"/>
<text text-anchor="middle" x="3620" y="2906">2.1.3+</text>
</g>
<g id="node116" class="node"><title>net.sourceforge.c3p0/c3p0</title>
<ellipse cx="4002" cy="4251" rx="27" ry="18" style="fill:darkorange;stroke:black;"/>
<text text-anchor="middle" x="4002" y="4256">c3p0</text>
</g>
<g id="edge107" class="edge"><title>org.hibernate/hibernate&#45;&gt;net.sourceforge.c3p0/c3p0</title>
<path style="fill:none;stroke:black;" d="M3499,2991C3555,3131 3924,4054 3991,4225"/>
<polygon style="fill:black;stroke:black;" points="3994,4223 3995,4234 3988,4226 3994,4223"/>
<text text-anchor="middle" x="3714" y="3618">[0.9.1,2.0[</text>
</g>
<g id="node120" class="node"><title>net.sourceforge.proxool/proxool</title>
<ellipse cx="4127" cy="4202" rx="35" ry="18" style="fill:darkorange;stroke:black;"/>
<text text-anchor="middle" x="4127" y="4207">proxool</text>
</g>
<g id="edge113" class="edge"><title>org.hibernate/hibernate&#45;&gt;net.sourceforge.proxool/proxool</title>
<path style="fill:none;stroke:black;" d="M3501,2991C3572,3127 4028,4011 4113,4175"/>
<polygon style="fill:black;stroke:black;" points="4116,4174 4118,4184 4110,4177 4116,4174"/>
<text text-anchor="middle" x="3775" y="3593">[0.8.3,1.1[</text>
</g>
<g id="node122" class="node"><title>net.sourceforge.swarmcache/swarmcache</title>
<ellipse cx="2404" cy="2920" rx="47" ry="18" style="fill:darkorange;stroke:black;"/>
<text text-anchor="middle" x="2404" y="2925">swarmcache</text>
</g>
<g id="edge115" class="edge"><title>org.hibernate/hibernate&#45;&gt;net.sourceforge.swarmcache/swarmcache</title>
<path style="fill:none;stroke:black;" d="M3452,2971C3287,2962 2654,2932 2461,2923"/>
<polygon style="fill:black;stroke:black;" points="2461,2926 2451,2922 2461,2920 2461,2926"/>
<text text-anchor="middle" x="2951" y="2961">[1.0RC2,2.0[</text>
</g>
<g id="edge144" class="edge"><title>org.hibernate/hibernate&#45;annotations&#45;&gt;org.hibernate/hibernate&#45;entitymanager</title>
<path style="fill:none;stroke:black;" d="M4317,2242C4332,2136 4433,1606 4464,1478"/>
<polygon style="fill:black;stroke:black;" points="4461,1477 4466,1468 4467,1478 4461,1477"/>
<text text-anchor="middle" x="4354" y="1860">[3.3.2,4.0[</text>
</g>
<g id="edge140" class="edge"><title>org.hibernate/hibernate&#45;annotations&#45;&gt;org.hibernate/hibernate</title>
<path style="fill:none;stroke:black;" d="M4296,2278C4184,2374 3644,2841 3519,2950"/>
<polygon style="fill:black;stroke:black;" points="3521,2953 3511,2957 3516,2948 3521,2953"/>
<text text-anchor="middle" x="3902" y="2607">[3.2.0,4.0[</text>
</g>
<g id="edge142" class="edge"><title>org.hibernate/hibernate&#45;annotations&#45;&gt;org.hibernate/hibernate&#45;commons&#45;annotations</title>
<path style="fill:none;stroke:black;" d="M4321,2242C4345,2164 4436,1853 4464,1757"/>
<polygon style="fill:black;stroke:black;" points="4461,1756 4467,1747 4467,1758 4461,1756"/>
<text text-anchor="middle" x="4427" y="2001">[3.0.0,4.0[</text>
</g>
<g id="edge146" class="edge"><title>org.hibernate/hibernate&#45;annotations&#45;&gt;org.hibernate/hibernate&#45;validator</title>
<path style="fill:none;stroke:black;" d="M4323,2242C4341,2197 4387,2082 4408,2029"/>
<polygon style="fill:black;stroke:black;" points="4405,2028 4412,2020 4411,2031 4405,2028"/>
<text text-anchor="middle" x="4333" y="2136">[3.0.0,4.0[</text>
</g>
<g id="edge126" class="edge"><title>org.hibernate/hibernate&#45;validator&#45;&gt;org.hibernate/hibernate&#45;entitymanager</title>
<path style="fill:none;stroke:black;" d="M4418,1984C4421,1904 4452,1577 4466,1478"/>
<polygon style="fill:black;stroke:black;" points="4463,1477 4468,1468 4469,1478 4463,1477"/>
<text text-anchor="middle" x="4407" y="1731">[3.3.2,4.0[</text>
</g>
<g id="edge122" class="edge"><title>org.hibernate/hibernate&#45;validator&#45;&gt;org.hibernate/hibernate</title>
<path style="fill:none;stroke:black;" d="M4402,2020C4289,2138 3646,2811 3515,2948"/>
<polygon style="fill:black;stroke:black;" points="3517,2951 3508,2956 3512,2946 3517,2951"/>
<text text-anchor="middle" x="3915" y="2494">[3.2.0,4.0[</text>
</g>
<g id="edge124" class="edge"><title>org.hibernate/hibernate&#45;validator&#45;&gt;org.hibernate/hibernate&#45;commons&#45;annotations</title>
<path style="fill:none;stroke:black;" d="M4423,1984C4431,1937 4456,1813 4466,1757"/>
<polygon style="fill:black;stroke:black;" points="4463,1756 4468,1747 4469,1757 4463,1756"/>
<text text-anchor="middle" x="4412" y="1871">[3.0.0,4.0[</text>
</g>
<g id="edge299" class="edge"><title>net.sourceforge.ehcache/ehcache&#45;&gt;org.apache.commons/commons&#45;collections</title>
<path style="fill:none;stroke:black;" d="M2676,2994C2785,2785 3826,767 3960,509"/>
<polygon style="fill:black;stroke:black;" points="3957,507 3965,500 3963,510 3957,507"/>
<text text-anchor="middle" x="3301" y="1752">2.1.1</text>
</g>
<g id="edge297" class="edge"><title>net.sourceforge.ehcache/ehcache&#45;&gt;org.apache.commons/commons&#45;logging</title>
<path style="fill:none;stroke:black;" d="M2646,2996C2528,2912 1955,2503 1813,2402"/>
<polygon style="fill:black;stroke:black;" points="1811,2405 1805,2396 1815,2399 1811,2405"/>
<text text-anchor="middle" x="2225" y="2716">1.1+</text>
</g>
<g id="edge301" class="edge"><title>net.sourceforge.ehcache/ehcache&#45;&gt;org.apache.xerces/xerces</title>
<path style="fill:none;stroke:black;" d="M2702,3016C2753,3024 2848,3037 2903,3045"/>
<polygon style="fill:black;stroke:black;" points="2904,3042 2913,3047 2903,3048 2904,3042"/>
<text text-anchor="middle" x="2807" y="3047">2.5.0</text>
</g>
<g id="edge304" class="edge"><title>net.sourceforge.ehcache/ehcache&#45;&gt;net.sourceforge.jsr107cache/jsr107cache</title>
<path style="fill:none;stroke:black;" d="M2663,3029C2659,3047 2651,3077 2646,3099"/>
<polygon style="fill:black;stroke:black;" points="2649,3100 2643,3109 2643,3098 2649,3100"/>
<text text-anchor="middle" x="2637" y="3074">1.0+</text>
</g>
<g id="node185" class="node"><title>org.objectweb.asm/asm</title>
<ellipse cx="3972" cy="2696" rx="27" ry="18" style="fill:#97f6ff;stroke:black;"/>
<text text-anchor="middle" x="3972" y="2701">asm</text>
</g>
<g id="edge267" class="edge"><title>net.sourceforge.cglib/cglib&#45;&gt;org.objectweb.asm/asm</title>
<path style="fill:none;stroke:black;" d="M3764,2844C3804,2815 3898,2748 3945,2715"/>
<polygon style="fill:black;stroke:black;" points="3943,2712 3953,2709 3947,2718 3943,2712"/>
<text text-anchor="middle" x="3857" y="2767">1.5.3</text>
</g>
<g id="edge259" class="edge"><title>net.sourceforge.swarmcache/swarmcache&#45;&gt;org.apache.commons/commons&#45;collections</title>
<path style="fill:none;stroke:black;" d="M2415,2902C2546,2698 3796,759 3957,509"/>
<polygon style="fill:black;stroke:black;" points="3954,507 3962,500 3960,510 3954,507"/>
<text text-anchor="middle" x="3218" y="1707">[2.1,3.0[</text>
</g>
<g id="edge261" class="edge"><title>net.sourceforge.swarmcache/swarmcache&#45;&gt;org.apache.commons/commons&#45;logging</title>
<path style="fill:none;stroke:black;" d="M2385,2904C2295,2826 1915,2495 1809,2403"/>
<polygon style="fill:black;stroke:black;" points="1806,2405 1801,2396 1811,2400 1806,2405"/>
<text text-anchor="middle" x="2093" y="2672">[1.1,2.0[</text>
</g>
<g id="edge263" class="edge"><title>net.sourceforge.swarmcache/swarmcache&#45;&gt;org.jgroups/jgroups</title>
<path style="fill:none;stroke:black;" d="M2378,2905C2333,2880 2243,2828 2195,2799"/>
<polygon style="fill:black;stroke:black;" points="2193,2802 2186,2794 2196,2796 2193,2802"/>
<text text-anchor="middle" x="2282" y="2870">[2.2,3.0[</text>
</g>
<g id="node130" class="node"><title>org.hibernate/hibernate&#45;tools</title>
<ellipse cx="4420" cy="1176" rx="55" ry="18" style="fill:darkorange;stroke:black;"/>
<text text-anchor="middle" x="4420" y="1181">hibernate&#45;tools</text>
</g>
<g id="edge135" class="edge"><title>org.hibernate/hibernate&#45;tools&#45;&gt;net.sourceforge.freemarker/freemarker</title>
<path style="fill:none;stroke:black;" d="M4462,1188C4475,1192 4490,1196 4503,1200"/>
<polygon style="fill:black;stroke:black;" points="4504,1197 4513,1203 4502,1203 4504,1197"/>
<text text-anchor="middle" x="4487" y="1212">[2.3.8,2.4[</text>
</g>
<g id="edge133" class="edge"><title>org.hibernate/hibernate&#45;tools&#45;&gt;org.hibernate/hibernate&#45;entitymanager</title>
<path style="fill:none;stroke:black;" d="M4423,1194C4432,1241 4456,1366 4467,1422"/>
<polygon style="fill:black;stroke:black;" points="4470,1422 4469,1432 4464,1423 4470,1422"/>
<text text-anchor="middle" x="4412" y="1318">[3.3.2,3.4[</text>
</g>
<g id="edge129" class="edge"><title>org.hibernate/hibernate&#45;tools&#45;&gt;org.hibernate/hibernate</title>
<path style="fill:none;stroke:black;" d="M4411,1194C4321,1365 3614,2737 3506,2946"/>
<polygon style="fill:black;stroke:black;" points="3509,2948 3501,2955 3503,2945 3509,2948"/>
<text text-anchor="middle" x="3920" y="2081">[3.2.6,3.3[</text>
</g>
<g id="edge131" class="edge"><title>org.hibernate/hibernate&#45;tools&#45;&gt;org.hibernate/hibernate&#45;annotations</title>
<path style="fill:none;stroke:black;" d="M4418,1194C4406,1322 4334,2075 4319,2232"/>
<polygon style="fill:black;stroke:black;" points="4322,2232 4318,2242 4316,2232 4322,2232"/>
<text text-anchor="middle" x="4337" y="1723">[3.3.1,3.4[</text>
</g>
<g id="node136" class="node"><title>net.sourceforge.jtidy/jtidy</title>
<ellipse cx="4509" cy="1076" rx="27" ry="18" style="fill:darkorange;stroke:black;"/>
<text text-anchor="middle" x="4509" y="1081">jtidy</text>
</g>
<g id="edge137" class="edge"><title>org.hibernate/hibernate&#45;tools&#45;&gt;net.sourceforge.jtidy/jtidy</title>
<path style="fill:none;stroke:black;" d="M4436,1159C4451,1143 4472,1118 4488,1100"/>
<polygon style="fill:black;stroke:black;" points="4486,1097 4495,1092 4491,1102 4486,1097"/>
<text text-anchor="middle" x="4498" y="1132">[8.0,9.0[</text>
</g>
<g id="node144" class="node"><title>org.springframework/spring&#45;security</title>
<ellipse cx="2670" cy="164" rx="55" ry="18" style="fill:#bd3eff;stroke:black;"/>
<text text-anchor="middle" x="2670" y="169">spring&#45;security</text>
</g>
<g id="edge162" class="edge"><title>org.springframework/spring&#45;security&#45;&gt;org.codehaus.jaxen/jaxen</title>
<path style="fill:none;stroke:black;" d="M2641,180C2375,323 342,1422 66,1571"/>
<polygon style="fill:black;stroke:black;" points="67,1574 57,1576 64,1568 67,1574"/>
<text text-anchor="middle" x="1348" y="870">[1.1.1,2.0[</text>
</g>
<g id="edge156" class="edge"><title>org.springframework/spring&#45;security&#45;&gt;org.apache.commons/commons&#45;collections</title>
<path style="fill:none;stroke:black;" d="M2714,175C2908,222 3686,411 3912,467"/>
<polygon style="fill:black;stroke:black;" points="3913,464 3922,469 3912,470 3913,464"/>
<text text-anchor="middle" x="3318" y="338">[3.2,4.0[</text>
</g>
<g id="edge154" class="edge"><title>org.springframework/spring&#45;security&#45;&gt;org.apache.commons/commons&#45;logging</title>
<path style="fill:none;stroke:black;" d="M2663,182C2584,379 1888,2112 1792,2352"/>
<polygon style="fill:black;stroke:black;" points="1795,2353 1788,2361 1789,2350 1795,2353"/>
<text text-anchor="middle" x="2257" y="1278">[1.1.1,2.0[</text>
</g>
<g id="edge164" class="edge"><title>org.springframework/spring&#45;security&#45;&gt;org.mortbay/jetty</title>
<path style="fill:none;stroke:black;" d="M2666,146C2663,132 2657,112 2653,96"/>
<polygon style="fill:black;stroke:black;" points="2650,96 2651,86 2656,95 2650,96"/>
<text text-anchor="middle" x="2630" y="121">[4.2.22,)</text>
</g>
<g id="edge150" class="edge"><title>org.springframework/spring&#45;security&#45;&gt;org.aopalliance/aopalliance</title>
<path style="fill:none;stroke:black;" d="M2647,181C2525,268 1952,674 1813,773"/>
<polygon style="fill:black;stroke:black;" points="1814,776 1804,779 1810,771 1814,776"/>
<text text-anchor="middle" x="2225" y="501">1.+</text>
</g>
<g id="node147" class="node"><title>org.springframework/spring</title>
<ellipse cx="1654" cy="1042" rx="31" ry="18" style="fill:#bd3eff;stroke:black;"/>
<text text-anchor="middle" x="1654" y="1047">spring</text>
</g>
<g id="edge152" class="edge"><title>org.springframework/spring&#45;security&#45;&gt;org.springframework/spring</title>
<path style="fill:none;stroke:black;" d="M2650,181C2523,292 1822,897 1680,1020"/>
<polygon style="fill:black;stroke:black;" points="1682,1023 1672,1027 1677,1018 1682,1023"/>
<text text-anchor="middle" x="2160" y="626">[2.5.3,3.0[</text>
</g>
<g id="node151" class="node"><title>org.apache.commons/commons&#45;codec</title>
<ellipse cx="2407" cy="255" rx="59" ry="18" style="fill:#bd3eff;stroke:black;"/>
<text text-anchor="middle" x="2407" y="260">commons&#45;codec</text>
</g>
<g id="edge158" class="edge"><title>org.springframework/spring&#45;security&#45;&gt;org.apache.commons/commons&#45;codec</title>
<path style="fill:none;stroke:black;" d="M2632,177C2585,193 2507,220 2456,238"/>
<polygon style="fill:black;stroke:black;" points="2457,241 2446,241 2455,235 2457,241"/>
<text text-anchor="middle" x="2538" y="227">[1.3,2.0[</text>
</g>
<g id="node153" class="node"><title>org.apache.commons/commons&#45;lang</title>
<ellipse cx="2946" cy="125" rx="54" ry="18" style="fill:#bd3eff;stroke:black;"/>
<text text-anchor="middle" x="2946" y="130">commons&#45;lang</text>
</g>
<g id="edge160" class="edge"><title>org.springframework/spring&#45;security&#45;&gt;org.apache.commons/commons&#45;lang</title>
<path style="fill:none;stroke:black;" d="M2721,157C2768,150 2836,140 2886,133"/>
<polygon style="fill:black;stroke:black;" points="2886,130 2896,132 2886,136 2886,130"/>
<text text-anchor="middle" x="2807" y="160">[2.4,3.0[</text>
</g>
<g id="node157" class="node"><title>org.openid4java/openid4java</title>
<ellipse cx="1955" cy="576" rx="47" ry="18" style="fill:#bd3eff;stroke:black;"/>
<text text-anchor="middle" x="1955" y="581">openid4java</text>
</g>
<g id="edge166" class="edge"><title>org.springframework/spring&#45;security&#45;&gt;org.openid4java/openid4java</title>
<path style="fill:none;stroke:black;" d="M2642,180C2531,244 2114,484 1990,556"/>
<polygon style="fill:black;stroke:black;" points="1991,559 1981,561 1988,553 1991,559"/>
<text text-anchor="middle" x="2310" y="362">[0.9.4.339,2.0[</text>
</g>
<g id="edge171" class="edge"><title>org.springframework/spring&#45;&gt;org.apache.commons/commons&#45;logging</title>
<path style="fill:none;stroke:black;" d="M1656,1060C1670,1205 1761,2172 1778,2351"/>
<polygon style="fill:black;stroke:black;" points="1781,2351 1779,2361 1775,2351 1781,2351"/>
<text text-anchor="middle" x="1706" y="1716">1.+</text>
</g>
<g id="edge169" class="edge"><title>org.springframework/spring&#45;&gt;org.aopalliance/aopalliance</title>
<path style="fill:none;stroke:black;" d="M1663,1025C1685,982 1742,872 1768,822"/>
<polygon style="fill:black;stroke:black;" points="1765,820 1773,813 1771,823 1765,820"/>
<text text-anchor="middle" x="1702" y="924">1.+</text>
</g>
<g id="edge173" class="edge"><title>org.springframework/spring&#45;&gt;javax.jms/jms</title>
<path style="fill:none;stroke:black;" d="M1649,1060C1635,1106 1600,1227 1584,1281"/>
<polygon style="fill:black;stroke:black;" points="1587,1282 1581,1291 1581,1280 1587,1282"/>
<text text-anchor="middle" x="1601" y="1181">1.+</text>
</g>
<g id="edge289" class="edge"><title>org.openid4java/openid4java&#45;&gt;org.openxri/openxri</title>
<path style="fill:none;stroke:black;" d="M1950,594C1908,736 1634,1664 1583,1836"/>
<polygon style="fill:black;stroke:black;" points="1586,1837 1580,1846 1580,1835 1586,1837"/>
<text text-anchor="middle" x="1733" y="1225">[1.0.1,2.0[</text>
</g>
<g id="edge287" class="edge"><title>org.openid4java/openid4java&#45;&gt;org.apache.log4j/log4j</title>
<path style="fill:none;stroke:black;" d="M1948,594C1899,715 1619,1413 1560,1559"/>
<polygon style="fill:black;stroke:black;" points="1563,1561 1556,1569 1556,1558 1563,1561"/>
<text text-anchor="middle" x="1715" y="1087">[1.2.14,1.3[</text>
</g>
<g id="edge291" class="edge"><title>org.openid4java/openid4java&#45;&gt;net.sourceforge.ehcache/ehcache</title>
<path style="fill:none;stroke:black;" d="M1960,594C2021,802 2584,2729 2659,2983"/>
<polygon style="fill:black;stroke:black;" points="2662,2982 2662,2993 2656,2984 2662,2982"/>
<text text-anchor="middle" x="2278" y="1800">[1.3.0,1.5[</text>
</g>
<g id="edge293" class="edge"><title>org.openid4java/openid4java&#45;&gt;org.springframework/spring</title>
<path style="fill:none;stroke:black;" d="M1944,594C1898,665 1725,932 1670,1017"/>
<polygon style="fill:black;stroke:black;" points="1673,1018 1665,1025 1667,1015 1673,1018"/>
<text text-anchor="middle" x="1767" y="816">[2.0.6,3.0[</text>
</g>
<g id="node178" class="node"><title>net.sourceforge.htmlparser/htmlparser</title>
<ellipse cx="1871" cy="496" rx="43" ry="18" style="fill:cyan;stroke:black;"/>
<text text-anchor="middle" x="1871" y="501">htmlparser</text>
</g>
<g id="edge285" class="edge"><title>org.openid4java/openid4java&#45;&gt;net.sourceforge.htmlparser/htmlparser</title>
<path style="fill:none;stroke:black;" d="M1937,559C1925,548 1909,532 1896,520"/>
<polygon style="fill:black;stroke:black;" points="1893,522 1888,513 1898,517 1893,522"/>
<text text-anchor="middle" x="1912" y="557">1.6</text>
</g>
<g id="node203" class="node"><title>org.apache.commons/commons&#45;httpclient</title>
<ellipse cx="2165" cy="394" rx="69" ry="18" style="fill:gold;stroke:black;"/>
<text text-anchor="middle" x="2165" y="399">commons&#45;httpclient</text>
</g>
<g id="edge283" class="edge"><title>org.openid4java/openid4java&#45;&gt;org.apache.commons/commons&#45;httpclient</title>
<path style="fill:none;stroke:black;" d="M1974,560C2012,528 2095,456 2137,418"/>
<polygon style="fill:black;stroke:black;" points="2135,415 2145,411 2140,420 2135,415"/>
<text text-anchor="middle" x="2059" y="508">[3.0.1,4.0[</text>
</g>
<g id="node170" class="node"><title>com.google/gwt</title>
<ellipse cx="2001" cy="2363" rx="27" ry="18" style="fill:gold;stroke:black;"/>
<text text-anchor="middle" x="2001" y="2368">gwt</text>
</g>
<g id="node194" class="node"><title>org.apache.commons/commons&#45;dbcp</title>
<ellipse cx="2522" cy="2199" rx="56" ry="18" style="fill:gold;stroke:black;"/>
<text text-anchor="middle" x="2522" y="2204">commons&#45;dbcp</text>
</g>
<g id="node196" class="node"><title>org.apache.commons/commons&#45;pool</title>
<ellipse cx="2705" cy="2199" rx="55" ry="18" style="fill:gold;stroke:black;"/>
<text text-anchor="middle" x="2705" y="2204">commons&#45;pool</text>
</g>
<g id="edge206" class="edge"><title>org.apache.commons/commons&#45;dbcp&#45;&gt;org.apache.commons/commons&#45;pool</title>
<path style="fill:none;stroke:black;" d="M2578,2199C2598,2199 2620,2199 2640,2199"/>
<polygon style="fill:black;stroke:black;" points="2640,2195 2650,2199 2640,2202 2640,2195"/>
<text text-anchor="middle" x="2613" y="2213">1.3+</text>
</g>
<g id="edge214" class="edge"><title>org.apache.commons/commons&#45;httpclient&#45;&gt;org.apache.commons/commons&#45;logging</title>
<path style="fill:none;stroke:black;" d="M2162,412C2126,596 1831,2124 1787,2351"/>
<polygon style="fill:black;stroke:black;" points="1790,2352 1785,2361 1784,2351 1790,2352"/>
<text text-anchor="middle" x="1941" y="1392">[1.0.4,2.0[</text>
</g>
<g id="edge216" class="edge"><title>org.apache.commons/commons&#45;httpclient&#45;&gt;org.apache.commons/commons&#45;codec</title>
<path style="fill:none;stroke:black;" d="M2194,378C2238,353 2322,304 2370,276"/>
<polygon style="fill:black;stroke:black;" points="2369,273 2379,271 2372,279 2369,273"/>
<text text-anchor="middle" x="2285" y="345">[1.2,2.0[</text>
</g>
<g id="node210" class="node"><title>org.apache.commons/commons&#45;email</title>
<ellipse cx="2360" cy="2691" rx="58" ry="18" style="fill:gold;stroke:black;"/>
<text text-anchor="middle" x="2360" y="2696">commons&#45;email</text>
</g>
<g id="node212" class="node"><title>org.apache.commons/commons&#45;digester</title>
<ellipse cx="3748" cy="320" rx="64" ry="18" style="fill:gold;stroke:black;"/>
<text text-anchor="middle" x="3748" y="325">commons&#45;digester</text>
</g>
<g id="edge227" class="edge"><title>org.apache.commons/commons&#45;digester&#45;&gt;org.apache.commons/commons&#45;collections</title>
<path style="fill:none;stroke:black;" d="M3772,337C3812,366 3896,426 3942,459"/>
<polygon style="fill:black;stroke:black;" points="3944,456 3950,465 3940,462 3944,456"/>
<text text-anchor="middle" x="3860" y="421">[2.0,4.0[</text>
</g>
<g id="edge223" class="edge"><title>org.apache.commons/commons&#45;digester&#45;&gt;org.apache.commons/commons&#45;logging</title>
<path style="fill:none;stroke:black;" d="M3731,337C3554,524 2015,2134 1805,2354"/>
<polygon style="fill:black;stroke:black;" points="1807,2357 1798,2362 1802,2352 1807,2357"/>
<text text-anchor="middle" x="2742" y="1356">1.1+</text>
</g>
<g id="edge225" class="edge"><title>org.apache.commons/commons&#45;digester&#45;&gt;org.apache.commons/commons&#45;beanutils</title>
<path style="fill:none;stroke:black;" d="M3714,305C3669,284 3588,247 3537,224"/>
<polygon style="fill:black;stroke:black;" points="3536,227 3528,220 3539,221 3536,227"/>
<text text-anchor="middle" x="3621" y="281">[1.7,2.0]</text>
</g>
<g id="node230" class="node"><title>net.sourceforge.cobertura/cobertura</title>
<ellipse cx="4165" cy="2495" rx="39" ry="18" style="fill:#cda87d;stroke:black;"/>
<text text-anchor="middle" x="4165" y="2500">cobertura</text>
</g>
<g id="edge245" class="edge"><title>net.sourceforge.cobertura/cobertura&#45;&gt;org.apache.oro/oro</title>
<path style="fill:none;stroke:black;" d="M4185,2511C4194,2519 4206,2528 4217,2536"/>
<polygon style="fill:black;stroke:black;" points="4219,2533 4225,2542 4215,2539 4219,2533"/>
<text text-anchor="middle" x="4204" y="2548">[2.0.8,3.0[</text>
</g>
<g id="edge243" class="edge"><title>net.sourceforge.cobertura/cobertura&#45;&gt;org.apache.log4j/log4j</title>
<path style="fill:none;stroke:black;" d="M4134,2484C3860,2389 1868,1698 1583,1598"/>
<polygon style="fill:black;stroke:black;" points="1582,1601 1573,1595 1584,1595 1582,1601"/>
<text text-anchor="middle" x="2853" y="2057">[1.2.9,2.0[</text>
</g>
<g id="edge247" class="edge"><title>net.sourceforge.cobertura/cobertura&#45;&gt;org.objectweb.asm/asm</title>
<path style="fill:none;stroke:black;" d="M4149,2512C4114,2548 4033,2633 3994,2674"/>
<polygon style="fill:black;stroke:black;" points="3997,2676 3987,2681 3992,2671 3997,2676"/>
<text text-anchor="middle" x="4045" y="2602">2.2+</text>
</g>
<g id="node249" class="node"><title>net.sourceforge.dozer/dozer</title>
<ellipse cx="3224" cy="138" rx="29" ry="18" style="fill:#bd3eff;stroke:black;"/>
<text text-anchor="middle" x="3224" y="143">dozer</text>
</g>
<g id="edge273" class="edge"><title>net.sourceforge.dozer/dozer&#45;&gt;org.apache.commons/commons&#45;collections</title>
<path style="fill:none;stroke:black;" d="M3248,149C3355,198 3790,398 3930,462"/>
<polygon style="fill:black;stroke:black;" points="3931,459 3939,466 3928,465 3931,459"/>
<text text-anchor="middle" x="3593" y="326">[3.1,4.0[</text>
</g>
<g id="edge277" class="edge"><title>net.sourceforge.dozer/dozer&#45;&gt;org.apache.commons/commons&#45;logging</title>
<path style="fill:none;stroke:black;" d="M3213,155C3090,346 1952,2114 1798,2352"/>
<polygon style="fill:black;stroke:black;" points="1800,2355 1792,2361 1795,2351 1800,2355"/>
<text text-anchor="middle" x="2538" y="1264">[1.0.3,2.0[</text>
</g>
<g id="edge271" class="edge"><title>net.sourceforge.dozer/dozer&#45;&gt;org.apache.commons/commons&#45;beanutils</title>
<path style="fill:none;stroke:black;" d="M3251,145C3293,155 3377,176 3434,190"/>
<polygon style="fill:black;stroke:black;" points="3435,187 3444,192 3434,193 3435,187"/>
<text text-anchor="middle" x="3347" y="185">[1.7,2.0[</text>
</g>
<g id="edge275" class="edge"><title>net.sourceforge.dozer/dozer&#45;&gt;org.apache.commons/commons&#45;lang</title>
<path style="fill:none;stroke:black;" d="M3195,137C3152,134 3068,130 3010,128"/>
<polygon style="fill:black;stroke:black;" points="3010,131 3000,127 3010,125 3010,131"/>
<text text-anchor="middle" x="3097" y="146">[2.1,3.0[</text>
</g>
</g>
</svg>
